<svg xmlns="http://www.w3.org/2000/svg" viewBox="0 0 235.17 59"><defs><style>.cls-1{fill:#003087;}.cls-2{fill:#f2f2f2;}.cls-3{fill:#005eb8;}</style></defs><g id="Layer_2" data-name="Layer 2"><g id="Layer_1-2" data-name="Layer 1"><rect class="cls-1" y="4" width="234.79" height="55" rx="4"/><rect class="cls-2" width="235.17" height="55" rx="4"/><rect class="cls-2" x="16.9" y="2" width="218.27" height="51"/><rect class="cls-2" x="16" y="14" width="200.79" height="27"/><path class="cls-3" d="M27.33,33.89a13.83,13.83,0,0,1-3.06.42c-4.6,0-7.37-2.38-7.37-6.71,0-4.54,2.75-7.18,7.37-7.18a8.78,8.78,0,0,1,3,.56l-.19,2.27a5.53,5.53,0,0,0-2.91-.71c-2.71,0-4.5,2.05-4.5,4.86s1.77,4.79,4.56,4.79a7.64,7.64,0,0,0,2.95-.55Z"/><path class="cls-3" d="M33.63,34.31a4.89,4.89,0,0,1-5.18-5.12,5,5,0,0,1,5.18-5.25,5,5,0,0,1,5.19,5.25A4.89,4.89,0,0,1,33.63,34.31Zm2.5-5.42c0-1.58-.85-2.95-2.5-2.95s-2.49,1.39-2.49,2.95c0,2.09.81,3.42,2.49,3.42S36.13,31,36.13,28.89Z"/><path class="cls-3" d="M47.37,34.08V28.52c0-1.48-.31-2.58-1.67-2.58-1.64,0-2.27,1.58-2.27,3.33v4.81H40.85V24.17h2.44v1.35h0a3.7,3.7,0,0,1,3.25-1.58c2.27,0,3.37,1.56,3.37,3.89v6.25Z"/><path class="cls-3" d="M58.5,34.08a6.93,6.93,0,0,1-1.89.23,2.92,2.92,0,0,1-3.16-3.21v-5h-1.9V24.17h1.9v-2L56,21.36v2.81h2.29v1.89H56v4.6c0,1,.33,1.65,1.23,1.65A2.31,2.31,0,0,0,58.42,32Z"/><path class="cls-3" d="M60.15,22.36V19.9h2.58v2.46Zm0,11.72V24.17h2.58v9.91Z"/><path class="cls-3" d="M72,34.08V28.52c0-1.48-.31-2.58-1.68-2.58-1.63,0-2.27,1.58-2.27,3.33v4.81H65.45V24.17h2.44v1.35h0a3.69,3.69,0,0,1,3.25-1.58c2.27,0,3.37,1.56,3.37,3.89v6.25Z"/><path class="cls-3" d="M83.86,34.08V32.73h0a4.12,4.12,0,0,1-3.25,1.58c-2.21,0-3.36-1.48-3.36-3.89V24.17h2.57v5.66c0,2,.73,2.48,1.68,2.48,1.56,0,2.27-1.44,2.27-3.35V24.17h2.58v9.91Z"/><path class="cls-3" d="M96.91,33.52a6.76,6.76,0,0,1-3.38.79c-3.29,0-5.2-1.88-5.2-5.14,0-2.77,1.44-5.23,4.6-5.23,3.37,0,4.71,2.08,4.71,6H90.79a2.6,2.6,0,0,0,2.85,2.51,6.76,6.76,0,0,0,3.27-1Zm-1.73-5.37c-.09-1.42-.77-2.32-2.12-2.32a2.24,2.24,0,0,0-2.27,2.32Z"/><path class="cls-3" d="M110.91,34.08a6.93,6.93,0,0,1-1.89.23,2.91,2.91,0,0,1-3.15-3.21v-5H104V24.17h1.91v-2l2.57-.83v2.81h2.29v1.89h-2.29v4.6c0,1,.33,1.65,1.24,1.65a2.3,2.3,0,0,0,1.15-.27Z"/><path class="cls-3" d="M117.05,34.31a4.89,4.89,0,0,1-5.18-5.12,5.19,5.19,0,1,1,10.37,0A4.89,4.89,0,0,1,117.05,34.31Zm2.5-5.42c0-1.58-.85-2.95-2.5-2.95s-2.48,1.39-2.48,2.95c0,2.09.8,3.42,2.48,3.42S119.55,31,119.55,28.89Z"/><path class="cls-3" d="M137.47,34.08l-5.14-10h0v10h-2.58V20.65H133l5.12,10h0v-10h2.58V34.08Z"/><path class="cls-3" d="M151.83,34.08V28.19h-5.39v5.89h-2.69V20.65h2.69v5.43h5.39V20.65h2.69V34.08Z"/><path class="cls-3" d="M157.66,31.37a6.48,6.48,0,0,0,3,.82c1,0,2.39-.5,2.39-1.73,0-1-.91-1.46-2.24-2-1.78-.69-3.65-1.44-3.65-4,0-2.89,2.17-4.1,4.71-4.1a10,10,0,0,1,3.2.48l-.25,2.21a7.07,7.07,0,0,0-2.73-.57c-1,0-2.12.46-2.12,1.86,0,1,1.15,1.41,2.27,1.85,1.81.67,3.62,1.5,3.62,4s-1.85,4.06-5.06,4.06a11.82,11.82,0,0,1-3.43-.52Z"/><path class="cls-3" d="M173.52,34.08V19.65h2.58V34.08Z"/><path class="cls-3" d="M183.36,34.31a4.89,4.89,0,0,1-5.18-5.12,5.19,5.19,0,1,1,10.37,0A4.89,4.89,0,0,1,183.36,34.31Zm2.5-5.42c0-1.58-.85-2.95-2.5-2.95s-2.49,1.39-2.49,2.95c0,2.09.81,3.42,2.49,3.42S185.86,31,185.86,28.89Z"/><path class="cls-3" d="M197.1,32.5h0A3.53,3.53,0,0,1,194,34.08c-2.73,0-4-2.08-4-5,0-2.39,1.23-5.14,4.19-5.14a3.3,3.3,0,0,1,3.05,1.58h0V24.17h2.47v9c0,3.35-1.74,5.19-5.2,5.19a8.68,8.68,0,0,1-3.46-.67l.21-2.2a7.12,7.12,0,0,0,2.9.87c2.43,0,3-1.56,3-3.62Zm0-3.48c0-1.52-.54-3.08-2.18-3.08s-2.29,1.33-2.29,3.14c0,1.34.72,3,2.2,3C196.48,32.08,197.1,30.62,197.1,29Z"/><path class="cls-3" d="M202.39,22.36V19.9H205v2.46Zm0,11.72V24.17H205v9.91Z"/><path class="cls-3" d="M214.21,34.08V28.52c0-1.48-.31-2.58-1.67-2.58-1.64,0-2.28,1.58-2.28,3.33v4.81h-2.57V24.17h2.44v1.35h0a3.69,3.69,0,0,1,3.25-1.58c2.27,0,3.37,1.56,3.37,3.89v6.25Z"/></g></g></svg>