<svg xmlns="http://www.w3.org/2000/svg" viewBox="0 0 114.55 59"><defs><style>.cls-1{fill:#003087;}.cls-2{fill:#ffeb3b;}</style></defs><g id="Layer_2" data-name="Layer 2"><g id="Layer_1-2" data-name="Layer 1"><rect class="cls-1" y="4" width="114.55" height="55" rx="4"/><rect class="cls-2" width="114.55" height="55" rx="4"/><rect class="cls-2" x="16.9" y="2" width="95.98" height="51"/><rect class="cls-2" x="16" y="14" width="81.65" height="27"/><path class="cls-1" d="M27.33,33.89a13.83,13.83,0,0,1-3.06.42c-4.6,0-7.37-2.38-7.37-6.71,0-4.54,2.76-7.18,7.37-7.18a9,9,0,0,1,3,.56l-.19,2.27a5.51,5.51,0,0,0-2.9-.71c-2.72,0-4.51,2.06-4.51,4.87s1.77,4.79,4.56,4.79a7.43,7.43,0,0,0,2.95-.56Z"/><path class="cls-1" d="M33.63,34.31a4.89,4.89,0,0,1-5.18-5.11,5,5,0,0,1,5.18-5.26,5,5,0,0,1,5.19,5.26A4.89,4.89,0,0,1,33.63,34.31Zm2.5-5.42c0-1.58-.85-2.94-2.5-2.94s-2.48,1.38-2.48,2.94c0,2.1.8,3.42,2.48,3.42S36.13,31,36.13,28.89Z"/><path class="cls-1" d="M47.37,34.08V28.52C47.37,27,47.06,26,45.7,26c-1.64,0-2.27,1.57-2.27,3.32v4.81H40.85V24.17h2.44v1.35h0a3.72,3.72,0,0,1,3.25-1.58c2.27,0,3.37,1.56,3.37,3.89v6.25Z"/><path class="cls-1" d="M58.5,34.08a6.56,6.56,0,0,1-1.89.23,2.92,2.92,0,0,1-3.16-3.21v-5h-1.9V24.17h1.9v-2L56,21.37v2.8h2.29v1.89H56v4.6c0,1,.33,1.65,1.23,1.65A2.21,2.21,0,0,0,58.42,32Z"/><path class="cls-1" d="M60.15,22.37V19.9h2.58v2.47Zm0,11.71V24.17h2.58v9.91Z"/><path class="cls-1" d="M72,34.08V28.52C72,27,71.66,26,70.3,26,68.66,26,68,27.52,68,29.27v4.81H65.45V24.17h2.44v1.35h0a3.71,3.71,0,0,1,3.25-1.58c2.27,0,3.37,1.56,3.37,3.89v6.25Z"/><path class="cls-1" d="M83.86,34.08V32.74h0a4.14,4.14,0,0,1-3.26,1.57c-2.21,0-3.36-1.48-3.36-3.88V24.17h2.58v5.66c0,2,.73,2.48,1.67,2.48,1.56,0,2.27-1.44,2.27-3.34v-4.8h2.58v9.91Z"/><path class="cls-1" d="M96.91,33.53a6.76,6.76,0,0,1-3.38.78c-3.29,0-5.2-1.88-5.2-5.13,0-2.77,1.45-5.24,4.6-5.24,3.37,0,4.72,2.08,4.72,6H90.8a2.58,2.58,0,0,0,2.84,2.5,6.66,6.66,0,0,0,3.27-1Zm-1.73-5.37c-.09-1.43-.77-2.33-2.11-2.33a2.24,2.24,0,0,0-2.27,2.33Z"/></g></g></svg>