<svg xmlns="http://www.w3.org/2000/svg" viewBox="0 0 320.22 59"><defs><style>.cls-1{fill:#003087;}.cls-2{fill:#005eb8;}.cls-3{font-size:19.25px;font-family:FrutigerLTStd-Bold, Frutiger LT Std;font-weight:700;}.cls-3,.cls-4{fill:#fff;}</style></defs><g id="Layer_2" data-name="Layer 2"><g id="Layer_1-2" data-name="Layer 1"><rect class="cls-1" y="4" width="320.22" height="55" rx="4"/><rect class="cls-2" width="320.22" height="55" rx="4"/><rect class="cls-2" x="2" y="2" width="317.84" height="51"/><rect class="cls-2" x="101.05" y="14" width="200.79" height="27"/><text class="cls-3" transform="translate(101.05 34.08)">Continue to NHS login</text><polygon class="cls-2" points="18.54 14.54 18.54 40.46 84.42 40.46 84.42 14.54 18.54 14.54 18.54 14.54"/><path class="cls-4" d="M85.05,41V14H18V41ZM45,16.61,40.33,38.34H33.07l-4.57-15h-.06l-3,15H19.89l4.67-21.73h7.28l4.48,15.07h.06l3.07-15.07Zm20.77,0L61.2,38.34H55.35L57.29,29H50.37l-1.94,9.31H42.58l4.54-21.73H53l-1.72,8.31h6.91l1.72-8.31Zm16.81.59-1.41,4.33a11,11,0,0,0-4.82-1c-2.31,0-4.19.34-4.19,2.09,0,3.08,8.48,1.93,8.48,8.53,0,6-5.6,7.56-10.67,7.56a24.58,24.58,0,0,1-6.76-1.12l1.38-4.42a11.37,11.37,0,0,0,5.38,1.25c1.81,0,4.66-.35,4.66-2.59,0-3.49-8.48-2.18-8.48-8.31,0-5.61,4.94-7.29,9.73-7.29a17.91,17.91,0,0,1,6.7,1Z"/></g></g></svg>