<svg xmlns="http://www.w3.org/2000/svg" xmlns:xlink="http://www.w3.org/1999/xlink" viewBox="0 0 378.69 158.09"><defs><style>.cls-1{fill:none;}.cls-2{fill:#fff;}.cls-3{clip-path:url(#clip-path);}.cls-4{fill:#006544;}.cls-5{fill:#033f85;}.cls-6{fill:#475c6d;}.cls-7{fill:#bf0078;}.cls-8{fill:#770a48;}.cls-9{fill:#22376d;}.cls-10{fill:#075ba7;}.cls-11{fill:#e42313;}.cls-12{fill:#1d1d1b;}</style><clipPath id="clip-path" transform="translate(0 0)"><rect class="cls-1" width="192.73" height="158.09"/></clipPath></defs><g id="Layer_2" data-name="Layer 2"><g id="Layer_1-2" data-name="Layer 1"><rect class="cls-2" x="2.62" y="22.78" width="72.7" height="131.58"/><rect class="cls-2" x="115.73" y="22.78" width="72.7" height="131.58"/><g class="cls-3"><path class="cls-4" d="M4.09,8.56.39,5a1.31,1.31,0,0,1,0-1.84,1.29,1.29,0,0,1,1.83,0L4.08,4.92,8.68.37A1.3,1.3,0,0,1,10.5,2.22Z" transform="translate(0 0)"/><path class="cls-5" d="M51.33,29.78H28a2.34,2.34,0,1,1,0-4.67H51.33a2.34,2.34,0,0,1,0,4.67" transform="translate(0 0)"/><path class="cls-5" d="M67.66,29.78H65.32a2.34,2.34,0,0,1,0-4.67h2.34a2.34,2.34,0,0,1,0,4.67" transform="translate(0 0)"/><path class="cls-5" d="M36.77,141.76A1.78,1.78,0,0,0,35,143.53v1.13a1.78,1.78,0,0,0,1.78,1.77h5.79a1.78,1.78,0,0,0,1.77-1.77v-1.13a1.78,1.78,0,0,0-1.77-1.77Zm5.79,9.33h-5.8a6.44,6.44,0,0,1-6.43-6.43v-1.13a6.44,6.44,0,0,1,6.44-6.43h5.79A6.44,6.44,0,0,1,49,143.53v1.13a6.44,6.44,0,0,1-6.43,6.43" transform="translate(0 0)"/><path class="cls-5" d="M8.43,22.78a3.76,3.76,0,0,0-3.76,3.77V149.66a3.76,3.76,0,0,0,3.76,3.77H70.89a3.76,3.76,0,0,0,3.76-3.77V26.55a3.76,3.76,0,0,0-3.76-3.77ZM70.89,158.09H8.43A8.44,8.44,0,0,1,0,149.66V26.55a8.44,8.44,0,0,1,8.43-8.43H70.89a8.44,8.44,0,0,1,8.43,8.43V149.66a8.44,8.44,0,0,1-8.43,8.43" transform="translate(0 0)"/><path class="cls-5" d="M4.67,130.1h70V36.78h-70ZM77,134.76H2.33A2.33,2.33,0,0,1,0,132.43v-98a2.34,2.34,0,0,1,2.33-2.34H77a2.33,2.33,0,0,1,2.33,2.34v98A2.33,2.33,0,0,1,77,134.76" transform="translate(0 0)"/></g><path class="cls-6" d="M12.87,76.85a1.64,1.64,0,0,0,1.06-.37,2.4,2.4,0,0,0,.23-1.34V69.75a1.36,1.36,0,0,0-.22-.94,1.78,1.78,0,0,0-1-.26v-.24h2.62l3.06,6.61,3-6.61h2.64v.24a1.64,1.64,0,0,0-1,.27,1.42,1.42,0,0,0-.21.93v5.9a1.4,1.4,0,0,0,.21.93,1.64,1.64,0,0,0,1,.27v.25H20.48v-.25a1.6,1.6,0,0,0,1-.29,1.82,1.82,0,0,0,.2-1.06v-6L18.27,77.1h-.18l-3.34-7.26v5.3a2.13,2.13,0,0,0,.32,1.42,1.57,1.57,0,0,0,.92.29v.25H12.87Z" transform="translate(0 0)"/><path class="cls-6" d="M24.72,71.13h2.74v.19a1.4,1.4,0,0,0-.48.06.34.34,0,0,0-.3.33.58.58,0,0,0,0,.19,2.28,2.28,0,0,0,.12.29l1.5,3.25,1.24-3.27.06-.24c0-.13,0-.21,0-.26a.29.29,0,0,0-.12-.25.66.66,0,0,0-.3-.09h-.2v-.19h1.79v.19a.6.6,0,0,0-.4.18,1.34,1.34,0,0,0-.23.43l-2.05,5.41a8.2,8.2,0,0,1-1,2,1.51,1.51,0,0,1-1.24.63,1.36,1.36,0,0,1-.68-.18.62.62,0,0,1-.32-.58.55.55,0,0,1,.19-.42.72.72,0,0,1,.48-.17,1.46,1.46,0,0,1,.5.13,1.58,1.58,0,0,0,.47.12c.24,0,.49-.29.75-.88a3.81,3.81,0,0,0,.4-1.16.78.78,0,0,0,0-.14.54.54,0,0,0,0-.15l-2.05-4.42a2.2,2.2,0,0,0-.38-.64.89.89,0,0,0-.49-.19Z" transform="translate(0 0)"/><path class="cls-6" d="M31.39,76.85a1.77,1.77,0,0,0,1-.29,1.77,1.77,0,0,0,.19-1.06V69.75a1.4,1.4,0,0,0-.21-.93,1.71,1.71,0,0,0-1-.27v-.24h3.69v.24a1.67,1.67,0,0,0-.95.27,1.39,1.39,0,0,0-.22.93v2.58h4V69.75a1.33,1.33,0,0,0-.22-.93,1.64,1.64,0,0,0-.95-.27v-.24h3.68v.24a1.7,1.7,0,0,0-1,.27,1.4,1.4,0,0,0-.21.93v5.91a1.35,1.35,0,0,0,.21.92,1.7,1.7,0,0,0,1,.27v.25H36.78v-.25a1.79,1.79,0,0,0,1-.28A1.92,1.92,0,0,0,38,75.5V72.92h-4v2.74a1.39,1.39,0,0,0,.22.93,1.77,1.77,0,0,0,.95.26v.25H31.39Z" transform="translate(0 0)"/><path class="cls-6" d="M45.42,71.64a2.33,2.33,0,0,1,.69,1.8H42a3.45,3.45,0,0,0,.68,2.19,1.92,1.92,0,0,0,1.46.68A1.89,1.89,0,0,0,45.28,76a3.65,3.65,0,0,0,.86-1l.23.07a3.72,3.72,0,0,1-1,1.53,2.45,2.45,0,0,1-1.78.7,2.17,2.17,0,0,1-1.89-.92A3.54,3.54,0,0,1,41,74.21,3.41,3.41,0,0,1,41.81,72a2.46,2.46,0,0,1,2-.95A2.29,2.29,0,0,1,45.42,71.64Zm-3.11.5A2.75,2.75,0,0,0,42,73h2.73a2.66,2.66,0,0,0-.24-1,1.14,1.14,0,0,0-1.07-.58A1.24,1.24,0,0,0,42.31,72.14Z" transform="translate(0 0)"/><path class="cls-6" d="M48.1,74.24a13.69,13.69,0,0,1,2.38-1.06v-.55a2.2,2.2,0,0,0-.13-.92.92.92,0,0,0-.91-.44,1.29,1.29,0,0,0-.63.17.54.54,0,0,0-.3.48,1.85,1.85,0,0,0,0,.26,2.07,2.07,0,0,1,0,.24.55.55,0,0,1-.24.51A.63.63,0,0,1,48,73a.55.55,0,0,1-.45-.19.68.68,0,0,1-.15-.43,1.33,1.33,0,0,1,.56-1A2.4,2.4,0,0,1,49.61,71a1.78,1.78,0,0,1,1.71.81,2.86,2.86,0,0,1,.24,1.31v2.6a2,2,0,0,0,0,.52.34.34,0,0,0,.35.25.62.62,0,0,0,.25,0c.06,0,.17-.11.33-.22v.33a1.93,1.93,0,0,1-.44.42,1.33,1.33,0,0,1-.74.24.71.71,0,0,1-.64-.28,1.28,1.28,0,0,1-.22-.68,6,6,0,0,1-.84.63,2.17,2.17,0,0,1-1.12.35,1.34,1.34,0,0,1-1-.39,1.32,1.32,0,0,1-.41-1A1.84,1.84,0,0,1,48.1,74.24Zm2.38-.74a6,6,0,0,0-1.23.55,1.61,1.61,0,0,0-.94,1.31,1,1,0,0,0,.39.87,1,1,0,0,0,.57.18,1.56,1.56,0,0,0,.82-.24.7.7,0,0,0,.39-.61Z" transform="translate(0 0)"/><path class="cls-6" d="M52.84,76.92a1.54,1.54,0,0,0,.82-.25.94.94,0,0,0,.21-.72V69.61A1.6,1.6,0,0,0,53.8,69a.51.51,0,0,0-.52-.27.71.71,0,0,0-.2,0l-.27,0v-.21c.58-.15,1.29-.36,2.11-.62,0,0,0,0,0,0a.63.63,0,0,1,0,.17V76a1,1,0,0,0,.2.73,1.6,1.6,0,0,0,.8.22v.18H52.84Z" transform="translate(0 0)"/><path class="cls-6" d="M59.64,71.12v.46H58.32v3.74a2.43,2.43,0,0,0,.08.75.6.6,0,0,0,.61.44.7.7,0,0,0,.41-.11,2.24,2.24,0,0,0,.39-.35l.17.15-.15.19a2,2,0,0,1-.71.64,1.56,1.56,0,0,1-.73.19,1,1,0,0,1-1-.68,2.84,2.84,0,0,1-.15-1V71.58h-.71a.1.1,0,0,1-.05,0,.08.08,0,0,1,0-.05.15.15,0,0,1,0-.1,1.53,1.53,0,0,1,.19-.16,5.77,5.77,0,0,0,.64-.6c.14-.16.45-.56.93-1.22h.11s0,0,0,.1v1.6Z" transform="translate(0 0)"/><path class="cls-6" d="M60.07,76.92a1.13,1.13,0,0,0,.7-.27,1.58,1.58,0,0,0,.16-.9V69.52a1.25,1.25,0,0,0-.09-.54c-.06-.11-.22-.17-.46-.17h-.14l-.15,0v-.23l.7-.2.58-.18L62,68v4a4.44,4.44,0,0,1,.73-.69A2.14,2.14,0,0,1,64,71a1.42,1.42,0,0,1,1.43.88,3.06,3.06,0,0,1,.21,1.23v2.65a1.59,1.59,0,0,0,.16.89,1,1,0,0,0,.65.28v.18H63.61v-.18a1.31,1.31,0,0,0,.73-.27,1.58,1.58,0,0,0,.16-.9V73.12a2.15,2.15,0,0,0-.21-1,.81.81,0,0,0-.79-.39,1.54,1.54,0,0,0-1,.37c-.32.24-.48.4-.48.47v3.2a1.58,1.58,0,0,0,.17.91,1.31,1.31,0,0,0,.72.26v.18H60.07Z" transform="translate(0 0)"/><g class="cls-3"><path class="cls-7" d="M65.18,121.8h-51a2.41,2.41,0,0,1-2.41-2.41v-4.12a2.41,2.41,0,0,1,2.41-2.41h51a2.41,2.41,0,0,1,2.41,2.41v4.12a2.41,2.41,0,0,1-2.41,2.41" transform="translate(0 0)"/><path class="cls-8" d="M14.14,113.1A2.17,2.17,0,0,0,12,115.27v4.12a2.17,2.17,0,0,0,2.16,2.17h51a2.17,2.17,0,0,0,2.16-2.17v-4.12a2.17,2.17,0,0,0-2.16-2.17Zm51,9h-51a2.66,2.66,0,0,1-2.65-2.66v-4.12a2.65,2.65,0,0,1,2.65-2.65h51a2.65,2.65,0,0,1,2.65,2.65v4.12a2.66,2.66,0,0,1-2.65,2.66" transform="translate(0 0)"/><path class="cls-2" d="M24.74,116v.42a1,1,0,0,0-.64-.26.82.82,0,0,0-.61.26.87.87,0,0,0-.25.64.84.84,0,0,0,.25.62.82.82,0,0,0,.61.26.76.76,0,0,0,.32-.06l.15-.08.17-.13v.43a1.36,1.36,0,0,1-.64.17,1.22,1.22,0,0,1-.87-.35,1.19,1.19,0,0,1-.35-.86,1.23,1.23,0,0,1,.29-.8,1.21,1.21,0,0,1,.95-.44,1.17,1.17,0,0,1,.62.18" transform="translate(0 0)"/><path class="cls-2" d="M25.4,117.49a.48.48,0,0,0,.12.35.42.42,0,0,0,.33.13.44.44,0,0,0,.32-.12.51.51,0,0,0,.12-.35.5.5,0,0,0-.12-.35.41.41,0,0,0-.32-.13.39.39,0,0,0-.32.13.45.45,0,0,0-.13.34m-.35,0a.74.74,0,0,1,.23-.54.79.79,0,0,1,.57-.23.79.79,0,0,1,.56,1.35.8.8,0,0,1-.57.22.73.73,0,0,1-.56-.23.78.78,0,0,1-.23-.57" transform="translate(0 0)"/><path class="cls-2" d="M27,116.75h.35v.14a.55.55,0,0,1,.41-.18.51.51,0,0,1,.4.16.72.72,0,0,1,.13.46v.91h-.35v-.83a.58.58,0,0,0-.06-.31.27.27,0,0,0-.22-.08.28.28,0,0,0-.24.11.77.77,0,0,0-.07.39v.72H27Z" transform="translate(0 0)"/></g><polygon class="cls-2" points="29.07 117.07 29.07 118.24 28.73 118.24 28.73 117.07 28.58 117.07 28.58 116.75 28.73 116.75 28.73 116.2 29.07 116.2 29.07 116.75 29.34 116.75 29.34 117.07 29.07 117.07"/><g class="cls-3"><path class="cls-2" d="M29.92,118.24h-.34v-1.49h.34Zm-.4-2.11a.21.21,0,0,1,.07-.15.2.2,0,0,1,.16-.07.21.21,0,0,1,.16.07.2.2,0,0,1,.06.15.22.22,0,0,1-.22.23.2.2,0,0,1-.16-.07.22.22,0,0,1-.07-.16" transform="translate(0 0)"/><path class="cls-2" d="M30.36,116.75h.34v.14a.57.57,0,0,1,.41-.18.49.49,0,0,1,.4.16.67.67,0,0,1,.13.46v.91h-.35v-.83a.58.58,0,0,0-.06-.31A.27.27,0,0,0,31,117a.28.28,0,0,0-.24.11.77.77,0,0,0-.07.39v.72h-.34Z" transform="translate(0 0)"/><path class="cls-2" d="M32.42,116.75v.85c0,.25.09.37.29.37s.29-.12.29-.37v-.85h.34v.86a1,1,0,0,1,0,.31.51.51,0,0,1-.15.21.65.65,0,0,1-.44.15.63.63,0,0,1-.44-.15.46.46,0,0,1-.16-.21,1.11,1.11,0,0,1,0-.31v-.86Z" transform="translate(0 0)"/><path class="cls-2" d="M34.78,117.29a.33.33,0,0,0-.35-.27l-.12,0-.09,0-.08.09a.37.37,0,0,0,0,.11Zm.35.29H34.07a.41.41,0,0,0,.12.29.37.37,0,0,0,.27.11.38.38,0,0,0,.21-.07.9.9,0,0,0,.19-.22l.29.16a1.73,1.73,0,0,1-.15.2.65.65,0,0,1-.16.13.49.49,0,0,1-.18.08l-.22,0a.69.69,0,0,1-.53-.21.8.8,0,0,1-.2-.57.85.85,0,0,1,.19-.58.69.69,0,0,1,.53-.21.65.65,0,0,1,.51.21.8.8,0,0,1,.19.57Z" transform="translate(0 0)"/></g><polygon class="cls-2" points="36.66 116.75 37.05 117.6 37.47 116.61 37.9 117.6 38.28 116.75 38.66 116.75 37.88 118.35 37.47 117.39 37.05 118.35 36.27 116.75 36.66 116.75"/><g class="cls-3"><path class="cls-2" d="M39.24,118.24H38.9v-1.49h.34Zm-.39-2.11a.2.2,0,0,1,.06-.15.2.2,0,0,1,.16-.07.21.21,0,0,1,.16.07.2.2,0,0,1,.06.15.22.22,0,0,1-.22.23.2.2,0,0,1-.16-.07.21.21,0,0,1-.06-.16" transform="translate(0 0)"/></g><polygon class="cls-2" points="40.03 117.07 40.03 118.24 39.69 118.24 39.69 117.07 39.54 117.07 39.54 116.75 39.69 116.75 39.69 116.2 40.03 116.2 40.03 116.75 40.3 116.75 40.3 117.07 40.03 117.07"/><g class="cls-3"><path class="cls-2" d="M40.6,115.66h.34v1.21a.58.58,0,0,1,.4-.16.53.53,0,0,1,.41.16.72.72,0,0,1,.13.46v.91h-.35v-.88a.43.43,0,0,0-.06-.26.26.26,0,0,0-.21-.08.28.28,0,0,0-.25.11.77.77,0,0,0-.07.39v.72H40.6Z" transform="translate(0 0)"/><path class="cls-2" d="M43.7,117.9h.16a1.18,1.18,0,0,0,.4-.05.79.79,0,0,0,.29-.17.81.81,0,0,0,.26-.62.83.83,0,0,0-.26-.63,1,1,0,0,0-.69-.22H43.7Zm-.36.34v-2.36h.5a1.7,1.7,0,0,1,.56.07,1.07,1.07,0,0,1,.4.23,1.22,1.22,0,0,1,0,1.76,1.09,1.09,0,0,1-.4.23,1.66,1.66,0,0,1-.56.07Z" transform="translate(0 0)"/><path class="cls-2" d="M45.89,118.24h-.34v-1.49h.34Zm-.39-2.11a.2.2,0,0,1,.06-.15.21.21,0,0,1,.16-.07.2.2,0,0,1,.16.07.21.21,0,0,1,.07.15.22.22,0,0,1-.07.16.19.19,0,0,1-.16.07.22.22,0,0,1-.22-.23" transform="translate(0 0)"/><path class="cls-2" d="M46.61,117.49a.51.51,0,0,0,.12.35A.35.35,0,0,0,47,118a.39.39,0,0,0,.31-.13.49.49,0,0,0,.12-.34.51.51,0,0,0-.12-.35.41.41,0,0,0-.6,0,.5.5,0,0,0-.12.34m.82-.74h.34v1.49h-.34v-.16a.66.66,0,0,1-.46.2.64.64,0,0,1-.51-.22.9.9,0,0,1,0-1.13.63.63,0,0,1,.5-.22.66.66,0,0,1,.47.21Z" transform="translate(0 0)"/><path class="cls-2" d="M48.21,116.75h.34v.14a.61.61,0,0,1,.17-.14.36.36,0,0,1,.19,0,.45.45,0,0,1,.4.22.5.5,0,0,1,.44-.22c.33,0,.5.2.5.61v.92H49.9v-.83a.58.58,0,0,0,0-.3.19.19,0,0,0-.18-.09.22.22,0,0,0-.2.11.59.59,0,0,0-.07.34v.77h-.34v-.82c0-.27-.08-.4-.23-.4a.22.22,0,0,0-.21.11.59.59,0,0,0-.07.34v.77h-.34Z" transform="translate(0 0)"/><path class="cls-2" d="M51,117.49a.48.48,0,0,0,.12.35.41.41,0,0,0,.32.13.45.45,0,0,0,.33-.12.51.51,0,0,0,.12-.35.5.5,0,0,0-.12-.35.42.42,0,0,0-.33-.13.39.39,0,0,0-.31.13.45.45,0,0,0-.13.34m-.35,0a.74.74,0,0,1,.23-.54.79.79,0,0,1,.56-.23.79.79,0,0,1,.57,1.35.8.8,0,0,1-.57.22.73.73,0,0,1-.56-.23.78.78,0,0,1-.23-.57" transform="translate(0 0)"/><path class="cls-2" d="M52.56,116.75h.35v.14a.55.55,0,0,1,.41-.18.51.51,0,0,1,.4.16.72.72,0,0,1,.13.46v.91H53.5v-.83a.58.58,0,0,0-.06-.31.27.27,0,0,0-.22-.08.28.28,0,0,0-.24.11.77.77,0,0,0-.07.39v.72h-.35Z" transform="translate(0 0)"/><path class="cls-2" d="M54.56,117.49a.51.51,0,0,0,.12.35A.35.35,0,0,0,55,118a.39.39,0,0,0,.31-.13.49.49,0,0,0,.12-.34.51.51,0,0,0-.12-.35.41.41,0,0,0-.6,0,.5.5,0,0,0-.12.34m.82-1.83h.34v2.58h-.34v-.16a.62.62,0,0,1-.46.2.64.64,0,0,1-.51-.22.9.9,0,0,1,0-1.13.63.63,0,0,1,.5-.22.66.66,0,0,1,.47.21Z" transform="translate(0 0)"/></g><polygon class="cls-2" points="56.58 115.88 56.58 117.91 57.27 117.91 57.27 118.24 56.22 118.24 56.22 115.88 56.58 115.88"/><g class="cls-3"><path class="cls-2" d="M57.83,117.49a.52.52,0,0,0,.11.35.43.43,0,0,0,.33.13.44.44,0,0,0,.32-.12.51.51,0,0,0,.12-.35.5.5,0,0,0-.12-.35.46.46,0,0,0-.64,0,.49.49,0,0,0-.12.34m-.36,0a.74.74,0,0,1,.23-.54.81.81,0,0,1,.57-.23.77.77,0,0,1,.56.23.8.8,0,0,1,0,1.12.77.77,0,0,1-.57.22.73.73,0,0,1-.56-.23.78.78,0,0,1-.23-.57" transform="translate(0 0)"/><path class="cls-2" d="M60.54,117.5a.5.5,0,0,0-.12-.35.41.41,0,0,0-.61,0,.53.53,0,0,0-.1.34.48.48,0,0,0,.1.33.35.35,0,0,0,.31.14.37.37,0,0,0,.31-.14.52.52,0,0,0,.11-.33m.33.7c0,.07,0,.14,0,.19s0,.1,0,.14a.71.71,0,0,1-.14.29.81.81,0,0,1-1.05.07.66.66,0,0,1-.23-.46h.35a.3.3,0,0,0,.06.17.35.35,0,0,0,.31.14c.26,0,.38-.15.38-.46v-.21a.62.62,0,0,1-.47.21.63.63,0,0,1-.5-.22.81.81,0,0,1-.19-.56.87.87,0,0,1,.18-.55.63.63,0,0,1,.51-.24.59.59,0,0,1,.47.21v-.17h.35Z" transform="translate(0 0)"/><path class="cls-2" d="M61.64,118.24H61.3v-1.49h.34Zm-.39-2.11a.2.2,0,0,1,.06-.15.21.21,0,0,1,.16-.07.2.2,0,0,1,.16.07.21.21,0,0,1,.07.15.22.22,0,0,1-.07.16.2.2,0,0,1-.16.07.22.22,0,0,1-.22-.23" transform="translate(0 0)"/><path class="cls-2" d="M62.08,116.75h.34v.14a.57.57,0,0,1,.41-.18.53.53,0,0,1,.41.16.72.72,0,0,1,.12.46v.91H63v-.83a.49.49,0,0,0-.07-.31.26.26,0,0,0-.21-.08.28.28,0,0,0-.25.11.9.9,0,0,0-.07.39v.72h-.34Z" transform="translate(0 0)"/><path class="cls-2" d="M15.81,115.38l.66,1H15.15Zm4.31,1H18.8l.66-1Zm-1.47.28h1.41l-2.16,2.43Zm-1.28,2.43-2.16-2.43h1.41Zm-.64-2.83-.66-1h1.31Zm1.16-1H19.2l-.65,1ZM17,116.4l.65-1,.66,1Zm1.38.28L17.63,119l-.72-2.34Zm1.28-1.54a.32.32,0,0,0-.28-.15H15.91a.31.31,0,0,0-.27.15l-.79,1.2a.33.33,0,0,0,0,.4l2.51,2.81a.32.32,0,0,0,.24.11.33.33,0,0,0,.25-.11l2.51-2.81a.33.33,0,0,0,0-.4Z" transform="translate(0 0)"/><path class="cls-9" d="M67.17,109.15h-55a.66.66,0,0,1-.65-.66v-7.71a.66.66,0,0,1,.65-.66h55a.66.66,0,0,1,.66.66v7.71a.66.66,0,0,1-.66.66" transform="translate(0 0)"/><path class="cls-10" d="M67.17,108.49h-55a.65.65,0,0,1-.65-.66v-7.71a.65.65,0,0,1,.65-.65h55a.65.65,0,0,1,.66.65v7.71a.65.65,0,0,1-.66.66" transform="translate(0 0)"/></g><rect class="cls-10" x="11.82" y="99.8" width="55.71" height="8.37"/><rect class="cls-10" x="28.06" y="101.76" width="36.84" height="4.43"/><g class="cls-3"><path class="cls-2" d="M29.92,105a2.74,2.74,0,0,1-.5.07A1.06,1.06,0,0,1,28.21,104a1.09,1.09,0,0,1,1.21-1.17,1.47,1.47,0,0,1,.5.09l0,.37a.93.93,0,0,0-.48-.12.74.74,0,0,0-.74.8.72.72,0,0,0,.75.79,1.17,1.17,0,0,0,.48-.09Z" transform="translate(0 0)"/><path class="cls-2" d="M31.37,104.21c0-.26-.14-.49-.41-.49s-.41.23-.41.49.13.56.41.56.41-.21.41-.56m-.41.89a.8.8,0,0,1-.85-.84.85.85,0,1,1,1.7,0,.81.81,0,0,1-.85.84" transform="translate(0 0)"/><path class="cls-2" d="M33.21,105.06v-.91c0-.25-.05-.43-.27-.43s-.38.26-.38.55v.79h-.42v-1.63h.4v.22h0a.61.61,0,0,1,.53-.26c.37,0,.55.26.55.64v1Z" transform="translate(0 0)"/><path class="cls-2" d="M35,105.06a1.21,1.21,0,0,1-.3,0,.48.48,0,0,1-.52-.53v-.83H33.9v-.31h.31v-.32l.42-.14v.46H35v.31h-.38v.76c0,.17,0,.27.2.27a.33.33,0,0,0,.19,0Z" transform="translate(0 0)"/></g><path class="cls-2" d="M35.31,105.06h.42v-1.63h-.42Zm0-1.92h.42v-.41h-.42Z" transform="translate(0 0)"/><g class="cls-3"><path class="cls-2" d="M37.24,105.06v-.91c0-.25-.05-.43-.27-.43s-.37.26-.37.55v.79h-.42v-1.63h.4v.22h0a.62.62,0,0,1,.54-.26c.37,0,.55.26.55.64v1Z" transform="translate(0 0)"/><path class="cls-2" d="M39.2,105.06v-.22h0a.7.7,0,0,1-.53.26c-.37,0-.56-.25-.56-.64v-1h.43v.93c0,.33.12.41.27.41s.37-.24.37-.55v-.79h.43v1.63Z" transform="translate(0 0)"/><path class="cls-2" d="M41.05,104.09c0-.24-.12-.39-.34-.39s-.35.14-.38.39Zm.29.88a1.19,1.19,0,0,1-.56.13.77.77,0,0,1-.85-.85.77.77,0,0,1,.75-.86c.56,0,.78.35.78,1H40.33a.43.43,0,0,0,.47.41,1.11,1.11,0,0,0,.54-.17Z" transform="translate(0 0)"/></g><polygon class="cls-2" points="44.22 105.06 43.87 103.82 43.86 103.82 43.52 105.06 43.03 105.06 42.48 103.43 42.93 103.43 43.29 104.64 43.3 104.64 43.63 103.43 44.12 103.43 44.47 104.64 44.48 104.64 44.82 103.43 45.22 103.43 44.72 105.06 44.22 105.06"/><path class="cls-2" d="M45.48,105.06h.43v-1.63h-.43Zm0-1.92h.43v-.41h-.43Z" transform="translate(0 0)"/><g class="cls-3"><path class="cls-2" d="M47.32,105.06a1.37,1.37,0,0,1-.31,0,.48.48,0,0,1-.52-.53v-.83h-.31v-.31h.31v-.32l.42-.14v.46h.38v.31h-.38v.76c0,.17.06.27.2.27a.33.33,0,0,0,.19,0Z" transform="translate(0 0)"/><path class="cls-2" d="M48.65,105.06v-.92c0-.3-.09-.42-.28-.42s-.37.23-.37.55v.79h-.42v-2.37H48v1h0a.61.61,0,0,1,.51-.26c.38,0,.55.27.55.64v1Z" transform="translate(0 0)"/></g><polygon class="cls-2" points="51.67 105.06 50.83 103.41 50.83 103.41 50.83 105.06 50.4 105.06 50.4 102.86 50.95 102.86 51.78 104.5 51.79 104.5 51.79 102.86 52.21 102.86 52.21 105.06 51.67 105.06"/><polygon class="cls-2" points="54.03 105.06 54.03 104.09 53.15 104.09 53.15 105.06 52.7 105.06 52.7 102.86 53.15 102.86 53.15 103.75 54.03 103.75 54.03 102.86 54.47 102.86 54.47 105.06 54.03 105.06"/><g class="cls-3"><path class="cls-2" d="M55,104.61a1,1,0,0,0,.5.14c.16,0,.39-.08.39-.29s-.15-.23-.37-.32-.6-.24-.6-.65.36-.67.77-.67a1.51,1.51,0,0,1,.53.08l0,.36a1.22,1.22,0,0,0-.45-.1.31.31,0,0,0-.35.31c0,.17.19.23.37.3s.6.25.6.66-.31.67-.83.67A2.05,2.05,0,0,1,55,105Z" transform="translate(0 0)"/></g><rect class="cls-2" x="57.59" y="102.69" width="0.42" height="2.37"/><g class="cls-3"><path class="cls-2" d="M59.61,104.21c0-.26-.14-.49-.41-.49a.44.44,0,0,0-.41.49c0,.34.14.56.41.56s.41-.21.41-.56m-.41.89a.81.81,0,0,1-.85-.84.85.85,0,1,1,1.7,0,.8.8,0,0,1-.85.84" transform="translate(0 0)"/><path class="cls-2" d="M61.46,104.23c0-.25-.09-.51-.36-.51s-.38.22-.38.52.12.49.36.49.38-.24.38-.5m0,.57h0a.58.58,0,0,1-.51.26c-.44,0-.66-.34-.66-.82s.2-.84.69-.84a.56.56,0,0,1,.5.25h0v-.22h.41v1.48a.76.76,0,0,1-.85.85,1.4,1.4,0,0,1-.57-.11l0-.36a1.18,1.18,0,0,0,.48.14c.4,0,.49-.25.49-.59Z" transform="translate(0 0)"/></g><path class="cls-2" d="M62.32,105.06h.43v-1.63h-.43Zm0-1.92h.43v-.41h-.43Z" transform="translate(0 0)"/><g class="cls-3"><path class="cls-2" d="M64.26,105.06v-.91c0-.25-.05-.43-.27-.43s-.37.26-.37.55v.79h-.43v-1.63h.4v.22h0a.61.61,0,0,1,.53-.26c.37,0,.56.26.56.64v1Z" transform="translate(0 0)"/></g><rect class="cls-10" x="14.53" y="101.85" width="10.81" height="4.25"/><g class="cls-3"><path class="cls-2" d="M25,102.29l-.23.71a1.8,1.8,0,0,0-.79-.16c-.38,0-.69,0-.69.34,0,.5,1.39.31,1.39,1.4s-.92,1.24-1.75,1.24a3.91,3.91,0,0,1-1.11-.19l.23-.72a1.91,1.91,0,0,0,.88.2c.3,0,.76,0,.76-.42,0-.57-1.39-.36-1.39-1.36s.81-1.2,1.6-1.2a3,3,0,0,1,1.1.16m-2.76-.1-.74,3.57h-1l.32-1.53H19.75l-.32,1.53h-1l.75-3.57h1l-.29,1.37H21l.28-1.37Zm-3.41,0-.76,3.57H16.91l-.75-2.47h0l-.5,2.47h-.9l.77-3.57h1.19l.74,2.47h0l.5-2.47Zm6.58-.43h-11v4.43h11Z" transform="translate(0 0)"/><path class="cls-11" d="M119,4.21l2.56-2.56a.94.94,0,0,0,0-1.36.94.94,0,0,0-1.36,0l-2.56,2.56L115.06.29a.94.94,0,0,0-1.36,0,.94.94,0,0,0,0,1.36l2.56,2.56L113.7,6.77a.94.94,0,0,0,.71,1.62.81.81,0,0,0,.65-.26l2.56-2.56,2.56,2.56a.94.94,0,0,0,.71.26.81.81,0,0,0,.65-.26.94.94,0,0,0,0-1.36Z" transform="translate(0 0)"/><path class="cls-5" d="M164.73,29.62H141.4a2.34,2.34,0,0,1,0-4.67h23.33a2.34,2.34,0,1,1,0,4.67" transform="translate(0 0)"/><path class="cls-5" d="M181.06,29.62h-2.33a2.34,2.34,0,0,1,0-4.67h2.33a2.34,2.34,0,1,1,0,4.67" transform="translate(0 0)"/><path class="cls-5" d="M150.17,141.6a1.77,1.77,0,0,0-1.77,1.77v1.12a1.77,1.77,0,0,0,1.77,1.77H156a1.76,1.76,0,0,0,1.76-1.77v-1.12A1.77,1.77,0,0,0,156,141.6Zm5.79,9.33h-5.79a6.44,6.44,0,0,1-6.43-6.44v-1.12a6.44,6.44,0,0,1,6.43-6.44H156a6.45,6.45,0,0,1,6.43,6.44v1.12a6.45,6.45,0,0,1-6.44,6.44" transform="translate(0 0)"/><path class="cls-5" d="M121.84,22.62a3.77,3.77,0,0,0-3.77,3.76V149.5a3.77,3.77,0,0,0,3.77,3.76H184.3a3.77,3.77,0,0,0,3.76-3.77V26.38a3.77,3.77,0,0,0-3.77-3.76Zm62.45,135.31H121.84a8.45,8.45,0,0,1-8.43-8.44V26.38A8.44,8.44,0,0,1,121.84,18H184.3a8.44,8.44,0,0,1,8.43,8.43V149.5a8.45,8.45,0,0,1-8.44,8.43" transform="translate(0 0)"/><path class="cls-5" d="M118.07,129.93h70V36.61h-70Zm72.33,4.67H115.74a2.33,2.33,0,0,1-2.33-2.33v-98A2.33,2.33,0,0,1,115.74,32H190.4a2.33,2.33,0,0,1,2.33,2.33v98a2.34,2.34,0,0,1-2.33,2.33" transform="translate(0 0)"/></g><path class="cls-6" d="M126.28,76.69a1.59,1.59,0,0,0,1.06-.38,2.5,2.5,0,0,0,.23-1.34V69.58a1.32,1.32,0,0,0-.23-.94,1.73,1.73,0,0,0-1-.25v-.25h2.62l3,6.62,3-6.62h2.64v.25a1.5,1.5,0,0,0-.95.27,1.32,1.32,0,0,0-.22.92v5.91a1.33,1.33,0,0,0,.22.93,1.81,1.81,0,0,0,.95.27v.24h-3.72v-.24a1.71,1.71,0,0,0,1-.29,1.88,1.88,0,0,0,.19-1.07v-6l-3.4,7.56h-.18l-3.35-7.25V75a2.17,2.17,0,0,0,.32,1.42,1.63,1.63,0,0,0,.93.3v.24h-3.12Z" transform="translate(0 0)"/><path class="cls-6" d="M138.13,71h2.73v.18a2.37,2.37,0,0,0-.48.06.35.35,0,0,0-.29.34.63.63,0,0,0,0,.19,3.1,3.1,0,0,0,.12.29l1.5,3.24L143,72a.77.77,0,0,0,.06-.24,1.48,1.48,0,0,0,.05-.25.28.28,0,0,0-.12-.25.49.49,0,0,0-.3-.09l-.2,0V71h1.78v.18a.58.58,0,0,0-.39.19,1.15,1.15,0,0,0-.23.43l-2.05,5.41a8,8,0,0,1-1,2,1.48,1.48,0,0,1-1.23.63,1.36,1.36,0,0,1-.68-.18.63.63,0,0,1-.32-.58.56.56,0,0,1,.19-.43.71.71,0,0,1,.48-.16,1.6,1.6,0,0,1,.49.12,1.73,1.73,0,0,0,.48.13c.23,0,.49-.3.75-.89a3.64,3.64,0,0,0,.4-1.16.93.93,0,0,0,0-.14c0-.06,0-.1,0-.15L139,72a2,2,0,0,0-.38-.63.92.92,0,0,0-.49-.2Z" transform="translate(0 0)"/><path class="cls-6" d="M144.8,76.69a1.86,1.86,0,0,0,1-.29,1.79,1.79,0,0,0,.19-1.06V69.58a1.37,1.37,0,0,0-.22-.93,1.58,1.58,0,0,0-.95-.26v-.25h3.69v.25a1.61,1.61,0,0,0-1,.26,1.37,1.37,0,0,0-.22.93v2.59h4V69.58a1.42,1.42,0,0,0-.22-.93,1.58,1.58,0,0,0-.95-.26v-.25h3.68v.25a1.61,1.61,0,0,0-1,.26,1.42,1.42,0,0,0-.22.93v5.91a1.39,1.39,0,0,0,.22.93,1.85,1.85,0,0,0,1,.27v.24h-3.68v-.24a1.7,1.7,0,0,0,1-.29,1.77,1.77,0,0,0,.2-1.06V72.75h-4v2.74a1.33,1.33,0,0,0,.22.93,1.67,1.67,0,0,0,1,.27v.24H144.8Z" transform="translate(0 0)"/><path class="cls-6" d="M158.83,71.48a2.31,2.31,0,0,1,.69,1.79H155.4a3.45,3.45,0,0,0,.68,2.19,1.9,1.9,0,0,0,1.46.69,1.86,1.86,0,0,0,1.15-.36,3.51,3.51,0,0,0,.86-1l.23.08a3.72,3.72,0,0,1-1,1.53,2.52,2.52,0,0,1-1.79.7,2.19,2.19,0,0,1-1.88-.92,3.68,3.68,0,0,1,.11-4.38,2.46,2.46,0,0,1,2-.94A2.29,2.29,0,0,1,158.83,71.48Zm-3.11.5a2.46,2.46,0,0,0-.3.88h2.74a2.69,2.69,0,0,0-.25-1,1.11,1.11,0,0,0-1.06-.57A1.24,1.24,0,0,0,155.72,72Z" transform="translate(0 0)"/><path class="cls-6" d="M161.51,74.07A14.53,14.53,0,0,1,163.89,73v-.55a2.2,2.2,0,0,0-.13-.92.93.93,0,0,0-.92-.43,1.14,1.14,0,0,0-.62.17.52.52,0,0,0-.3.47,2,2,0,0,0,0,.27,2,2,0,0,1,0,.23.53.53,0,0,1-.24.51.57.57,0,0,1-.32.09.54.54,0,0,1-.45-.2.67.67,0,0,1-.16-.42,1.35,1.35,0,0,1,.57-1,2.4,2.4,0,0,1,1.64-.5,1.77,1.77,0,0,1,1.71.82,2.81,2.81,0,0,1,.24,1.3v2.61A1.51,1.51,0,0,0,165,76a.34.34,0,0,0,.35.26.62.62,0,0,0,.25,0A2.53,2.53,0,0,0,166,76v.34a2.08,2.08,0,0,1-.44.41,1.29,1.29,0,0,1-.74.25.7.7,0,0,1-.64-.29,1.17,1.17,0,0,1-.22-.68,6.25,6.25,0,0,1-.84.64,2.27,2.27,0,0,1-1.13.35,1.34,1.34,0,0,1-1-.39,1.31,1.31,0,0,1-.41-1A1.84,1.84,0,0,1,161.51,74.07Zm2.38-.73a5.5,5.5,0,0,0-1.23.54,1.6,1.6,0,0,0-.94,1.31,1,1,0,0,0,.39.87,1,1,0,0,0,.57.18,1.56,1.56,0,0,0,.82-.24.7.7,0,0,0,.39-.61Z" transform="translate(0 0)"/><path class="cls-6" d="M166.25,76.75a1.59,1.59,0,0,0,.82-.24,1,1,0,0,0,.21-.73V69.45a1.56,1.56,0,0,0-.07-.59.51.51,0,0,0-.52-.28l-.2,0-.27.06v-.21c.58-.16,1.29-.37,2.11-.63a0,0,0,0,1,0,0,.67.67,0,0,1,0,.17v7.78a1,1,0,0,0,.2.73,1.49,1.49,0,0,0,.8.21v.18h-3.14Z" transform="translate(0 0)"/><path class="cls-6" d="M173.05,71v.47h-1.32l0,3.73a2.38,2.38,0,0,0,.09.75.59.59,0,0,0,.61.45.75.75,0,0,0,.4-.11,2.31,2.31,0,0,0,.4-.35l.16.14-.14.2a2.1,2.1,0,0,1-.71.64,1.69,1.69,0,0,1-.73.19,1,1,0,0,1-1-.69,2.74,2.74,0,0,1-.15-1V71.42h-.7l-.05,0a.08.08,0,0,1,0,0,.13.13,0,0,1,0-.1,1.28,1.28,0,0,1,.19-.17,6.86,6.86,0,0,0,.64-.6c.13-.15.44-.56.93-1.22a.16.16,0,0,1,.1,0,.14.14,0,0,1,0,.09V71Z" transform="translate(0 0)"/><path class="cls-6" d="M173.48,76.75a1.16,1.16,0,0,0,.7-.26,1.6,1.6,0,0,0,.16-.91V69.35a1.17,1.17,0,0,0-.09-.53c-.07-.12-.22-.17-.46-.17h-.14l-.15,0v-.23l.7-.21.58-.17.62-.19,0,0v4a3.93,3.93,0,0,1,.72-.68,2.17,2.17,0,0,1,1.24-.39,1.41,1.41,0,0,1,1.43.88,3,3,0,0,1,.21,1.23v2.64a1.63,1.63,0,0,0,.16.9.92.92,0,0,0,.65.27v.18H177v-.18a1.18,1.18,0,0,0,.73-.27,1.54,1.54,0,0,0,.16-.9V73a2.15,2.15,0,0,0-.21-1,.83.83,0,0,0-.8-.39,1.63,1.63,0,0,0-1,.36c-.31.24-.47.4-.47.47v3.2a1.54,1.54,0,0,0,.17.91,1.24,1.24,0,0,0,.72.26v.18h-2.86Z" transform="translate(0 0)"/><g class="cls-3"><path class="cls-7" d="M178.58,121.64h-51a2.41,2.41,0,0,1-2.41-2.41V103.74a2.4,2.4,0,0,1,2.41-2.41h51a2.41,2.41,0,0,1,2.42,2.41v15.49a2.41,2.41,0,0,1-2.42,2.41" transform="translate(0 0)"/><path class="cls-8" d="M127.55,101.57a2.17,2.17,0,0,0-2.17,2.17v15.49a2.17,2.17,0,0,0,2.17,2.16h51a2.17,2.17,0,0,0,2.17-2.16V103.74a2.17,2.17,0,0,0-2.17-2.17Zm51,20.31h-51a2.65,2.65,0,0,1-2.65-2.65V103.74a2.66,2.66,0,0,1,2.65-2.66h51a2.66,2.66,0,0,1,2.66,2.66v15.49a2.66,2.66,0,0,1-2.66,2.65" transform="translate(0 0)"/><path class="cls-2" d="M130.73,115.86a.68.68,0,0,0-.53-.26.66.66,0,0,0-.25.05.6.6,0,0,0-.21.14.58.58,0,0,0-.13.2.7.7,0,0,0,0,.52.58.58,0,0,0,.13.2.6.6,0,0,0,.21.14.51.51,0,0,0,.25.05.72.72,0,0,0,.53-.25v.73l-.07,0a1.45,1.45,0,0,1-.26.07,1,1,0,0,1-.24,0,1.1,1.1,0,0,1-.47-.1,1.14,1.14,0,0,1-.39-.25,1.38,1.38,0,0,1-.28-.4,1.21,1.21,0,0,1-.1-.5,1.15,1.15,0,0,1,.1-.5,1.28,1.28,0,0,1,.27-.4,1.5,1.5,0,0,1,.4-.25,1.29,1.29,0,0,1,.75-.06l.29.09Z" transform="translate(0 0)"/><path class="cls-2" d="M131.6,116.62a.4.4,0,0,0,0,.15.75.75,0,0,0,.07.12.5.5,0,0,0,.12.08l.14,0,.14,0a.36.36,0,0,0,.12-.08l.08-.12a.37.37,0,0,0,0-.15.35.35,0,0,0,0-.14l-.08-.12a.24.24,0,0,0-.12-.07.34.34,0,0,0-.28,0,.29.29,0,0,0-.12.07.75.75,0,0,0-.07.12.32.32,0,0,0,0,.14m-.6,0a.75.75,0,0,1,.07-.33.86.86,0,0,1,.2-.27,1.33,1.33,0,0,1,.31-.18,1.12,1.12,0,0,1,.38-.06,1.23,1.23,0,0,1,.39.06.83.83,0,0,1,.3.18.66.66,0,0,1,.2.27.81.81,0,0,1,0,.7.86.86,0,0,1-.2.27.79.79,0,0,1-.31.18,1.23,1.23,0,0,1-.39.06,1.21,1.21,0,0,1-.38-.06.75.75,0,0,1-.3-.18.84.84,0,0,1-.27-.64" transform="translate(0 0)"/><path class="cls-2" d="M133.25,115.83h.57v.2a.64.64,0,0,1,.23-.19.82.82,0,0,1,.28,0,.65.65,0,0,1,.29.06.51.51,0,0,1,.21.15.76.76,0,0,1,.09.18.85.85,0,0,1,0,.23v1h-.57v-.81a.92.92,0,0,0,0-.19.23.23,0,0,0-.06-.12l-.08,0-.1,0a.3.3,0,0,0-.23.09.36.36,0,0,0-.07.24v.86h-.57Z" transform="translate(0 0)"/></g><polygon class="cls-2" points="135.96 116.3 135.96 117.43 135.4 117.43 135.4 116.3 135.21 116.3 135.21 115.83 135.4 115.83 135.4 115.34 135.96 115.34 135.96 115.83 136.28 115.83 136.28 116.3 135.96 116.3"/><g class="cls-3"><path class="cls-2" d="M137.11,117.43h-.57v-1.6h.57Zm-.61-2.22a.21.21,0,0,1,0-.12.41.41,0,0,1,.07-.11l.1-.07.12,0,.13,0,.1.07a.41.41,0,0,1,.07.11.37.37,0,0,1,0,.12.5.5,0,0,1,0,.12.26.26,0,0,1-.07.1.23.23,0,0,1-.1.07.28.28,0,0,1-.13,0l-.12,0a.23.23,0,0,1-.1-.07.26.26,0,0,1-.07-.1.27.27,0,0,1,0-.12" transform="translate(0 0)"/><path class="cls-2" d="M137.5,115.83h.56v.2a.67.67,0,0,1,.24-.19.78.78,0,0,1,.28,0,.68.68,0,0,1,.29.06.48.48,0,0,1,.2.15.38.38,0,0,1,.09.18.85.85,0,0,1,0,.23v1h-.57v-.81a1,1,0,0,0,0-.19.35.35,0,0,0-.07-.12l-.08,0-.1,0a.27.27,0,0,0-.22.09.36.36,0,0,0-.08.24v.86h-.56Z" transform="translate(0 0)"/><path class="cls-2" d="M140.14,115.83v.9a.29.29,0,1,0,.58,0v-.9h.56v1a.58.58,0,0,1-.21.49,1,1,0,0,1-.64.16,1,1,0,0,1-.64-.16.59.59,0,0,1-.22-.49v-1Z" transform="translate(0 0)"/><path class="cls-2" d="M142.84,116.4a.43.43,0,0,0-.11-.2.38.38,0,0,0-.22-.07.35.35,0,0,0-.21.07.33.33,0,0,0-.11.2Zm-.66.32c0,.25.11.37.34.37a.3.3,0,0,0,.28-.15h.55a.76.76,0,0,1-.83.55,1.06,1.06,0,0,1-.37-.06.82.82,0,0,1-.29-.17,1,1,0,0,1-.19-.27,1,1,0,0,1-.06-.35,1.06,1.06,0,0,1,.06-.37.8.8,0,0,1,.18-.27.78.78,0,0,1,.28-.17,1.06,1.06,0,0,1,.37-.06,1,1,0,0,1,.36.06.88.88,0,0,1,.28.17.92.92,0,0,1,.17.29,1.06,1.06,0,0,1,.06.37v.06Z" transform="translate(0 0)"/></g><polygon class="cls-2" points="145.2 115.83 145.58 116.67 145.98 115.83 146.34 115.83 146.74 116.7 147.14 115.83 147.77 115.83 146.93 117.43 146.55 117.43 146.15 116.55 145.77 117.43 145.39 117.43 144.56 115.83 145.2 115.83"/><g class="cls-3"><path class="cls-2" d="M148.53,117.43H148v-1.6h.56Zm-.6-2.22a.37.37,0,0,1,0-.12A.41.41,0,0,1,148,115l.1-.07.13,0,.12,0,.1.07a.41.41,0,0,1,.07.11.21.21,0,0,1,0,.12.27.27,0,0,1,0,.12.26.26,0,0,1-.07.1.23.23,0,0,1-.1.07.27.27,0,0,1-.12,0,.28.28,0,0,1-.13,0,.23.23,0,0,1-.1-.07.26.26,0,0,1-.07-.1.5.5,0,0,1,0-.12" transform="translate(0 0)"/></g><polygon class="cls-2" points="149.55 116.3 149.55 117.43 148.99 117.43 148.99 116.3 148.8 116.3 148.8 115.83 148.99 115.83 148.99 115.34 149.55 115.34 149.55 115.83 149.88 115.83 149.88 116.3 149.55 116.3"/><g class="cls-3"><path class="cls-2" d="M150.16,114.83h.57V116a.57.57,0,0,1,.23-.19.78.78,0,0,1,.28,0,.6.6,0,0,1,.46.17.64.64,0,0,1,.15.45v1h-.56v-.81a1,1,0,0,0,0-.2.23.23,0,0,0-.06-.11.26.26,0,0,0-.19-.07.28.28,0,0,0-.22.09.36.36,0,0,0-.07.24v.86h-.57Z" transform="translate(0 0)"/><path class="cls-2" d="M154,116.91h.14a.88.88,0,0,0,.29,0,.6.6,0,0,0,.21-.14.58.58,0,0,0,.13-.2.77.77,0,0,0,0-.27.75.75,0,0,0,0-.26.77.77,0,0,0-.14-.21.52.52,0,0,0-.21-.14.82.82,0,0,0-.28,0H154Zm-.61-1.84h.9a1.06,1.06,0,0,1,.46.1,1.17,1.17,0,0,1,.61.63,1.13,1.13,0,0,1,.09.45,1.16,1.16,0,0,1-.08.45,1.21,1.21,0,0,1-.25.37,1.18,1.18,0,0,1-.37.26,1,1,0,0,1-.46.1h-.9Z" transform="translate(0 0)"/><path class="cls-2" d="M156.33,117.43h-.57v-1.6h.57Zm-.6-2.22a.22.22,0,0,1,0-.12.41.41,0,0,1,.07-.11l.1-.07.12,0,.13,0,.1.07a.41.41,0,0,1,.07.11.22.22,0,0,1,0,.12.28.28,0,0,1-.09.22.23.23,0,0,1-.1.07.28.28,0,0,1-.13,0l-.12,0a.23.23,0,0,1-.1-.07.28.28,0,0,1-.09-.22" transform="translate(0 0)"/><path class="cls-2" d="M157.24,116.62a.37.37,0,0,0,0,.15.83.83,0,0,0,.08.12.26.26,0,0,0,.11.07.4.4,0,0,0,.15,0,.32.32,0,0,0,.14,0,.24.24,0,0,0,.12-.07.83.83,0,0,0,.08-.12.34.34,0,0,0,0-.28.37.37,0,0,0-.2-.2.32.32,0,0,0-.14,0,.4.4,0,0,0-.15,0l-.11.08a.44.44,0,0,0-.08.11.35.35,0,0,0,0,.14m.72-.79h.57v1.6H158v-.18a.58.58,0,0,1-.49.23.88.88,0,0,1-.33-.06.94.94,0,0,1-.25-.18.73.73,0,0,1-.17-.28.74.74,0,0,1-.07-.34.87.87,0,0,1,.06-.32.73.73,0,0,1,.17-.27.92.92,0,0,1,.25-.19.88.88,0,0,1,.33-.06.66.66,0,0,1,.5.21Z" transform="translate(0 0)"/><path class="cls-2" d="M158.91,115.83h.57V116a.72.72,0,0,1,.52-.22.59.59,0,0,1,.54.3.62.62,0,0,1,.55-.3.76.76,0,0,1,.21,0,.48.48,0,0,1,.17.1.52.52,0,0,1,.12.19,1,1,0,0,1,0,.27v1h-.57v-.79a.59.59,0,0,0,0-.2.22.22,0,0,0,0-.12.13.13,0,0,0-.07-.06l-.1,0c-.18,0-.27.13-.27.4v.79H160v-.79a1,1,0,0,0,0-.2.32.32,0,0,0-.05-.13.13.13,0,0,0-.07-.06l-.11,0h-.1l-.09.07a.33.33,0,0,0-.05.12.62.62,0,0,0,0,.21v.79h-.57Z" transform="translate(0 0)"/><path class="cls-2" d="M162.55,116.62a.4.4,0,0,0,0,.15.83.83,0,0,0,.08.12.36.36,0,0,0,.12.08l.14,0,.14,0a.5.5,0,0,0,.12-.08.75.75,0,0,0,.07-.12.37.37,0,0,0,0-.15.35.35,0,0,0,0-.14.75.75,0,0,0-.07-.12.29.29,0,0,0-.12-.07.34.34,0,0,0-.28,0,.24.24,0,0,0-.12.07.83.83,0,0,0-.08.12.32.32,0,0,0,0,.14m-.6,0a.76.76,0,0,1,.08-.33.73.73,0,0,1,.2-.27,1.09,1.09,0,0,1,.3-.18,1.23,1.23,0,0,1,.39-.06,1.16,1.16,0,0,1,.38.06.87.87,0,0,1,.31.18.9.9,0,0,1,.2.27.91.91,0,0,1,0,.7,1.05,1.05,0,0,1-.2.27.87.87,0,0,1-.31.18,1.23,1.23,0,0,1-.39.06,1.12,1.12,0,0,1-.38-.06.87.87,0,0,1-.31-.18A.77.77,0,0,1,162,117a.8.8,0,0,1-.08-.36" transform="translate(0 0)"/><path class="cls-2" d="M164.21,115.83h.56v.2a.67.67,0,0,1,.24-.19.78.78,0,0,1,.28,0,.65.65,0,0,1,.29.06.48.48,0,0,1,.2.15.54.54,0,0,1,.1.18,1.64,1.64,0,0,1,0,.23v1h-.57v-.81a1,1,0,0,0,0-.19.34.34,0,0,0-.06-.12l-.09,0-.1,0a.28.28,0,0,0-.22.09.36.36,0,0,0-.08.24v.86h-.56Z" transform="translate(0 0)"/><path class="cls-2" d="M166.81,116.62a.37.37,0,0,0,0,.15.42.42,0,0,0,.08.12.26.26,0,0,0,.11.07.4.4,0,0,0,.15,0,.32.32,0,0,0,.14,0,.29.29,0,0,0,.12-.07.75.75,0,0,0,.07-.12.34.34,0,0,0,0-.28.35.35,0,0,0-.07-.12.5.5,0,0,0-.12-.08.34.34,0,0,0-.28,0,.36.36,0,0,0-.12.08.44.44,0,0,0-.08.11.35.35,0,0,0,0,.14m.72-1.79h.56v2.6h-.56v-.18a.6.6,0,0,1-.5.23.87.87,0,0,1-.32-.06,1,1,0,0,1-.26-.19.73.73,0,0,1-.17-.27.93.93,0,0,1-.06-.34.87.87,0,0,1,.06-.32.62.62,0,0,1,.17-.27.79.79,0,0,1,.25-.19.88.88,0,0,1,.33-.06.7.7,0,0,1,.5.2Z" transform="translate(0 0)"/></g><polygon class="cls-2" points="169.15 115.07 169.15 116.91 169.88 116.91 169.88 117.43 168.53 117.43 168.53 115.07 169.15 115.07"/><g class="cls-3"><path class="cls-2" d="M170.68,116.62a.4.4,0,0,0,0,.15.83.83,0,0,0,.08.12l.11.08.15,0,.14,0,.11-.08a.42.42,0,0,0,.08-.12.37.37,0,0,0,0-.15.35.35,0,0,0,0-.14.42.42,0,0,0-.08-.12.26.26,0,0,0-.11-.07.35.35,0,0,0-.14,0,.4.4,0,0,0-.15,0,.26.26,0,0,0-.11.07.83.83,0,0,0-.08.12.32.32,0,0,0,0,.14m-.6,0a.93.93,0,0,1,.07-.33,1.05,1.05,0,0,1,.2-.27,1.33,1.33,0,0,1,.31-.18,1.23,1.23,0,0,1,.39-.06,1.21,1.21,0,0,1,.38.06.87.87,0,0,1,.31.18.9.9,0,0,1,.2.27.91.91,0,0,1,0,.7.9.9,0,0,1-.21.27.75.75,0,0,1-.3.18,1.23,1.23,0,0,1-.39.06,1.12,1.12,0,0,1-.38-.06.87.87,0,0,1-.31-.18,1,1,0,0,1-.2-.28,1,1,0,0,1-.07-.36" transform="translate(0 0)"/><path class="cls-2" d="M172.86,116.62a.4.4,0,0,0,0,.15.44.44,0,0,0,.19.19.4.4,0,0,0,.15,0,.38.38,0,0,0,.26-.11.41.41,0,0,0,.07-.11.4.4,0,0,0,0-.15.32.32,0,0,0,0-.14.42.42,0,0,0-.08-.12.26.26,0,0,0-.11-.07.35.35,0,0,0-.14,0,.32.32,0,0,0-.14,0,.25.25,0,0,0-.12.08.44.44,0,0,0-.08.11.32.32,0,0,0,0,.14m1.27-.79v1.49a1.77,1.77,0,0,1,0,.24.87.87,0,0,1-.05.19.52.52,0,0,1-.11.19,1.08,1.08,0,0,1-.2.16.93.93,0,0,1-.25.1,1.06,1.06,0,0,1-.31,0,1.16,1.16,0,0,1-.34,0,.8.8,0,0,1-.28-.13.69.69,0,0,1-.19-.19.82.82,0,0,1-.1-.24h.64a.26.26,0,0,0,.27.15.33.33,0,0,0,.27-.1.37.37,0,0,0,.1-.27v-.16l-.12.1-.12.07-.13,0h-.14a.82.82,0,0,1-.57-.22.76.76,0,0,1-.16-.26.88.88,0,0,1-.06-.33.77.77,0,0,1,.07-.34.73.73,0,0,1,.17-.28.76.76,0,0,1,.25-.18.72.72,0,0,1,.33-.07.63.63,0,0,1,.48.21v-.16Z" transform="translate(0 0)"/><path class="cls-2" d="M175.08,117.43h-.56v-1.6h.56Zm-.6-2.22a.21.21,0,0,1,0-.12.24.24,0,0,1,.06-.11.41.41,0,0,1,.11-.07l.12,0,.12,0,.1.07a.26.26,0,0,1,.07.11.21.21,0,0,1,0,.12.27.27,0,0,1,0,.12.18.18,0,0,1-.07.1.23.23,0,0,1-.1.07.27.27,0,0,1-.12,0,.24.24,0,0,1-.12,0,.26.26,0,0,1-.11-.07.17.17,0,0,1-.06-.1.27.27,0,0,1,0-.12" transform="translate(0 0)"/><path class="cls-2" d="M175.47,115.83H176v.2a.64.64,0,0,1,.23-.19.82.82,0,0,1,.28,0,.65.65,0,0,1,.29.06.51.51,0,0,1,.21.15.76.76,0,0,1,.09.18.85.85,0,0,1,0,.23v1h-.57v-.81a.92.92,0,0,0,0-.19.23.23,0,0,0-.06-.12l-.08,0-.1,0a.27.27,0,0,0-.22.09.32.32,0,0,0-.08.24v.86h-.57Z" transform="translate(0 0)"/><path class="cls-2" d="M149.93,105.14l1.13,1.75h-2.27Zm7.42,1.75h-2.27l1.13-1.75Zm-2.54.48h2.43l-3.71,4.18Zm-2.2,4.18-3.72-4.18h2.43Zm-1.11-4.87-1.12-1.74h2.25Zm2-1.74h2.27l-1.14,1.75Zm-1.55,2,1.12-1.73,1.12,1.73Zm2.36.48-1.24,4-1.24-4Zm2.2-2.66a.55.55,0,0,0-.47-.25H150.1a.55.55,0,0,0-.47.25l-1.35,2.08a.56.56,0,0,0,.05.68l4.32,4.85a.54.54,0,0,0,.42.18.56.56,0,0,0,.42-.18l4.31-4.85a.57.57,0,0,0,.06-.68Z" transform="translate(0 0)"/><path class="cls-9" d="M171.64,97.43H134.49a.45.45,0,0,1-.44-.45v-5.2a.44.44,0,0,1,.44-.44h37.15a.44.44,0,0,1,.44.44V97a.44.44,0,0,1-.44.45" transform="translate(0 0)"/><path class="cls-10" d="M171.64,97H134.49a.44.44,0,0,1-.44-.44v-5.2a.45.45,0,0,1,.44-.45h37.15a.44.44,0,0,1,.44.45v5.2a.43.43,0,0,1-.44.44" transform="translate(0 0)"/></g><rect class="cls-10" x="134.27" y="91.12" width="37.61" height="5.65"/><rect class="cls-10" x="145.24" y="92.44" width="24.87" height="2.99"/><g class="cls-3"><path class="cls-2" d="M146.5,94.65a2.09,2.09,0,0,1-.34,0c-.51,0-.82-.26-.82-.74a.74.74,0,0,1,.82-.79,1,1,0,0,1,.33.06l0,.25a.63.63,0,0,0-.32-.08.5.5,0,0,0-.5.54.49.49,0,0,0,.51.53.83.83,0,0,0,.32-.06Z" transform="translate(0 0)"/><path class="cls-2" d="M147.47,94.09a.28.28,0,0,0-.28-.32c-.18,0-.27.15-.27.32s.09.38.27.38.28-.14.28-.38m-.28.6a.54.54,0,0,1-.57-.56.58.58,0,1,1,1.15,0,.54.54,0,0,1-.58.56" transform="translate(0 0)"/><path class="cls-2" d="M148.71,94.67v-.62c0-.16,0-.28-.18-.28s-.25.17-.25.37v.53H148v-1.1h.27v.15h0a.41.41,0,0,1,.36-.17c.25,0,.37.17.37.43v.69Z" transform="translate(0 0)"/><path class="cls-2" d="M150,94.67a.68.68,0,0,1-.21,0,.32.32,0,0,1-.35-.35v-.56h-.21v-.21h.21v-.22l.28-.09v.31h.26v.21h-.26v.51c0,.11,0,.18.14.18a.25.25,0,0,0,.13,0Z" transform="translate(0 0)"/></g><path class="cls-2" d="M150.13,94.67h.28v-1.1h-.28Zm0-1.3h.28V93.1h-.28Z" transform="translate(0 0)"/><g class="cls-3"><path class="cls-2" d="M151.44,94.67v-.62c0-.16,0-.28-.19-.28s-.25.17-.25.37v.53h-.28v-1.1H151v.15h0a.42.42,0,0,1,.36-.17c.25,0,.37.17.37.43v.69Z" transform="translate(0 0)"/><path class="cls-2" d="M152.76,94.67v-.15h0a.46.46,0,0,1-.36.17c-.24,0-.37-.16-.37-.43v-.69h.28v.63c0,.22.08.27.19.27s.25-.16.25-.37v-.53H153v1.1Z" transform="translate(0 0)"/><path class="cls-2" d="M154,94c0-.16-.09-.26-.24-.26s-.23.1-.25.26Zm.19.6a.82.82,0,0,1-.38.08.52.52,0,0,1-.57-.57.51.51,0,0,1,.51-.57c.37,0,.52.23.52.66h-.76a.3.3,0,0,0,.32.28.77.77,0,0,0,.36-.12Z" transform="translate(0 0)"/></g><polygon class="cls-2" points="156.15 94.67 155.91 93.83 155.91 93.83 155.67 94.67 155.34 94.67 154.97 93.57 155.28 93.57 155.52 94.38 155.52 94.38 155.75 93.57 156.08 93.57 156.32 94.38 156.32 94.38 156.55 93.57 156.82 93.57 156.48 94.67 156.15 94.67"/><path class="cls-2" d="M157,94.67h.28v-1.1H157Zm0-1.3h.28V93.1H157Z" transform="translate(0 0)"/><g class="cls-3"><path class="cls-2" d="M158.24,94.67a.68.68,0,0,1-.21,0,.32.32,0,0,1-.35-.35v-.56h-.21v-.21h.21v-.22l.28-.09v.31h.26v.21H158v.51c0,.11,0,.18.14.18a.25.25,0,0,0,.13,0Z" transform="translate(0 0)"/><path class="cls-2" d="M159.14,94.67v-.62c0-.2-.06-.28-.19-.28s-.25.15-.25.37v.53h-.29v-1.6h.29v.65h0a.43.43,0,0,1,.35-.17c.25,0,.37.17.37.42v.7Z" transform="translate(0 0)"/></g><polygon class="cls-2" points="161.18 94.67 160.61 93.56 160.6 93.56 160.6 94.67 160.32 94.67 160.32 93.18 160.69 93.18 161.25 94.29 161.26 94.29 161.26 93.18 161.54 93.18 161.54 94.67 161.18 94.67"/><polygon class="cls-2" points="162.77 94.67 162.77 94.02 162.17 94.02 162.17 94.67 161.87 94.67 161.87 93.18 162.17 93.18 162.17 93.78 162.77 93.78 162.77 93.18 163.07 93.18 163.07 94.67 162.77 94.67"/><g class="cls-3"><path class="cls-2" d="M163.41,94.37a.72.72,0,0,0,.34.09c.11,0,.26-.06.26-.19s-.1-.16-.24-.22-.41-.16-.41-.44.24-.45.52-.45a1,1,0,0,1,.36,0l0,.24a.8.8,0,0,0-.3-.06.21.21,0,0,0-.24.21c0,.11.13.15.26.2s.4.17.4.44-.21.45-.56.45a1.52,1.52,0,0,1-.38,0Z" transform="translate(0 0)"/></g><rect class="cls-2" x="165.17" y="93.07" width="0.29" height="1.6"/><g class="cls-3"><path class="cls-2" d="M166.54,94.09a.28.28,0,1,0-.56,0c0,.24.09.38.28.38s.28-.14.28-.38m-.28.6a.53.53,0,0,1-.57-.56.57.57,0,1,1,.57.56" transform="translate(0 0)"/><path class="cls-2" d="M167.78,94.11c0-.17-.06-.34-.24-.34s-.25.14-.25.34.08.34.24.34.25-.17.25-.34m0,.38h0a.4.4,0,0,1-.34.18c-.31,0-.45-.23-.45-.56s.13-.56.46-.56a.35.35,0,0,1,.34.17h0v-.15h.28v1a.52.52,0,0,1-.58.57.93.93,0,0,1-.38-.07l0-.25a.74.74,0,0,0,.32.1c.27,0,.33-.17.33-.4Z" transform="translate(0 0)"/></g><path class="cls-2" d="M168.37,94.67h.28v-1.1h-.28Zm0-1.3h.28V93.1h-.28Z" transform="translate(0 0)"/><g class="cls-3"><path class="cls-2" d="M169.68,94.67v-.62c0-.16,0-.28-.19-.28s-.25.17-.25.37v.53H169v-1.1h.27v.15h0a.41.41,0,0,1,.36-.17c.25,0,.37.17.37.43v.69Z" transform="translate(0 0)"/></g><rect class="cls-10" x="136.1" y="92.5" width="7.3" height="2.87"/><g class="cls-3"><path class="cls-2" d="M143.19,92.8l-.16.48a1.17,1.17,0,0,0-.53-.11c-.26,0-.46,0-.46.23s.94.21.94.94-.62.84-1.19.84a2.86,2.86,0,0,1-.74-.12l.15-.49a1.28,1.28,0,0,0,.59.14c.21,0,.52,0,.52-.29s-.94-.24-.94-.92.55-.81,1.08-.81a1.86,1.86,0,0,1,.74.11m-1.86-.07-.5,2.41h-.65l.21-1h-.76l-.22,1h-.64l.5-2.41h.65l-.19.92h.76l.19-.92Zm-2.3,0-.51,2.41h-.81l-.5-1.67h0l-.34,1.67h-.61l.52-2.41h.81l.49,1.67h0l.34-1.67Zm4.44-.29H136v3h7.43Z" transform="translate(0 0)"/></g><rect class="cls-12" x="378.67" y="153.09" width="0.03" height="0.03"/></g></g></svg>