<svg xmlns="http://www.w3.org/2000/svg" xmlns:xlink="http://www.w3.org/1999/xlink" viewBox="0 0 376.49 63.93"><defs><style>.cls-1{fill:none;}.cls-2{fill:#1d1d1b;}.cls-3{fill:#8597a3;}.cls-4{clip-path:url(#clip-path);}.cls-5{fill:#222f6b;}.cls-6{fill:#fff;}.cls-7{fill:#014e9e;}</style><clipPath id="clip-path"><rect class="cls-1" width="218.06" height="63.93"/></clipPath></defs><g id="Layer_2" data-name="Layer 2"><g id="Layer_1-2" data-name="Layer 1"><rect class="cls-2" x="376.46" y="6.56" width="0.03" height="0.03"/><rect class="cls-3" width="218.06" height="63.93"/><g class="cls-4"><path class="cls-5" d="M199.91,48H18.15A2.17,2.17,0,0,1,16,45.78V20.32a2.17,2.17,0,0,1,2.17-2.17H199.91a2.17,2.17,0,0,1,2.17,2.17V45.78A2.17,2.17,0,0,1,199.91,48"/><path class="cls-6" d="M199.91,45.78H18.15A2.17,2.17,0,0,1,16,43.61V18.15A2.17,2.17,0,0,1,18.15,16H199.91a2.17,2.17,0,0,1,2.17,2.17V43.61a2.17,2.17,0,0,1-2.17,2.17"/></g><rect class="cls-6" x="17.07" y="17.07" width="184.01" height="27.63"/><rect class="cls-6" x="70.73" y="23.57" width="121.68" height="14.63"/><path class="cls-7" d="M76.87,33.8a7.14,7.14,0,0,1-1.66.23c-2.49,0-4-1.29-4-3.64s1.49-3.88,4-3.88a4.8,4.8,0,0,1,1.65.3L76.76,28a3.08,3.08,0,0,0-1.58-.39,2.44,2.44,0,0,0-2.44,2.64,2.39,2.39,0,0,0,2.47,2.59,4.07,4.07,0,0,0,1.6-.3Z"/><path class="cls-7" d="M80.28,34a2.65,2.65,0,0,1-2.8-2.77,2.81,2.81,0,1,1,5.62,0A2.66,2.66,0,0,1,80.28,34Zm1.36-2.94a1.37,1.37,0,1,0-2.7,0c0,1.14.44,1.86,1.34,1.86S81.64,32.25,81.64,31.09Z"/><path class="cls-7" d="M87.73,33.91v-3c0-.8-.17-1.39-.91-1.39s-1.23.85-1.23,1.8v2.61h-1.4V28.54h1.33v.73h0a2,2,0,0,1,1.76-.86c1.23,0,1.82.85,1.82,2.11v3.39Z"/><path class="cls-7" d="M93.76,33.91a3.89,3.89,0,0,1-1,.12A1.58,1.58,0,0,1,91,32.29V29.56H90v-1h1V27.46l1.4-.44v1.52h1.24v1H92.42v2.49c0,.56.18.9.67.9a1.14,1.14,0,0,0,.62-.15Z"/><path class="cls-7" d="M94.65,27.56V26.22h1.4v1.34Zm0,6.35V28.54h1.4v5.37Z"/><path class="cls-7" d="M101.06,33.91v-3c0-.8-.17-1.39-.91-1.39-.89,0-1.23.85-1.23,1.8v2.61h-1.4V28.54h1.33v.73h0a2,2,0,0,1,1.76-.86c1.23,0,1.82.85,1.82,2.11v3.39Z"/><path class="cls-7" d="M107.5,33.91v-.73h0a2.24,2.24,0,0,1-1.76.85c-1.2,0-1.83-.8-1.83-2.1V28.54h1.4V31.6c0,1.08.4,1.35.91,1.35.84,0,1.23-.78,1.23-1.82V28.54h1.39v5.37Z"/><path class="cls-7" d="M114.57,33.6a3.57,3.57,0,0,1-1.83.43,2.55,2.55,0,0,1-2.82-2.78c0-1.5.78-2.84,2.49-2.84S115,29.54,115,31.65h-3.72A1.41,1.41,0,0,0,112.8,33a3.65,3.65,0,0,0,1.77-.54Zm-.94-2.9c0-.78-.42-1.27-1.14-1.27a1.23,1.23,0,0,0-1.24,1.27Z"/><path class="cls-7" d="M124.1,33.91l-1.17-4.1h0l-1.14,4.1h-1.6l-1.81-5.37h1.48l1.19,4h0l1.08-4h1.63l1.16,4h0l1.11-4h1.34l-1.65,5.37Z"/><path class="cls-7" d="M128.26,27.56V26.22h1.4v1.34Zm0,6.35V28.54h1.4v5.37Z"/><path class="cls-7" d="M134.32,33.91a3.76,3.76,0,0,1-1,.12,1.58,1.58,0,0,1-1.71-1.74V29.56h-1v-1h1V27.46L133,27v1.52h1.24v1H133v2.49c0,.56.17.9.66.9a1.2,1.2,0,0,0,.63-.15Z"/><path class="cls-7" d="M138.72,33.91v-3c0-1-.29-1.37-.9-1.37-.83,0-1.23.75-1.23,1.81v2.6h-1.4V26.09h1.4v3.18h0a2,2,0,0,1,1.68-.86c1.25,0,1.83.87,1.83,2.1v3.4Z"/><path class="cls-7" d="M148.71,33.91l-2.78-5.45h0v5.45h-1.4V26.63h1.79l2.78,5.44h0V26.63h1.4v7.28Z"/><path class="cls-7" d="M156.49,33.91V30.72h-2.92v3.19h-1.46V26.63h1.46v2.94h2.92V26.63H158v7.28Z"/><path class="cls-7" d="M159.65,32.44a3.54,3.54,0,0,0,1.65.44c.53,0,1.29-.27,1.29-.93s-.49-.8-1.21-1.08c-1-.37-2-.78-2-2.14,0-1.57,1.18-2.22,2.56-2.22a5.41,5.41,0,0,1,1.73.26L163.55,28a3.93,3.93,0,0,0-1.48-.31,1,1,0,0,0-1.15,1c0,.56.63.76,1.24,1,1,.37,2,.82,2,2.17s-1,2.2-2.74,2.2a6.33,6.33,0,0,1-1.85-.28Z"/><path class="cls-7" d="M168.25,33.91V26.09h1.39v7.82Z"/><path class="cls-7" d="M173.57,34a2.65,2.65,0,0,1-2.8-2.77,2.81,2.81,0,1,1,5.62,0A2.66,2.66,0,0,1,173.57,34Zm1.36-2.94a1.37,1.37,0,1,0-2.7,0c0,1.14.44,1.86,1.34,1.86S174.93,32.25,174.93,31.09Z"/><path class="cls-7" d="M181,33.05h0a1.93,1.93,0,0,1-1.67.86c-1.48,0-2.19-1.13-2.19-2.71,0-1.3.67-2.79,2.27-2.79a1.77,1.77,0,0,1,1.65.86h0v-.73h1.34v4.87a2.51,2.51,0,0,1-2.82,2.81,4.7,4.7,0,0,1-1.87-.36l.11-1.19a4,4,0,0,0,1.57.47c1.32,0,1.61-.85,1.61-2Zm0-1.89c0-.82-.29-1.66-1.18-1.66s-1.24.72-1.24,1.7c0,.73.39,1.62,1.19,1.62S181,32,181,31.16Z"/><path class="cls-7" d="M183.89,27.56V26.22h1.4v1.34Zm0,6.35V28.54h1.4v5.37Z"/><path class="cls-7" d="M190.25,33.91v-3c0-.8-.17-1.39-.91-1.39s-1.23.85-1.23,1.8v2.61h-1.39V28.54H188v.73h0a2,2,0,0,1,1.76-.86c1.23,0,1.83.85,1.83,2.11v3.39Z"/><rect class="cls-6" x="25.74" y="23.57" width="36.33" height="14.63"/><g class="cls-4"><path class="cls-7" d="M60.7,25.3l-.76,2.35a5.92,5.92,0,0,0-2.61-.54c-1.26,0-2.27.18-2.27,1.13,0,1.67,4.59,1,4.59,4.62,0,3.25-3,4.1-5.78,4.1a13.29,13.29,0,0,1-3.66-.61L51,34a6.17,6.17,0,0,0,2.92.68c1,0,2.52-.19,2.52-1.4,0-1.89-4.59-1.18-4.59-4.5,0-3,2.68-3.95,5.27-3.95a9.69,9.69,0,0,1,3.63.52M51.6,25,49.14,36.75H46l1.05-5H43.27l-1.05,5H39.05L41.51,25h3.17l-.93,4.5h3.74l.94-4.5ZM40.34,25,37.83,36.75H33.9l-2.48-8.14h0l-1.65,8.14h-3L29.29,25h4l2.42,8.16h0L37.36,25Zm21.72-1.41H25.74V38.2H62.06Z"/></g></g></g></svg>