<svg xmlns="http://www.w3.org/2000/svg" viewBox="0 0 371.27 69.18"><defs><style>.cls-1{fill:#1d1d1b;}.cls-2{fill:#006544;}.cls-3{fill:#222f6b;}.cls-4{fill:#014e9e;}.cls-5{fill:#fff;}.cls-6{fill:#e42313;}</style></defs><g id="Layer_2" data-name="Layer 2"><g id="Layer_1-2" data-name="Layer 1"><rect class="cls-1" x="371.24" y="7.58" width="0.03" height="0.03"/><path class="cls-2" d="M4,8.35.38,4.82A1.25,1.25,0,0,1,.36,3,1.27,1.27,0,0,1,2.15,3L4,4.8,8.47.37a1.24,1.24,0,0,1,1.78,0,1.25,1.25,0,0,1,0,1.78Z"/><path class="cls-3" d="M160.92,69.18H1.9A1.9,1.9,0,0,1,0,67.28V45a1.9,1.9,0,0,1,1.9-1.89h159a1.9,1.9,0,0,1,1.9,1.89V67.28a1.9,1.9,0,0,1-1.9,1.9"/><path class="cls-4" d="M160.92,67.28H1.9A1.9,1.9,0,0,1,0,65.39V43.11a1.9,1.9,0,0,1,1.9-1.9h159a1.9,1.9,0,0,1,1.9,1.9V65.39a1.9,1.9,0,0,1-1.9,1.89"/><rect class="cls-4" x="0.95" y="42.16" width="161" height="24.18"/><rect class="cls-4" x="47.9" y="47.85" width="106.46" height="12.8"/><path class="cls-5" d="M53.27,57.28a7,7,0,0,1-1.45.2c-2.18,0-3.49-1.13-3.49-3.19a3.15,3.15,0,0,1,3.49-3.4,4,4,0,0,1,1.44.27l-.09,1.07a2.66,2.66,0,0,0-1.38-.34,2.13,2.13,0,0,0-2.13,2.31,2.09,2.09,0,0,0,2.16,2.27,3.64,3.64,0,0,0,1.4-.26Z"/><path class="cls-5" d="M57.44,54.9a1.2,1.2,0,1,0-2.36,0c0,1,.38,1.63,1.18,1.63s1.18-.61,1.18-1.63m-1.18,2.58a2.32,2.32,0,0,1-2.46-2.43,2.46,2.46,0,1,1,4.92,0,2.32,2.32,0,0,1-2.46,2.43"/><path class="cls-5" d="M62.77,57.37V54.73c0-.7-.14-1.22-.79-1.22s-1.08.75-1.08,1.58v2.28H59.68v-4.7h1.16v.64h0a1.74,1.74,0,0,1,1.54-.75c1.07,0,1.59.74,1.59,1.84v3Z"/><path class="cls-5" d="M68.05,57.37a3.35,3.35,0,0,1-.9.11A1.39,1.39,0,0,1,65.65,56V53.56h-.9v-.89h.9v-.94l1.23-.39v1.33H68v.89H66.88v2.18c0,.5.15.79.58.79A1.12,1.12,0,0,0,68,56.4Z"/><path class="cls-5" d="M68.83,52.67h1.22v4.7H68.83Zm0-2h1.22v1.17H68.83Z"/><path class="cls-5" d="M74.43,57.37V54.73c0-.7-.14-1.22-.79-1.22s-1.08.75-1.08,1.58v2.28H71.34v-4.7H72.5v.64h0a1.74,1.74,0,0,1,1.54-.75c1.07,0,1.59.74,1.59,1.84v3Z"/><path class="cls-5" d="M80.07,57.37v-.64h0a2,2,0,0,1-1.54.75c-1.05,0-1.6-.71-1.6-1.85v-3h1.23v2.68c0,.94.34,1.18.79,1.18.74,0,1.08-.69,1.08-1.59V52.67h1.22v4.7Z"/><path class="cls-5" d="M85.44,54.56c0-.68-.37-1.11-1-1.11a1.06,1.06,0,0,0-1.07,1.11Zm.82,2.54a3.2,3.2,0,0,1-1.61.38A2.24,2.24,0,0,1,82.19,55a2.2,2.2,0,0,1,2.18-2.48c1.59,0,2.23,1,2.23,2.84H83.36a1.22,1.22,0,0,0,1.35,1.18,3.24,3.24,0,0,0,1.55-.47Z"/><polygon class="cls-5" points="94.59 57.37 93.57 53.78 93.56 53.78 92.55 57.37 91.16 57.37 89.57 52.67 90.86 52.67 91.91 56.14 91.92 56.14 92.87 52.67 94.3 52.67 95.32 56.14 95.33 56.14 96.31 52.67 97.48 52.67 96.04 57.37 94.59 57.37"/><path class="cls-5" d="M98.24,52.67h1.22v4.7H98.24Zm0-2h1.22v1.17H98.24Z"/><path class="cls-5" d="M103.54,57.37a3.35,3.35,0,0,1-.9.11A1.38,1.38,0,0,1,101.15,56V53.56h-.91v-.89h.91v-.94l1.22-.39v1.33h1.09v.89h-1.09v2.18c0,.5.15.79.58.79a1.12,1.12,0,0,0,.55-.13Z"/><path class="cls-5" d="M107.39,57.37V54.71c0-.85-.26-1.2-.8-1.2-.72,0-1.07.66-1.07,1.59v2.27H104.3V50.53h1.22v2.78h0a1.74,1.74,0,0,1,1.47-.75c1.09,0,1.6.76,1.6,1.83v3Z"/><polygon class="cls-5" points="116.13 57.37 113.69 52.61 113.67 52.61 113.67 57.37 112.45 57.37 112.45 51 114.02 51 116.45 55.76 116.47 55.76 116.47 51 117.69 51 117.69 57.37 116.13 57.37"/><polygon class="cls-5" points="122.93 57.37 122.93 54.58 120.38 54.58 120.38 57.37 119.1 57.37 119.1 51 120.38 51 120.38 53.57 122.93 53.57 122.93 51 124.21 51 124.21 57.37 122.93 57.37"/><path class="cls-5" d="M125.7,56.08a3.05,3.05,0,0,0,1.44.39c.47,0,1.13-.23,1.13-.82s-.43-.69-1.06-.94c-.84-.33-1.73-.68-1.73-1.88,0-1.36,1-1.94,2.24-1.94a4.64,4.64,0,0,1,1.51.23l-.12,1.05a3.33,3.33,0,0,0-1.29-.28.89.89,0,0,0-1,.89c0,.48.55.67,1.08.87.86.32,1.71.72,1.71,1.9s-.87,1.93-2.39,1.93a5.84,5.84,0,0,1-1.63-.25Z"/><rect class="cls-5" x="133.22" y="50.53" width="1.22" height="6.84"/><path class="cls-5" d="M139.07,54.9a1.2,1.2,0,1,0-2.37,0c0,1,.39,1.63,1.18,1.63s1.19-.61,1.19-1.63m-1.19,2.58a2.32,2.32,0,0,1-2.45-2.43,2.46,2.46,0,1,1,4.91,0,2.32,2.32,0,0,1-2.46,2.43"/><path class="cls-5" d="M144.39,55c0-.72-.25-1.46-1-1.46s-1.08.63-1.08,1.49c0,.63.34,1.42,1,1.42s1.07-.69,1.07-1.45m0,1.65h0a1.68,1.68,0,0,1-1.46.75c-1.3,0-1.92-1-1.92-2.37,0-1.14.59-2.44,2-2.44a1.56,1.56,0,0,1,1.44.75h0v-.64h1.17v4.26a2.2,2.2,0,0,1-2.47,2.46,4.06,4.06,0,0,1-1.64-.32l.1-1a3.42,3.42,0,0,0,1.38.41c1.15,0,1.4-.74,1.4-1.71Z"/><path class="cls-5" d="M146.9,52.67h1.23v4.7H146.9Zm0-2h1.23v1.17H146.9Z"/><path class="cls-5" d="M152.51,57.37V54.73c0-.7-.15-1.22-.8-1.22s-1.07.75-1.07,1.58v2.28h-1.23v-4.7h1.16v.64h0a1.74,1.74,0,0,1,1.54-.75c1.08,0,1.6.74,1.6,1.84v3Z"/><rect class="cls-4" x="8.79" y="48.1" width="31.23" height="12.29"/><path class="cls-5" d="M39.13,49.36l-.67,2a5.27,5.27,0,0,0-2.29-.47c-1.09,0-2,.16-2,1,0,1.46,4,.92,4,4,0,2.84-2.66,3.58-5.06,3.58A11.72,11.72,0,0,1,29.94,59l.66-2.1a5.31,5.31,0,0,0,2.55.6c.86,0,2.21-.17,2.21-1.23,0-1.65-4-1-4-3.94,0-2.66,2.34-3.45,4.61-3.45a8.58,8.58,0,0,1,3.18.45m-8-.28L29,59.38H26.24L27.16,55H23.88L23,59.38H20.18l2.15-10.3h2.78L24.29,53h3.28l.82-3.94Zm-9.85,0-2.19,10.3H15.67l-2.16-7.12h0L12,59.38H9.43l2.21-10.3H15.1l2.12,7.15h0l1.45-7.15Zm19-1.23H8.53v12.8H40.32Z"/><path class="cls-3" d="M107.28,36.31H1.26A1.26,1.26,0,0,1,0,35.05V20.2a1.27,1.27,0,0,1,1.26-1.27h106a1.27,1.27,0,0,1,1.27,1.27V35.05a1.26,1.26,0,0,1-1.27,1.26"/><path class="cls-4" d="M107.28,35.05H1.26A1.27,1.27,0,0,1,0,33.78V18.93a1.26,1.26,0,0,1,1.26-1.26h106a1.26,1.26,0,0,1,1.27,1.26V33.78a1.27,1.27,0,0,1-1.27,1.27"/><rect class="cls-4" x="0.63" y="18.3" width="107.33" height="16.12"/><rect class="cls-4" x="31.93" y="22.09" width="70.97" height="8.53"/><path class="cls-5" d="M35.52,28.38a4.61,4.61,0,0,1-1,.13c-1.45,0-2.33-.75-2.33-2.12a2.1,2.1,0,0,1,2.33-2.27,2.72,2.72,0,0,1,1,.18l-.06.72a1.73,1.73,0,0,0-.92-.23,1.41,1.41,0,0,0-1.42,1.54,1.39,1.39,0,0,0,1.44,1.51,2.49,2.49,0,0,0,.93-.17Z"/><path class="cls-5" d="M38.29,26.8c0-.5-.26-.93-.79-.93s-.78.43-.78.93c0,.66.26,1.08.78,1.08s.79-.41.79-1.08m-.79,1.71a1.55,1.55,0,0,1-1.63-1.62,1.64,1.64,0,1,1,1.63,1.62"/><path class="cls-5" d="M41.85,28.44V26.68c0-.47-.1-.81-.53-.81s-.72.49-.72,1.05v1.52h-.81V25.31h.77v.42h0a1.18,1.18,0,0,1,1-.5c.72,0,1.06.5,1.06,1.23v2Z"/><path class="cls-5" d="M45.36,28.44a2.08,2.08,0,0,1-.59.07.92.92,0,0,1-1-1V25.9h-.6v-.59h.6v-.63l.81-.26v.89h.73v.59h-.73v1.46c0,.32.11.52.39.52a.7.7,0,0,0,.37-.09Z"/><path class="cls-5" d="M45.89,25.31h.81v3.13h-.81Zm0-1.35h.81v.78h-.81Z"/><path class="cls-5" d="M49.62,28.44V26.68c0-.47-.1-.81-.53-.81s-.72.49-.72,1.05v1.52h-.81V25.31h.77v.42h0a1.18,1.18,0,0,1,1-.5c.72,0,1.07.5,1.07,1.23v2Z"/><path class="cls-5" d="M53.38,28.44V28h0a1.32,1.32,0,0,1-1,.5c-.7,0-1.06-.47-1.06-1.23v-2h.81v1.78c0,.63.23.79.53.79.49,0,.72-.46.72-1.06V25.31h.81v3.13Z"/><path class="cls-5" d="M57,26.57c0-.45-.25-.74-.67-.74a.71.71,0,0,0-.72.74Zm.54,1.69a2,2,0,0,1-1.07.25,1.48,1.48,0,0,1-1.64-1.62,1.47,1.47,0,0,1,1.46-1.66c1.06,0,1.49.66,1.49,1.9H55.57a.82.82,0,0,0,.9.79,2.09,2.09,0,0,0,1-.32Z"/><polygon class="cls-5" points="63.06 28.44 62.38 26.05 62.37 26.05 61.7 28.44 60.77 28.44 59.71 25.31 60.58 25.31 61.27 27.62 61.28 27.62 61.91 25.31 62.86 25.31 63.54 27.62 63.56 27.62 64.21 25.31 64.98 25.31 64.02 28.44 63.06 28.44"/><path class="cls-5" d="M65.49,25.31h.82v3.13h-.82Zm0-1.35h.82v.78h-.82Z"/><path class="cls-5" d="M69,28.44a2.15,2.15,0,0,1-.6.07.92.92,0,0,1-1-1V25.9h-.6v-.59h.6v-.63l.82-.26v.89H69v.59h-.72v1.46c0,.32.1.52.39.52a.64.64,0,0,0,.36-.09Z"/><path class="cls-5" d="M71.59,28.44V26.67c0-.57-.17-.8-.53-.8s-.71.43-.71,1.05v1.52h-.82V23.88h.82v1.85h0a1.18,1.18,0,0,1,1-.5c.73,0,1.07.51,1.07,1.23v2Z"/><polygon class="cls-5" points="77.42 28.44 75.8 25.26 75.78 25.26 75.78 28.44 74.97 28.44 74.97 24.19 76.01 24.19 77.63 27.37 77.64 27.37 77.64 24.19 78.46 24.19 78.46 28.44 77.42 28.44"/><polygon class="cls-5" points="81.96 28.44 81.96 26.58 80.25 26.58 80.25 28.44 79.4 28.44 79.4 24.19 80.25 24.19 80.25 25.91 81.96 25.91 81.96 24.19 82.81 24.19 82.81 28.44 81.96 28.44"/><path class="cls-5" d="M83.8,27.58a2,2,0,0,0,1,.26c.31,0,.76-.16.76-.54s-.29-.47-.71-.63c-.57-.22-1.16-.46-1.16-1.25s.69-1.3,1.49-1.3a3.29,3.29,0,0,1,1,.15l-.08.7a2.18,2.18,0,0,0-.86-.18.59.59,0,0,0-.67.59c0,.32.37.44.72.58.57.22,1.14.48,1.14,1.27s-.58,1.28-1.6,1.28a3.92,3.92,0,0,1-1.08-.16Z"/><rect class="cls-5" x="88.81" y="23.88" width="0.81" height="4.56"/><path class="cls-5" d="M92.71,26.8a.82.82,0,0,0-.79-.93c-.51,0-.78.43-.78.93,0,.66.25,1.08.78,1.08s.79-.41.79-1.08m-.79,1.71a1.55,1.55,0,0,1-1.64-1.62,1.64,1.64,0,1,1,3.28,0,1.55,1.55,0,0,1-1.64,1.62"/><path class="cls-5" d="M96.26,26.84c0-.48-.17-1-.68-1s-.73.42-.73,1,.23.95.7.95.71-.47.71-1m0,1.1h0a1.13,1.13,0,0,1-1,.5c-.87,0-1.28-.66-1.28-1.58,0-.76.39-1.63,1.33-1.63a1,1,0,0,1,1,.5h0v-.42h.78v2.84a1.47,1.47,0,0,1-1.64,1.64,2.76,2.76,0,0,1-1.1-.21l.07-.7a2.31,2.31,0,0,0,.92.28c.76,0,.93-.5.93-1.15Z"/><path class="cls-5" d="M97.94,25.31h.81v3.13h-.81Zm0-1.35h.81v.78h-.81Z"/><path class="cls-5" d="M101.67,28.44V26.68c0-.47-.1-.81-.53-.81s-.72.49-.72,1.05v1.52h-.81V25.31h.77v.42h0a1.18,1.18,0,0,1,1-.5c.72,0,1.07.5,1.07,1.23v2Z"/><rect class="cls-4" x="5.86" y="22.26" width="20.82" height="8.19"/><path class="cls-5" d="M26.08,23.1l-.44,1.37a3.46,3.46,0,0,0-1.52-.31c-.74,0-1.33.1-1.33.66,0,1,2.68.61,2.68,2.69,0,1.9-1.77,2.39-3.37,2.39A8.12,8.12,0,0,1,20,29.55l.44-1.4a3.56,3.56,0,0,0,1.7.39c.57,0,1.47-.1,1.47-.81,0-1.11-2.68-.69-2.68-2.63,0-1.77,1.56-2.3,3.08-2.3a5.72,5.72,0,0,1,2.11.3m-5.31-.18-1.43,6.86H17.49l.61-2.94H15.92l-.62,2.94H13.46l1.43-6.86h1.85l-.54,2.62h2.18l.54-2.62Zm-6.56,0-1.46,6.86h-2.3L9,25H9L8,29.78H6.29l1.47-6.86h2.3l1.42,4.76h0l1-4.76Zm12.67-.83H5.69v8.53H26.88Z"/><path class="cls-6" d="M217.28,4.11l2.5-2.5a.92.92,0,0,0,0-1.33.94.94,0,0,0-1.33,0L216,2.78l-2.5-2.5a.94.94,0,0,0-1.33,0,.92.92,0,0,0,0,1.33l2.5,2.5-2.5,2.49a.92.92,0,0,0,0,1.33,1,1,0,0,0,.7.25.81.81,0,0,0,.63-.25L216,5.44l2.49,2.49a1,1,0,0,0,.7.25.81.81,0,0,0,.63-.25.92.92,0,0,0,0-1.33Z"/><path class="cls-3" d="M248.21,23.83H212.28a.43.43,0,0,1-.43-.43v-5a.42.42,0,0,1,.43-.42h35.93a.42.42,0,0,1,.43.42v5a.43.43,0,0,1-.43.43"/><path class="cls-4" d="M248.21,23.4H212.28a.43.43,0,0,1-.43-.43v-5a.43.43,0,0,1,.43-.43h35.93a.43.43,0,0,1,.43.43v5a.43.43,0,0,1-.43.43"/><rect class="cls-4" x="212.06" y="17.72" width="36.38" height="5.46"/><rect class="cls-4" x="222.67" y="19.01" width="24.06" height="2.89"/><path class="cls-5" d="M223.89,21.14a1.86,1.86,0,0,1-.33,0c-.49,0-.79-.25-.79-.72a.72.72,0,0,1,.79-.77,1.28,1.28,0,0,1,.33.06l0,.25a.58.58,0,0,0-.31-.08.52.52,0,0,0,0,1,.75.75,0,0,0,.31-.06Z"/><path class="cls-5" d="M224.83,20.6a.27.27,0,0,0-.27-.31c-.17,0-.26.14-.26.31s.08.37.26.37.27-.14.27-.37m-.27.58a.52.52,0,0,1-.55-.55.56.56,0,1,1,.55.55"/><path class="cls-5" d="M226,21.16v-.6c0-.16,0-.27-.18-.27s-.24.17-.24.35v.52h-.27V20.1h.26v.14h0a.4.4,0,0,1,.35-.17c.24,0,.36.17.36.42v.67Z"/><path class="cls-5" d="M227.23,21.16l-.21,0a.31.31,0,0,1-.33-.34V20.3h-.21v-.2h.21v-.22l.27-.08v.3h.25v.2H227v.49c0,.11,0,.18.13.18a.25.25,0,0,0,.13,0Z"/><path class="cls-5" d="M227.4,21.16h.28V20.1h-.28Zm0-1.26h.28v-.26h-.28Z"/><path class="cls-5" d="M228.67,21.16v-.6c0-.16,0-.27-.18-.27s-.24.17-.24.35v.52H228V20.1h.26v.14h0a.38.38,0,0,1,.34-.17c.25,0,.37.17.37.42v.67Z"/><path class="cls-5" d="M229.94,21.16V21h0a.44.44,0,0,1-.35.17c-.24,0-.36-.16-.36-.41V20.1h.28v.6c0,.21.07.27.18.27s.24-.16.24-.36V20.1h.28v1.06Z"/><path class="cls-5" d="M231.16,20.52c0-.15-.09-.25-.23-.25a.23.23,0,0,0-.24.25Zm.18.58a.77.77,0,0,1-.36.08.51.51,0,0,1-.56-.55.5.5,0,0,1,.49-.56c.37,0,.51.22.51.64h-.73a.27.27,0,0,0,.3.27.69.69,0,0,0,.35-.11Z"/><polygon class="cls-5" points="233.23 21.16 233 20.35 232.99 20.35 232.76 21.16 232.45 21.16 232.09 20.1 232.38 20.1 232.62 20.88 232.62 20.88 232.84 20.1 233.16 20.1 233.39 20.88 233.39 20.88 233.61 20.1 233.88 20.1 233.55 21.16 233.23 21.16"/><path class="cls-5" d="M234.05,21.16h.28V20.1h-.28Zm0-1.26h.28v-.26h-.28Z"/><path class="cls-5" d="M235.25,21.16l-.21,0a.31.31,0,0,1-.33-.34V20.3h-.21v-.2h.21v-.22l.27-.08v.3h.25v.2H235v.49c0,.11,0,.18.13.18a.25.25,0,0,0,.13,0Z"/><path class="cls-5" d="M236.12,21.16v-.6c0-.2-.06-.27-.18-.27s-.25.14-.25.36v.51h-.27V19.61h.27v.63h0a.4.4,0,0,1,.33-.17c.25,0,.36.17.36.42v.67Z"/><polygon class="cls-5" points="238.09 21.16 237.54 20.08 237.54 20.08 237.54 21.16 237.26 21.16 237.26 19.72 237.62 19.72 238.16 20.8 238.17 20.8 238.17 19.72 238.44 19.72 238.44 21.16 238.09 21.16"/><polygon class="cls-5" points="239.63 21.16 239.63 20.53 239.05 20.53 239.05 21.16 238.76 21.16 238.76 19.72 239.05 19.72 239.05 20.3 239.63 20.3 239.63 19.72 239.92 19.72 239.92 21.16 239.63 21.16"/><path class="cls-5" d="M240.26,20.87a.73.73,0,0,0,.32.09c.11,0,.26-.06.26-.19s-.1-.16-.24-.21-.39-.16-.39-.43.23-.44.5-.44a.93.93,0,0,1,.34.06l0,.23a.8.8,0,0,0-.3-.06.2.2,0,0,0-.22.2c0,.11.12.15.24.2s.39.16.39.43-.2.43-.54.43a1.5,1.5,0,0,1-.37-.05Z"/><rect class="cls-5" x="241.95" y="19.61" width="0.28" height="1.55"/><path class="cls-5" d="M243.28,20.6a.27.27,0,1,0-.54,0c0,.23.09.37.27.37s.27-.14.27-.37m-.27.58a.56.56,0,1,1,.55-.55.52.52,0,0,1-.55.55"/><path class="cls-5" d="M244.48,20.62c0-.17-.06-.33-.23-.33s-.25.14-.25.33.08.32.24.32.24-.15.24-.32m0,.37h0a.39.39,0,0,1-.33.17c-.3,0-.44-.22-.44-.54a.49.49,0,0,1,.45-.55.37.37,0,0,1,.33.17h0V20.1h.27v1a.5.5,0,0,1-.56.56.88.88,0,0,1-.37-.08l0-.23a.82.82,0,0,0,.31.09c.26,0,.32-.17.32-.39Z"/><path class="cls-5" d="M245.05,21.16h.27V20.1h-.27Zm0-1.26h.27v-.26h-.27Z"/><path class="cls-5" d="M246.31,21.16v-.6c0-.16,0-.27-.18-.27s-.24.17-.24.35v.52h-.28V20.1h.27v.14h0a.39.39,0,0,1,.35-.17c.24,0,.36.17.36.42v.67Z"/><rect class="cls-4" x="213.83" y="19.07" width="7.06" height="2.78"/><path class="cls-5" d="M220.69,19.35l-.15.46a1.33,1.33,0,0,0-.52-.1c-.24,0-.45,0-.45.22s.91.21.91.91-.6.81-1.14.81a2.36,2.36,0,0,1-.72-.12l.14-.47a1.27,1.27,0,0,0,.58.13c.19,0,.5,0,.5-.27s-.91-.24-.91-.89.53-.78,1-.78a2,2,0,0,1,.72.1m-1.8-.06-.49,2.32h-.62l.21-1h-.75l-.2,1h-.63l.49-2.32h.62l-.18.89h.74l.18-.89Zm-2.23,0-.49,2.32h-.78L214.9,20h0l-.32,1.61H214l.5-2.32h.78l.48,1.61h0l.32-1.61ZM221,19h-7.18V21.9H221Z"/></g></g></svg>