<svg xmlns="http://www.w3.org/2000/svg" xmlns:xlink="http://www.w3.org/1999/xlink" viewBox="0 0 402.48 118"><defs><style>.cls-1{fill:none;}.cls-2{fill:#8597a3;}.cls-3{clip-path:url(#clip-path);}.cls-4{fill:#222f6b;}.cls-5{fill:#fff;}.cls-6{fill:#014e9e;}</style><clipPath id="clip-path"><rect class="cls-1" width="402.48" height="118"/></clipPath></defs><g id="Layer_2" data-name="Layer 2"><g id="Layer_1-2" data-name="Layer 1"><rect class="cls-2" width="402.48" height="118"/><g class="cls-3"><path class="cls-4" d="M369,88.5H33.5a4,4,0,0,1-4-4v-47a4,4,0,0,1,4-4H369a4,4,0,0,1,4,4v47a4,4,0,0,1-4,4"/><path class="cls-5" d="M369,84.5H33.5a4,4,0,0,1-4-4v-47a4,4,0,0,1,4-4H369a4,4,0,0,1,4,4v47a4,4,0,0,1-4,4"/></g><rect class="cls-5" x="31.5" y="31.5" width="339.63" height="51"/><rect class="cls-5" x="130.55" y="43.5" width="224.58" height="27"/><path class="cls-6" d="M141.88,62.39a13.83,13.83,0,0,1-3.06.42c-4.6,0-7.37-2.38-7.37-6.71,0-4.54,2.76-7.18,7.37-7.18a8.78,8.78,0,0,1,3,.56l-.19,2.27a5.51,5.51,0,0,0-2.9-.71c-2.72,0-4.51,2.06-4.51,4.87s1.77,4.79,4.56,4.79a7.6,7.6,0,0,0,3-.56Z"/><path class="cls-6" d="M148.18,62.81A4.89,4.89,0,0,1,143,57.69a5.19,5.19,0,1,1,10.37,0A4.89,4.89,0,0,1,148.18,62.81Zm2.5-5.42c0-1.58-.85-3-2.5-3s-2.48,1.39-2.48,3c0,2.09.8,3.42,2.48,3.42S150.68,59.52,150.68,57.39Z"/><path class="cls-6" d="M161.92,62.58V57c0-1.48-.31-2.58-1.67-2.58-1.64,0-2.27,1.58-2.27,3.33v4.81H155.4V52.67h2.44V54h0a3.7,3.7,0,0,1,3.25-1.58c2.27,0,3.37,1.56,3.37,3.89v6.25Z"/><path class="cls-6" d="M173.05,62.58a6.56,6.56,0,0,1-1.89.23A2.92,2.92,0,0,1,168,59.6v-5h-1.9V52.67H168v-2l2.58-.83v2.81h2.29v1.89h-2.29v4.6c0,1,.33,1.65,1.23,1.65a2.21,2.21,0,0,0,1.16-.27Z"/><path class="cls-6" d="M174.7,50.86V48.4h2.58v2.46Zm0,11.72V52.67h2.58v9.91Z"/><path class="cls-6" d="M186.52,62.58V57c0-1.48-.31-2.58-1.67-2.58-1.64,0-2.28,1.58-2.28,3.33v4.81H180V52.67h2.44V54h0a3.69,3.69,0,0,1,3.25-1.58c2.27,0,3.37,1.56,3.37,3.89v6.25Z"/><path class="cls-6" d="M198.41,62.58V61.24h0a4.17,4.17,0,0,1-3.26,1.57c-2.21,0-3.36-1.48-3.36-3.88V52.67h2.58v5.66c0,2,.73,2.48,1.67,2.48,1.56,0,2.27-1.44,2.27-3.35V52.67h2.58v9.91Z"/><path class="cls-6" d="M211.46,62a6.76,6.76,0,0,1-3.38.79c-3.29,0-5.2-1.88-5.2-5.13,0-2.78,1.45-5.24,4.6-5.24,3.37,0,4.71,2.08,4.71,6h-6.84a2.58,2.58,0,0,0,2.84,2.5,6.66,6.66,0,0,0,3.27-1Zm-1.73-5.36c-.09-1.43-.77-2.33-2.11-2.33a2.23,2.23,0,0,0-2.27,2.33Z"/><path class="cls-6" d="M229.06,62.58,226.9,55h0l-2.11,7.56H221.8l-3.35-9.91h2.74L223.38,60h0l2-7.33h3L230.58,60h0l2.06-7.33h2.47l-3,9.91Z"/><path class="cls-6" d="M236.74,50.86V48.4h2.58v2.46Zm0,11.72V52.67h2.58v9.91Z"/><path class="cls-6" d="M247.92,62.58a6.56,6.56,0,0,1-1.89.23,2.92,2.92,0,0,1-3.15-3.21v-5H241V52.67h1.91v-2l2.58-.83v2.81h2.29v1.89h-2.29v4.6c0,1,.32,1.65,1.23,1.65a2.2,2.2,0,0,0,1.15-.27Z"/><path class="cls-6" d="M256,62.58V57c0-1.81-.54-2.54-1.67-2.54-1.52,0-2.27,1.39-2.27,3.35v4.79h-2.58V48.15h2.58V54h0a3.68,3.68,0,0,1,3.11-1.58c2.29,0,3.37,1.6,3.37,3.87v6.27Z"/><path class="cls-6" d="M274.48,62.58l-5.14-10h0v10h-2.58V49.15H270l5.11,10.05h0V49.15h2.58V62.58Z"/><path class="cls-6" d="M288.84,62.58V56.69h-5.39v5.89h-2.69V49.15h2.69v5.43h5.39V49.15h2.69V62.58Z"/><path class="cls-6" d="M294.67,59.87a6.52,6.52,0,0,0,3,.83c1,0,2.39-.5,2.39-1.74,0-1-.9-1.46-2.23-2-1.79-.69-3.66-1.44-3.66-4,0-2.89,2.18-4.1,4.72-4.1a10,10,0,0,1,3.19.48l-.25,2.21a7,7,0,0,0-2.73-.57A1.87,1.87,0,0,0,297,52.9c0,1,1.16,1.41,2.27,1.85,1.81.67,3.62,1.5,3.62,4s-1.85,4.06-5.06,4.06a11.82,11.82,0,0,1-3.43-.52Z"/><path class="cls-6" d="M310.53,62.58V48.15h2.58V62.58Z"/><path class="cls-6" d="M320.37,62.81a4.89,4.89,0,0,1-5.18-5.12,5.19,5.19,0,1,1,10.37,0A4.89,4.89,0,0,1,320.37,62.81Zm2.5-5.42c0-1.58-.85-3-2.5-3s-2.48,1.39-2.48,3c0,2.09.81,3.42,2.48,3.42S322.87,59.52,322.87,57.39Z"/><path class="cls-6" d="M334.11,61h0A3.53,3.53,0,0,1,331,62.58c-2.73,0-4-2.08-4-5,0-2.39,1.24-5.14,4.2-5.14a3.28,3.28,0,0,1,3,1.58h0V52.67h2.46v9c0,3.35-1.73,5.19-5.2,5.19a8.68,8.68,0,0,1-3.46-.67l.21-2.19a7.34,7.34,0,0,0,2.91.86c2.42,0,3-1.56,3-3.61Zm0-3.48c0-1.52-.54-3.08-2.17-3.08s-2.29,1.33-2.29,3.14c0,1.35.71,3,2.19,3C333.5,60.58,334.11,59.12,334.11,57.52Z"/><path class="cls-6" d="M339.41,50.86V48.4H342v2.46Zm0,11.72V52.67H342v9.91Z"/><path class="cls-6" d="M351.15,62.58V57c0-1.48-.31-2.58-1.68-2.58-1.63,0-2.27,1.58-2.27,3.33v4.81h-2.57V52.67h2.44V54h0a3.69,3.69,0,0,1,3.25-1.58c2.27,0,3.37,1.56,3.37,3.89v6.25Z"/><rect class="cls-5" x="47.5" y="43.5" width="67.05" height="27"/><g class="cls-3"><path class="cls-6" d="M112,46.7,110.63,51a11,11,0,0,0-4.82-1c-2.31,0-4.19.34-4.19,2.09,0,3.08,8.48,1.93,8.48,8.53,0,6-5.6,7.57-10.67,7.57a24.58,24.58,0,0,1-6.76-1.13l1.38-4.42a11.37,11.37,0,0,0,5.38,1.25c1.81,0,4.66-.35,4.66-2.59,0-3.49-8.48-2.18-8.48-8.31,0-5.61,4.94-7.29,9.73-7.29a17.91,17.91,0,0,1,6.7,1m-16.81-.59L90.69,67.84H84.85l1.94-9.31H79.87l-1.94,9.31H72.08l4.54-21.73h5.85l-1.72,8.31h6.91l1.72-8.31Zm-20.77,0L69.83,67.84H62.57L58,52.8h-.06l-3,15H49.39l4.67-21.73h7.29l4.47,15.07h.06L69,46.11Zm40.09-2.61h-67v27h67.05Z"/></g></g></g></svg>