<svg xmlns="http://www.w3.org/2000/svg" viewBox="0 0 376.66 142.76"><defs><style>.cls-1{fill:#1d1d1b;}.cls-2{fill:#e42313;}.cls-3{fill:#222f6b;}.cls-4{fill:#014e9e;}.cls-5{fill:#fff;}.cls-6{fill:#006544;}</style></defs><g id="Layer_2" data-name="Layer 2"><g id="Layer_1-2" data-name="Layer 1"><rect class="cls-1" x="376.63" y="13.12" width="0.03" height="0.03"/><path class="cls-2" d="M197.24,4.07l2.47-2.47a.91.91,0,0,0,0-1.32.91.91,0,0,0-1.31,0l-2.47,2.47L193.46.28a.92.92,0,0,0-1.32,0,.92.92,0,0,0,0,1.32l2.47,2.47-2.47,2.47a.91.91,0,0,0,0,1.31.94.94,0,0,0,.69.25.81.81,0,0,0,.63-.25l2.47-2.47,2.47,2.47a.94.94,0,0,0,.69.25.79.79,0,0,0,.62-.25.9.9,0,0,0,0-1.31Z"/><path class="cls-3" d="M328.08,45H193.74a1.88,1.88,0,0,1-1.88-1.87V21.08a1.88,1.88,0,0,1,1.88-1.87H328.08A1.88,1.88,0,0,1,330,21.08V43.14A1.88,1.88,0,0,1,328.08,45"/><path class="cls-4" d="M328.08,43.14H193.74a1.88,1.88,0,0,1-1.88-1.88v-22a1.88,1.88,0,0,1,1.88-1.88H328.08A1.88,1.88,0,0,1,330,19.21v22a1.88,1.88,0,0,1-1.88,1.88"/><rect class="cls-4" x="192.85" y="18.27" width="136.17" height="23.93"/><rect class="cls-4" x="239.27" y="23.89" width="82.24" height="12.69"/><polygon class="cls-5" points="240 33.32 240 27.02 241.27 27.02 241.27 32.33 243.72 32.33 243.72 33.32 240 33.32"/><path class="cls-5" d="M247.72,30.88a1.19,1.19,0,1,0-2.34,0c0,1,.38,1.61,1.16,1.61s1.18-.61,1.18-1.61m-1.18,2.55a2.3,2.3,0,0,1-2.43-2.4A2.44,2.44,0,1,1,249,31a2.3,2.3,0,0,1-2.44,2.4"/><path class="cls-5" d="M253,31c0-.72-.25-1.45-1-1.45s-1.07.62-1.07,1.47c0,.63.33,1.41,1,1.41S253,31.7,253,31m0,1.63h0a1.66,1.66,0,0,1-1.44.74c-1.28,0-1.9-1-1.9-2.35,0-1.12.58-2.41,2-2.41a1.56,1.56,0,0,1,1.43.74h0v-.63h1.16v4.22a2.17,2.17,0,0,1-2.44,2.43,4.09,4.09,0,0,1-1.62-.31l.1-1a3.34,3.34,0,0,0,1.36.41c1.14,0,1.39-.74,1.39-1.7Z"/><path class="cls-5" d="M258,28.67h1.21v4.65H258Zm0-2h1.21v1.15H258Z"/><path class="cls-5" d="M263.53,33.32V30.71c0-.69-.14-1.21-.78-1.21s-1.07.74-1.07,1.56v2.26h-1.21V28.67h1.15v.63h0a1.75,1.75,0,0,1,1.53-.74c1.07,0,1.58.73,1.58,1.83v2.93Z"/><path class="cls-5" d="M271.26,33.32a3.2,3.2,0,0,1-.88.11,1.37,1.37,0,0,1-1.48-1.51V29.56H268v-.89h.9v-.93l1.21-.39v1.32h1.07v.89h-1.07v2.15c0,.49.15.78.57.78a1.12,1.12,0,0,0,.55-.13Z"/><path class="cls-5" d="M275.32,30.88a1.19,1.19,0,1,0-2.34,0c0,1,.38,1.61,1.16,1.61s1.18-.61,1.18-1.61m-1.18,2.55a2.3,2.3,0,0,1-2.43-2.4,2.44,2.44,0,1,1,4.87,0,2.3,2.3,0,0,1-2.44,2.4"/><polygon class="cls-5" points="283.72 33.32 281.31 28.61 281.3 28.61 281.3 33.32 280.09 33.32 280.09 27.02 281.64 27.02 284.04 31.73 284.06 31.73 284.06 27.02 285.27 27.02 285.27 33.32 283.72 33.32"/><polygon class="cls-5" points="290.46 33.32 290.46 30.56 287.93 30.56 287.93 33.32 286.67 33.32 286.67 27.02 287.93 27.02 287.93 29.57 290.46 29.57 290.46 27.02 291.73 27.02 291.73 33.32 290.46 33.32"/><path class="cls-5" d="M293.2,32.05a3.1,3.1,0,0,0,1.43.39c.46,0,1.11-.24,1.11-.82s-.42-.68-1-.93c-.84-.32-1.72-.67-1.72-1.86,0-1.35,1-1.92,2.21-1.92a4.54,4.54,0,0,1,1.5.23l-.11,1a3.32,3.32,0,0,0-1.29-.27.88.88,0,0,0-1,.88c0,.48.54.66,1.07.87.84.31,1.69.7,1.69,1.87s-.86,1.91-2.37,1.91a5.75,5.75,0,0,1-1.61-.24Z"/><rect class="cls-5" x="300.64" y="26.55" width="1.21" height="6.77"/><path class="cls-5" d="M306.43,30.88a1.19,1.19,0,1,0-2.34,0c0,1,.38,1.61,1.16,1.61s1.18-.61,1.18-1.61m-1.18,2.55a2.29,2.29,0,0,1-2.42-2.4,2.43,2.43,0,1,1,4.86,0,2.3,2.3,0,0,1-2.44,2.4"/><path class="cls-5" d="M311.7,31c0-.72-.25-1.45-1-1.45s-1.07.62-1.07,1.47c0,.63.33,1.41,1,1.41s1.06-.68,1.06-1.43m0,1.63h0a1.66,1.66,0,0,1-1.44.74c-1.28,0-1.9-1-1.9-2.35,0-1.12.58-2.41,2-2.41a1.54,1.54,0,0,1,1.43.74h0v-.63h1.15v4.22a2.17,2.17,0,0,1-2.44,2.43,4.15,4.15,0,0,1-1.62-.31l.1-1a3.34,3.34,0,0,0,1.36.41c1.14,0,1.39-.74,1.39-1.7Z"/><path class="cls-5" d="M314.19,28.67h1.21v4.65h-1.21Zm0-2h1.21v1.15h-1.21Z"/><path class="cls-5" d="M319.73,33.32V30.71c0-.69-.14-1.21-.78-1.21s-1.07.74-1.07,1.56v2.26h-1.21V28.67h1.15v.63h0a1.74,1.74,0,0,1,1.52-.74c1.07,0,1.58.73,1.58,1.83v2.93Z"/><rect class="cls-4" x="200.56" y="24.15" width="30.91" height="12.16"/><path class="cls-5" d="M230.59,25.4l-.66,2a5.16,5.16,0,0,0-2.26-.47c-1.09,0-2,.16-2,1,0,1.45,4,.91,4,4,0,2.82-2.63,3.55-5,3.55A11.75,11.75,0,0,1,221.5,35l.65-2.08a5.36,5.36,0,0,0,2.52.59c.85,0,2.19-.16,2.19-1.22,0-1.63-4-1-4-3.89,0-2.64,2.32-3.42,4.57-3.42a8.39,8.39,0,0,1,3.14.45m-7.89-.28-2.13,10.2h-2.74l.91-4.37h-3.25l-.91,4.37h-2.74L214,25.12h2.74l-.8,3.9h3.24l.81-3.9Zm-9.74,0-2.18,10.2h-3.4l-2.15-7.06h0l-1.42,7.06h-2.59l2.19-10.2h3.42l2.1,7.07h0l1.44-7.07Zm18.81-1.22H200.31V36.57h31.46Z"/><path class="cls-6" d="M4,8.26.38,4.77A1.24,1.24,0,0,1,.36,3,1.26,1.26,0,0,1,2.13,3L3.94,4.75,8.38.36a1.25,1.25,0,1,1,1.76,1.78Z"/><path class="cls-3" d="M159.28,45.17H1.88A1.88,1.88,0,0,1,0,43.29v-22a1.88,1.88,0,0,1,1.88-1.88h157.4a1.88,1.88,0,0,1,1.88,1.88V43.29a1.88,1.88,0,0,1-1.88,1.88"/><path class="cls-4" d="M159.28,43.29H1.88A1.88,1.88,0,0,1,0,41.42v-22a1.88,1.88,0,0,1,1.88-1.88h157.4a1.88,1.88,0,0,1,1.88,1.88V41.42a1.88,1.88,0,0,1-1.88,1.87"/><rect class="cls-4" x="0.94" y="18.43" width="159.36" height="23.93"/><rect class="cls-4" x="47.41" y="24.06" width="105.38" height="12.67"/><path class="cls-5" d="M52.73,33.39a6.41,6.41,0,0,1-1.44.2c-2.15,0-3.45-1.12-3.45-3.15a3.12,3.12,0,0,1,3.45-3.37,4.2,4.2,0,0,1,1.43.26l-.09,1.07a2.53,2.53,0,0,0-1.36-.34,2.1,2.1,0,0,0-2.11,2.29,2.07,2.07,0,0,0,2.13,2.24,3.59,3.59,0,0,0,1.39-.26Z"/><path class="cls-5" d="M56.86,31a1.19,1.19,0,1,0-2.34,0c0,1,.38,1.61,1.16,1.61S56.86,32,56.86,31m-1.18,2.55a2.29,2.29,0,0,1-2.42-2.4,2.43,2.43,0,1,1,4.86,0,2.3,2.3,0,0,1-2.44,2.4"/><path class="cls-5" d="M62.13,33.48V30.87c0-.69-.14-1.21-.78-1.21s-1.07.74-1.07,1.56v2.26H59.07V28.83h1.15v.63h0a1.74,1.74,0,0,1,1.52-.74c1.07,0,1.58.73,1.58,1.83v2.93Z"/><path class="cls-5" d="M67.35,33.48a3.2,3.2,0,0,1-.88.11A1.37,1.37,0,0,1,65,32.08V29.71h-.9v-.88H65V27.9l1.21-.39v1.32h1.07v.88H66.2v2.16c0,.49.15.78.57.78a1.12,1.12,0,0,0,.55-.13Z"/><path class="cls-5" d="M68.13,28.83h1.21v4.65H68.13Zm0-2h1.21V28H68.13Z"/><path class="cls-5" d="M73.67,33.48V30.87c0-.69-.14-1.21-.78-1.21s-1.07.74-1.07,1.56v2.26H70.61V28.83h1.15v.63h0a1.74,1.74,0,0,1,1.52-.74c1.07,0,1.58.73,1.58,1.83v2.93Z"/><path class="cls-5" d="M79.26,33.48v-.63h0a1.94,1.94,0,0,1-1.53.74c-1,0-1.58-.7-1.58-1.83V28.83h1.21v2.65c0,.93.34,1.17.79,1.17.73,0,1.06-.68,1.06-1.57V28.83H80.4v4.65Z"/><path class="cls-5" d="M84.57,30.7c0-.67-.36-1.09-1-1.09a1,1,0,0,0-1.06,1.09Zm.81,2.52a3.22,3.22,0,0,1-1.59.37,2.22,2.22,0,0,1-2.44-2.41,2.18,2.18,0,0,1,2.16-2.46c1.58,0,2.21,1,2.21,2.81H82.51a1.21,1.21,0,0,0,1.33,1.17,3.07,3.07,0,0,0,1.54-.47Z"/><polygon class="cls-5" points="93.63 33.48 92.62 29.93 92.6 29.93 91.61 33.48 90.23 33.48 88.66 28.83 89.94 28.83 90.97 32.27 90.99 32.27 91.93 28.83 93.33 28.83 94.35 32.27 94.36 32.27 95.33 28.83 96.49 28.83 95.06 33.48 93.63 33.48"/><path class="cls-5" d="M97.24,28.83h1.21v4.65H97.24Zm0-2h1.21V28H97.24Z"/><path class="cls-5" d="M102.48,33.48a3.2,3.2,0,0,1-.88.11,1.37,1.37,0,0,1-1.48-1.51V29.71h-.9v-.88h.9V27.9l1.21-.39v1.32h1.07v.88h-1.07v2.16c0,.49.15.78.58.78a1.11,1.11,0,0,0,.54-.13Z"/><path class="cls-5" d="M106.29,33.48V30.85c0-.85-.25-1.19-.78-1.19-.71,0-1.07.65-1.07,1.57v2.25h-1.21V26.71h1.21v2.75h0a1.73,1.73,0,0,1,1.46-.74c1.08,0,1.58.75,1.58,1.82v2.94Z"/><polygon class="cls-5" points="114.95 33.48 112.54 28.77 112.52 28.77 112.52 33.48 111.31 33.48 111.31 27.18 112.86 27.18 115.26 31.89 115.28 31.89 115.28 27.18 116.49 27.18 116.49 33.48 114.95 33.48"/><polygon class="cls-5" points="121.68 33.48 121.68 30.72 119.16 30.72 119.16 33.48 117.89 33.48 117.89 27.18 119.16 27.18 119.16 29.72 121.68 29.72 121.68 27.18 122.95 27.18 122.95 33.48 121.68 33.48"/><path class="cls-5" d="M124.42,32.21a3.09,3.09,0,0,0,1.43.38c.46,0,1.12-.23,1.12-.81s-.43-.68-1-.93c-.84-.32-1.71-.67-1.71-1.86,0-1.35,1-1.92,2.21-1.92a4.86,4.86,0,0,1,1.5.22l-.12,1a3.31,3.31,0,0,0-1.28-.27.88.88,0,0,0-1,.88c0,.48.55.66,1.07.86.85.32,1.7.71,1.7,1.88s-.87,1.91-2.38,1.91a5.42,5.42,0,0,1-1.61-.25Z"/><rect class="cls-5" x="131.86" y="26.71" width="1.21" height="6.77"/><path class="cls-5" d="M137.65,31a1.19,1.19,0,1,0-2.34,0c0,1,.38,1.61,1.17,1.61s1.17-.61,1.17-1.61m-1.17,2.55a2.3,2.3,0,0,1-2.43-2.4,2.43,2.43,0,1,1,4.86,0,2.29,2.29,0,0,1-2.43,2.4"/><path class="cls-5" d="M142.93,31.1c0-.71-.26-1.44-1-1.44s-1.08.62-1.08,1.47c0,.63.33,1.41,1,1.41s1.07-.69,1.07-1.44m0,1.64h0a1.67,1.67,0,0,1-1.45.74c-1.28,0-1.89-1-1.89-2.35,0-1.12.57-2.41,2-2.41a1.54,1.54,0,0,1,1.42.74h0v-.63h1.16v4.22a2.18,2.18,0,0,1-2.44,2.43,4.16,4.16,0,0,1-1.63-.31l.1-1a3.54,3.54,0,0,0,1.37.41c1.13,0,1.39-.74,1.39-1.7Z"/><path class="cls-5" d="M145.41,28.83h1.21v4.65h-1.21Zm0-2h1.21V28h-1.21Z"/><path class="cls-5" d="M151,33.48V30.87c0-.69-.14-1.21-.78-1.21s-1.07.74-1.07,1.56v2.26h-1.21V28.83H149v.63h0a1.74,1.74,0,0,1,1.52-.74c1.07,0,1.58.73,1.58,1.83v2.93Z"/><rect class="cls-4" x="8.7" y="24.31" width="30.91" height="12.16"/><path class="cls-5" d="M38.73,25.56l-.66,2a5.16,5.16,0,0,0-2.26-.47c-1.09,0-2,.16-2,1,0,1.45,4,.91,4,4,0,2.82-2.63,3.55-5,3.55a11.75,11.75,0,0,1-3.17-.52l.65-2.08a5.36,5.36,0,0,0,2.52.59c.85,0,2.19-.17,2.19-1.22,0-1.63-4-1-4-3.9,0-2.63,2.32-3.42,4.57-3.42a8.36,8.36,0,0,1,3.14.46m-7.89-.28-2.13,10.2H26l.91-4.37H23.63l-.91,4.37H20l2.13-10.2h2.74l-.8,3.9h3.24l.81-3.9Zm-9.75,0-2.17,10.2h-3.4l-2.15-7.06h0l-1.42,7.06H9.33l2.19-10.2h3.42L17,32.35h0l1.44-7.07Zm18.82-1.22H8.45V36.73H39.91Z"/><path class="cls-3" d="M149.83,110.23H1.88A1.88,1.88,0,0,1,0,108.36V86.3a1.88,1.88,0,0,1,1.88-1.87h148a1.88,1.88,0,0,1,1.88,1.87v22.06a1.88,1.88,0,0,1-1.88,1.87"/><path class="cls-4" d="M149.83,108.36H1.88A1.88,1.88,0,0,1,0,106.48v-22a1.88,1.88,0,0,1,1.88-1.88h148a1.88,1.88,0,0,1,1.88,1.88v22a1.88,1.88,0,0,1-1.88,1.88"/><rect class="cls-4" x="0.99" y="83.49" width="149.78" height="23.93"/><rect class="cls-4" x="47.41" y="89.11" width="95.85" height="12.69"/><path class="cls-5" d="M48.15,97.27a3.1,3.1,0,0,0,1.43.39c.46,0,1.12-.24,1.12-.82s-.42-.68-1.05-.93c-.84-.32-1.71-.67-1.71-1.85,0-1.36,1-1.93,2.21-1.93a4.58,4.58,0,0,1,1.5.23l-.12,1a3.27,3.27,0,0,0-1.28-.27c-.47,0-1,.21-1,.87,0,.48.55.66,1.07.87.85.31,1.7.7,1.7,1.88s-.87,1.9-2.38,1.9a5.63,5.63,0,0,1-1.6-.24Z"/><path class="cls-5" d="M53.08,93.89h1.21v4.65H53.08Zm0-2h1.21V93H53.08Z"/><path class="cls-5" d="M58.63,96.17c0-.72-.25-1.45-1-1.45s-1.08.63-1.08,1.47c0,.64.34,1.41,1,1.41s1.07-.68,1.07-1.43m0,1.63h0a1.66,1.66,0,0,1-1.44.74c-1.29,0-1.9-1-1.9-2.35a2.15,2.15,0,0,1,2-2.41,1.54,1.54,0,0,1,1.42.74h0v-.63h1.16v4.22a2.18,2.18,0,0,1-2.44,2.44,4.11,4.11,0,0,1-1.62-.32l.09-1a3.43,3.43,0,0,0,1.37.41c1.14,0,1.39-.73,1.39-1.7Z"/><path class="cls-5" d="M64.15,98.54V95.93c0-.69-.15-1.21-.79-1.21s-1.06.74-1.06,1.56v2.26H61.09V93.89h1.14v.63h0a1.75,1.75,0,0,1,1.53-.74c1.06,0,1.58.74,1.58,1.83v2.93Z"/><path class="cls-5" d="M69.14,93.89h1.21v4.65H69.14Zm0-2h1.21V93H69.14Z"/><path class="cls-5" d="M74.69,98.54V95.93c0-.69-.15-1.21-.79-1.21s-1.06.74-1.06,1.56v2.26H71.63V93.89h1.14v.63h0a1.75,1.75,0,0,1,1.53-.74c1.06,0,1.58.74,1.58,1.83v2.93Z"/><polygon class="cls-5" points="84.11 98.54 83.09 94.99 83.08 94.99 82.08 98.54 80.7 98.54 79.13 93.89 80.41 93.89 81.44 97.33 81.46 97.33 82.4 93.89 83.81 93.89 84.82 97.33 84.84 97.33 85.8 93.89 86.96 93.89 85.53 98.54 84.11 98.54"/><path class="cls-5" d="M87.71,93.89h1.21v4.65H87.71Zm0-2h1.21V93H87.71Z"/><path class="cls-5" d="M93,98.54a3.33,3.33,0,0,1-.89.11,1.37,1.37,0,0,1-1.48-1.51V94.78H89.7v-.89h.89V93l1.21-.39v1.32h1.07v.89H91.8v2.15c0,.49.15.78.58.78a1,1,0,0,0,.54-.13Z"/><path class="cls-5" d="M96.77,98.54V95.91c0-.84-.26-1.19-.79-1.19-.71,0-1.06.65-1.06,1.57v2.25H93.71V91.77h1.21v2.75h0a1.75,1.75,0,0,1,1.47-.74c1.07,0,1.58.75,1.58,1.82v2.94Z"/><polygon class="cls-5" points="105.42 98.54 103.01 93.83 102.99 93.83 102.99 98.54 101.78 98.54 101.78 92.24 103.33 92.24 105.73 96.95 105.75 96.95 105.75 92.24 106.96 92.24 106.96 98.54 105.42 98.54"/><polygon class="cls-5" points="112.16 98.54 112.16 95.78 109.63 95.78 109.63 98.54 108.36 98.54 108.36 92.24 109.63 92.24 109.63 94.79 112.16 94.79 112.16 92.24 113.42 92.24 113.42 98.54 112.16 98.54"/><path class="cls-5" d="M114.89,97.27a3.14,3.14,0,0,0,1.43.39c.46,0,1.12-.24,1.12-.82s-.42-.68-1-.93c-.84-.32-1.71-.67-1.71-1.85,0-1.36,1-1.93,2.21-1.93a4.58,4.58,0,0,1,1.5.23l-.12,1a3.27,3.27,0,0,0-1.28-.27c-.47,0-1,.21-1,.87,0,.48.55.66,1.07.87.85.31,1.7.7,1.7,1.88s-.87,1.9-2.38,1.9a5.63,5.63,0,0,1-1.6-.24Z"/><rect class="cls-5" x="122.34" y="91.77" width="1.21" height="6.77"/><path class="cls-5" d="M128.12,96.1c0-.74-.39-1.38-1.17-1.38a1.23,1.23,0,0,0-1.16,1.38c0,1,.37,1.61,1.16,1.61s1.17-.6,1.17-1.61M127,98.65a2.3,2.3,0,0,1-2.43-2.4,2.44,2.44,0,1,1,4.87,0,2.3,2.3,0,0,1-2.44,2.4"/><path class="cls-5" d="M133.4,96.17c0-.72-.26-1.45-1-1.45s-1.08.63-1.08,1.47c0,.64.34,1.41,1,1.41s1.07-.68,1.07-1.43m0,1.63h0a1.67,1.67,0,0,1-1.45.74c-1.28,0-1.89-1-1.89-2.35a2.15,2.15,0,0,1,2-2.41,1.54,1.54,0,0,1,1.42.74h0v-.63h1.16v4.22a2.18,2.18,0,0,1-2.44,2.44,4.19,4.19,0,0,1-1.63-.32l.1-1a3.43,3.43,0,0,0,1.37.41c1.13,0,1.39-.73,1.39-1.7Z"/><path class="cls-5" d="M135.88,93.89h1.21v4.65h-1.21Zm0-2h1.21V93h-1.21Z"/><path class="cls-5" d="M141.43,98.54V95.93c0-.69-.15-1.21-.79-1.21s-1.06.74-1.06,1.56v2.26h-1.21V93.89h1.14v.63h0a1.75,1.75,0,0,1,1.53-.74c1.06,0,1.58.74,1.58,1.83v2.93Z"/><rect class="cls-4" x="8.7" y="89.37" width="30.91" height="12.16"/><path class="cls-5" d="M38.73,90.62l-.66,2a5.16,5.16,0,0,0-2.26-.47c-1.09,0-2,.16-2,1,0,1.45,4,.91,4,4,0,2.81-2.63,3.55-5,3.55a11.37,11.37,0,0,1-3.17-.53l.65-2.08a5.36,5.36,0,0,0,2.52.59c.85,0,2.19-.16,2.19-1.21,0-1.64-4-1-4-3.9,0-2.63,2.32-3.42,4.57-3.42a8.39,8.39,0,0,1,3.14.45m-7.89-.28-2.13,10.2H26l.91-4.37H23.63l-.91,4.37H20l2.13-10.2h2.74l-.8,3.9h3.24l.81-3.9Zm-9.75,0-2.17,10.2h-3.4l-2.15-7.06h0l-1.42,7.06H9.33l2.19-10.2h3.42L17,97.41h0l1.44-7.07Zm18.82-1.22H8.45v12.67H39.91Z"/><path class="cls-3" d="M146.81,142.76H1.88A1.88,1.88,0,0,1,0,140.89v-22A1.88,1.88,0,0,1,1.88,117H146.81a1.88,1.88,0,0,1,1.88,1.88v22a1.88,1.88,0,0,1-1.88,1.87"/><path class="cls-4" d="M146.81,140.89H1.88A1.88,1.88,0,0,1,0,139V117a1.88,1.88,0,0,1,1.88-1.88H146.81a1.88,1.88,0,0,1,1.88,1.88v22a1.88,1.88,0,0,1-1.88,1.88"/><rect class="cls-4" x="0.99" y="116.02" width="146.77" height="23.93"/><rect class="cls-4" x="47.41" y="121.64" width="92.83" height="12.69"/><polygon class="cls-5" points="48.14 131.07 48.14 124.77 49.41 124.77 49.41 130.08 51.85 130.08 51.85 131.07 48.14 131.07"/><path class="cls-5" d="M55.86,128.64a1.23,1.23,0,0,0-1.18-1.39c-.76,0-1.16.65-1.16,1.39,0,1,.38,1.6,1.16,1.6s1.18-.6,1.18-1.6m-1.18,2.54a2.3,2.3,0,0,1-2.43-2.4,2.44,2.44,0,1,1,4.87,0,2.3,2.3,0,0,1-2.44,2.4"/><path class="cls-5" d="M61.13,128.7c0-.71-.25-1.45-1-1.45s-1.07.63-1.07,1.48c0,.63.33,1.4,1,1.4s1.07-.68,1.07-1.43m0,1.63h0a1.66,1.66,0,0,1-1.44.74c-1.28,0-1.9-1-1.9-2.34,0-1.12.58-2.41,2-2.41a1.54,1.54,0,0,1,1.43.74h0v-.64h1.16v4.22a2.18,2.18,0,0,1-2.44,2.44,4.11,4.11,0,0,1-1.62-.32l.1-1a3.34,3.34,0,0,0,1.36.41c1.14,0,1.39-.73,1.39-1.7Z"/><path class="cls-5" d="M66.12,126.42h1.21v4.65H66.12Zm0-2h1.21v1.15H66.12Z"/><path class="cls-5" d="M71.67,131.07v-2.61c0-.69-.14-1.21-.79-1.21s-1.06.74-1.06,1.57v2.25H68.61v-4.65h1.15v.64h0a1.73,1.73,0,0,1,1.53-.74c1.07,0,1.58.73,1.58,1.82v2.93Z"/><polygon class="cls-5" points="81.09 131.07 80.08 127.53 80.06 127.53 79.07 131.07 77.69 131.07 76.11 126.42 77.4 126.42 78.42 129.86 78.44 129.86 79.38 126.42 80.79 126.42 81.8 129.86 81.82 129.86 82.79 126.42 83.94 126.42 82.52 131.07 81.09 131.07"/><path class="cls-5" d="M84.69,126.42H85.9v4.65H84.69Zm0-2H85.9v1.15H84.69Z"/><path class="cls-5" d="M89.94,131.07a2.88,2.88,0,0,1-.89.11,1.37,1.37,0,0,1-1.48-1.51v-2.36h-.89v-.89h.89v-.93l1.21-.38v1.31h1.08v.89H88.78v2.16c0,.48.16.77.58.77a1.05,1.05,0,0,0,.54-.12Z"/><path class="cls-5" d="M93.75,131.07v-2.62c0-.85-.25-1.2-.78-1.2-.72,0-1.07.65-1.07,1.58v2.24H90.69V124.3H91.9v2.76h0a1.71,1.71,0,0,1,1.46-.74c1.07,0,1.58.74,1.58,1.81v2.94Z"/><polygon class="cls-5" points="102.4 131.07 99.99 126.36 99.97 126.36 99.97 131.07 98.76 131.07 98.76 124.77 100.32 124.77 102.72 129.48 102.74 129.48 102.74 124.77 103.95 124.77 103.95 131.07 102.4 131.07"/><polygon class="cls-5" points="109.14 131.07 109.14 128.31 106.61 128.31 106.61 131.07 105.35 131.07 105.35 124.77 106.61 124.77 106.61 127.32 109.14 127.32 109.14 124.77 110.4 124.77 110.4 131.07 109.14 131.07"/><path class="cls-5" d="M111.88,129.8a3.06,3.06,0,0,0,1.42.39c.46,0,1.12-.24,1.12-.81s-.42-.69-1-.93c-.84-.33-1.72-.68-1.72-1.86,0-1.36,1-1.93,2.21-1.93a4.81,4.81,0,0,1,1.5.23l-.12,1a3.23,3.23,0,0,0-1.28-.27c-.47,0-1,.21-1,.87,0,.48.54.66,1.06.87.85.31,1.7.7,1.7,1.88s-.86,1.9-2.37,1.9a5.7,5.7,0,0,1-1.61-.24Z"/><rect class="cls-5" x="119.32" y="124.3" width="1.21" height="6.77"/><path class="cls-5" d="M125.11,128.64a1.23,1.23,0,0,0-1.18-1.39c-.76,0-1.16.65-1.16,1.39,0,1,.38,1.6,1.16,1.6s1.18-.6,1.18-1.6m-1.18,2.54a2.3,2.3,0,0,1-2.43-2.4,2.44,2.44,0,1,1,4.87,0,2.3,2.3,0,0,1-2.44,2.4"/><path class="cls-5" d="M130.38,128.7c0-.71-.25-1.45-1-1.45s-1.07.63-1.07,1.48c0,.63.33,1.4,1,1.4s1.06-.68,1.06-1.43m0,1.63h0a1.66,1.66,0,0,1-1.44.74c-1.28,0-1.9-1-1.9-2.34,0-1.12.58-2.41,2-2.41a1.54,1.54,0,0,1,1.43.74h0v-.64h1.15v4.22a2.18,2.18,0,0,1-2.44,2.44,4.11,4.11,0,0,1-1.62-.32l.1-1a3.34,3.34,0,0,0,1.36.41c1.14,0,1.39-.73,1.39-1.7Z"/><path class="cls-5" d="M132.87,126.42h1.21v4.65h-1.21Zm0-2h1.21v1.15h-1.21Z"/><path class="cls-5" d="M138.41,131.07v-2.61c0-.69-.14-1.21-.79-1.21s-1.06.74-1.06,1.57v2.25h-1.21v-4.65h1.15v.64h0a1.73,1.73,0,0,1,1.53-.74c1.06,0,1.58.73,1.58,1.82v2.93Z"/><rect class="cls-4" x="8.7" y="121.9" width="30.91" height="12.16"/><path class="cls-5" d="M38.73,123.15l-.66,2a5.16,5.16,0,0,0-2.26-.47c-1.09,0-2,.16-2,1,0,1.45,4,.91,4,4,0,2.82-2.63,3.55-5,3.55a11.37,11.37,0,0,1-3.17-.53l.65-2.08a5.24,5.24,0,0,0,2.52.59c.85,0,2.19-.16,2.19-1.21,0-1.64-4-1-4-3.9,0-2.63,2.32-3.42,4.57-3.42a8.39,8.39,0,0,1,3.14.45m-7.89-.28-2.13,10.2H26l.91-4.37H23.63l-.91,4.37H20l2.13-10.2h2.74l-.8,3.9h3.24l.81-3.9Zm-9.75,0-2.17,10.2h-3.4L13.37,126h0l-1.42,7.06H9.33l2.19-10.2h3.42l2.1,7.07h0l1.44-7.07Zm18.82-1.22H8.45v12.67H39.91Z"/><path class="cls-3" d="M158.81,77.7H1.88A1.88,1.88,0,0,1,0,75.83V53.77A1.88,1.88,0,0,1,1.88,51.9H158.81a1.88,1.88,0,0,1,1.88,1.87V75.83a1.88,1.88,0,0,1-1.88,1.87"/><path class="cls-4" d="M158.81,75.83H1.88A1.88,1.88,0,0,1,0,74V51.9A1.88,1.88,0,0,1,1.88,50H158.81a1.88,1.88,0,0,1,1.88,1.88V74a1.88,1.88,0,0,1-1.88,1.88"/><rect class="cls-4" x="0.99" y="50.96" width="158.77" height="23.93"/><rect class="cls-4" x="47.41" y="56.58" width="104.83" height="12.69"/><path class="cls-5" d="M49.79,62.4c1.08,0,1.26-.46,1.26-.88s-.1-.82-1.21-.82H49.3v1.7ZM51.34,66l-.73-1.9c-.18-.47-.31-.72-.89-.72H49.3V66H48v-6.3h2c2,0,2.36.86,2.36,1.71a1.44,1.44,0,0,1-1.3,1.46v0c.27,0,.51.25.69.71l1,2.4Z"/><path class="cls-5" d="M56.47,63.23c0-.67-.36-1.09-1-1.09a1,1,0,0,0-1.07,1.09Zm.81,2.52a3.22,3.22,0,0,1-1.59.37,2.21,2.21,0,0,1-2.43-2.41,2.18,2.18,0,0,1,2.15-2.46c1.58,0,2.22,1,2.22,2.81H54.41a1.22,1.22,0,0,0,1.34,1.17,3,3,0,0,0,1.53-.47Z"/><path class="cls-5" d="M61.64,63.64c0-.72-.26-1.45-1-1.45s-1.08.62-1.08,1.47c0,.63.34,1.41,1,1.41s1.07-.68,1.07-1.43m0,1.63h0a1.67,1.67,0,0,1-1.45.74c-1.28,0-1.89-1-1.89-2.35,0-1.12.58-2.41,2-2.41a1.54,1.54,0,0,1,1.42.74h0v-.63h1.16v4.22A2.18,2.18,0,0,1,60.41,68a4.16,4.16,0,0,1-1.63-.31l.1-1a3.38,3.38,0,0,0,1.37.41c1.13,0,1.39-.74,1.39-1.7Z"/><path class="cls-5" d="M64.12,61.36h1.21V66H64.12Zm0-2h1.21v1.15H64.12Z"/><path class="cls-5" d="M66.42,64.93a2.66,2.66,0,0,0,1.19.3c.33,0,.8-.12.8-.56s-.38-.51-.87-.65c-.81-.21-1.23-.55-1.23-1.32,0-.94.78-1.45,1.83-1.45a5.64,5.64,0,0,1,1.31.17l-.08.92a2.89,2.89,0,0,0-1.08-.2c-.42,0-.72.17-.72.51s.25.39.8.54c.87.25,1.3.64,1.3,1.41,0,1-.87,1.52-2,1.52a5.34,5.34,0,0,1-1.37-.2Z"/><path class="cls-5" d="M73.38,66a3.33,3.33,0,0,1-.89.11A1.37,1.37,0,0,1,71,64.61V62.25h-.89v-.89H71v-.93L72.22,60v1.32H73.3v.89H72.22V64.4c0,.49.15.78.58.78a1.08,1.08,0,0,0,.54-.13Z"/><path class="cls-5" d="M77,63.23c0-.67-.36-1.09-1-1.09s-1,.39-1.07,1.09Zm.82,2.52a3.25,3.25,0,0,1-1.59.37,2.21,2.21,0,0,1-2.44-2.41A2.18,2.18,0,0,1,76,61.25c1.58,0,2.21,1,2.21,2.81H75a1.22,1.22,0,0,0,1.34,1.17,3.1,3.1,0,0,0,1.54-.47Z"/><path class="cls-5" d="M79.18,66V61.36h1.07v1.06h0a1.42,1.42,0,0,1,1.28-1.17,1.09,1.09,0,0,1,.36,0v1.22a1.13,1.13,0,0,0-.54-.1c-.45,0-1,.24-1,1.69V66Z"/><path class="cls-5" d="M88.3,66v-.63h0a1.94,1.94,0,0,1-1.53.74c-1,0-1.58-.7-1.58-1.82V61.36h1.21V64c0,.93.34,1.16.79,1.16.73,0,1.06-.68,1.06-1.57V61.36h1.21V66Z"/><path class="cls-5" d="M90.51,64.93a2.66,2.66,0,0,0,1.19.3c.33,0,.8-.12.8-.56s-.38-.51-.87-.65c-.81-.21-1.24-.55-1.24-1.32,0-.94.79-1.45,1.83-1.45a5.57,5.57,0,0,1,1.31.17l-.08.92a2.81,2.81,0,0,0-1.07-.2c-.43,0-.72.17-.72.51s.25.39.8.54c.87.25,1.3.64,1.3,1.41,0,1-.88,1.52-2,1.52a5.33,5.33,0,0,1-1.36-.2Z"/><path class="cls-5" d="M94.73,61.36h1.21V66H94.73Zm0-2h1.21v1.15H94.73Z"/><path class="cls-5" d="M100.27,66V63.4c0-.69-.14-1.21-.78-1.21s-1.07.74-1.07,1.56V66H97.21V61.36h1.15V62h0a1.75,1.75,0,0,1,1.53-.74c1.07,0,1.58.73,1.58,1.83V66Z"/><path class="cls-5" d="M105.79,63.64c0-.72-.25-1.45-1-1.45s-1.08.62-1.08,1.47c0,.63.34,1.41,1,1.41s1.07-.68,1.07-1.43m0,1.63h0a1.66,1.66,0,0,1-1.44.74c-1.29,0-1.9-1-1.9-2.35,0-1.12.58-2.41,2-2.41a1.56,1.56,0,0,1,1.43.74h0v-.63H107v4.22A2.17,2.17,0,0,1,104.56,68a4.09,4.09,0,0,1-1.62-.31l.1-1a3.34,3.34,0,0,0,1.36.41c1.14,0,1.39-.74,1.39-1.7Z"/><polygon class="cls-5" points="114.44 66.01 112.03 61.3 112.01 61.3 112.01 66.01 110.8 66.01 110.8 59.71 112.36 59.71 114.76 64.42 114.78 64.42 114.78 59.71 115.98 59.71 115.98 66.01 114.44 66.01"/><polygon class="cls-5" points="121.18 66.01 121.18 63.25 118.65 63.25 118.65 66.01 117.39 66.01 117.39 59.71 118.65 59.71 118.65 62.26 121.18 62.26 121.18 59.71 122.44 59.71 122.44 66.01 121.18 66.01"/><path class="cls-5" d="M123.92,64.74a3.06,3.06,0,0,0,1.42.39c.46,0,1.12-.24,1.12-.82s-.42-.68-1-.93c-.84-.32-1.71-.67-1.71-1.86,0-1.35,1-1.92,2.21-1.92a4.58,4.58,0,0,1,1.5.23l-.12,1a3.27,3.27,0,0,0-1.28-.27.88.88,0,0,0-1,.88c0,.48.54.66,1.06.87.85.31,1.7.7,1.7,1.87s-.87,1.91-2.38,1.91a5.68,5.68,0,0,1-1.6-.24Z"/><rect class="cls-5" x="131.36" y="59.24" width="1.21" height="6.77"/><path class="cls-5" d="M137.15,63.57a1.19,1.19,0,1,0-2.34,0c0,1,.38,1.61,1.16,1.61s1.18-.61,1.18-1.61M136,66.12a2.3,2.3,0,0,1-2.43-2.4,2.44,2.44,0,1,1,4.87,0,2.3,2.3,0,0,1-2.44,2.4"/><path class="cls-5" d="M142.42,63.64c0-.72-.25-1.45-1-1.45s-1.07.62-1.07,1.47c0,.63.33,1.41,1,1.41s1.07-.68,1.07-1.43m0,1.63h0A1.66,1.66,0,0,1,141,66c-1.29,0-1.9-1-1.9-2.35,0-1.12.58-2.41,2-2.41a1.56,1.56,0,0,1,1.43.74h0v-.63h1.16v4.22A2.17,2.17,0,0,1,141.19,68a4.09,4.09,0,0,1-1.62-.31l.1-1a3.34,3.34,0,0,0,1.36.41c1.14,0,1.39-.74,1.39-1.7Z"/><path class="cls-5" d="M144.9,61.36h1.21V66H144.9Zm0-2h1.21v1.15H144.9Z"/><path class="cls-5" d="M150.45,66V63.4c0-.69-.15-1.21-.79-1.21s-1.06.74-1.06,1.56V66h-1.21V61.36h1.14V62h0a1.75,1.75,0,0,1,1.53-.74c1.06,0,1.58.73,1.58,1.83V66Z"/><rect class="cls-4" x="8.7" y="56.84" width="30.91" height="12.16"/><path class="cls-5" d="M38.73,58.09l-.66,2a5.16,5.16,0,0,0-2.26-.47c-1.09,0-2,.16-2,1,0,1.45,4,.91,4,4,0,2.82-2.63,3.55-5,3.55a11.75,11.75,0,0,1-3.17-.52l.65-2.08a5.36,5.36,0,0,0,2.52.59C33.66,66.17,35,66,35,65c0-1.63-4-1-4-3.89,0-2.64,2.32-3.42,4.57-3.42a8.39,8.39,0,0,1,3.14.45m-7.89-.28L28.71,68H26l.91-4.37H23.63L22.72,68H20l2.13-10.2h2.74l-.8,3.9h3.24l.81-3.9Zm-9.75,0L18.92,68h-3.4L13.37,61h0L11.92,68H9.33l2.19-10.2h3.42L17,64.88h0l1.44-7.07Zm18.82-1.22H8.45V69.26H39.91Z"/></g></g></svg>