<svg xmlns="http://www.w3.org/2000/svg" viewBox="0 0 371.24 48"><defs><style>.cls-1{fill:#1d1d1b;}.cls-2{fill:#006544;}.cls-3{fill:#222f6b;}.cls-4{fill:#014e9e;}.cls-5{fill:#fff;}.cls-6{fill:#e42313;}</style></defs><g id="Layer_2" data-name="Layer 2"><g id="Layer_1-2" data-name="Layer 1"><rect class="cls-1" x="371.21" y="7.27" width="0.03" height="0.03"/><path class="cls-2" d="M3.65,7.63.35,4.41a1.14,1.14,0,0,1,0-1.63A1.14,1.14,0,0,1,2,2.76L3.64,4.39,7.74.33a1.17,1.17,0,0,1,1.64,0A1.16,1.16,0,0,1,9.37,2Z"/><path class="cls-3" d="M147.22,41.75H1.73A1.74,1.74,0,0,1,0,40V19.63A1.73,1.73,0,0,1,1.73,17.9H147.22A1.72,1.72,0,0,1,149,19.63V40a1.73,1.73,0,0,1-1.73,1.74"/><path class="cls-4" d="M147.22,40H1.73A1.73,1.73,0,0,1,0,38.28V17.9a1.74,1.74,0,0,1,1.73-1.74H147.22A1.73,1.73,0,0,1,149,17.9V38.28A1.72,1.72,0,0,1,147.22,40"/><rect class="cls-4" x="0.87" y="17.03" width="147.28" height="22.12"/><rect class="cls-4" x="43.82" y="22.23" width="97.39" height="11.71"/><path class="cls-5" d="M48.74,30.86a6.08,6.08,0,0,1-1.33.18c-2,0-3.2-1-3.2-2.91A2.89,2.89,0,0,1,47.41,25a3.84,3.84,0,0,1,1.32.24l-.09,1a2.39,2.39,0,0,0-1.26-.3,2,2,0,0,0-2,2.11,1.92,1.92,0,0,0,2,2.08,3.25,3.25,0,0,0,1.28-.25Z"/><path class="cls-5" d="M52.55,28.69a1.1,1.1,0,1,0-2.16,0c0,.91.35,1.49,1.08,1.49s1.08-.56,1.08-1.49M51.47,31a2.12,2.12,0,0,1-2.25-2.22,2.25,2.25,0,1,1,4.5,0A2.12,2.12,0,0,1,51.47,31"/><path class="cls-5" d="M57.43,30.94V28.53c0-.64-.14-1.12-.73-1.12s-1,.69-1,1.45v2.08H54.6V26.65h1.06v.58h0a1.62,1.62,0,0,1,1.41-.68c1,0,1.46.67,1.46,1.68v2.71Z"/><path class="cls-5" d="M62.25,30.94a2.78,2.78,0,0,1-.82.1,1.26,1.26,0,0,1-1.37-1.39V27.46h-.82v-.81h.82v-.86l1.12-.36v1.22h1v.81h-1v2c0,.45.14.72.54.72a1.05,1.05,0,0,0,.5-.12Z"/><path class="cls-5" d="M63,26.65h1.12v4.29H63Zm0-1.86h1.12v1.07H63Z"/><path class="cls-5" d="M68.09,30.94V28.53c0-.64-.13-1.12-.72-1.12s-1,.69-1,1.45v2.08H65.26V26.65h1.06v.58h0a1.61,1.61,0,0,1,1.41-.68c1,0,1.46.67,1.46,1.68v2.71Z"/><path class="cls-5" d="M73.25,30.94v-.58h0a1.78,1.78,0,0,1-1.41.68c-1,0-1.46-.64-1.46-1.68V26.65h1.12V29.1c0,.86.32,1.08.73,1.08.67,0,1-.63,1-1.46V26.65h1.12v4.29Z"/><path class="cls-5" d="M78.16,28.37c0-.61-.33-1-.92-1a1,1,0,0,0-1,1Zm.75,2.33a2.91,2.91,0,0,1-1.47.34,2,2,0,0,1-2.25-2.22,2,2,0,0,1,2-2.27c1.46,0,2,.9,2,2.59h-3a1.12,1.12,0,0,0,1.23,1.09,2.83,2.83,0,0,0,1.42-.44Z"/><polygon class="cls-5" points="86.54 30.94 85.61 27.66 85.59 27.66 84.67 30.94 83.39 30.94 81.94 26.65 83.13 26.65 84.08 29.82 84.09 29.82 84.96 26.65 86.26 26.65 87.2 29.82 87.22 29.82 88.11 26.65 89.18 26.65 87.86 30.94 86.54 30.94"/><path class="cls-5" d="M89.87,26.65H91v4.29H89.87Zm0-1.86H91v1.07H89.87Z"/><path class="cls-5" d="M94.72,30.94a2.78,2.78,0,0,1-.82.1,1.26,1.26,0,0,1-1.37-1.39V27.46h-.82v-.81h.82v-.86l1.12-.36v1.22h1v.81h-1v2c0,.45.14.72.54.72a1.05,1.05,0,0,0,.5-.12Z"/><path class="cls-5" d="M98.24,30.94V28.51c0-.78-.23-1.1-.72-1.1-.66,0-1,.6-1,1.46v2.07H95.41V24.69h1.12v2.54h0a1.59,1.59,0,0,1,1.35-.68c1,0,1.46.69,1.46,1.67v2.72Z"/><polygon class="cls-5" points="106.24 30.94 104.01 26.59 103.99 26.59 103.99 30.94 102.88 30.94 102.88 25.12 104.31 25.12 106.53 29.47 106.55 29.47 106.55 25.12 107.67 25.12 107.67 30.94 106.24 30.94"/><polygon class="cls-5" points="112.46 30.94 112.46 28.39 110.13 28.39 110.13 30.94 108.96 30.94 108.96 25.12 110.13 25.12 110.13 27.47 112.46 27.47 112.46 25.12 113.63 25.12 113.63 30.94 112.46 30.94"/><path class="cls-5" d="M115,29.77a2.82,2.82,0,0,0,1.31.35c.43,0,1-.21,1-.75s-.39-.63-1-.86c-.78-.3-1.58-.62-1.58-1.71,0-1.26.94-1.78,2-1.78a4.39,4.39,0,0,1,1.38.21l-.1,1a3,3,0,0,0-1.19-.25.81.81,0,0,0-.92.81c0,.44.5.61,1,.8.78.29,1.57.65,1.57,1.73s-.8,1.76-2.2,1.76a5.2,5.2,0,0,1-1.48-.22Z"/><rect class="cls-5" x="121.87" y="24.69" width="1.12" height="6.26"/><path class="cls-5" d="M127.22,28.69a1.1,1.1,0,1,0-2.16,0c0,.91.35,1.49,1.08,1.49s1.08-.56,1.08-1.49M126.14,31a2.12,2.12,0,0,1-2.25-2.22,2.25,2.25,0,1,1,4.5,0A2.12,2.12,0,0,1,126.14,31"/><path class="cls-5" d="M132.1,28.75c0-.66-.24-1.34-.95-1.34s-1,.58-1,1.36c0,.59.31,1.31,1,1.31s1-.64,1-1.33m0,1.51h0a1.53,1.53,0,0,1-1.33.68c-1.19,0-1.76-.9-1.76-2.17a2,2,0,0,1,1.82-2.22,1.43,1.43,0,0,1,1.32.68h0v-.58h1.07v3.89A2,2,0,0,1,131,32.8a3.7,3.7,0,0,1-1.5-.3l.09-.95a3.16,3.16,0,0,0,1.26.38c1.05,0,1.29-.68,1.29-1.57Z"/><path class="cls-5" d="M134.39,26.65h1.12v4.29h-1.12Zm0-1.86h1.12v1.07h-1.12Z"/><path class="cls-5" d="M139.52,30.94V28.53c0-.64-.14-1.12-.73-1.12s-1,.69-1,1.45v2.08h-1.12V26.65h1.06v.58h0a1.6,1.6,0,0,1,1.41-.68c1,0,1.46.67,1.46,1.68v2.71Z"/><rect class="cls-4" x="8.04" y="22.47" width="28.57" height="11.24"/><path class="cls-5" d="M35.79,23.62l-.61,1.88a4.77,4.77,0,0,0-2.09-.43c-1,0-1.82.14-1.82.9,0,1.34,3.68.84,3.68,3.7C35,32.28,32.52,33,30.32,33a10.57,10.57,0,0,1-2.93-.49l.6-1.91a5,5,0,0,0,2.33.54c.79,0,2-.15,2-1.12,0-1.52-3.68-.95-3.68-3.61,0-2.43,2.14-3.16,4.22-3.16a7.8,7.8,0,0,1,2.9.42m-7.28-.26-2,9.43H24l.84-4h-3l-.84,4H18.46l2-9.43H23L22.22,27h3L26,23.36Zm-9,0-2,9.43H14.34l-2-6.52h0L11,32.79H8.63l2-9.43h3.16l1.94,6.54h0l1.33-6.54Zm17.38-1.13H7.81V33.94H36.88Z"/><path class="cls-3" d="M316.62,48H186.18a1.7,1.7,0,0,1-1.7-1.7V19.88a1.7,1.7,0,0,1,1.7-1.7H316.62a1.7,1.7,0,0,1,1.7,1.7V46.3a1.7,1.7,0,0,1-1.7,1.7"/><path class="cls-4" d="M316.62,45.83H186.18a1.7,1.7,0,0,1-1.7-1.7V17.72a1.7,1.7,0,0,1,1.7-1.7H316.62a1.7,1.7,0,0,1,1.7,1.7V44.13a1.7,1.7,0,0,1-1.7,1.7"/><rect class="cls-4" x="185.26" y="17.1" width="132.34" height="27.65"/><rect class="cls-4" x="227.43" y="21.97" width="82.05" height="11.48"/><path class="cls-5" d="M232.25,30a5.81,5.81,0,0,1-1.3.18c-2,0-3.13-1-3.13-2.86A2.83,2.83,0,0,1,231,24.27a3.68,3.68,0,0,1,1.29.24l-.08,1a2.44,2.44,0,0,0-1.24-.3A1.91,1.91,0,0,0,229,27.24a1.88,1.88,0,0,0,1.94,2A3.1,3.1,0,0,0,232.2,29Z"/><path class="cls-5" d="M234.92,30.18A2.21,2.21,0,1,1,237.13,28,2.09,2.09,0,0,1,234.92,30.18ZM236,27.87a1.07,1.07,0,1,0-2.12,0c0,.89.34,1.46,1,1.46S236,28.78,236,27.87Z"/><path class="cls-5" d="M240.77,30.08V27.72c0-.63-.13-1.1-.72-1.1s-1,.67-1,1.41v2H238V25.87h1v.57h0a1.55,1.55,0,0,1,1.38-.67c1,0,1.43.66,1.43,1.65v2.66Z"/><path class="cls-5" d="M245.5,30.08a3.14,3.14,0,0,1-.81.1,1.24,1.24,0,0,1-1.34-1.37V26.67h-.81v-.8h.81V25l1.1-.35v1.2h1v.8h-1v1.95c0,.44.14.71.52.71a.89.89,0,0,0,.49-.12Z"/><path class="cls-5" d="M246.2,25.1V24.05h1.1V25.1Zm0,5V25.87h1.1v4.21Z"/><path class="cls-5" d="M251.22,30.08V27.72c0-.63-.13-1.1-.71-1.1s-1,.67-1,1.41v2h-1.1V25.87h1v.57h0a1.55,1.55,0,0,1,1.38-.67c1,0,1.43.66,1.43,1.65v2.66Z"/><path class="cls-5" d="M256.28,30.08v-.57h0a1.76,1.76,0,0,1-1.38.67c-.94,0-1.43-.63-1.43-1.65V25.87h1.1v2.4c0,.84.31,1.06.71,1.06.66,0,1-.62,1-1.43v-2h1.1v4.21Z"/><path class="cls-5" d="M261.83,29.84a2.89,2.89,0,0,1-1.44.34A2,2,0,0,1,258.18,28a2,2,0,0,1,1.95-2.22c1.43,0,2,.88,2,2.54h-2.91a1.1,1.1,0,0,0,1.21,1.07,2.84,2.84,0,0,0,1.39-.43Zm-.74-2.28c0-.61-.33-1-.9-1a.94.94,0,0,0-1,1Z"/><path class="cls-5" d="M269.3,30.08l-.91-3.22h0l-.9,3.22h-1.25l-1.42-4.21H266l.93,3.11h0l.85-3.11H269L270,29h0l.87-3.11h1.05l-1.29,4.21Z"/><path class="cls-5" d="M272.57,25.1V24.05h1.1V25.1Zm0,5V25.87h1.1v4.21Z"/><path class="cls-5" d="M277.32,30.08a3.06,3.06,0,0,1-.8.1,1.24,1.24,0,0,1-1.34-1.37V26.67h-.81v-.8h.81V25l1.1-.35v1.2h1v.8h-1v1.95c0,.44.14.71.52.71a.89.89,0,0,0,.49-.12Z"/><path class="cls-5" d="M280.78,30.08V27.7c0-.77-.23-1.08-.72-1.08s-1,.59-1,1.42v2H278V24h1.1v2.49h0a1.56,1.56,0,0,1,1.32-.67c1,0,1.43.68,1.43,1.64v2.67Z"/><path class="cls-5" d="M288.61,30.08l-2.18-4.27h0v4.27h-1.09V24.37h1.41l2.17,4.27h0V24.37H290v5.71Z"/><path class="cls-5" d="M294.72,30.08v-2.5h-2.29v2.5h-1.15V24.37h1.15v2.31h2.29V24.37h1.14v5.71Z"/><path class="cls-5" d="M297.2,28.93a2.78,2.78,0,0,0,1.29.35c.42,0,1-.22,1-.74s-.39-.62-.95-.84c-.76-.3-1.56-.61-1.56-1.69s.93-1.74,2-1.74a4.2,4.2,0,0,1,1.35.21l-.1.94a2.89,2.89,0,0,0-1.16-.25.79.79,0,0,0-.9.79c0,.44.49.6,1,.79.77.29,1.54.64,1.54,1.7s-.79,1.73-2.15,1.73a5.06,5.06,0,0,1-1.46-.22Z"/><path class="cls-5" d="M228,39.9V33.76h1.1V39.9Z"/><path class="cls-5" d="M232.2,40a2.08,2.08,0,0,1-2.2-2.18,2.21,2.21,0,1,1,4.41,0A2.09,2.09,0,0,1,232.2,40Zm1.06-2.31a1.07,1.07,0,1,0-2.11,0c0,.89.34,1.46,1,1.46S233.26,38.6,233.26,37.69Z"/><path class="cls-5" d="M238,39.23h0a1.52,1.52,0,0,1-1.31.67c-1.16,0-1.72-.89-1.72-2.13,0-1,.52-2.18,1.78-2.18a1.39,1.39,0,0,1,1.29.67h0v-.57h1v3.82a2,2,0,0,1-2.21,2.2,3.65,3.65,0,0,1-1.47-.28l.09-.94a3,3,0,0,0,1.23.37c1,0,1.26-.66,1.26-1.53Zm0-1.48c0-.65-.23-1.31-.92-1.31s-1,.56-1,1.33c0,.57.31,1.28.94,1.28S238,38.43,238,37.75Z"/><path class="cls-5" d="M240.29,34.92V33.87h1.1v1.05Zm0,5V35.69h1.1V39.9Z"/><path class="cls-5" d="M245.31,39.9V37.53c0-.63-.13-1.09-.71-1.09s-1,.67-1,1.41v2h-1.09V35.69h1v.57h0a1.56,1.56,0,0,1,1.38-.67c1,0,1.43.66,1.43,1.65V39.9Z"/><rect class="cls-4" x="192.36" y="22.2" width="28" height="11.02"/><path class="cls-5" d="M219.56,23.33l-.6,1.84a4.6,4.6,0,0,0-2-.43c-1,0-1.79.15-1.79.89,0,1.31,3.61.82,3.61,3.63,0,2.55-2.38,3.21-4.54,3.21a10.45,10.45,0,0,1-2.87-.47l.58-1.88a5,5,0,0,0,2.29.53c.77,0,2-.15,2-1.1,0-1.49-3.6-.93-3.6-3.54,0-2.38,2.1-3.09,4.14-3.09a7.55,7.55,0,0,1,2.84.41m-7.14-.26-1.93,9.24H208l.83-4h-2.94l-.83,4h-2.48l1.92-9.24H207l-.73,3.54h2.94l.73-3.54Zm-8.83,0-2,9.24h-3.09l-1.94-6.39h0l-1.29,6.39h-2.34l2-9.24H198l1.91,6.41h0l1.31-6.41Zm17-1.1h-28.5V33.44h28.5Z"/><path class="cls-6" d="M189.45,3.76l2.28-2.29a.83.83,0,0,0,0-1.21.83.83,0,0,0-1.21,0l-2.29,2.28L186,.26a.83.83,0,0,0-1.21,0,.83.83,0,0,0,0,1.21L187,3.76,184.74,6a.84.84,0,0,0,0,1.22.87.87,0,0,0,.63.23.75.75,0,0,0,.58-.23L188.23,5l2.29,2.29a.87.87,0,0,0,.63.23.74.74,0,0,0,.58-.23.84.84,0,0,0,0-1.22Z"/></g></g></svg>