<svg xmlns="http://www.w3.org/2000/svg" xmlns:xlink="http://www.w3.org/1999/xlink" viewBox="0 0 297.4 243.95"><defs><style>.cls-1{fill:none;}.cls-2{clip-path:url(#clip-path);}.cls-3{fill:#006544;}.cls-4{fill:#033f85;}.cls-5{fill:#475c6d;}.cls-6{fill:#bf0078;}.cls-7{fill:#770a48;}.cls-8{fill:#fff;}.cls-9{fill:#22376d;}.cls-10{fill:#075ba7;}.cls-11{fill:#e42313;}</style><clipPath id="clip-path" transform="translate(0 0)"><rect class="cls-1" width="297.4" height="243.95"/></clipPath></defs><g id="Layer_2" data-name="Layer 2"><g id="Layer_1-2" data-name="Layer 1"><g class="cls-2"><path class="cls-3" d="M6.31,13.2.6,7.63A2,2,0,0,1,3.4,4.77L6.29,7.6l7.1-7a2,2,0,1,1,2.82,2.84Z" transform="translate(0 0)"/><path class="cls-4" d="M79.2,46h-36a3.6,3.6,0,0,1,0-7.2h36a3.6,3.6,0,0,1,0,7.2" transform="translate(0 0)"/><path class="cls-4" d="M104.4,46h-3.6a3.6,3.6,0,1,1,0-7.2h3.6a3.6,3.6,0,0,1,0,7.2" transform="translate(0 0)"/><path class="cls-4" d="M56.73,218.75A2.74,2.74,0,0,0,54,221.49v1.73A2.73,2.73,0,0,0,56.73,226h8.94a2.73,2.73,0,0,0,2.73-2.73v-1.73a2.74,2.74,0,0,0-2.73-2.74Zm8.94,14.4H56.73a9.94,9.94,0,0,1-9.93-9.93v-1.73a10,10,0,0,1,9.93-9.94h8.94a10,10,0,0,1,9.93,9.94v1.73a9.94,9.94,0,0,1-9.93,9.93" transform="translate(0 0)"/><path class="cls-4" d="M13,35.15A5.82,5.82,0,0,0,7.2,41v190A5.82,5.82,0,0,0,13,236.75h96.38a5.82,5.82,0,0,0,5.81-5.81V41a5.82,5.82,0,0,0-5.81-5.82ZM109.39,244H13a13,13,0,0,1-13-13V41A13,13,0,0,1,13,28h96.38a13,13,0,0,1,13,13v190a13,13,0,0,1-13,13" transform="translate(0 0)"/><path class="cls-4" d="M7.2,200.75h108v-144H7.2ZM118.8,208H3.6a3.6,3.6,0,0,1-3.6-3.6V53.15a3.6,3.6,0,0,1,3.6-3.6H118.8a3.6,3.6,0,0,1,3.6,3.6v151.2a3.6,3.6,0,0,1-3.6,3.6" transform="translate(0 0)"/></g><path class="cls-5" d="M19.86,118.59A2.48,2.48,0,0,0,21.5,118a3.72,3.72,0,0,0,.36-2.06v-8.33a2.08,2.08,0,0,0-.35-1.44,2.76,2.76,0,0,0-1.6-.4v-.38H24l4.7,10.22,4.6-10.22h4.07v.38a2.5,2.5,0,0,0-1.47.42,2.12,2.12,0,0,0-.33,1.42v9.12a2.1,2.1,0,0,0,.33,1.43,2.66,2.66,0,0,0,1.47.42V119H31.6v-.38a2.52,2.52,0,0,0,1.54-.45,2.75,2.75,0,0,0,.31-1.64v-9.21L28.2,119h-.28l-5.16-11.2V116a3.33,3.33,0,0,0,.49,2.19,2.48,2.48,0,0,0,1.43.45V119H19.86Z" transform="translate(0 0)"/><path class="cls-5" d="M38.14,109.77h4.23v.28a3,3,0,0,0-.74.09c-.31.09-.46.26-.46.52a.79.79,0,0,0,0,.3c0,.09.09.24.18.44l2.31,5,1.91-5s.05-.18.1-.37a2.31,2.31,0,0,0,.06-.39.43.43,0,0,0-.18-.39.89.89,0,0,0-.46-.14l-.31,0v-.28h2.75v.28a.91.91,0,0,0-.61.29,2,2,0,0,0-.36.66l-3.15,8.35a13,13,0,0,1-1.57,3.13,2.31,2.31,0,0,1-1.9,1,2.08,2.08,0,0,1-1.06-.28,1,1,0,0,1-.49-.89.82.82,0,0,1,.3-.65,1.07,1.07,0,0,1,.73-.26,2.39,2.39,0,0,1,.77.19,2.34,2.34,0,0,0,.73.19c.36,0,.75-.45,1.16-1.36a5.91,5.91,0,0,0,.62-1.79,1,1,0,0,0,0-.22,1.25,1.25,0,0,0-.07-.23l-3.15-6.82a3.51,3.51,0,0,0-.6-1,1.44,1.44,0,0,0-.76-.3Z" transform="translate(0 0)"/><path class="cls-5" d="M48.45,118.59a2.72,2.72,0,0,0,1.5-.45,2.7,2.7,0,0,0,.3-1.63v-8.88a2.08,2.08,0,0,0-.34-1.44,2.5,2.5,0,0,0-1.46-.41v-.38h5.68v.38a2.5,2.5,0,0,0-1.46.41,2.08,2.08,0,0,0-.34,1.44v4h6.23v-4a2.15,2.15,0,0,0-.33-1.44,2.53,2.53,0,0,0-1.48-.41v-.38h5.69v.38a2.57,2.57,0,0,0-1.47.41,2.15,2.15,0,0,0-.33,1.44v9.12a2,2,0,0,0,.33,1.42,2.72,2.72,0,0,0,1.47.42V119H56.75v-.38a2.66,2.66,0,0,0,1.51-.44,2.76,2.76,0,0,0,.3-1.64v-4H52.33v4.23a2,2,0,0,0,.34,1.43,2.58,2.58,0,0,0,1.46.41V119H48.45Z" transform="translate(0 0)"/><path class="cls-5" d="M70.09,110.55a3.59,3.59,0,0,1,1.06,2.77H64.79a5.32,5.32,0,0,0,1.06,3.38,2.94,2.94,0,0,0,2.25,1.06,2.87,2.87,0,0,0,1.77-.55,5.67,5.67,0,0,0,1.33-1.56l.35.12A5.64,5.64,0,0,1,70,118.13a3.83,3.83,0,0,1-2.75,1.08,3.36,3.36,0,0,1-2.91-1.42,5.43,5.43,0,0,1-1-3.28A5.33,5.33,0,0,1,64.51,111a3.84,3.84,0,0,1,3.11-1.46A3.54,3.54,0,0,1,70.09,110.55Zm-4.8.77a4.17,4.17,0,0,0-.46,1.36h4.23a4.08,4.08,0,0,0-.38-1.49,1.73,1.73,0,0,0-1.64-.88A1.93,1.93,0,0,0,65.29,111.32Z" transform="translate(0 0)"/><path class="cls-5" d="M74.23,114.55a21.76,21.76,0,0,1,3.67-1.63v-.85a3.57,3.57,0,0,0-.2-1.42,1.43,1.43,0,0,0-1.41-.67,2,2,0,0,0-1,.26.82.82,0,0,0-.46.74,1.92,1.92,0,0,0,0,.4c0,.2,0,.32,0,.37a.85.85,0,0,1-.37.78.92.92,0,0,1-.51.13.85.85,0,0,1-.69-.29,1,1,0,0,1-.24-.66,2.08,2.08,0,0,1,.87-1.47,3.72,3.72,0,0,1,2.54-.76,2.73,2.73,0,0,1,2.63,1.26,4.31,4.31,0,0,1,.37,2v4a2.85,2.85,0,0,0,.08.8.53.53,0,0,0,.54.39,1,1,0,0,0,.38-.07,3.8,3.8,0,0,0,.52-.34v.52a3.18,3.18,0,0,1-.69.64,2,2,0,0,1-1.14.38,1.14,1.14,0,0,1-1-.44,2,2,0,0,1-.33-1.05,9.35,9.35,0,0,1-1.3,1,3.44,3.44,0,0,1-1.73.54,2.07,2.07,0,0,1-1.5-.61,2,2,0,0,1-.63-1.53A2.87,2.87,0,0,1,74.23,114.55Zm3.67-1.13a9.83,9.83,0,0,0-1.9.84,2.49,2.49,0,0,0-1.44,2,1.55,1.55,0,0,0,.6,1.34,1.5,1.5,0,0,0,.87.28,2.42,2.42,0,0,0,1.26-.37,1.08,1.08,0,0,0,.61-.94Z" transform="translate(0 0)"/><path class="cls-5" d="M81.54,118.69a2.36,2.36,0,0,0,1.26-.38,1.44,1.44,0,0,0,.33-1.11v-9.78a2.48,2.48,0,0,0-.11-.92.8.8,0,0,0-.81-.42l-.3,0-.42.09v-.33c.9-.24,2-.56,3.26-1a.08.08,0,0,1,.08.06,1.26,1.26,0,0,1,0,.26v12a1.48,1.48,0,0,0,.3,1.12,2.35,2.35,0,0,0,1.24.33V119H81.54Z" transform="translate(0 0)"/><path class="cls-5" d="M92,109.74v.72H90l0,5.77a4.12,4.12,0,0,0,.13,1.15.93.93,0,0,0,.94.69,1.19,1.19,0,0,0,.63-.17,3.45,3.45,0,0,0,.6-.54l.27.22-.23.3a3.25,3.25,0,0,1-1.1,1,2.52,2.52,0,0,1-1.12.29,1.57,1.57,0,0,1-1.6-1,4.43,4.43,0,0,1-.23-1.58v-6.07H87.17l-.08-.06a.19.19,0,0,1,0-.08.25.25,0,0,1,0-.16l.29-.25a9,9,0,0,0,1-.93c.2-.23.68-.86,1.43-1.87H90a.42.42,0,0,1,0,.16v2.46Z" transform="translate(0 0)"/><path class="cls-5" d="M92.7,118.69a1.71,1.71,0,0,0,1.07-.41,2.38,2.38,0,0,0,.26-1.39v-9.61a1.75,1.75,0,0,0-.15-.83c-.1-.18-.33-.27-.7-.27l-.22,0-.23,0v-.36l1.08-.31.9-.27,1-.3,0,.07v6.15a6.56,6.56,0,0,1,1.12-1.06,3.32,3.32,0,0,1,1.9-.6,2.19,2.19,0,0,1,2.21,1.36,4.58,4.58,0,0,1,.33,1.89v4.09a2.62,2.62,0,0,0,.24,1.38,1.51,1.51,0,0,0,1,.42V119H98.16v-.28a1.87,1.87,0,0,0,1.12-.41,2.43,2.43,0,0,0,.25-1.39v-4.06a3.37,3.37,0,0,0-.32-1.57,1.28,1.28,0,0,0-1.23-.6,2.48,2.48,0,0,0-1.51.56c-.49.37-.73.62-.73.73v4.94a2.4,2.4,0,0,0,.26,1.4,2,2,0,0,0,1.11.4V119H92.7Z" transform="translate(0 0)"/><g class="cls-2"><path class="cls-6" d="M100.57,188H21.83a3.73,3.73,0,0,1-3.73-3.73v-6.35a3.73,3.73,0,0,1,3.73-3.73h78.74a3.72,3.72,0,0,1,3.72,3.73v6.35a3.72,3.72,0,0,1-3.72,3.73" transform="translate(0 0)"/><path class="cls-7" d="M21.83,174.53a3.35,3.35,0,0,0-3.35,3.35v6.35a3.35,3.35,0,0,0,3.35,3.35h78.74a3.35,3.35,0,0,0,3.35-3.35v-6.35a3.35,3.35,0,0,0-3.35-3.35Zm78.74,13.8H21.83a4.11,4.11,0,0,1-4.1-4.1v-6.35a4.11,4.11,0,0,1,4.1-4.1h78.74a4.11,4.11,0,0,1,4.1,4.1v6.35a4.11,4.11,0,0,1-4.1,4.1" transform="translate(0 0)"/><path class="cls-8" d="M38.17,179v.65a1.53,1.53,0,0,0-1-.4,1.26,1.26,0,0,0-.95.41,1.37,1.37,0,0,0-.38,1,1.34,1.34,0,0,0,.38,1,1.27,1.27,0,0,0,.95.4,1,1,0,0,0,.49-.1,1.34,1.34,0,0,0,.24-.12l.25-.2v.67a2,2,0,0,1-1,.26,1.86,1.86,0,0,1-1.88-1.87,1.9,1.9,0,0,1,.46-1.24,1.86,1.86,0,0,1,1.47-.67,1.82,1.82,0,0,1,.94.27" transform="translate(0 0)"/><path class="cls-8" d="M39.2,181.3a.77.77,0,0,0,.18.54.66.66,0,0,0,.5.21.67.67,0,0,0,.5-.2.81.81,0,0,0,.19-.54.76.76,0,0,0-.19-.53.64.64,0,0,0-.5-.21.62.62,0,0,0-.49.21.71.71,0,0,0-.19.52m-.54,0a1.19,1.19,0,0,1,.35-.85,1.22,1.22,0,0,1,.87-.35,1.17,1.17,0,0,1,.87.36,1.21,1.21,0,0,1,0,1.72,1.26,1.26,0,0,1-1.74,0,1.17,1.17,0,0,1-.35-.88" transform="translate(0 0)"/><path class="cls-8" d="M41.67,180.16h.53v.21a.91.91,0,0,1,.63-.28.76.76,0,0,1,.62.26,1,1,0,0,1,.2.7v1.41h-.53v-1.29a.89.89,0,0,0-.1-.47.39.39,0,0,0-.33-.13.41.41,0,0,0-.38.18,1.19,1.19,0,0,0-.11.6v1.11h-.53Z" transform="translate(0 0)"/></g><polygon class="cls-8" points="44.87 180.65 44.87 182.46 44.33 182.46 44.33 180.65 44.11 180.65 44.11 180.16 44.33 180.16 44.33 179.32 44.87 179.32 44.87 180.16 45.28 180.16 45.28 180.65 44.87 180.65"/><g class="cls-2"><path class="cls-8" d="M46.17,182.46h-.53v-2.3h.53Zm-.61-3.26a.33.33,0,0,1,.1-.24.37.37,0,0,1,.24-.1.37.37,0,0,1,.25.1.33.33,0,0,1,.1.25.34.34,0,0,1-.34.34.34.34,0,0,1-.35-.35" transform="translate(0 0)"/><path class="cls-8" d="M46.84,180.16h.53v.21a.91.91,0,0,1,.63-.28.8.8,0,0,1,.63.26,1,1,0,0,1,.19.7v1.41h-.53v-1.29a.8.8,0,0,0-.1-.47.39.39,0,0,0-.33-.13.42.42,0,0,0-.38.18,1.19,1.19,0,0,0-.11.6v1.11h-.53Z" transform="translate(0 0)"/><path class="cls-8" d="M50,180.16v1.32q0,.57.45.57t.45-.57v-1.32h.53v1.33a1.43,1.43,0,0,1-.07.48.83.83,0,0,1-.23.32,1,1,0,0,1-.68.23,1,1,0,0,1-.68-.23.83.83,0,0,1-.23-.32,1.22,1.22,0,0,1-.07-.48v-1.33Z" transform="translate(0 0)"/><path class="cls-8" d="M53.67,181a.52.52,0,0,0-.54-.43l-.18,0a.46.46,0,0,0-.15.09.49.49,0,0,0-.12.13.75.75,0,0,0-.08.18Zm.54.43H52.57a.66.66,0,0,0,.18.45.57.57,0,0,0,.42.17.52.52,0,0,0,.33-.1,1.43,1.43,0,0,0,.29-.35l.44.25a1.86,1.86,0,0,1-.21.31,1.64,1.64,0,0,1-.25.21,1,1,0,0,1-.29.11,1.15,1.15,0,0,1-.33,0,1.1,1.1,0,0,1-.83-.33,1.26,1.26,0,0,1-.31-.88,1.23,1.23,0,0,1,.31-.88,1,1,0,0,1,.8-.33,1,1,0,0,1,.8.32,1.24,1.24,0,0,1,.3.89Z" transform="translate(0 0)"/></g><polygon class="cls-8" points="56.57 180.16 57.17 181.47 57.82 179.95 58.48 181.47 59.07 180.16 59.66 180.16 58.46 182.63 57.82 181.15 57.18 182.63 55.98 180.16 56.57 180.16"/><g class="cls-2"><path class="cls-8" d="M60.55,182.46H60v-2.3h.53Zm-.61-3.26A.37.37,0,0,1,60,179a.37.37,0,0,1,.25-.1.37.37,0,0,1,.24.1.33.33,0,0,1,.1.25.33.33,0,0,1-.1.24.3.3,0,0,1-.24.1.33.33,0,0,1-.25-.1.37.37,0,0,1-.1-.25" transform="translate(0 0)"/></g><polygon class="cls-8" points="61.77 180.65 61.77 182.46 61.24 182.46 61.24 180.65 61.02 180.65 61.02 180.16 61.24 180.16 61.24 179.32 61.77 179.32 61.77 180.16 62.19 180.16 62.19 180.65 61.77 180.65"/><g class="cls-2"><path class="cls-8" d="M62.64,178.47h.53v1.88a.93.93,0,0,1,.63-.26.81.81,0,0,1,.62.26,1,1,0,0,1,.2.7v1.41h-.53V181.1a.6.6,0,0,0-.1-.4.39.39,0,0,0-.31-.13.44.44,0,0,0-.4.18,1.19,1.19,0,0,0-.11.6v1.11h-.53Z" transform="translate(0 0)"/><path class="cls-8" d="M67.43,181.94h.25a2.17,2.17,0,0,0,.62-.08,1.17,1.17,0,0,0,.44-.26,1.25,1.25,0,0,0,.4-1,1.27,1.27,0,0,0-.4-1,1.51,1.51,0,0,0-1.06-.33h-.25Zm-.55.52v-3.65h.77a2.81,2.81,0,0,1,.86.11,1.56,1.56,0,0,1,.62.36,1.75,1.75,0,0,1,.57,1.35,1.73,1.73,0,0,1-.59,1.36,1.52,1.52,0,0,1-.62.36,2.65,2.65,0,0,1-.85.11Z" transform="translate(0 0)"/><path class="cls-8" d="M70.82,182.46h-.53v-2.3h.53Zm-.61-3.26a.33.33,0,0,1,.1-.24.37.37,0,0,1,.24-.1.37.37,0,0,1,.25.1.33.33,0,0,1,.1.25.34.34,0,0,1-.34.34.34.34,0,0,1-.35-.35" transform="translate(0 0)"/><path class="cls-8" d="M71.92,181.3a.8.8,0,0,0,.18.54.59.59,0,0,0,.46.21.61.61,0,0,0,.48-.21.77.77,0,0,0,.18-.53.79.79,0,0,0-.18-.53.61.61,0,0,0-.48-.21.57.57,0,0,0-.45.21.77.77,0,0,0-.19.52m1.26-1.14h.54v2.3h-.54v-.25a1,1,0,0,1-.7.31,1,1,0,0,1-.79-.34,1.33,1.33,0,0,1-.31-.88,1.28,1.28,0,0,1,.31-.86,1,1,0,0,1,.78-.35,1,1,0,0,1,.71.34Z" transform="translate(0 0)"/><path class="cls-8" d="M74.39,180.16h.53v.21a1.12,1.12,0,0,1,.26-.22.62.62,0,0,1,.29-.06.74.74,0,0,1,.62.34.8.8,0,0,1,.67-.34c.52,0,.78.32.78.95v1.42H77v-1.28a1,1,0,0,0-.08-.47.31.31,0,0,0-.28-.14.36.36,0,0,0-.32.17,1.15,1.15,0,0,0-.1.53v1.19H75.7v-1.27c0-.41-.12-.62-.35-.62a.37.37,0,0,0-.33.17,1,1,0,0,0-.1.53v1.19h-.53Z" transform="translate(0 0)"/><path class="cls-8" d="M78.64,181.3a.73.73,0,0,0,.19.54.62.62,0,0,0,.49.21.65.65,0,0,0,.5-.2.76.76,0,0,0,.19-.54.72.72,0,0,0-.19-.53.63.63,0,0,0-.5-.21.64.64,0,0,0-.49.21.71.71,0,0,0-.19.52m-.54,0a1.16,1.16,0,0,1,.36-.85,1.18,1.18,0,0,1,.86-.35,1.19,1.19,0,0,1,.88.36,1.18,1.18,0,0,1,.35.86,1.15,1.15,0,0,1-.36.86,1.26,1.26,0,0,1-1.74,0,1.21,1.21,0,0,1-.35-.88" transform="translate(0 0)"/><path class="cls-8" d="M81.11,180.16h.53v.21a.91.91,0,0,1,.63-.28.8.8,0,0,1,.63.26,1,1,0,0,1,.19.7v1.41h-.53v-1.29a.8.8,0,0,0-.1-.47.39.39,0,0,0-.33-.13.42.42,0,0,0-.38.18,1.19,1.19,0,0,0-.11.6v1.11h-.53Z" transform="translate(0 0)"/><path class="cls-8" d="M84.19,181.3a.8.8,0,0,0,.18.54.57.57,0,0,0,.46.21.59.59,0,0,0,.47-.21.78.78,0,0,0,.19-.53.8.8,0,0,0-.19-.53.58.58,0,0,0-.47-.21.6.6,0,0,0-.46.21.77.77,0,0,0-.18.52m1.26-2.83H86v4h-.54v-.24a1,1,0,0,1-.71.3,1,1,0,0,1-.78-.34,1.28,1.28,0,0,1-.31-.88,1.23,1.23,0,0,1,.31-.86,1,1,0,0,1,1.49,0Z" transform="translate(0 0)"/></g><polygon class="cls-8" points="87.31 178.81 87.31 181.94 88.38 181.94 88.38 182.46 86.76 182.46 86.76 178.81 87.31 178.81"/><g class="cls-2"><path class="cls-8" d="M89.23,181.3a.77.77,0,0,0,.18.54.71.71,0,0,0,1,0,.81.81,0,0,0,.19-.54.76.76,0,0,0-.19-.53.64.64,0,0,0-.5-.21.64.64,0,0,0-.49.21.71.71,0,0,0-.19.52m-.54,0a1.19,1.19,0,0,1,.35-.85,1.22,1.22,0,0,1,.87-.35,1.19,1.19,0,0,1,.88.36,1.18,1.18,0,0,1,.35.86,1.15,1.15,0,0,1-.36.86,1.26,1.26,0,0,1-1.74,0,1.17,1.17,0,0,1-.35-.88" transform="translate(0 0)"/><path class="cls-8" d="M93.41,181.31a.76.76,0,0,0-.18-.53.57.57,0,0,0-.46-.21.59.59,0,0,0-.48.23.82.82,0,0,0-.16.51.87.87,0,0,0,.16.52.63.63,0,0,0,1,0,.81.81,0,0,0,.16-.52m.51,1.09a2.53,2.53,0,0,1,0,.29l0,.22a1,1,0,0,1-.22.44,1.07,1.07,0,0,1-.86.36,1.1,1.1,0,0,1-.75-.25,1,1,0,0,1-.36-.7h.54a.57.57,0,0,0,.1.26.57.57,0,0,0,.48.21c.39,0,.58-.23.58-.71v-.32a1,1,0,0,1-.73.32,1,1,0,0,1-.77-.34,1.25,1.25,0,0,1-.3-.86,1.36,1.36,0,0,1,.28-.85,1,1,0,0,1,.8-.38.91.91,0,0,1,.72.33v-.26h.53Z" transform="translate(0 0)"/><path class="cls-8" d="M95.12,182.46h-.53v-2.3h.53Zm-.61-3.26a.37.37,0,0,1,.1-.24.37.37,0,0,1,.25-.1.37.37,0,0,1,.24.1.33.33,0,0,1,.1.25.33.33,0,0,1-.1.24.31.31,0,0,1-.24.1.33.33,0,0,1-.25-.1.37.37,0,0,1-.1-.25" transform="translate(0 0)"/><path class="cls-8" d="M95.79,180.16h.54v.21a.87.87,0,0,1,.62-.28.8.8,0,0,1,.63.26,1,1,0,0,1,.19.7v1.41h-.53v-1.29a.9.9,0,0,0-.09-.47.43.43,0,0,0-.34-.13.39.39,0,0,0-.37.18,1.09,1.09,0,0,0-.11.6v1.11h-.54Z" transform="translate(0 0)"/><path class="cls-8" d="M24.4,178.05l1,1.57h-2Zm6.65,1.57H29l1-1.57Zm-2.27.43H31l-3.34,3.74Zm-2,3.74-3.33-3.74h2.18Zm-1-4.36-1-1.56h2Zm1.79-1.56h2l-1,1.57Zm-1.39,1.75,1-1.56,1,1.56Zm2.11.43-1.11,3.61-1.11-3.61Zm2-2.38a.48.48,0,0,0-.42-.23H24.55a.48.48,0,0,0-.42.23l-1.21,1.86a.5.5,0,0,0,0,.61l3.87,4.34a.48.48,0,0,0,.37.17.53.53,0,0,0,.38-.16l3.87-4.35a.51.51,0,0,0,.05-.61Z" transform="translate(0 0)"/><path class="cls-9" d="M103.66,168.42H18.74a1,1,0,0,1-1-1v-11.9a1,1,0,0,1,1-1h84.92a1,1,0,0,1,1,1v11.9a1,1,0,0,1-1,1" transform="translate(0 0)"/><path class="cls-10" d="M103.66,167.41H18.74a1,1,0,0,1-1-1V154.5a1,1,0,0,1,1-1h84.92a1,1,0,0,1,1,1v11.9a1,1,0,0,1-1,1" transform="translate(0 0)"/></g><rect class="cls-10" x="18.24" y="154" width="85.97" height="12.91"/><rect class="cls-10" x="43.31" y="157.03" width="56.85" height="6.83"/><g class="cls-2"><path class="cls-8" d="M46.17,162.07a3.32,3.32,0,0,1-.77.1c-1.16,0-1.87-.6-1.87-1.7a1.69,1.69,0,0,1,1.87-1.81,2.32,2.32,0,0,1,.77.14l-.05.57a1.41,1.41,0,0,0-.73-.18,1.14,1.14,0,0,0-1.14,1.24,1.11,1.11,0,0,0,1.15,1.21,2,2,0,0,0,.75-.14Z" transform="translate(0 0)"/><path class="cls-8" d="M48.4,160.8c0-.4-.21-.74-.63-.74a.66.66,0,0,0-.63.74c0,.53.2.87.63.87s.63-.33.63-.87m-.63,1.37a1.23,1.23,0,0,1-1.31-1.29,1.31,1.31,0,1,1,2.62,0,1.23,1.23,0,0,1-1.31,1.29" transform="translate(0 0)"/><path class="cls-8" d="M51.25,162.12v-1.41c0-.38-.08-.65-.43-.65s-.57.4-.57.84v1.22H49.6v-2.51h.61V160h0a1,1,0,0,1,.83-.4c.57,0,.85.39.85,1v1.59Z" transform="translate(0 0)"/><path class="cls-8" d="M54.06,162.12a2,2,0,0,1-.47,0,.73.73,0,0,1-.8-.81v-1.28H52.3v-.47h.49v-.5l.65-.21v.71H54v.47h-.58v1.17c0,.26.08.42.31.42a.62.62,0,0,0,.29-.07Z" transform="translate(0 0)"/></g><path class="cls-8" d="M54.48,162.12h.65v-2.51h-.65Zm0-3h.65v-.62h-.65Z" transform="translate(0 0)"/><g class="cls-2"><path class="cls-8" d="M57.47,162.12v-1.41c0-.38-.08-.65-.42-.65s-.58.4-.58.84v1.22h-.65v-2.51h.62V160h0a1,1,0,0,1,.82-.4c.58,0,.86.39.86,1v1.59Z" transform="translate(0 0)"/><path class="cls-8" d="M60.48,162.12v-.34h0a1,1,0,0,1-.82.39c-.56,0-.85-.37-.85-1v-1.58h.65V161c0,.5.19.63.43.63s.57-.37.57-.85v-1.21h.65v2.51Z" transform="translate(0 0)"/><path class="cls-8" d="M63.35,160.62c0-.36-.2-.59-.54-.59a.56.56,0,0,0-.57.59Zm.44,1.35a1.64,1.64,0,0,1-.86.2,1.19,1.19,0,0,1-1.31-1.3,1.17,1.17,0,0,1,1.16-1.32c.85,0,1.19.52,1.19,1.51H62.24a.66.66,0,0,0,.72.64,1.69,1.69,0,0,0,.83-.26Z" transform="translate(0 0)"/></g><polygon class="cls-8" points="68.24 162.12 67.69 160.2 67.69 160.2 67.15 162.12 66.4 162.12 65.56 159.61 66.25 159.61 66.8 161.46 66.81 161.46 67.32 159.61 68.08 159.61 68.63 161.46 68.64 161.46 69.16 159.61 69.78 159.61 69.01 162.12 68.24 162.12"/><path class="cls-8" d="M70.18,162.12h.66v-2.51h-.66Zm0-3h.66v-.62h-.66Z" transform="translate(0 0)"/><g class="cls-2"><path class="cls-8" d="M73,162.12a2,2,0,0,1-.47,0,.74.74,0,0,1-.8-.81v-1.28h-.48v-.47h.48v-.5l.65-.21v.71H73v.47h-.58v1.17c0,.26.08.42.31.42a.59.59,0,0,0,.29-.07Z" transform="translate(0 0)"/><path class="cls-8" d="M75.07,162.12V160.7c0-.46-.14-.64-.42-.64s-.58.35-.58.84v1.22h-.65v-3.66h.65V160h0a.93.93,0,0,1,.79-.4c.58,0,.85.4.85,1v1.59Z" transform="translate(0 0)"/></g><polygon class="cls-8" points="79.74 162.12 78.44 159.57 78.43 159.57 78.43 162.12 77.78 162.12 77.78 158.72 78.61 158.72 79.91 161.26 79.92 161.26 79.92 158.72 80.57 158.72 80.57 162.12 79.74 162.12"/><polygon class="cls-8" points="83.37 162.12 83.37 160.63 82.01 160.63 82.01 162.12 81.33 162.12 81.33 158.72 82.01 158.72 82.01 160.09 83.37 160.09 83.37 158.72 84.06 158.72 84.06 162.12 83.37 162.12"/><g class="cls-2"><path class="cls-8" d="M84.85,161.43a1.65,1.65,0,0,0,.77.21c.25,0,.6-.13.6-.44s-.23-.37-.56-.5-.93-.37-.93-1,.55-1,1.2-1a2.58,2.58,0,0,1,.8.12l-.06.56a1.72,1.72,0,0,0-.69-.15.48.48,0,0,0-.54.48c0,.25.3.35.58.46.46.17.91.38.91,1s-.46,1-1.28,1a2.71,2.71,0,0,1-.86-.13Z" transform="translate(0 0)"/></g><rect class="cls-8" x="88.86" y="158.46" width="0.65" height="3.65"/><g class="cls-2"><path class="cls-8" d="M92,160.8a.64.64,0,1,0-1.26,0c0,.53.2.87.62.87s.64-.33.64-.87m-.64,1.37A1.24,1.24,0,0,1,90,160.88a1.32,1.32,0,1,1,2.63,0,1.24,1.24,0,0,1-1.32,1.29" transform="translate(0 0)"/><path class="cls-8" d="M94.83,160.84c0-.39-.13-.78-.55-.78s-.58.33-.58.79.18.76.56.76.57-.37.57-.77m0,.88h0a.91.91,0,0,1-.78.4c-.69,0-1-.53-1-1.27s.31-1.3,1.06-1.3a.83.83,0,0,1,.77.4h0v-.34h.62v2.27a1.17,1.17,0,0,1-1.31,1.32,2.35,2.35,0,0,1-.88-.17l.06-.56a1.84,1.84,0,0,0,.73.22c.62,0,.75-.39.75-.91Z" transform="translate(0 0)"/></g><path class="cls-8" d="M96.17,162.12h.65v-2.51h-.65Zm0-3h.65v-.62h-.65Z" transform="translate(0 0)"/><g class="cls-2"><path class="cls-8" d="M99.16,162.12v-1.41c0-.38-.08-.65-.42-.65s-.57.4-.57.84v1.22h-.66v-2.51h.62V160h0a1,1,0,0,1,.82-.4c.58,0,.86.39.86,1v1.59Z" transform="translate(0 0)"/></g><rect class="cls-10" x="22.42" y="157.17" width="16.68" height="6.56"/><g class="cls-2"><path class="cls-8" d="M38.62,157.84l-.36,1.1a2.68,2.68,0,0,0-1.22-.25c-.58,0-1.06.08-1.06.52,0,.78,2.15.49,2.15,2.16,0,1.52-1.42,1.92-2.7,1.92a6.18,6.18,0,0,1-1.71-.29l.35-1.12a2.84,2.84,0,0,0,1.36.32c.46,0,1.18-.09,1.18-.65,0-.89-2.15-.56-2.15-2.11s1.25-1.84,2.46-1.84a4.58,4.58,0,0,1,1.7.24m-4.25-.15-1.15,5.5H31.74l.49-2.35H30.48L30,163.19H28.5l1.15-5.5h1.49l-.44,2.11h1.75l.44-2.11Zm-5.26,0-1.17,5.5H26.1l-1.16-3.8h0l-.77,3.8h-1.4l1.18-5.5h1.85l1.13,3.82h0l.77-3.82ZM39.26,157h-17v6.84h17Z" transform="translate(0 0)"/><path class="cls-11" d="M183.6,6.5l4-3.95a1.45,1.45,0,0,0,0-2.1,1.45,1.45,0,0,0-2.1,0l-3.95,4L177.55.45a1.45,1.45,0,0,0-2.1,0,1.45,1.45,0,0,0,0,2.1l4,4-4,3.95a1.45,1.45,0,0,0,0,2.1,1.5,1.5,0,0,0,1.1.4,1.28,1.28,0,0,0,1-.4l3.95-4,3.95,4a1.5,1.5,0,0,0,1.1.4,1.28,1.28,0,0,0,1-.4,1.45,1.45,0,0,0,0-2.1Z" transform="translate(0 0)"/><path class="cls-4" d="M254.2,45.7h-36a3.6,3.6,0,1,1,0-7.2h36a3.6,3.6,0,1,1,0,7.2" transform="translate(0 0)"/><path class="cls-4" d="M279.4,45.7h-3.6a3.6,3.6,0,0,1,0-7.2h3.6a3.6,3.6,0,1,1,0,7.2" transform="translate(0 0)"/><path class="cls-4" d="M231.73,218.5a2.73,2.73,0,0,0-2.73,2.73V223a2.73,2.73,0,0,0,2.73,2.73h8.94A2.73,2.73,0,0,0,243.4,223v-1.74a2.73,2.73,0,0,0-2.73-2.73Zm8.94,14.4h-8.94A9.94,9.94,0,0,1,221.8,223v-1.74a10,10,0,0,1,9.93-9.93h8.94a10,10,0,0,1,9.93,9.93V223a9.94,9.94,0,0,1-9.93,9.93" transform="translate(0 0)"/><path class="cls-4" d="M188,34.9a5.82,5.82,0,0,0-5.81,5.81v190A5.82,5.82,0,0,0,188,236.5h96.38a5.82,5.82,0,0,0,5.81-5.81v-190a5.82,5.82,0,0,0-5.81-5.81Zm96.38,208.8H188a13,13,0,0,1-13-13v-190a13,13,0,0,1,13-13h96.38a13,13,0,0,1,13,13v190a13,13,0,0,1-13,13" transform="translate(0 0)"/><path class="cls-4" d="M182.2,200.5h108V56.5h-108Zm111.6,7.2H178.6a3.6,3.6,0,0,1-3.6-3.6V52.9a3.6,3.6,0,0,1,3.6-3.6H293.8a3.6,3.6,0,0,1,3.6,3.6V204.1a3.6,3.6,0,0,1-3.6,3.6" transform="translate(0 0)"/></g><path class="cls-5" d="M194.86,118.33a2.43,2.43,0,0,0,1.64-.57,3.79,3.79,0,0,0,.36-2.07v-8.32a2.12,2.12,0,0,0-.35-1.45,2.77,2.77,0,0,0-1.6-.39v-.38H199l4.7,10.21,4.6-10.21h4.07v.38a2.36,2.36,0,0,0-1.47.42,2.1,2.1,0,0,0-.33,1.42v9.11a2.11,2.11,0,0,0,.33,1.44,2.59,2.59,0,0,0,1.47.41v.38H206.6v-.38a2.46,2.46,0,0,0,1.54-.44,2.76,2.76,0,0,0,.31-1.65V107l-5.25,11.67h-.28l-5.16-11.19v8.17a3.33,3.33,0,0,0,.49,2.19,2.48,2.48,0,0,0,1.43.45v.38h-4.82Z" transform="translate(0 0)"/><path class="cls-5" d="M213.14,109.51h4.23v.28a2.52,2.52,0,0,0-.74.1c-.31.09-.46.26-.46.52a.77.77,0,0,0,.05.29,4.09,4.09,0,0,0,.18.45l2.31,5,1.91-5c0-.06,0-.18.1-.37a2.31,2.31,0,0,0,.06-.39.43.43,0,0,0-.18-.39.89.89,0,0,0-.46-.14l-.31,0v-.28h2.75v.28a1,1,0,0,0-.61.29,2,2,0,0,0-.36.67l-3.15,8.35a13,13,0,0,1-1.57,3.13,2.31,2.31,0,0,1-1.9,1,2.08,2.08,0,0,1-1.06-.28,1,1,0,0,1-.49-.89.83.83,0,0,1,.3-.66,1.06,1.06,0,0,1,.73-.25,2.39,2.39,0,0,1,.77.19,2.67,2.67,0,0,0,.73.19c.36,0,.75-.46,1.16-1.36a6,6,0,0,0,.62-1.8.88.88,0,0,0,0-.21,1,1,0,0,0-.07-.23l-3.15-6.82a3.36,3.36,0,0,0-.6-1,1.37,1.37,0,0,0-.76-.31Z" transform="translate(0 0)"/><path class="cls-5" d="M223.45,118.33a2.65,2.65,0,0,0,1.5-.44,2.74,2.74,0,0,0,.3-1.64v-8.88a2.07,2.07,0,0,0-.34-1.43,2.43,2.43,0,0,0-1.46-.41v-.38h5.68v.38a2.43,2.43,0,0,0-1.46.41,2.07,2.07,0,0,0-.34,1.43v4h6.23v-4a2.14,2.14,0,0,0-.33-1.43,2.45,2.45,0,0,0-1.48-.41v-.38h5.69v.38a2.49,2.49,0,0,0-1.47.41,2.14,2.14,0,0,0-.33,1.43v9.12a2.08,2.08,0,0,0,.33,1.43,2.65,2.65,0,0,0,1.47.41v.38h-5.69v-.38a2.68,2.68,0,0,0,1.51-.43,2.8,2.8,0,0,0,.3-1.65v-4h-6.23v4.22a2.07,2.07,0,0,0,.34,1.44,2.6,2.6,0,0,0,1.46.4v.38h-5.68Z" transform="translate(0 0)"/><path class="cls-5" d="M245.09,110.3a3.56,3.56,0,0,1,1.06,2.77h-6.36a5.29,5.29,0,0,0,1.06,3.37,2.91,2.91,0,0,0,2.25,1.06,2.81,2.81,0,0,0,1.77-.55,5.47,5.47,0,0,0,1.33-1.55l.35.12a5.55,5.55,0,0,1-1.54,2.35,3.84,3.84,0,0,1-2.75,1.09,3.37,3.37,0,0,1-2.91-1.43,5.68,5.68,0,0,1,.16-6.74,3.82,3.82,0,0,1,3.11-1.47A3.55,3.55,0,0,1,245.09,110.3Zm-4.8.77a4.17,4.17,0,0,0-.46,1.36h4.23a4,4,0,0,0-.38-1.49,1.74,1.74,0,0,0-1.64-.89A1.92,1.92,0,0,0,240.29,111.07Z" transform="translate(0 0)"/><path class="cls-5" d="M249.23,114.3a21.76,21.76,0,0,1,3.67-1.63v-.85a3.54,3.54,0,0,0-.2-1.42,1.43,1.43,0,0,0-1.41-.68,1.87,1.87,0,0,0-1,.27.8.8,0,0,0-.46.74,2,2,0,0,0,0,.4,3.51,3.51,0,0,1,.05.37.85.85,0,0,1-.37.78,1,1,0,0,1-.51.13.83.83,0,0,1-.69-.3,1,1,0,0,1-.24-.65A2.08,2.08,0,0,1,249,110a3.73,3.73,0,0,1,2.54-.77,2.72,2.72,0,0,1,2.63,1.27,4.31,4.31,0,0,1,.37,2v4a2.75,2.75,0,0,0,.08.8.53.53,0,0,0,.54.39.86.86,0,0,0,.38-.07,3,3,0,0,0,.52-.34v.52a3,3,0,0,1-.69.64,2,2,0,0,1-1.14.38,1.12,1.12,0,0,1-1-.44,2,2,0,0,1-.33-1,9.35,9.35,0,0,1-1.3,1,3.46,3.46,0,0,1-1.73.55,2.11,2.11,0,0,1-1.5-.61,2,2,0,0,1-.63-1.54A2.85,2.85,0,0,1,249.23,114.3Zm3.67-1.13a8.74,8.74,0,0,0-1.9.84,2.48,2.48,0,0,0-1.44,2,1.52,1.52,0,0,0,.6,1.34,1.43,1.43,0,0,0,.87.28,2.34,2.34,0,0,0,1.26-.37,1.07,1.07,0,0,0,.61-.94Z" transform="translate(0 0)"/><path class="cls-5" d="M256.54,118.43a2.37,2.37,0,0,0,1.26-.37,1.45,1.45,0,0,0,.33-1.12v-9.78a2.42,2.42,0,0,0-.11-.91.8.8,0,0,0-.81-.42l-.3,0-.42.09v-.33c.9-.24,2-.56,3.26-1a.08.08,0,0,1,.08.06,1.26,1.26,0,0,1,0,.26v12a1.51,1.51,0,0,0,.3,1.13,2.27,2.27,0,0,0,1.24.32v.28h-4.85Z" transform="translate(0 0)"/><path class="cls-5" d="M267,109.48v.73h-2l0,5.76a4.07,4.07,0,0,0,.13,1.15.93.93,0,0,0,.94.69,1.1,1.1,0,0,0,.63-.17,2.79,2.79,0,0,0,.6-.54l.27.22-.23.3a3.05,3.05,0,0,1-1.1,1,2.41,2.41,0,0,1-1.12.3,1.58,1.58,0,0,1-1.6-1.06,4.4,4.4,0,0,1-.23-1.58v-6.06h-1.09l-.08-.06a.24.24,0,0,1,0-.08.25.25,0,0,1,0-.16,3.7,3.7,0,0,1,.29-.26,9.09,9.09,0,0,0,1-.92c.2-.24.68-.86,1.43-1.88a.42.42,0,0,1,.16,0,.32.32,0,0,1,0,.15v2.46Z" transform="translate(0 0)"/><path class="cls-5" d="M267.7,118.43a1.71,1.71,0,0,0,1.07-.4,2.42,2.42,0,0,0,.26-1.4V107a1.71,1.71,0,0,0-.15-.82c-.1-.18-.33-.27-.7-.27l-.22,0-.23,0v-.36l1.08-.32.9-.26,1-.3,0,.07V111a6.68,6.68,0,0,1,1.12-1.07,3.32,3.32,0,0,1,1.9-.6,2.19,2.19,0,0,1,2.21,1.37,4.58,4.58,0,0,1,.33,1.89v4.08a2.57,2.57,0,0,0,.24,1.38,1.42,1.42,0,0,0,1,.42v.28h-4.34v-.28a1.81,1.81,0,0,0,1.12-.41,2.38,2.38,0,0,0,.25-1.39v-4a3.37,3.37,0,0,0-.32-1.57,1.28,1.28,0,0,0-1.23-.6,2.42,2.42,0,0,0-1.51.56c-.49.37-.73.61-.73.73v4.93A2.36,2.36,0,0,0,271,118a1.9,1.9,0,0,0,1.11.4v.28H267.7Z" transform="translate(0 0)"/><g class="cls-2"><path class="cls-6" d="M275.57,187.7H196.83A3.72,3.72,0,0,1,193.1,184v-23.9a3.72,3.72,0,0,1,3.73-3.72h78.74a3.71,3.71,0,0,1,3.72,3.72V184a3.71,3.71,0,0,1-3.72,3.72" transform="translate(0 0)"/><path class="cls-7" d="M196.83,156.73a3.35,3.35,0,0,0-3.35,3.35V184a3.35,3.35,0,0,0,3.35,3.34h78.74a3.35,3.35,0,0,0,3.35-3.34v-23.9a3.35,3.35,0,0,0-3.35-3.35Zm78.74,31.35H196.83a4.11,4.11,0,0,1-4.1-4.1v-23.9a4.11,4.11,0,0,1,4.1-4.1h78.74a4.11,4.11,0,0,1,4.1,4.1V184a4.11,4.11,0,0,1-4.1,4.1" transform="translate(0 0)"/><path class="cls-8" d="M201.72,178.78a1,1,0,0,0-.81-.4,1,1,0,0,0-.39.08.85.85,0,0,0-.31.21.89.89,0,0,0-.21.32,1,1,0,0,0-.07.39,1,1,0,0,0,.07.4.89.89,0,0,0,.21.32,1.16,1.16,0,0,0,.31.22,1,1,0,0,0,.39.07,1.11,1.11,0,0,0,.81-.38v1.12l-.09,0a2.52,2.52,0,0,1-.41.11,1.55,1.55,0,0,1-.37,0,1.9,1.9,0,0,1-1.33-.54,1.89,1.89,0,0,1-.42-.62,1.77,1.77,0,0,1-.16-.77,1.92,1.92,0,0,1,.15-.77,2.07,2.07,0,0,1,.42-.61,2,2,0,0,1,.62-.39,1.79,1.79,0,0,1,.73-.14,2,2,0,0,1,.42,0,2.78,2.78,0,0,1,.44.14Z" transform="translate(0 0)"/><path class="cls-8" d="M203.07,180a.59.59,0,0,0,0,.23.55.55,0,0,0,.3.3.63.63,0,0,0,.44,0,.55.55,0,0,0,.3-.3.59.59,0,0,0,0-.23.59.59,0,0,0,0-.22.55.55,0,0,0-.3-.3.62.62,0,0,0-.44,0,.55.55,0,0,0-.3.3.54.54,0,0,0,0,.22m-.93,0a1.14,1.14,0,0,1,.12-.52,1.21,1.21,0,0,1,.3-.41,1.52,1.52,0,0,1,.48-.28,1.79,1.79,0,0,1,1.18,0,1.5,1.5,0,0,1,.48.27,1.43,1.43,0,0,1,.31.42,1.41,1.41,0,0,1,.11.54,1.33,1.33,0,0,1-.11.54,1.3,1.3,0,0,1-.32.42,1.29,1.29,0,0,1-.47.27,1.72,1.72,0,0,1-.6.1,1.63,1.63,0,0,1-.59-.1,1.29,1.29,0,0,1-.47-.27,1.19,1.19,0,0,1-.3-.43,1.23,1.23,0,0,1-.12-.55" transform="translate(0 0)"/><path class="cls-8" d="M205.62,178.73h.88v.32a.89.89,0,0,1,.36-.3,1.11,1.11,0,0,1,.43-.07,1.15,1.15,0,0,1,.44.08,1,1,0,0,1,.32.24.85.85,0,0,1,.15.28,1.9,1.9,0,0,1,0,.35v1.58h-.87V180a1.26,1.26,0,0,0,0-.3.38.38,0,0,0-.09-.18.26.26,0,0,0-.13-.08.41.41,0,0,0-.16,0,.44.44,0,0,0-.34.14.59.59,0,0,0-.11.38v1.32h-.88Z" transform="translate(0 0)"/></g><polygon class="cls-8" points="209.81 179.46 209.81 181.21 208.93 181.21 208.93 179.46 208.64 179.46 208.64 178.73 208.93 178.73 208.93 177.99 209.81 177.99 209.81 178.73 210.3 178.73 210.3 179.46 209.81 179.46"/><g class="cls-2"><path class="cls-8" d="M211.57,181.21h-.87v-2.48h.87Zm-.93-3.43a.41.41,0,0,1,0-.19.42.42,0,0,1,.26-.26.47.47,0,0,1,.38,0,.54.54,0,0,1,.16.1.57.57,0,0,1,.11.16.62.62,0,0,1,0,.38.57.57,0,0,1-.11.16.54.54,0,0,1-.16.1.47.47,0,0,1-.38,0,.42.42,0,0,1-.26-.26.41.41,0,0,1,0-.19" transform="translate(0 0)"/><path class="cls-8" d="M212.17,178.73H213v.32a1,1,0,0,1,.37-.3,1.11,1.11,0,0,1,.43-.07,1.15,1.15,0,0,1,.44.08,1,1,0,0,1,.32.24.67.67,0,0,1,.14.28,1.29,1.29,0,0,1,0,.35v1.58h-.87V180a1.26,1.26,0,0,0,0-.3.38.38,0,0,0-.09-.18.26.26,0,0,0-.13-.08.41.41,0,0,0-.16,0,.44.44,0,0,0-.34.14.54.54,0,0,0-.12.38v1.32h-.87Z" transform="translate(0 0)"/><path class="cls-8" d="M216.25,178.73v1.4a.45.45,0,1,0,.89,0v-1.4H218v1.57a.9.9,0,0,1-.34.75,2.07,2.07,0,0,1-2,0,.89.89,0,0,1-.33-.75v-1.57Z" transform="translate(0 0)"/><path class="cls-8" d="M220.42,179.61a.52.52,0,0,0-.18-.29.48.48,0,0,0-.33-.12.52.52,0,0,0-.33.11.49.49,0,0,0-.16.3Zm-1,.51c0,.37.17.56.53.56a.47.47,0,0,0,.43-.23h.84a1.17,1.17,0,0,1-1.28.85,1.7,1.7,0,0,1-.57-.09,1.54,1.54,0,0,1-.45-.27,1.37,1.37,0,0,1-.29-.42,1.53,1.53,0,0,1-.1-.54,1.47,1.47,0,0,1,.1-.56,1.32,1.32,0,0,1,.27-.42,1.48,1.48,0,0,1,.44-.27,1.7,1.7,0,0,1,.57-.09,1.6,1.6,0,0,1,.56.09,1.28,1.28,0,0,1,.43.28,1.1,1.1,0,0,1,.26.43,1.59,1.59,0,0,1,.1.59v.09Z" transform="translate(0 0)"/></g><polygon class="cls-8" points="224.05 178.73 224.65 180.04 225.27 178.73 225.82 178.73 226.43 180.07 227.06 178.73 228.03 178.73 226.73 181.21 226.15 181.21 225.53 179.85 224.94 181.21 224.35 181.21 223.08 178.73 224.05 178.73"/><g class="cls-2"><path class="cls-8" d="M229.2,181.21h-.87v-2.48h.87Zm-.93-3.43a.41.41,0,0,1,0-.19.42.42,0,0,1,.26-.26.47.47,0,0,1,.38,0,.54.54,0,0,1,.16.1.91.91,0,0,1,.11.16.62.62,0,0,1,0,.38.91.91,0,0,1-.11.16.54.54,0,0,1-.16.1.47.47,0,0,1-.38,0,.42.42,0,0,1-.26-.26.41.41,0,0,1,0-.19" transform="translate(0 0)"/></g><polygon class="cls-8" points="230.78 179.46 230.78 181.21 229.9 181.21 229.9 179.46 229.61 179.46 229.61 178.73 229.9 178.73 229.9 177.99 230.78 177.99 230.78 178.73 231.27 178.73 231.27 179.46 230.78 179.46"/><g class="cls-2"><path class="cls-8" d="M231.71,177.2h.88v1.85a1,1,0,0,1,.36-.3,1.11,1.11,0,0,1,.43-.07.9.9,0,0,1,.71.26,1,1,0,0,1,.24.69v1.58h-.88V180a1.3,1.3,0,0,0,0-.31.39.39,0,0,0-.09-.17.41.41,0,0,0-.28-.11.45.45,0,0,0-.35.14.59.59,0,0,0-.11.38v1.32h-.88Z" transform="translate(0 0)"/><path class="cls-8" d="M237.59,180.41h.22a1.23,1.23,0,0,0,.44-.08.81.81,0,0,0,.32-.21,1,1,0,0,0,.21-.32,1.35,1.35,0,0,0,.07-.41,1.11,1.11,0,0,0-.08-.41.83.83,0,0,0-.2-.32.93.93,0,0,0-.33-.21,1.18,1.18,0,0,0-.43-.08h-.22Zm-1-2.84h1.41a1.62,1.62,0,0,1,.69.15,1.78,1.78,0,0,1,.57.4,1.69,1.69,0,0,1,.39.58,1.77,1.77,0,0,1,0,1.38,1.88,1.88,0,0,1-.38.58,1.78,1.78,0,0,1-.57.4,1.66,1.66,0,0,1-.7.15h-1.41Z" transform="translate(0 0)"/><path class="cls-8" d="M241.23,181.21h-.87v-2.48h.87Zm-.93-3.43a.41.41,0,0,1,0-.19.57.57,0,0,1,.11-.16.4.4,0,0,1,.15-.1.43.43,0,0,1,.19,0,.41.41,0,0,1,.19,0,.44.44,0,0,1,.16.1.57.57,0,0,1,.11.16.47.47,0,0,1,0,.38.57.57,0,0,1-.11.16.44.44,0,0,1-.16.1.41.41,0,0,1-.19,0,.43.43,0,0,1-.19,0,.4.4,0,0,1-.15-.1.57.57,0,0,1-.11-.16.41.41,0,0,1,0-.19" transform="translate(0 0)"/><path class="cls-8" d="M242.64,180a.59.59,0,0,0,.05.23.57.57,0,0,0,.12.18.43.43,0,0,0,.17.12.59.59,0,0,0,.23,0,.54.54,0,0,0,.22,0,.55.55,0,0,0,.3-.3.54.54,0,0,0,0-.22.55.55,0,0,0-.34-.52.54.54,0,0,0-.22,0,.59.59,0,0,0-.23,0,.43.43,0,0,0-.17.12.57.57,0,0,0-.12.18.5.5,0,0,0-.05.21m1.1-1.23h.88v2.48h-.88v-.28a.88.88,0,0,1-.75.36,1.35,1.35,0,0,1-.5-.1,1.38,1.38,0,0,1-.4-.28,1.29,1.29,0,0,1-.26-.42,1.51,1.51,0,0,1-.09-.53,1.43,1.43,0,0,1,.09-.5,1.27,1.27,0,0,1,.25-.42,1.21,1.21,0,0,1,.39-.28,1.23,1.23,0,0,1,.51-.11,1,1,0,0,1,.76.33Z" transform="translate(0 0)"/><path class="cls-8" d="M245.22,178.73h.87V179a1.14,1.14,0,0,1,.8-.35,1,1,0,0,0,1.68,0,.88.88,0,0,1,.33.05.67.67,0,0,1,.27.16.7.7,0,0,1,.17.28,1.09,1.09,0,0,1,.07.42v1.61h-.87V180a1.3,1.3,0,0,0,0-.31.42.42,0,0,0-.08-.19.18.18,0,0,0-.12-.09.32.32,0,0,0-.14,0c-.28,0-.42.21-.42.62v1.22h-.88V180a1.37,1.37,0,0,0,0-.31.66.66,0,0,0-.07-.2.23.23,0,0,0-.12-.1.43.43,0,0,0-.17,0l-.15,0a.28.28,0,0,0-.13.09.46.46,0,0,0-.09.2,1.39,1.39,0,0,0,0,.32v1.22h-.87Z" transform="translate(0 0)"/><path class="cls-8" d="M250.83,180a.59.59,0,0,0,0,.23.55.55,0,0,0,.3.3.62.62,0,0,0,.44,0,.55.55,0,0,0,.3-.3.59.59,0,0,0,0-.23.55.55,0,0,0-.34-.52.63.63,0,0,0-.44,0,.55.55,0,0,0-.3.3.54.54,0,0,0,0,.22m-.92,0a1.27,1.27,0,0,1,.11-.52,1.39,1.39,0,0,1,.31-.41,1.47,1.47,0,0,1,.47-.28,1.68,1.68,0,0,1,.6-.1,1.63,1.63,0,0,1,.59.1,1.45,1.45,0,0,1,.47.27,1.3,1.3,0,0,1,.32.42,1.41,1.41,0,0,1,.11.54,1.19,1.19,0,0,1-.12.54,1.3,1.3,0,0,1-.78.69,1.74,1.74,0,0,1-.61.1,1.57,1.57,0,0,1-.58-.1,1.29,1.29,0,0,1-.47-.27,1.35,1.35,0,0,1-.31-.43,1.38,1.38,0,0,1-.11-.55" transform="translate(0 0)"/><path class="cls-8" d="M253.39,178.73h.87v.32a.91.91,0,0,1,.37-.3,1.11,1.11,0,0,1,.43-.07,1.15,1.15,0,0,1,.44.08,1,1,0,0,1,.32.24.67.67,0,0,1,.14.28,1.29,1.29,0,0,1,0,.35v1.58h-.87V180a1.26,1.26,0,0,0,0-.3.51.51,0,0,0-.09-.18.26.26,0,0,0-.13-.08.41.41,0,0,0-.16,0,.43.43,0,0,0-.34.14.54.54,0,0,0-.12.38v1.32h-.87Z" transform="translate(0 0)"/><path class="cls-8" d="M257.41,180a.59.59,0,0,0,0,.23.55.55,0,0,0,.3.3.62.62,0,0,0,.44,0,.55.55,0,0,0,.3-.3.54.54,0,0,0,.05-.22.59.59,0,0,0-.05-.22.55.55,0,0,0-.3-.3.54.54,0,0,0-.22,0,.55.55,0,0,0-.52.34.49.49,0,0,0,0,.21m1.1-2.76h.88v4h-.88v-.28a.92.92,0,0,1-.76.36,1.39,1.39,0,0,1-.5-.1,1.24,1.24,0,0,1-.39-.29,1.13,1.13,0,0,1-.27-.42,1.46,1.46,0,0,1-.09-.52,1.43,1.43,0,0,1,.09-.5,1.27,1.27,0,0,1,.25-.42,1.15,1.15,0,0,1,.4-.28,1.18,1.18,0,0,1,.5-.11,1,1,0,0,1,.77.33Z" transform="translate(0 0)"/></g><polygon class="cls-8" points="261.01 177.57 261.01 180.41 262.15 180.41 262.15 181.21 260.06 181.21 260.06 177.57 261.01 177.57"/><g class="cls-2"><path class="cls-8" d="M263.38,180a.59.59,0,0,0,0,.23.55.55,0,0,0,.52.34.54.54,0,0,0,.22,0,.55.55,0,0,0,.3-.3.59.59,0,0,0,.05-.23.59.59,0,0,0-.05-.22.55.55,0,0,0-.3-.3.54.54,0,0,0-.22,0,.55.55,0,0,0-.52.34.54.54,0,0,0,0,.22m-.92,0a1.13,1.13,0,0,1,.11-.52,1.12,1.12,0,0,1,.31-.41,1.37,1.37,0,0,1,.47-.28,1.63,1.63,0,0,1,.59-.1,1.59,1.59,0,0,1,.59.1,1.5,1.5,0,0,1,.48.27,1.27,1.27,0,0,1,.31.42,1.41,1.41,0,0,1,.11.54,1.33,1.33,0,0,1-.11.54,1.43,1.43,0,0,1-.31.42,1.33,1.33,0,0,1-.48.27,1.72,1.72,0,0,1-.6.1,1.63,1.63,0,0,1-.59-.1,1.29,1.29,0,0,1-.47-.27,1.19,1.19,0,0,1-.3-.43,1.23,1.23,0,0,1-.11-.55" transform="translate(0 0)"/><path class="cls-8" d="M266.74,180a.54.54,0,0,0,.05.22.57.57,0,0,0,.12.18.38.38,0,0,0,.17.12.59.59,0,0,0,.23.05.54.54,0,0,0,.22-.05.36.36,0,0,0,.18-.12.57.57,0,0,0,.12-.18.62.62,0,0,0,0-.44.57.57,0,0,0-.12-.18.76.76,0,0,0-.19-.12.49.49,0,0,0-.21,0,.54.54,0,0,0-.22,0,.55.55,0,0,0-.3.3.54.54,0,0,0-.05.22m2-1.23V181a2.05,2.05,0,0,1,0,.37,1.12,1.12,0,0,1-.07.29.92.92,0,0,1-.18.3,1.37,1.37,0,0,1-.29.24,1.59,1.59,0,0,1-.4.16,1.73,1.73,0,0,1-.47.06,1.85,1.85,0,0,1-.54-.08,1.36,1.36,0,0,1-.42-.2.92.92,0,0,1-.29-.3,1,1,0,0,1-.16-.37h1a.39.39,0,0,0,.41.24.55.55,0,0,0,.42-.15.59.59,0,0,0,.15-.43v-.24a1.22,1.22,0,0,1-.18.16.66.66,0,0,1-.19.09.6.6,0,0,1-.19.06l-.22,0a1.3,1.3,0,0,1-.49-.09,1.16,1.16,0,0,1-.38-.26,1.14,1.14,0,0,1-.25-.39,1.44,1.44,0,0,1-.09-.51,1.51,1.51,0,0,1,.09-.53,1.57,1.57,0,0,1,.27-.43,1.23,1.23,0,0,1,.89-.39,1,1,0,0,1,.74.33v-.26Z" transform="translate(0 0)"/><path class="cls-8" d="M270.17,181.21h-.87v-2.48h.87Zm-.93-3.43a.41.41,0,0,1,0-.19.57.57,0,0,1,.11-.16.4.4,0,0,1,.15-.1.43.43,0,0,1,.19,0,.38.38,0,0,1,.19,0,.44.44,0,0,1,.16.1.57.57,0,0,1,.11.16.47.47,0,0,1,0,.38.57.57,0,0,1-.11.16.44.44,0,0,1-.16.1.38.38,0,0,1-.19,0,.43.43,0,0,1-.19,0,.4.4,0,0,1-.15-.1.57.57,0,0,1-.11-.16.41.41,0,0,1,0-.19" transform="translate(0 0)"/><path class="cls-8" d="M270.77,178.73h.88v.32a1,1,0,0,1,.36-.3,1.11,1.11,0,0,1,.43-.07,1.25,1.25,0,0,1,.45.08,1,1,0,0,1,.31.24.85.85,0,0,1,.15.28,1.87,1.87,0,0,1,0,.35v1.58h-.88V180a1.26,1.26,0,0,0,0-.3.31.31,0,0,0-.09-.18.26.26,0,0,0-.13-.08.4.4,0,0,0-.15,0,.45.45,0,0,0-.35.14.59.59,0,0,0-.11.38v1.32h-.88Z" transform="translate(0 0)"/><path class="cls-8" d="M231.36,162.24l1.75,2.71H229.6ZM242.8,165h-3.5l1.75-2.71Zm-3.91.74h3.75l-5.73,6.44Zm-3.4,6.44-5.73-6.44h3.75Zm-1.7-7.51-1.74-2.69h3.48Zm3.08-2.69h3.49l-1.74,2.7Zm-2.4,3,1.73-2.68,1.73,2.68Zm3.64.74-1.91,6.21-1.91-6.21Zm3.4-4.11a.87.87,0,0,0-.73-.39h-9.16a.86.86,0,0,0-.73.39l-2.08,3.21a.87.87,0,0,0,.08,1.05l6.66,7.48a.88.88,0,0,0,.65.29.89.89,0,0,0,.65-.29l6.66-7.48a.87.87,0,0,0,.08-1.05Z" transform="translate(0 0)"/><path class="cls-9" d="M264.86,150.34H207.54a.68.68,0,0,1-.68-.68v-8a.68.68,0,0,1,.68-.69h57.32a.68.68,0,0,1,.68.69v8a.68.68,0,0,1-.68.68" transform="translate(0 0)"/><path class="cls-10" d="M264.86,149.66H207.54a.68.68,0,0,1-.68-.69v-8a.68.68,0,0,1,.68-.68h57.32a.68.68,0,0,1,.68.68v8a.68.68,0,0,1-.68.69" transform="translate(0 0)"/></g><rect class="cls-10" x="207.2" y="140.6" width="58.03" height="8.71"/><rect class="cls-10" x="224.12" y="142.65" width="38.37" height="4.61"/><g class="cls-2"><path class="cls-8" d="M226.06,146.05a2.33,2.33,0,0,1-.53.07c-.78,0-1.25-.4-1.25-1.14a1.14,1.14,0,0,1,1.25-1.23,1.54,1.54,0,0,1,.52.09l0,.39a1,1,0,0,0-.5-.12.76.76,0,0,0-.76.83.75.75,0,0,0,.77.82,1.33,1.33,0,0,0,.51-.09Z" transform="translate(0 0)"/><path class="cls-8" d="M227.56,145.2c0-.27-.14-.51-.43-.51a.45.45,0,0,0-.42.51c0,.35.14.58.42.58s.43-.22.43-.58m-.43.92a.83.83,0,0,1-.88-.87.89.89,0,1,1,1.77,0,.83.83,0,0,1-.89.87" transform="translate(0 0)"/><path class="cls-8" d="M229.48,146.08v-1c0-.25,0-.44-.28-.44s-.39.27-.39.57v.82h-.44v-1.69h.41v.23h0a.64.64,0,0,1,.56-.27c.38,0,.57.27.57.66v1.07Z" transform="translate(0 0)"/><path class="cls-8" d="M231.38,146.08a1,1,0,0,1-.32,0,.5.5,0,0,1-.54-.55v-.86h-.32v-.32h.32v-.34l.44-.14v.48h.39v.32H231v.79c0,.18.06.28.21.28a.39.39,0,0,0,.2-.05Z" transform="translate(0 0)"/></g><path class="cls-8" d="M231.67,146.08h.44v-1.69h-.44Zm0-2h.44v-.42h-.44Z" transform="translate(0 0)"/><g class="cls-2"><path class="cls-8" d="M233.68,146.08v-1c0-.25-.05-.44-.28-.44s-.39.27-.39.57v.82h-.44v-1.69H233v.23h0a.65.65,0,0,1,.56-.27c.39,0,.58.27.58.66v1.07Z" transform="translate(0 0)"/><path class="cls-8" d="M235.72,146.08v-.23h0a.67.67,0,0,1-.55.27c-.38,0-.58-.25-.58-.66v-1.07H235v1c0,.34.13.42.29.42s.38-.25.38-.57v-.82h.44v1.69Z" transform="translate(0 0)"/><path class="cls-8" d="M237.65,145.07c0-.24-.13-.4-.36-.4a.39.39,0,0,0-.39.4Zm.3.92a1.16,1.16,0,0,1-.58.13.81.81,0,0,1-.89-.88.79.79,0,0,1,.79-.89c.57,0,.8.36.8,1H236.9a.44.44,0,0,0,.49.43,1.19,1.19,0,0,0,.56-.17Z" transform="translate(0 0)"/></g><polygon class="cls-8" points="240.95 146.08 240.59 144.79 240.58 144.79 240.22 146.08 239.71 146.08 239.14 144.39 239.61 144.39 239.98 145.64 239.99 145.64 240.33 144.39 240.84 144.39 241.21 145.64 241.22 145.64 241.57 144.39 241.99 144.39 241.47 146.08 240.95 146.08"/><path class="cls-8" d="M242.27,146.08h.44v-1.69h-.44Zm0-2h.44v-.42h-.44Z" transform="translate(0 0)"/><g class="cls-2"><path class="cls-8" d="M244.18,146.08a1.11,1.11,0,0,1-.33,0,.5.5,0,0,1-.54-.55v-.86H243v-.32h.32v-.34l.45-.14v.48h.39v.32h-.39v.79c0,.18.05.28.21.28a.36.36,0,0,0,.19-.05Z" transform="translate(0 0)"/><path class="cls-8" d="M245.56,146.08v-1c0-.31-.09-.44-.28-.44s-.39.24-.39.57v.82h-.44v-2.46h.44v1h0a.63.63,0,0,1,.53-.27c.39,0,.58.27.58.66v1.07Z" transform="translate(0 0)"/></g><polygon class="cls-8" points="248.72 146.08 247.84 144.37 247.83 144.37 247.83 146.08 247.39 146.08 247.39 143.79 247.96 143.79 248.83 145.5 248.84 145.5 248.84 143.79 249.28 143.79 249.28 146.08 248.72 146.08"/><polygon class="cls-8" points="251.17 146.08 251.17 145.08 250.25 145.08 250.25 146.08 249.79 146.08 249.79 143.79 250.25 143.79 250.25 144.72 251.17 144.72 251.17 143.79 251.63 143.79 251.63 146.08 251.17 146.08"/><g class="cls-2"><path class="cls-8" d="M252.17,145.62a1.06,1.06,0,0,0,.51.14c.17,0,.41-.08.41-.3s-.15-.24-.38-.33-.62-.25-.62-.68.37-.7.8-.7a1.92,1.92,0,0,1,.55.08l0,.38a1.17,1.17,0,0,0-.47-.1.32.32,0,0,0-.36.32c0,.17.19.24.38.31s.62.26.62.69-.31.69-.86.69a1.92,1.92,0,0,1-.59-.09Z" transform="translate(0 0)"/></g><rect class="cls-8" x="254.88" y="143.62" width="0.44" height="2.47"/><g class="cls-2"><path class="cls-8" d="M257,145.2c0-.27-.14-.51-.42-.51a.45.45,0,0,0-.43.51c0,.35.14.58.43.58s.42-.22.42-.58m-.42.92a.83.83,0,0,1-.89-.87.89.89,0,1,1,1.77,0,.83.83,0,0,1-.88.87" transform="translate(0 0)"/><path class="cls-8" d="M258.9,145.22c0-.26-.09-.53-.37-.53s-.39.23-.39.54.12.51.38.51.38-.25.38-.52m0,.59h0a.61.61,0,0,1-.53.27c-.47,0-.69-.35-.69-.85s.21-.88.72-.88a.57.57,0,0,1,.52.27h0v-.23h.42v1.54a.78.78,0,0,1-.88.88,1.57,1.57,0,0,1-.6-.11l0-.38a1.18,1.18,0,0,0,.5.15c.41,0,.5-.27.5-.62Z" transform="translate(0 0)"/></g><path class="cls-8" d="M259.81,146.08h.44v-1.69h-.44Zm0-2h.44v-.42h-.44Z" transform="translate(0 0)"/><g class="cls-2"><path class="cls-8" d="M261.83,146.08v-1c0-.25-.06-.44-.29-.44s-.39.27-.39.57v.82h-.44v-1.69h.42v.23h0a.62.62,0,0,1,.55-.27c.39,0,.58.27.58.66v1.07Z" transform="translate(0 0)"/></g><rect class="cls-10" x="210.02" y="142.74" width="11.26" height="4.43"/><g class="cls-2"><path class="cls-8" d="M221,143.2l-.24.74a1.93,1.93,0,0,0-.82-.17c-.4,0-.72.06-.72.35,0,.53,1.45.33,1.45,1.46s-1,1.29-1.83,1.29a4.26,4.26,0,0,1-1.15-.19l.23-.75a2.08,2.08,0,0,0,.92.21c.31,0,.8-.06.8-.44,0-.6-1.45-.37-1.45-1.42S219,143,219.81,143a3,3,0,0,1,1.15.17m-2.87-.1-.78,3.71h-1l.33-1.59h-1.18l-.33,1.59h-1l.78-3.71h1l-.3,1.42h1.18l.3-1.42Zm-3.55,0-.79,3.71h-1.24l-.78-2.57h0l-.51,2.57h-.95l.8-3.71h1.25l.76,2.57h0l.53-2.57Zm6.85-.45H209.93v4.61h11.46Z" transform="translate(0 0)"/></g></g></g></svg>