<svg xmlns="http://www.w3.org/2000/svg" viewBox="0 0 370.85 53.63"><defs><style>.cls-1{fill:#1d1d1b;}.cls-2{fill:#006544;}.cls-3{fill:#22376d;}.cls-4{fill:#075ba7;}.cls-5{fill:#fff;}.cls-6{fill:#e42313;}</style></defs><g id="Layer_2" data-name="Layer 2"><g id="Layer_1-2" data-name="Layer 1"><rect class="cls-1" x="370.82" y="6.84" width="0.03" height="0.03"/><path class="cls-2" d="M3.55,7.44.34,4.3A1.12,1.12,0,1,1,1.91,2.69L3.54,4.28l4-3.95a1.13,1.13,0,1,1,1.59,1.6Z"/><path class="cls-3" d="M86.56,53.63H1.69A1.69,1.69,0,0,1,0,51.94V32.08a1.69,1.69,0,0,1,1.69-1.69H86.56a1.69,1.69,0,0,1,1.69,1.69V51.94a1.69,1.69,0,0,1-1.69,1.69"/><path class="cls-4" d="M86.56,51.94H1.69A1.69,1.69,0,0,1,0,50.25V30.39A1.69,1.69,0,0,1,1.69,28.7H86.56a1.69,1.69,0,0,1,1.69,1.69V50.25a1.69,1.69,0,0,1-1.69,1.69"/><rect class="cls-4" x="0.89" y="29.55" width="86.51" height="21.55"/><rect class="cls-4" x="42.69" y="34.61" width="37.95" height="11.42"/><polygon class="cls-5" points="46.57 43.1 44.4 38.86 44.38 38.86 44.38 43.1 43.29 43.1 43.29 37.43 44.69 37.43 46.85 41.67 46.87 41.67 46.87 37.43 47.96 37.43 47.96 43.1 46.57 43.1"/><polygon class="cls-5" points="52.63 43.1 52.63 40.61 50.36 40.61 50.36 43.1 49.22 43.1 49.22 37.43 50.36 37.43 50.36 39.72 52.63 39.72 52.63 37.43 53.77 37.43 53.77 43.1 52.63 43.1"/><path class="cls-5" d="M55.1,42a2.74,2.74,0,0,0,1.28.35c.42,0,1-.21,1-.73s-.38-.62-.94-.84c-.76-.29-1.55-.6-1.55-1.67s.92-1.73,2-1.73a4.14,4.14,0,0,1,1.34.2l-.1.94A2.82,2.82,0,0,0,57,38.22a.79.79,0,0,0-.89.79c0,.43.49.6,1,.78.76.29,1.53.64,1.53,1.69s-.78,1.72-2.14,1.72A5,5,0,0,1,55,43Z"/><rect class="cls-5" x="61.8" y="37" width="1.09" height="6.1"/><path class="cls-5" d="M67,40.91a1.07,1.07,0,1,0-2.1,0c0,.88.34,1.44,1,1.44S67,41.81,67,40.91M66,43.2A2.06,2.06,0,0,1,63.77,41,2.19,2.19,0,1,1,66,43.2"/><path class="cls-5" d="M71.76,41c0-.64-.23-1.3-.92-1.3s-1,.56-1,1.33c0,.57.3,1.27.93,1.27s1-.62,1-1.3m0,1.47h0a1.48,1.48,0,0,1-1.3.67c-1.15,0-1.7-.88-1.7-2.11,0-1,.52-2.17,1.77-2.17a1.38,1.38,0,0,1,1.28.66h0v-.57h1v3.8a2,2,0,0,1-2.2,2.19,3.64,3.64,0,0,1-1.46-.28l.09-.93a3,3,0,0,0,1.23.37c1,0,1.25-.66,1.25-1.53Z"/><path class="cls-5" d="M74,38.91h1.09V43.1H74Zm0-1.8h1.09v1H74Z"/><path class="cls-5" d="M79,43.1V40.75c0-.62-.13-1.09-.71-1.09s-1,.67-1,1.41v2H76.23V38.91h1v.57h0a1.58,1.58,0,0,1,1.38-.66c1,0,1.42.65,1.42,1.64V43.1Z"/><rect class="cls-4" x="7.83" y="34.84" width="27.83" height="10.95"/><path class="cls-5" d="M34.87,36l-.6,1.83a4.53,4.53,0,0,0-2-.42c-1,0-1.77.14-1.77.88,0,1.3,3.58.81,3.58,3.6,0,2.54-2.37,3.2-4.51,3.2a10.3,10.3,0,0,1-2.85-.48l.58-1.87a4.79,4.79,0,0,0,2.27.53c.77,0,2-.14,2-1.09,0-1.47-3.58-.92-3.58-3.51,0-2.37,2.09-3.08,4.11-3.08a7.49,7.49,0,0,1,2.83.41m-7.1-.25L25.85,44.9H23.38L24.2,41H21.28l-.82,3.93H18l1.92-9.18h2.47l-.73,3.51h2.92l.73-3.51Zm-8.78,0L17,44.9H14L12,38.55h0L10.73,44.9H8.4l2-9.18h3.08l1.89,6.36h0l1.3-6.36Zm16.94-1.1H7.6V46H35.93Z"/><path class="cls-1" d="M3.59,20.31a2.56,2.56,0,0,1-1,.16A2.13,2.13,0,0,1,.33,18.21,2.16,2.16,0,0,1,2.62,16a2.3,2.3,0,0,1,1,.19l0,.6a1.75,1.75,0,0,0-.89-.24,1.69,1.69,0,0,0,0,3.38,2,2,0,0,0,.94-.21Z"/><path class="cls-1" d="M4.07,18.81a1.56,1.56,0,0,1,1.61-1.65,1.55,1.55,0,0,1,1.61,1.65,1.61,1.61,0,1,1-3.22,0Zm2.6,0a1.07,1.07,0,0,0-1-1.18,1.09,1.09,0,0,0-1,1.18,1.06,1.06,0,0,0,1,1.19A1.06,1.06,0,0,0,6.67,18.81Z"/><path class="cls-1" d="M10.28,20.39V18.68c0-.83-.3-1.05-.69-1.05-.61,0-.94.5-.94,1.29v1.47H8.07V17.23h.56v.5h0a1.15,1.15,0,0,1,1-.57c.79,0,1.18.48,1.18,1.34v1.89Z"/><path class="cls-1" d="M13.58,20.38a1.86,1.86,0,0,1-.5.09.85.85,0,0,1-1-.91V17.7H11.4v-.47h.71V16.5l.59-.18v.91h.83v.47H12.7v1.74a.5.5,0,0,0,.49.56.69.69,0,0,0,.39-.12Z"/><path class="cls-1" d="M14.3,16.53v-.66H15v.66Zm0,3.86V17.23h.58v3.16Z"/><path class="cls-1" d="M18.2,20.39V18.68c0-.83-.31-1.05-.7-1.05-.6,0-.93.5-.93,1.29v1.47H16V17.23h.56v.5h0a1.14,1.14,0,0,1,1-.57c.79,0,1.18.48,1.18,1.34v1.89Z"/><path class="cls-1" d="M22,20.39v-.5h0a1.13,1.13,0,0,1-1,.58c-.8,0-1.19-.49-1.19-1.35V17.23h.58v1.71c0,1,.43,1.06.7,1.06.58,0,.93-.47.93-1.3V17.23h.59v3.16Z"/><path class="cls-1" d="M26,20.26a2.32,2.32,0,0,1-1,.21,1.51,1.51,0,0,1-1.64-1.71,1.46,1.46,0,0,1,1.48-1.6c.92,0,1.39.58,1.39,1.78H24A1,1,0,0,0,25,20a1.84,1.84,0,0,0,1-.32Zm-.38-1.75a.79.79,0,0,0-.79-.88c-.47,0-.78.33-.84.88Z"/><path class="cls-1" d="M31.63,20.39l-.82-2.65h0L30,20.39h-.68l-1-3.16h.64l.73,2.62h0l.81-2.62h.68l.8,2.62h0l.77-2.62h.57l-1,3.16Z"/><path class="cls-1" d="M33.92,16.53v-.66h.66v.66Zm0,3.86V17.23h.58v3.16Z"/><path class="cls-1" d="M37.34,20.38a2,2,0,0,1-.5.09.85.85,0,0,1-1-.91V17.7h-.71v-.47h.71V16.5l.58-.18v.91h.84v.47h-.84v1.74a.51.51,0,0,0,.49.56.73.73,0,0,0,.4-.12Z"/><path class="cls-1" d="M40.23,20.39V18.73c0-.66-.15-1.1-.69-1.1-.8,0-.94.81-.94,1.28v1.48H38V15.75h.58v1.94h0a1.15,1.15,0,0,1,1-.53c.8,0,1.18.49,1.18,1.36v1.87Z"/><path class="cls-1" d="M41.82,17.93v-.7h.7v.7Zm0,2.46V19.7h.7v.69Z"/><path class="cls-6" d="M138.14,3.66l2.22-2.22a.82.82,0,0,0,0-1.19.83.83,0,0,0-1.18,0L137,2.48,134.73.25a.83.83,0,0,0-1.18,0,.82.82,0,0,0,0,1.19l2.22,2.22-2.22,2.23a.81.81,0,0,0,0,1.18.83.83,0,0,0,.62.22.72.72,0,0,0,.56-.22L137,4.84l2.22,2.23a.83.83,0,0,0,.62.22.7.7,0,0,0,.56-.22.81.81,0,0,0,0-1.18Z"/><path class="cls-3" d="M201.13,53.48H135a1.69,1.69,0,0,1-1.69-1.69V31.94A1.69,1.69,0,0,1,135,30.25h66.15a1.69,1.69,0,0,1,1.69,1.69V51.79a1.69,1.69,0,0,1-1.69,1.69"/><path class="cls-4" d="M201.13,51.79H135a1.69,1.69,0,0,1-1.69-1.69V30.25A1.69,1.69,0,0,1,135,28.56h66.15a1.69,1.69,0,0,1,1.69,1.69V50.1a1.69,1.69,0,0,1-1.69,1.69"/><rect class="cls-4" x="134.18" y="29.4" width="67.79" height="21.55"/><rect class="cls-4" x="175.99" y="34.46" width="19.23" height="11.42"/><path class="cls-5" d="M176.57,43v-6.1h1.09V43Z"/><path class="cls-5" d="M180.73,43.05a2.07,2.07,0,0,1-2.19-2.16,2.19,2.19,0,1,1,4.38,0A2.07,2.07,0,0,1,180.73,43.05Zm1.05-2.29a1.06,1.06,0,1,0-2.1,0c0,.89.34,1.45,1,1.45S181.78,41.66,181.78,40.76Z"/><path class="cls-5" d="M186.53,42.29h0a1.48,1.48,0,0,1-1.3.67c-1.15,0-1.7-.88-1.7-2.12,0-1,.52-2.17,1.77-2.17a1.39,1.39,0,0,1,1.28.67h0v-.57h1v3.8a2,2,0,0,1-2.19,2.19,3.65,3.65,0,0,1-1.47-.28l.09-.93a3.13,3.13,0,0,0,1.23.37c1,0,1.25-.66,1.25-1.53Zm0-1.47c0-.64-.23-1.3-.92-1.3s-1,.56-1,1.32c0,.57.31,1.27.93,1.27S186.53,41.49,186.53,40.82Z"/><path class="cls-5" d="M188.77,38V37h1.09v1Zm0,5V38.77h1.09V43Z"/><path class="cls-5" d="M193.75,43V40.61c0-.63-.13-1.09-.71-1.09s-1,.66-1,1.4v2H191V38.77h1v.57h0a1.59,1.59,0,0,1,1.38-.67c1,0,1.42.66,1.42,1.64V43Z"/><rect class="cls-4" x="141.13" y="34.7" width="27.83" height="10.95"/><path class="cls-5" d="M168.16,35.82l-.59,1.83a4.76,4.76,0,0,0-2-.42c-1,0-1.77.15-1.77.88,0,1.3,3.58.82,3.58,3.61,0,2.54-2.36,3.19-4.5,3.19a10.38,10.38,0,0,1-2.86-.47l.58-1.87a4.8,4.8,0,0,0,2.28.53c.76,0,2-.15,2-1.09,0-1.48-3.59-.92-3.59-3.51,0-2.37,2.09-3.08,4.12-3.08a7.7,7.7,0,0,1,2.82.4m-7.1-.25-1.91,9.18h-2.47l.82-3.93h-2.93l-.82,3.93h-2.47l1.92-9.18h2.47l-.73,3.52h2.93l.72-3.52Zm-8.77,0-2,9.18h-3.07l-1.93-6.35h0L144,44.75H141.7l2-9.18h3.08l1.89,6.37h0L150,35.57Zm16.94-1.1H140.9V45.88h28.33Z"/><path class="cls-1" d="M136.89,20.17a2.64,2.64,0,0,1-1,.15,2.13,2.13,0,0,1-2.28-2.25,2.16,2.16,0,0,1,2.29-2.22,2.3,2.3,0,0,1,1,.19l0,.6a1.72,1.72,0,0,0-.89-.24,1.69,1.69,0,0,0,0,3.38,2.17,2.17,0,0,0,.94-.21Z"/><path class="cls-1" d="M137.36,18.67a1.61,1.61,0,1,1,3.22,0,1.61,1.61,0,1,1-3.22,0Zm2.6,0a1.07,1.07,0,0,0-1-1.18,1.08,1.08,0,0,0-1,1.18,1,1,0,1,0,2,0Z"/><path class="cls-1" d="M143.57,20.25V18.54c0-.83-.3-1.05-.69-1.05-.61,0-.94.5-.94,1.29v1.47h-.58V17.09h.57v.5h0a1.12,1.12,0,0,1,1-.57c.8,0,1.19.48,1.19,1.34v1.89Z"/><path class="cls-1" d="M146.88,20.24a2,2,0,0,1-.51.08.84.84,0,0,1-1-.91V17.56h-.71v-.47h.71v-.73l.58-.19v.92h.84v.47H146V19.3a.5.5,0,0,0,.49.55.74.74,0,0,0,.4-.11Z"/><path class="cls-1" d="M147.6,16.38v-.65h.65v.65Zm0,3.87V17.09h.58v3.16Z"/><path class="cls-1" d="M151.49,20.25V18.54c0-.83-.3-1.05-.69-1.05-.61,0-.94.5-.94,1.29v1.47h-.58V17.09h.56v.5h0a1.12,1.12,0,0,1,1-.57c.79,0,1.19.48,1.19,1.34v1.89Z"/><path class="cls-1" d="M155.3,20.25v-.5h0a1.11,1.11,0,0,1-1,.57c-.79,0-1.18-.48-1.18-1.35V17.09h.58v1.7c0,1,.43,1.06.69,1.06.59,0,.94-.47.94-1.29V17.09h.58v3.16Z"/><path class="cls-1" d="M159.27,20.12a2.25,2.25,0,0,1-1,.2,1.51,1.51,0,0,1-1.64-1.71A1.46,1.46,0,0,1,158.12,17c.92,0,1.4.58,1.4,1.78h-2.26a1,1,0,0,0,1,1.05,1.86,1.86,0,0,0,1-.31Zm-.37-1.75a.8.8,0,0,0-.8-.88c-.46,0-.78.33-.84.88Z"/><path class="cls-1" d="M164.92,20.25l-.82-2.65h0l-.8,2.65h-.68l-1-3.16h.64L163,19.7h0l.81-2.61h.69l.79,2.61h0l.77-2.61h.57l-1,3.16Z"/><path class="cls-1" d="M167.22,16.38v-.65h.65v.65Zm0,3.87V17.09h.58v3.16Z"/><path class="cls-1" d="M170.63,20.24a1.87,1.87,0,0,1-.5.08.85.85,0,0,1-1-.91V17.56h-.71v-.47h.71v-.73l.59-.19v.92h.83v.47h-.83V19.3a.5.5,0,0,0,.49.55.7.7,0,0,0,.39-.11Z"/><path class="cls-1" d="M173.53,20.25V18.59c0-.66-.15-1.1-.69-1.1-.8,0-.94.81-.94,1.28v1.48h-.59V15.6h.59v1.94h0a1.14,1.14,0,0,1,1-.52c.8,0,1.19.48,1.19,1.35v1.88Z"/><path class="cls-1" d="M175.12,17.78v-.69h.69v.69Zm0,2.47v-.69h.69v.69Z"/></g></g></svg>