<svg xmlns="http://www.w3.org/2000/svg" xmlns:xlink="http://www.w3.org/1999/xlink" viewBox="0 0 378.07 93.68"><defs><style>.cls-1{fill:none;}.cls-2{fill:#1d1d1b;}.cls-3{clip-path:url(#clip-path);}.cls-4{fill:#033f85;}.cls-5{fill:#006cb5;}.cls-6{fill:#fff;}.cls-7{fill:#475c6d;}</style><clipPath id="clip-path" transform="translate(-8.1 0)"><rect class="cls-1" width="392.65" height="94.31"/></clipPath></defs><g id="Layer_2" data-name="Layer 2"><g id="Layer_1-2" data-name="Layer 1"><path class="cls-2" d="M11.68,81.89V79.5l-.44.38L11,79.61l.7-.58h.36v2.86Z" transform="translate(-8.1 0)"/><path class="cls-2" d="M13.2,81.89v-.45h.46v.45Z" transform="translate(-8.1 0)"/><path class="cls-2" d="M16.08,81.89v-2.5h-.89V79h2.19v.36h-.89v2.5Z" transform="translate(-8.1 0)"/><path class="cls-2" d="M19.22,81.89V80.8c0-.44-.1-.73-.46-.73-.53,0-.62.53-.62.84v1h-.39V78.82h.39V80.1h0a.77.77,0,0,1,.67-.35c.53,0,.78.33.78.9v1.24Z" transform="translate(-8.1 0)"/><path class="cls-2" d="M21.86,81.81a1.56,1.56,0,0,1-.65.13,1,1,0,0,1-1.09-1.13,1,1,0,0,1,1-1.06c.61,0,.92.39.92,1.18H20.53a.68.68,0,0,0,.69.7,1.16,1.16,0,0,0,.64-.21Zm-.25-1.16a.52.52,0,0,0-.52-.58.57.57,0,0,0-.56.58Z" transform="translate(-8.1 0)"/><path class="cls-2" d="M25.6,81.89l-.54-1.75h0l-.53,1.75h-.44L23.4,79.8h.43l.48,1.73h0l.54-1.73h.45l.53,1.73h0l.5-1.73h.38l-.67,2.09Z" transform="translate(-8.1 0)"/><path class="cls-2" d="M28.7,81.81a1.56,1.56,0,0,1-.65.13A1,1,0,0,1,27,80.81a1,1,0,0,1,1-1.06c.61,0,.92.39.92,1.18H27.37a.69.69,0,0,0,.69.7,1.16,1.16,0,0,0,.64-.21Zm-.25-1.16a.52.52,0,0,0-.52-.58.57.57,0,0,0-.56.58Z" transform="translate(-8.1 0)"/><path class="cls-2" d="M29.38,81.89V78.82h.39v1.27h0a.74.74,0,0,1,.69-.34c.59,0,.9.48.9,1.06s-.28,1.13-.9,1.13a.83.83,0,0,1-.71-.34h0v.29Zm1.58-1c0-.47-.21-.77-.58-.77s-.61.38-.61.78.19.78.61.78S31,81.25,31,80.84Z" transform="translate(-8.1 0)"/><path class="cls-2" d="M31.73,81.48a1,1,0,0,0,.48.15c.21,0,.4-.09.4-.3s-.08-.21-.38-.35-.53-.37-.53-.59c0-.43.33-.64.74-.64a1.46,1.46,0,0,1,.48.09l0,.33a1.12,1.12,0,0,0-.41-.1c-.21,0-.37.09-.37.25s.14.26.41.37.5.32.5.6a.66.66,0,0,1-.74.65,1.26,1.26,0,0,1-.57-.11Z" transform="translate(-8.1 0)"/><path class="cls-2" d="M33.51,79.34V78.9H34v.44Zm0,2.55V79.8h.38v2.09Z" transform="translate(-8.1 0)"/><path class="cls-2" d="M35.77,81.89a1.63,1.63,0,0,1-.33,0c-.43,0-.64-.22-.64-.6V80.11h-.47V79.8h.47v-.48l.38-.12v.6h.56v.31h-.56v1.16a.33.33,0,0,0,.33.36.48.48,0,0,0,.26-.07Z" transform="translate(-8.1 0)"/><path class="cls-2" d="M37.83,81.81a1.63,1.63,0,0,1-.66.13,1,1,0,0,1-1.09-1.13,1,1,0,0,1,1-1.06c.61,0,.93.39.93,1.18h-1.5a.69.69,0,0,0,.69.7,1.2,1.2,0,0,0,.65-.21Zm-.25-1.16a.53.53,0,0,0-.53-.58c-.31,0-.51.22-.56.58Z" transform="translate(-8.1 0)"/><path class="cls-2" d="M39.51,80.85a1,1,0,0,1,1.06-1.1,1,1,0,0,1,1.07,1.1,1.07,1.07,0,1,1-2.13,0Zm1.72,0a.7.7,0,0,0-.66-.78.71.71,0,0,0-.65.78.7.7,0,0,0,.65.78A.7.7,0,0,0,41.23,80.85Z" transform="translate(-8.1 0)"/><path class="cls-2" d="M42.15,81.89V79.8h.36v.33h0a.64.64,0,0,1,.55-.38l.25,0v.35a.56.56,0,0,0-.21,0c-.35,0-.57.34-.57.85v1Z" transform="translate(-8.1 0)"/><path class="cls-2" d="M9.68,87.29V87h0a.78.78,0,0,1-.66.32c-.48,0-.76-.23-.76-.65s.42-.69,1-.69h.38c0-.38-.15-.54-.51-.54a1,1,0,0,0-.61.21l0-.33a1.37,1.37,0,0,1,.69-.2c.58,0,.84.28.84.86v.92a1.94,1.94,0,0,0,0,.36Zm0-1H9.39c-.43,0-.72.13-.72.4a.37.37,0,0,0,.4.34.52.52,0,0,0,.57-.55Z" transform="translate(-8.1 0)"/><path class="cls-2" d="M10.68,88.16v-3h.37v.3h0a.84.84,0,0,1,.71-.35c.59,0,.9.48.9,1.06s-.28,1.13-.9,1.13a.74.74,0,0,1-.69-.33h0v1.15Zm1.58-1.92c0-.54-.26-.78-.58-.77s-.61.38-.61.78.19.78.61.78S12.26,86.65,12.26,86.24Z" transform="translate(-8.1 0)"/><path class="cls-2" d="M13.19,88.16v-3h.37v.3h0a.84.84,0,0,1,.71-.35.94.94,0,0,1,.9,1.06c0,.59-.28,1.13-.9,1.13a.76.76,0,0,1-.7-.33h0v1.15Zm1.58-1.92c0-.54-.27-.78-.58-.77s-.61.38-.61.78.19.78.61.78S14.77,86.65,14.77,86.24Z" transform="translate(-8.1 0)"/><path class="cls-2" d="M16.84,87.29V85.2h.36v.33h0a.63.63,0,0,1,.55-.38l.25,0v.35a.57.57,0,0,0-.22,0c-.35,0-.57.34-.57.85v1Z" transform="translate(-8.1 0)"/><path class="cls-2" d="M20,87.21a1.6,1.6,0,0,1-.66.13,1,1,0,0,1-1.08-1.13,1,1,0,0,1,1-1.06c.6,0,.92.39.92,1.18H18.71a.68.68,0,0,0,.68.7,1.17,1.17,0,0,0,.65-.21Zm-.25-1.16a.53.53,0,0,0-.53-.58c-.3,0-.51.22-.55.58Z" transform="translate(-8.1 0)"/><path class="cls-2" d="M22.18,87.29V86.16c0-.55-.2-.69-.46-.69s-.62.33-.62.85v1h-.38V85.2h.37v.33h0a.76.76,0,0,1,.68-.38c.53,0,.79.32.79.89v1.25Z" transform="translate(-8.1 0)"/><path class="cls-2" d="M24.71,87.29V87h0a.86.86,0,0,1-.72.34c-.62,0-.9-.54-.9-1.13A.94.94,0,0,1,24,85.15a.75.75,0,0,1,.69.34h0V84.22h.38v3.07Zm0-1c0-.37-.19-.78-.62-.78s-.57.34-.57.75.22.81.57.81S24.69,86.61,24.69,86.25Z" transform="translate(-8.1 0)"/><path class="cls-2" d="M27.34,87.21a1.63,1.63,0,0,1-.66.13,1,1,0,0,1-1.09-1.13,1,1,0,0,1,1-1.06c.61,0,.93.39.93,1.18H26a.69.69,0,0,0,.69.7,1.22,1.22,0,0,0,.65-.21Zm-.25-1.16a.53.53,0,0,0-.53-.58.57.57,0,0,0-.56.58Z" transform="translate(-8.1 0)"/><path class="cls-2" d="M28,87.29V85.2h.36v.33h0a.64.64,0,0,1,.55-.38l.25,0v.35a.56.56,0,0,0-.21,0c-.35,0-.57.34-.57.85v1Z" transform="translate(-8.1 0)"/><path class="cls-2" d="M29.45,86.88a1,1,0,0,0,.48.15c.21,0,.4-.09.4-.3s-.08-.21-.38-.35-.53-.37-.53-.59c0-.43.33-.64.74-.64a1.46,1.46,0,0,1,.48.09l0,.33a1.12,1.12,0,0,0-.41-.1c-.21,0-.37.09-.37.25s.14.26.41.37.5.32.5.6a.66.66,0,0,1-.74.65,1.26,1.26,0,0,1-.57-.11Z" transform="translate(-8.1 0)"/><path class="cls-2" d="M33.63,87.29V87h0a.75.75,0,0,1-.65.32c-.48,0-.76-.23-.76-.65s.42-.69,1-.69h.38c0-.38-.15-.54-.52-.54a.93.93,0,0,0-.6.21l0-.33a1.36,1.36,0,0,1,.68-.2A.75.75,0,0,1,34,86v.92c0,.13,0,.27,0,.36Zm0-1h-.25c-.43,0-.72.13-.72.4A.36.36,0,0,0,33,87a.53.53,0,0,0,.58-.55Z" transform="translate(-8.1 0)"/><path class="cls-2" d="M36.09,87.29V86.16c0-.55-.2-.69-.46-.69s-.62.33-.62.85v1h-.38V85.2H35v.33h0a.76.76,0,0,1,.69-.38c.52,0,.78.32.78.89v1.25Z" transform="translate(-8.1 0)"/><path class="cls-2" d="M40,87.29l-1.29-2.35h0v2.35h-.41V84.43h.56l1.26,2.31h0V84.43h.41v2.86Z" transform="translate(-8.1 0)"/><path class="cls-2" d="M43.08,87.29V86H41.71v1.3H41.3V84.43h.41v1.2h1.37v-1.2h.41v2.86Z" transform="translate(-8.1 0)"/><path class="cls-2" d="M44.14,86.84a1.57,1.57,0,0,0,.6.14.5.5,0,0,0,.56-.46c0-.21-.1-.35-.56-.56s-.67-.35-.67-.8.36-.78.92-.78a2.22,2.22,0,0,1,.61.1l-.06.38a1.22,1.22,0,0,0-.53-.12c-.32,0-.51.14-.51.38s.3.38.54.5.69.35.69.87-.39.85-1,.85a1.77,1.77,0,0,1-.59-.12Z" transform="translate(-8.1 0)"/><g class="cls-3"><path class="cls-2" d="M14.72,92.69V89.62h.39v3.07Z" transform="translate(-8.1 0)"/><path class="cls-2" d="M15.68,91.65a1.06,1.06,0,1,1,2.12,0,1.06,1.06,0,1,1-2.12,0Zm1.71,0a.7.7,0,0,0-.65-.78.71.71,0,0,0-.65.78.66.66,0,1,0,1.3,0Z" transform="translate(-8.1 0)"/><path class="cls-2" d="M19.79,92.37h0a.89.89,0,0,1-.7.32.92.92,0,0,1-.9-1,1,1,0,0,1,.94-1.11.7.7,0,0,1,.69.36h0V90.6h.35v2c0,.64-.34,1-1.08,1a2.14,2.14,0,0,1-.75-.14l0-.36a1.56,1.56,0,0,0,.75.19.63.63,0,0,0,.66-.71Zm0-.7c0-.44-.21-.8-.61-.8s-.59.39-.59.77.24.74.59.74A.65.65,0,0,0,19.79,91.67Z" transform="translate(-8.1 0)"/><path class="cls-2" d="M20.85,90.14V89.7h.44v.44Zm0,2.55V90.6h.38v2.09Z" transform="translate(-8.1 0)"/><path class="cls-2" d="M23.43,92.69V91.56c0-.55-.2-.69-.45-.69-.41,0-.62.33-.62.85v1H22V90.6h.37v.33h0a.77.77,0,0,1,.69-.38c.52,0,.78.32.78.89v1.25Z" transform="translate(-8.1 0)"/><path class="cls-2" d="M25.62,92.69V89.62H26v1.27h0a.77.77,0,0,1,.7-.34.94.94,0,0,1,.9,1.06c0,.59-.28,1.13-.9,1.13A.82.82,0,0,1,26,92.4h0v.29Zm1.58-1c0-.47-.21-.77-.58-.77s-.62.38-.62.78.2.78.62.78S27.2,92.05,27.2,91.64Z" transform="translate(-8.1 0)"/><path class="cls-2" d="M29.6,92.69v-.33h0a.73.73,0,0,1-.68.38c-.53,0-.78-.32-.78-.89V90.6h.38v1.13c0,.64.29.7.46.7.39,0,.62-.31.62-.86v-1H30v2.09Z" transform="translate(-8.1 0)"/><path class="cls-2" d="M31.78,92.69a1.63,1.63,0,0,1-.33,0c-.43,0-.64-.22-.64-.6V90.91h-.48V90.6h.48v-.48l.38-.12v.6h.56v.31h-.56v1.16a.33.33,0,0,0,.33.36.51.51,0,0,0,.26-.07Z" transform="translate(-8.1 0)"/><path class="cls-2" d="M33.37,92.69a1.53,1.53,0,0,1-.33,0c-.43,0-.64-.22-.64-.6V90.91h-.47V90.6h.47v-.48l.39-.12v.6h.55v.31h-.55v1.16a.33.33,0,0,0,.32.36.48.48,0,0,0,.26-.07Z" transform="translate(-8.1 0)"/><path class="cls-2" d="M33.69,91.65a1,1,0,0,1,1.06-1.1,1,1,0,0,1,1.07,1.1,1.07,1.07,0,1,1-2.13,0Zm1.72,0a.7.7,0,0,0-.66-.78.71.71,0,0,0-.65.78.7.7,0,0,0,.65.78A.7.7,0,0,0,35.41,91.65Z" transform="translate(-8.1 0)"/><path class="cls-2" d="M37.8,92.69V91.56c0-.55-.2-.69-.46-.69s-.62.33-.62.85v1h-.39V90.6h.38v.33h0a.75.75,0,0,1,.68-.38c.53,0,.78.32.78.89v1.25Z" transform="translate(-8.1 0)"/><path class="cls-2" d="M38.85,92.69v-.45h.46v.45Z" transform="translate(-8.1 0)"/><path class="cls-4" d="M33.44,5.76H21.92a1.15,1.15,0,1,1,0-2.3H33.44a1.15,1.15,0,1,1,0,2.3" transform="translate(-8.1 0)"/><path class="cls-4" d="M41.51,5.76H40.36a1.15,1.15,0,1,1,0-2.3h1.15a1.15,1.15,0,0,1,0,2.3" transform="translate(-8.1 0)"/><path class="cls-4" d="M26.25,61.06a.87.87,0,0,0-.87.87v.56a.87.87,0,0,0,.87.87h2.86a.87.87,0,0,0,.88-.87v-.56a.87.87,0,0,0-.88-.87Zm2.86,4.6H26.25a3.17,3.17,0,0,1-3.17-3.17v-.56a3.18,3.18,0,0,1,3.17-3.18h2.86a3.18,3.18,0,0,1,3.18,3.18v.56a3.17,3.17,0,0,1-3.18,3.17" transform="translate(-8.1 0)"/><path class="cls-4" d="M12.26,2.3A1.87,1.87,0,0,0,10.4,4.16V65a1.87,1.87,0,0,0,1.86,1.86H43.1A1.86,1.86,0,0,0,45,65V4.16A1.86,1.86,0,0,0,43.1,2.3ZM43.1,69.12H12.26A4.17,4.17,0,0,1,8.1,65V4.16A4.17,4.17,0,0,1,12.26,0H43.1a4.17,4.17,0,0,1,4.17,4.16V65a4.17,4.17,0,0,1-4.17,4.16" transform="translate(-8.1 0)"/><path class="cls-4" d="M10.4,55.3H45V9.22H10.4Zm35.72,2.3H9.25A1.16,1.16,0,0,1,8.1,56.45V8.06A1.16,1.16,0,0,1,9.25,6.91H46.12a1.16,1.16,0,0,1,1.15,1.15V56.45a1.16,1.16,0,0,1-1.15,1.15" transform="translate(-8.1 0)"/><path class="cls-5" d="M15.46,40.08a1.06,1.06,0,0,0-1.08,1.08v5.4a1.06,1.06,0,0,0,1.08,1.08H39.91A1.06,1.06,0,0,0,41,46.56v-5.4a1.06,1.06,0,0,0-1.08-1.08Z" transform="translate(-8.1 0)"/></g><path class="cls-6" d="M18.66,45.68l-1.3-2.54h0v2.54H16.7V42.29h.84l1.29,2.54h0V42.29h.65v3.39Z" transform="translate(-8.1 0)"/><path class="cls-6" d="M22.29,45.68V44.19H20.93v1.49h-.68V42.29h.68v1.37h1.36V42.29H23v3.39Z" transform="translate(-8.1 0)"/><path class="cls-6" d="M23.76,45a1.65,1.65,0,0,0,.77.21c.25,0,.6-.13.6-.44s-.23-.37-.56-.5-.93-.37-.93-1,.55-1,1.19-1a2.64,2.64,0,0,1,.81.12l-.06.56a1.72,1.72,0,0,0-.69-.15.48.48,0,0,0-.54.48c0,.25.29.35.58.46.45.17.91.38.91,1s-.47,1-1.28,1a3,3,0,0,1-.86-.13Z" transform="translate(-8.1 0)"/><path class="cls-6" d="M27.76,45.68V42h.66v3.64Z" transform="translate(-8.1 0)"/><path class="cls-6" d="M30.25,45.74a1.23,1.23,0,0,1-1.31-1.29,1.31,1.31,0,1,1,2.62,0A1.23,1.23,0,0,1,30.25,45.74Zm.63-1.37c0-.4-.21-.74-.63-.74a.66.66,0,0,0-.63.74c0,.53.2.86.63.86S30.88,44.91,30.88,44.37Z" transform="translate(-8.1 0)"/><path class="cls-6" d="M33.72,45.28h0a.88.88,0,0,1-.78.4c-.69,0-1-.52-1-1.26s.31-1.3,1.06-1.3a.83.83,0,0,1,.77.4h0v-.34h.62v2.27a1.17,1.17,0,0,1-1.31,1.31,2.14,2.14,0,0,1-.88-.17l.06-.55a1.84,1.84,0,0,0,.73.22c.61,0,.75-.4.75-.92Zm0-.88c0-.38-.14-.77-.55-.77s-.58.33-.58.79.18.76.55.76S33.72,44.81,33.72,44.4Z" transform="translate(-8.1 0)"/><path class="cls-6" d="M35.05,42.72V42.1h.66v.62Zm0,3v-2.5h.66v2.5Z" transform="translate(-8.1 0)"/><path class="cls-6" d="M38,45.68v-1.4c0-.38-.08-.65-.42-.65S37,44,37,44.47v1.21h-.65v-2.5H37v.34h0a.93.93,0,0,1,.82-.4c.57,0,.85.39.85,1v1.58Z" transform="translate(-8.1 0)"/><path class="cls-7" d="M14.46,27.55a.78.78,0,0,0,.52-.18,1.21,1.21,0,0,0,.11-.66V24.05c0-.24,0-.4-.11-.47a.84.84,0,0,0-.51-.12v-.13h1.3l1.5,3.27,1.47-3.27h1.31v.13a.73.73,0,0,0-.47.13.68.68,0,0,0-.11.46V27a.68.68,0,0,0,.11.46.79.79,0,0,0,.47.13v.13H18.21v-.13a.84.84,0,0,0,.5-.14,1,1,0,0,0,.09-.53V23.94l-1.68,3.74H17l-1.65-3.59v2.62a1,1,0,0,0,.16.7.77.77,0,0,0,.46.14v.13H14.46Z" transform="translate(-8.1 0)"/><path class="cls-7" d="M20.31,24.73h1.35v.09a.7.7,0,0,0-.24,0c-.1,0-.15.08-.15.17a.29.29,0,0,0,0,.09,1.14,1.14,0,0,0,.06.14l.74,1.61.61-1.62a.5.5,0,0,0,0-.12c0-.06,0-.1,0-.12a.15.15,0,0,0-.06-.13.29.29,0,0,0-.14,0h-.1v-.09h.88v.09a.29.29,0,0,0-.2.09.75.75,0,0,0-.11.22L22,27.8a4.3,4.3,0,0,1-.51,1,.72.72,0,0,1-.6.31.67.67,0,0,1-.34-.09.29.29,0,0,1-.16-.28.24.24,0,0,1,.1-.21.32.32,0,0,1,.23-.09.79.79,0,0,1,.25.06.61.61,0,0,0,.23.07c.12,0,.24-.15.37-.44a2,2,0,0,0,.2-.57.17.17,0,0,0,0-.07s0,0,0-.08l-1-2.18a1,1,0,0,0-.19-.31.53.53,0,0,0-.24-.1Z" transform="translate(-8.1 0)"/><path class="cls-7" d="M23.6,27.55a.77.77,0,0,0,.48-.14c.07-.07.1-.24.1-.52V24.05a.68.68,0,0,0-.11-.46.75.75,0,0,0-.47-.13v-.13h1.82v.13a.77.77,0,0,0-.47.13.69.69,0,0,0-.1.46v1.27h2V24.05a.68.68,0,0,0-.11-.46.73.73,0,0,0-.47-.13v-.13h1.82v.13a.75.75,0,0,0-.47.13.68.68,0,0,0-.11.46V27a.68.68,0,0,0,.11.46.82.82,0,0,0,.47.13v.13H26.26v-.13a.77.77,0,0,0,.48-.14c.07-.06.1-.24.1-.52V25.61h-2V27a.69.69,0,0,0,.1.46.85.85,0,0,0,.47.13v.13H23.6Z" transform="translate(-8.1 0)"/><path class="cls-7" d="M30.53,25a1.15,1.15,0,0,1,.34.89h-2A1.8,1.8,0,0,0,29.17,27a1,1,0,0,0,.72.34.9.9,0,0,0,.57-.18,1.79,1.79,0,0,0,.42-.5l.12,0a1.86,1.86,0,0,1-.5.76,1.21,1.21,0,0,1-.88.34,1.09,1.09,0,0,1-.93-.45,1.77,1.77,0,0,1-.33-1.05,1.72,1.72,0,0,1,.38-1.11,1.25,1.25,0,0,1,1-.47A1.13,1.13,0,0,1,30.53,25ZM29,25.23a1.45,1.45,0,0,0-.14.43H30.2a1.37,1.37,0,0,0-.12-.47.56.56,0,0,0-.53-.29A.62.62,0,0,0,29,25.23Z" transform="translate(-8.1 0)"/><path class="cls-7" d="M31.85,26.26A7,7,0,0,1,33,25.74v-.27A1,1,0,0,0,33,25a.45.45,0,0,0-.45-.21.68.68,0,0,0-.31.08.27.27,0,0,0-.15.24s0,.07,0,.13,0,.1,0,.12a.27.27,0,0,1-.12.25.42.42,0,0,1-.16,0,.25.25,0,0,1-.22-.1.28.28,0,0,1-.08-.21.67.67,0,0,1,.28-.47,1.19,1.19,0,0,1,.81-.24.87.87,0,0,1,.84.4,1.39,1.39,0,0,1,.12.65V27a.79.79,0,0,0,0,.26.16.16,0,0,0,.17.12l.12,0,.17-.11v.17a1.33,1.33,0,0,1-.22.2.68.68,0,0,1-.37.12.36.36,0,0,1-.32-.14.59.59,0,0,1-.1-.33,2.76,2.76,0,0,1-.42.31,1,1,0,0,1-.55.17.65.65,0,0,1-.48-.19.66.66,0,0,1-.2-.49A.92.92,0,0,1,31.85,26.26ZM33,25.9a2.7,2.7,0,0,0-.61.27.79.79,0,0,0-.46.65.5.5,0,0,0,.19.43.47.47,0,0,0,.28.09.75.75,0,0,0,.4-.12.35.35,0,0,0,.2-.3Z" transform="translate(-8.1 0)"/><path class="cls-7" d="M34.19,27.59a.8.8,0,0,0,.41-.12.48.48,0,0,0,.1-.36V24a.93.93,0,0,0,0-.29.26.26,0,0,0-.26-.14h-.1l-.13,0v-.1l1-.31s0,0,0,0v3.92c0,.19,0,.31.1.36a.69.69,0,0,0,.39.11v.09H34.19Z" transform="translate(-8.1 0)"/><path class="cls-7" d="M37.55,24.72V25H36.9V26.8a1.66,1.66,0,0,0,0,.37.3.3,0,0,0,.3.22.32.32,0,0,0,.2-.06.72.72,0,0,0,.2-.17l.08.07-.07.1a1,1,0,0,1-.35.31.73.73,0,0,1-.36.1.51.51,0,0,1-.51-.34,1.36,1.36,0,0,1-.08-.51V25H36s0,0,0,0,0,0,0,0a.08.08,0,0,1,0-.05l.09-.08a3.43,3.43,0,0,0,.32-.3l.46-.6h0v.83Z" transform="translate(-8.1 0)"/><path class="cls-7" d="M37.76,27.59a.65.65,0,0,0,.35-.13.86.86,0,0,0,.08-.45V23.93a.57.57,0,0,0,0-.26c0-.06-.1-.09-.22-.09h-.15v-.11l.35-.11.29-.08.3-.1v2a2.67,2.67,0,0,1,.36-.34,1,1,0,0,1,.61-.19.72.72,0,0,1,.71.44,1.63,1.63,0,0,1,.1.6V27a.82.82,0,0,0,.08.44.5.5,0,0,0,.32.14v.09H39.51v-.09c.19,0,.31-.07.36-.14A.8.8,0,0,0,40,27v-1.3a1,1,0,0,0-.1-.5.41.41,0,0,0-.4-.19.8.8,0,0,0-.48.18c-.16.12-.23.19-.23.23V27c0,.24,0,.39.08.45a.66.66,0,0,0,.36.13v.09H37.76Z" transform="translate(-8.1 0)"/><path class="cls-2" d="M87.07,81.81v-.44l.63-.56a1.81,1.81,0,0,0,.71-1.12.5.5,0,0,0-.55-.45,1.45,1.45,0,0,0-.66.18l0-.35a1.84,1.84,0,0,1,.75-.17.82.82,0,0,1,.93.81c0,.34-.22.81-1.33,1.77h1.37v.33Z" transform="translate(-8.1 0)"/><path class="cls-2" d="M89.49,81.81v-.46H90v.46Z" transform="translate(-8.1 0)"/><path class="cls-2" d="M92.36,81.81v-2.5h-.89V79h2.19v.36h-.89v2.5Z" transform="translate(-8.1 0)"/><path class="cls-2" d="M95.5,81.81v-1.1c0-.44-.1-.73-.45-.73-.53,0-.63.54-.63.85v1H94V78.74h.38V80h0a.76.76,0,0,1,.68-.35c.52,0,.78.33.78.9v1.24Z" transform="translate(-8.1 0)"/><path class="cls-2" d="M98.15,81.73a1.57,1.57,0,0,1-.66.13,1,1,0,0,1-1.08-1.13,1,1,0,0,1,1-1.06c.6,0,.92.39.92,1.18H96.82a.68.68,0,0,0,.69.7,1.25,1.25,0,0,0,.64-.21Zm-.25-1.16a.53.53,0,0,0-.53-.59c-.3,0-.51.23-.55.59Z" transform="translate(-8.1 0)"/><path class="cls-2" d="M101.45,81.81v-.33h0a.76.76,0,0,1-.69.38c-.52,0-.78-.32-.78-.89V79.72h.38v1.13c0,.64.29.7.46.7.39,0,.62-.31.62-.86v-1h.39v2.09Z" transform="translate(-8.1 0)"/><path class="cls-2" d="M102.32,81.4a1,1,0,0,0,.48.15c.21,0,.39-.09.39-.3s-.07-.22-.37-.35-.53-.37-.53-.59c0-.43.33-.64.74-.64a1.85,1.85,0,0,1,.48.08l0,.34a1,1,0,0,0-.4-.11c-.21,0-.37.09-.37.26s.14.26.4.37.5.32.5.6a.65.65,0,0,1-.73.65,1.26,1.26,0,0,1-.57-.11Z" transform="translate(-8.1 0)"/><path class="cls-2" d="M105.68,81.73a1.63,1.63,0,0,1-.66.13,1,1,0,0,1-1.09-1.13,1,1,0,0,1,1-1.06c.61,0,.93.39.93,1.18h-1.5a.69.69,0,0,0,.69.7,1.28,1.28,0,0,0,.65-.21Zm-.25-1.16a.54.54,0,0,0-.53-.59c-.31,0-.52.23-.56.59Z" transform="translate(-8.1 0)"/><path class="cls-2" d="M106.35,81.81V79.72h.37v.33h0a.64.64,0,0,1,.55-.38,1.07,1.07,0,0,1,.25,0v.35a.52.52,0,0,0-.21,0c-.35,0-.57.34-.57.85v1Z" transform="translate(-8.1 0)"/><path class="cls-2" d="M110.47,81.78a1.26,1.26,0,0,1-.48.08,1.06,1.06,0,0,1-1.07-1.09,1,1,0,0,1,1.07-1.1,1.58,1.58,0,0,1,.46.08l0,.32A1.14,1.14,0,0,0,110,80a.72.72,0,0,0-.67.79.71.71,0,0,0,.7.78.78.78,0,0,0,.41-.12Z" transform="translate(-8.1 0)"/><path class="cls-2" d="M111,81.81V78.74h.39v3.07Z" transform="translate(-8.1 0)"/><path class="cls-2" d="M112.08,79.25v-.43h.43v.43Zm0,2.56V79.72h.39v2.09Z" transform="translate(-8.1 0)"/><path class="cls-2" d="M114.57,81.78a1.26,1.26,0,0,1-.48.08A1.06,1.06,0,0,1,113,80.77a1,1,0,0,1,1.07-1.1,1.65,1.65,0,0,1,.47.08l0,.32a1.09,1.09,0,0,0-.41-.09.72.72,0,0,0-.68.79.71.71,0,0,0,.7.78.81.81,0,0,0,.42-.12Z" transform="translate(-8.1 0)"/><path class="cls-2" d="M116.34,81.81l-.94-1.07v1.07H115V78.74h.38v1.83l.84-.85h.53l-1,.93,1.09,1.16Z" transform="translate(-8.1 0)"/><path class="cls-2" d="M117.14,81.4a1,1,0,0,0,.48.15c.21,0,.4-.09.4-.3s-.08-.22-.38-.35-.53-.37-.53-.59c0-.43.33-.64.74-.64a1.78,1.78,0,0,1,.48.08l0,.34a1.13,1.13,0,0,0-.41-.11c-.21,0-.37.09-.37.26s.14.26.41.37.5.32.5.6a.66.66,0,0,1-.74.65,1.26,1.26,0,0,1-.57-.11Z" transform="translate(-8.1 0)"/><path class="cls-2" d="M121.18,81.8a1.14,1.14,0,0,1-.33.06c-.43,0-.64-.22-.64-.6V80h-.47v-.31h.47v-.48l.38-.13v.61h.56V80h-.56v1.16a.33.33,0,0,0,.33.36.48.48,0,0,0,.26-.07Z" transform="translate(-8.1 0)"/><path class="cls-2" d="M123.1,81.81v-1.1c0-.44-.1-.73-.46-.73-.53,0-.62.54-.62.85v1h-.39V78.74H122V80h0a.75.75,0,0,1,.67-.35c.53,0,.78.33.78.9v1.24Z" transform="translate(-8.1 0)"/><path class="cls-2" d="M125.74,81.73a1.56,1.56,0,0,1-.65.13A1,1,0,0,1,124,80.73a1,1,0,0,1,1-1.06c.61,0,.92.39.92,1.18h-1.49a.69.69,0,0,0,.69.7,1.25,1.25,0,0,0,.64-.21Zm-.25-1.16A.52.52,0,0,0,125,80c-.31,0-.52.23-.56.59Z" transform="translate(-8.1 0)"/><path class="cls-2" d="M91.34,87.21l-1.29-2.35h0v2.35h-.41V84.35h.55l1.27,2.31h0V84.35h.41v2.86Z" transform="translate(-8.1 0)"/><path class="cls-2" d="M94.39,87.21v-1.3H93v1.3h-.41V84.35H93v1.2h1.37v-1.2h.41v2.86Z" transform="translate(-8.1 0)"/><path class="cls-2" d="M95.46,86.76a1.79,1.79,0,0,0,.59.14.51.51,0,0,0,.57-.47c0-.21-.11-.34-.56-.55s-.68-.35-.68-.8.37-.78.92-.78a1.81,1.81,0,0,1,.61.1l0,.38a1.26,1.26,0,0,0-.54-.12c-.32,0-.5.14-.5.38s.29.38.54.5.69.34.69.87-.4.85-1,.85a1.72,1.72,0,0,1-.59-.12Z" transform="translate(-8.1 0)"/><path class="cls-2" d="M98.76,87.21V84.14h.39v3.07Z" transform="translate(-8.1 0)"/><path class="cls-2" d="M99.71,86.17a1.07,1.07,0,1,1,2.13,0,1.07,1.07,0,1,1-2.13,0Zm1.72,0a.71.71,0,0,0-.65-.79.73.73,0,0,0-.66.79.7.7,0,0,0,.66.78A.7.7,0,0,0,101.43,86.17Z" transform="translate(-8.1 0)"/><path class="cls-2" d="M103.83,86.89h0a.89.89,0,0,1-.7.32.92.92,0,0,1-.9-1,1,1,0,0,1,.94-1.11.7.7,0,0,1,.69.36h0v-.31h.36v2c0,.64-.34,1-1.08,1a2.14,2.14,0,0,1-.75-.14l0-.36a1.56,1.56,0,0,0,.75.19.64.64,0,0,0,.66-.72Zm0-.7c0-.44-.21-.81-.62-.81s-.58.4-.58.78.24.74.58.74A.65.65,0,0,0,103.83,86.19Z" transform="translate(-8.1 0)"/><path class="cls-2" d="M104.89,84.65v-.43h.44v.43Zm0,2.56V85.12h.38v2.09Z" transform="translate(-8.1 0)"/><path class="cls-2" d="M107.47,87.21V86.08c0-.55-.2-.7-.46-.7s-.61.34-.61.86v1H106V85.12h.37v.33h0a.76.76,0,0,1,.69-.38c.52,0,.78.32.78.89v1.25Z" transform="translate(-8.1 0)"/><path class="cls-2" d="M109.66,87.21V84.14H110v1.27h0a.77.77,0,0,1,.7-.34c.58,0,.9.47.9,1.06s-.28,1.13-.9,1.13a.82.82,0,0,1-.71-.34h0v.29Zm1.58-1.06c0-.46-.21-.77-.58-.77s-.62.39-.62.79.2.78.62.78S111.24,86.56,111.24,86.15Z" transform="translate(-8.1 0)"/><path class="cls-2" d="M113.64,87.21v-.33h0a.73.73,0,0,1-.68.38c-.53,0-.78-.32-.78-.89V85.12h.38v1.13c0,.64.28.7.46.7.39,0,.62-.31.62-.86v-1H114v2.09Z" transform="translate(-8.1 0)"/><path class="cls-2" d="M115.82,87.2a1.14,1.14,0,0,1-.33.06c-.44,0-.64-.22-.64-.6V85.43h-.48v-.31h.48v-.48l.38-.13v.61h.55v.31h-.55v1.16a.33.33,0,0,0,.33.36.54.54,0,0,0,.26-.07Z" transform="translate(-8.1 0)"/><path class="cls-2" d="M117.41,87.2a1.14,1.14,0,0,1-.33.06c-.43,0-.64-.22-.64-.6V85.43H116v-.31h.47v-.48l.39-.13v.61h.55v.31h-.55v1.16a.33.33,0,0,0,.32.36.48.48,0,0,0,.26-.07Z" transform="translate(-8.1 0)"/><path class="cls-2" d="M117.73,86.17a1,1,0,0,1,1.06-1.1,1,1,0,0,1,1.07,1.1,1.07,1.07,0,1,1-2.13,0Zm1.72,0a.71.71,0,0,0-.66-.79.72.72,0,0,0-.65.79.7.7,0,0,0,.65.78A.7.7,0,0,0,119.45,86.17Z" transform="translate(-8.1 0)"/><path class="cls-2" d="M121.84,87.21V86.08c0-.55-.2-.7-.46-.7s-.62.34-.62.86v1h-.39V85.12h.38v.33h0a.75.75,0,0,1,.68-.38c.53,0,.78.32.78.89v1.25Z" transform="translate(-8.1 0)"/><path class="cls-2" d="M122.89,87.21v-.46h.46v.46Z" transform="translate(-8.1 0)"/><g class="cls-3"><path class="cls-4" d="M107.68,42.42h-2.86a3.18,3.18,0,0,1-3.18-3.17v-.56a3.19,3.19,0,0,1,3.18-3.18h2.86a3.19,3.19,0,0,1,3.18,3.18v.56a3.18,3.18,0,0,1-3.18,3.17m-2.86-4.61a.88.88,0,0,0-.87.88v.56a.87.87,0,0,0,.87.87h2.86a.87.87,0,0,0,.87-.87v-.56a.88.88,0,0,0-.87-.88Z" transform="translate(-8.1 0)"/><path class="cls-4" d="M123.53,1.28V37.51a1.86,1.86,0,0,1-1.86,1.86H90.83A1.85,1.85,0,0,1,89,37.52V1.28H86.68s0,36.23,0,36.23a4.17,4.17,0,0,0,4.16,4.17h30.84a4.16,4.16,0,0,0,4.16-4.16V1.28Z" transform="translate(-8.1 0)"/><path class="cls-4" d="M123.53,1V27.85H89V1H86.68V29a1.15,1.15,0,0,0,1.15,1.15h36.86A1.15,1.15,0,0,0,125.83,29V1Z" transform="translate(-8.1 0)"/><path class="cls-5" d="M94,12.64A1.06,1.06,0,0,0,93,13.72v5.4A1.06,1.06,0,0,0,94,20.2h24.44a1.06,1.06,0,0,0,1.08-1.08v-5.4a1.06,1.06,0,0,0-1.08-1.08Z" transform="translate(-8.1 0)"/></g><path class="cls-6" d="M97.23,18.24l-1.3-2.54h0v2.54h-.65V14.85h.84l1.29,2.53h0V14.85h.65v3.39Z" transform="translate(-8.1 0)"/><path class="cls-6" d="M100.85,18.24V16.75H99.49v1.49h-.68V14.85h.68v1.37h1.36V14.85h.68v3.39Z" transform="translate(-8.1 0)"/><path class="cls-6" d="M102.33,17.55a1.53,1.53,0,0,0,.76.21c.25,0,.61-.12.61-.43s-.23-.37-.57-.5-.92-.37-.92-1,.55-1,1.19-1a2.64,2.64,0,0,1,.81.12l-.07.56a1.68,1.68,0,0,0-.69-.15.47.47,0,0,0-.53.47c0,.26.29.36.57.47.46.17.92.38.92,1s-.47,1-1.28,1a3.16,3.16,0,0,1-.87-.13Z" transform="translate(-8.1 0)"/><path class="cls-6" d="M106.33,18.24V14.59H107v3.65Z" transform="translate(-8.1 0)"/><path class="cls-6" d="M108.81,18.3a1.31,1.31,0,0,1,0-2.62A1.26,1.26,0,0,1,110.13,17,1.24,1.24,0,0,1,108.81,18.3Zm.64-1.37a.67.67,0,0,0-.64-.75c-.4,0-.62.35-.62.75s.2.86.62.86S109.45,17.47,109.45,16.93Z" transform="translate(-8.1 0)"/><path class="cls-6" d="M112.28,17.84h0a.89.89,0,0,1-.77.4c-.69,0-1-.53-1-1.26s.31-1.3,1.06-1.3a.81.81,0,0,1,.76.4h0v-.34h.63V18a1.18,1.18,0,0,1-1.32,1.31,2.12,2.12,0,0,1-.87-.17l0-.56a1.73,1.73,0,0,0,.74.22c.61,0,.74-.39.74-.91Zm0-.88c0-.38-.13-.78-.55-.78s-.57.34-.57.8.18.75.55.75S112.28,17.37,112.28,17Z" transform="translate(-8.1 0)"/><path class="cls-6" d="M113.62,15.28v-.62h.65v.62Zm0,3v-2.5h.65v2.5Z" transform="translate(-8.1 0)"/><path class="cls-6" d="M116.61,18.24V16.83c0-.37-.08-.65-.42-.65s-.58.4-.58.84v1.22H115v-2.5h.62v.34h0a.92.92,0,0,1,.82-.4c.57,0,.85.39.85,1v1.58Z" transform="translate(-8.1 0)"/><g class="cls-3"><path class="cls-4" d="M95.18,48.33a31.62,31.62,0,0,0,8.4,15.09l0,0V68a1.08,1.08,0,0,0,1.08,1.08h19.44A1.08,1.08,0,0,0,125.21,68V63.33a26.74,26.74,0,0,0,4.32-14.59V40.32A4.32,4.32,0,0,0,125.21,36a4.26,4.26,0,0,0-2.4.74,4.32,4.32,0,0,0-4.08-2.9,4.26,4.26,0,0,0-2.4.74,4.32,4.32,0,0,0-4.08-2.9,4.36,4.36,0,0,0-2.16.58V22.4a4.32,4.32,0,0,0-8.64,0V38l-3,2a8,8,0,0,0-3.32,8.42" transform="translate(-8.1 0)"/><path class="cls-6" d="M99.7,42.31l1.75-1.17v7.34a1.08,1.08,0,0,0,2.16,0V23a2.16,2.16,0,0,1,4.32,0V44.16a1.08,1.08,0,0,0,2.16,0V36.6a2.16,2.16,0,1,1,4.32,0v7.56a1.08,1.08,0,0,0,2.16,0v-5.4a2.16,2.16,0,1,1,4.32,0v5.4a1.08,1.08,0,1,0,2.16,0V40.92a2.16,2.16,0,0,1,4.32,0v8.42A24.71,24.71,0,0,1,123.24,63a1,1,0,0,0-.19.59v3.89H105.77V63.6a1.08,1.08,0,0,0-.31-.76,29.35,29.35,0,0,1-8.18-14.4,5.81,5.81,0,0,1,2.42-6.13" transform="translate(-8.1 0)"/><path class="cls-4" d="M124.13,49a1.08,1.08,0,0,0,0-2.16,1.08,1.08,0,1,0,0,2.16" transform="translate(-8.1 0)"/><path class="cls-4" d="M119.94,61.51a1.09,1.09,0,0,0,1.5-.3,22.36,22.36,0,0,0,3.48-8.84,1.08,1.08,0,0,0-2.13-.35,20.2,20.2,0,0,1-3.15,8,1.08,1.08,0,0,0,.3,1.5" transform="translate(-8.1 0)"/></g><path class="cls-2" d="M163.5,81.53a1.37,1.37,0,0,0,.63.16c.34,0,.69-.14.69-.49s-.25-.54-.7-.54h-.26v-.34h.22c.38,0,.72-.14.72-.47s-.21-.45-.57-.45a1.31,1.31,0,0,0-.63.16l0-.37a2.22,2.22,0,0,1,.71-.13c.56,0,.94.28.94.78a.68.68,0,0,1-.61.66h0a.7.7,0,0,1,.64.71c0,.53-.37.82-1.13.82a2.28,2.28,0,0,1-.66-.12Z" transform="translate(-8.1 0)"/><path class="cls-2" d="M165.89,82v-.46h.46V82Z" transform="translate(-8.1 0)"/><path class="cls-2" d="M168.76,82V79.47h-.89v-.36h2.19v.36h-.89V82Z" transform="translate(-8.1 0)"/><path class="cls-2" d="M171.9,82v-1.1c0-.44-.1-.73-.45-.73-.53,0-.63.53-.63.85v1h-.38V78.9h.38v1.28h0a.79.79,0,0,1,.68-.35c.52,0,.78.33.78.9V82Z" transform="translate(-8.1 0)"/><path class="cls-2" d="M174.55,81.89a1.62,1.62,0,0,1-.66.14,1,1,0,0,1-1.08-1.14,1,1,0,0,1,1-1.06c.6,0,.92.39.92,1.19h-1.49a.68.68,0,0,0,.69.69,1.16,1.16,0,0,0,.64-.21Zm-.25-1.16a.52.52,0,0,0-.53-.58c-.3,0-.51.22-.55.58Z" transform="translate(-8.1 0)"/><path class="cls-2" d="M177.85,82v-.34h0a.76.76,0,0,1-.69.39c-.52,0-.78-.32-.78-.9V79.88h.38V81c0,.65.29.7.46.7.39,0,.62-.31.62-.85v-1h.39V82Z" transform="translate(-8.1 0)"/><path class="cls-2" d="M178.72,81.57a1.1,1.1,0,0,0,.48.14c.21,0,.39-.09.39-.3s-.07-.21-.37-.35-.53-.37-.53-.59c0-.43.33-.64.74-.64a1.51,1.51,0,0,1,.48.09l0,.33a1,1,0,0,0-.4-.1c-.21,0-.37.09-.37.25s.14.26.4.37.5.32.5.6a.66.66,0,0,1-.73.66,1.14,1.14,0,0,1-.57-.12Z" transform="translate(-8.1 0)"/><path class="cls-2" d="M182.08,81.89a1.68,1.68,0,0,1-.66.14,1,1,0,0,1-1.09-1.14,1,1,0,0,1,1-1.06c.61,0,.93.39.93,1.19h-1.5a.69.69,0,0,0,.69.69,1.2,1.2,0,0,0,.65-.21Zm-.25-1.16a.53.53,0,0,0-.53-.58.57.57,0,0,0-.56.58Z" transform="translate(-8.1 0)"/><path class="cls-2" d="M182.75,82v-2.1h.37v.33h0a.64.64,0,0,1,.55-.38,1.07,1.07,0,0,1,.25,0v.35a.52.52,0,0,0-.21,0c-.35,0-.57.34-.57.85v1Z" transform="translate(-8.1 0)"/><path class="cls-2" d="M185.52,79.42V79H186v.44Zm0,2.56v-2.1h.39V82Z" transform="translate(-8.1 0)"/><path class="cls-2" d="M186.48,81.57a1.1,1.1,0,0,0,.48.14c.2,0,.39-.09.39-.3s-.07-.21-.38-.35-.53-.37-.53-.59a.65.65,0,0,1,.74-.64,1.46,1.46,0,0,1,.48.09l0,.33a1.12,1.12,0,0,0-.41-.1c-.21,0-.37.09-.37.25s.15.26.41.37.5.32.5.6A.66.66,0,0,1,187,82a1.14,1.14,0,0,1-.57-.12Z" transform="translate(-8.1 0)"/><path class="cls-2" d="M189.37,82v-2.1h.36v.33h0a.64.64,0,0,1,.55-.38l.25,0v.35a.56.56,0,0,0-.21,0c-.36,0-.57.34-.57.85v1Z" transform="translate(-8.1 0)"/><path class="cls-2" d="M192.57,81.89a1.62,1.62,0,0,1-.66.14,1,1,0,0,1-1.08-1.14,1,1,0,0,1,1-1.06c.6,0,.92.39.92,1.19h-1.49a.68.68,0,0,0,.69.69,1.16,1.16,0,0,0,.64-.21Zm-.25-1.16a.52.52,0,0,0-.52-.58.57.57,0,0,0-.56.58Z" transform="translate(-8.1 0)"/><path class="cls-2" d="M194.73,82v-.3h0A.85.85,0,0,1,194,82c-.62,0-.9-.55-.9-1.14s.29-1.06.9-1.06a.74.74,0,0,1,.69.34h0V78.9h.39V82Zm0-1c0-.37-.18-.78-.62-.78s-.57.34-.57.75.22.81.58.81S194.71,81.29,194.71,80.93Z" transform="translate(-8.1 0)"/><path class="cls-2" d="M195.78,79.42V79h.44v.44Zm0,2.56v-2.1h.38V82Z" transform="translate(-8.1 0)"/><path class="cls-2" d="M196.9,82v-2.1h.36v.33h0a.62.62,0,0,1,.55-.38l.25,0v.35a.57.57,0,0,0-.22,0c-.35,0-.57.34-.57.85v1Z" transform="translate(-8.1 0)"/><path class="cls-2" d="M200.1,81.89a1.68,1.68,0,0,1-.66.14,1,1,0,0,1-1.09-1.14,1,1,0,0,1,1-1.06c.61,0,.93.39.93,1.19h-1.5a.69.69,0,0,0,.69.69,1.2,1.2,0,0,0,.65-.21Zm-.25-1.16a.53.53,0,0,0-.53-.58.57.57,0,0,0-.56.58Z" transform="translate(-8.1 0)"/><path class="cls-2" d="M202.15,81.94a1.08,1.08,0,0,1-.48.09,1.07,1.07,0,0,1-1.07-1.1,1,1,0,0,1,1.07-1.1,1.36,1.36,0,0,1,.47.09l0,.32a1.09,1.09,0,0,0-.41-.09.79.79,0,0,0,0,1.56.75.75,0,0,0,.41-.12Z" transform="translate(-8.1 0)"/><path class="cls-2" d="M203.74,82a1.14,1.14,0,0,1-.33.06.56.56,0,0,1-.64-.61V80.2h-.47v-.32h.47V79.4l.39-.12v.6h.55v.32h-.55v1.15a.33.33,0,0,0,.32.36.48.48,0,0,0,.26-.07Z" transform="translate(-8.1 0)"/><path class="cls-2" d="M205.8,81.89a1.68,1.68,0,0,1-.66.14,1,1,0,0,1-1.09-1.14,1,1,0,0,1,1-1.06c.61,0,.93.39.93,1.19h-1.5a.69.69,0,0,0,.69.69,1.17,1.17,0,0,0,.65-.21Zm-.25-1.16a.53.53,0,0,0-.53-.58c-.31,0-.51.22-.56.58Z" transform="translate(-8.1 0)"/><path class="cls-2" d="M208,82v-.3h0a.87.87,0,0,1-.72.35c-.62,0-.89-.55-.89-1.14s.29-1.06.9-1.06a.75.75,0,0,1,.69.34h0V78.9h.39V82Zm0-1c0-.37-.18-.78-.62-.78s-.57.34-.57.75.22.81.57.81S207.94,81.29,207.94,80.93Z" transform="translate(-8.1 0)"/><path class="cls-2" d="M174.78,87.37a1.14,1.14,0,0,1-.33.06.56.56,0,0,1-.64-.61V85.6h-.48v-.32h.48V84.8l.38-.12v.6h.56v.32h-.56v1.15a.33.33,0,0,0,.33.36.54.54,0,0,0,.26-.07Z" transform="translate(-8.1 0)"/><path class="cls-2" d="M175.09,86.33a1.07,1.07,0,1,1,2.13,0,1.07,1.07,0,1,1-2.13,0Zm1.72,0a.67.67,0,1,0-1.31,0,.7.7,0,0,0,.66.78C176.59,87.11,176.81,86.74,176.81,86.33Z" transform="translate(-8.1 0)"/><path class="cls-2" d="M180.63,87.38,179.33,85h0v2.36h-.41V84.51h.56l1.26,2.31h0V84.51h.41v2.87Z" transform="translate(-8.1 0)"/><path class="cls-2" d="M183.68,87.38V86.07h-1.37v1.31h-.41V84.51h.41v1.2h1.37v-1.2h.41v2.87Z" transform="translate(-8.1 0)"/><path class="cls-2" d="M184.74,86.92a1.57,1.57,0,0,0,.6.14.5.5,0,0,0,.56-.46c0-.21-.1-.35-.55-.56s-.68-.35-.68-.8.36-.78.92-.78a1.92,1.92,0,0,1,.61.11l-.06.37a1.22,1.22,0,0,0-.53-.12c-.32,0-.51.14-.51.39s.3.37.54.49.69.35.69.87-.39.86-1,.86a2.07,2.07,0,0,1-.59-.12Z" transform="translate(-8.1 0)"/><path class="cls-2" d="M188.05,87.38V84.3h.38v3.08Z" transform="translate(-8.1 0)"/><path class="cls-2" d="M189,86.33a1.07,1.07,0,1,1,2.13,0,1.07,1.07,0,1,1-2.13,0Zm1.72,0a.67.67,0,1,0-1.31,0,.7.7,0,0,0,.66.78C190.5,87.11,190.72,86.74,190.72,86.33Z" transform="translate(-8.1 0)"/><path class="cls-2" d="M193.11,87.05h0a.84.84,0,0,1-.7.33.92.92,0,0,1-.89-1,1,1,0,0,1,.93-1.12.69.69,0,0,1,.69.37h0v-.32h.36v2c0,.64-.34,1-1.08,1a2.09,2.09,0,0,1-.75-.15l0-.35a1.61,1.61,0,0,0,.75.18.63.63,0,0,0,.65-.71Zm0-.7c0-.43-.2-.8-.61-.8s-.58.39-.58.78.23.73.58.73A.65.65,0,0,0,193.11,86.35Z" transform="translate(-8.1 0)"/><path class="cls-2" d="M194.18,84.82v-.44h.43v.44Zm0,2.56v-2.1h.39v2.1Z" transform="translate(-8.1 0)"/><path class="cls-2" d="M196.76,87.38V86.24c0-.55-.2-.69-.46-.69s-.62.33-.62.85v1h-.39v-2.1h.38v.34h0a.74.74,0,0,1,.68-.39c.53,0,.78.32.78.89v1.26Z" transform="translate(-8.1 0)"/><path class="cls-2" d="M197.81,87.38v-.46h.46v.46Z" transform="translate(-8.1 0)"/><g class="cls-3"><path class="cls-4" d="M191.72,5.84H180.2a1.15,1.15,0,0,1,0-2.3h11.52a1.15,1.15,0,1,1,0,2.3" transform="translate(-8.1 0)"/><path class="cls-4" d="M199.78,5.84h-1.15a1.15,1.15,0,0,1,0-2.3h1.15a1.15,1.15,0,1,1,0,2.3" transform="translate(-8.1 0)"/><path class="cls-4" d="M184.53,61.14a.87.87,0,0,0-.87.87v.56a.87.87,0,0,0,.87.87h2.86a.87.87,0,0,0,.87-.87V62a.87.87,0,0,0-.87-.87Zm2.86,4.61h-2.86a3.19,3.19,0,0,1-3.18-3.18V62a3.19,3.19,0,0,1,3.18-3.18h2.86A3.19,3.19,0,0,1,190.57,62v.56a3.19,3.19,0,0,1-3.18,3.18" transform="translate(-8.1 0)"/><path class="cls-4" d="M170.54,2.39a1.86,1.86,0,0,0-1.86,1.86V65a1.86,1.86,0,0,0,1.86,1.86h30.84A1.86,1.86,0,0,0,203.24,65V4.25a1.86,1.86,0,0,0-1.86-1.86ZM201.38,69.2H170.54A4.16,4.16,0,0,1,166.38,65V4.25A4.17,4.17,0,0,1,170.54.08h30.84a4.17,4.17,0,0,1,4.16,4.17V65a4.16,4.16,0,0,1-4.16,4.16" transform="translate(-8.1 0)"/><path class="cls-4" d="M168.68,55.38h34.56V9.3H168.68Zm35.71,2.3H167.53a1.14,1.14,0,0,1-1.15-1.15V8.15A1.15,1.15,0,0,1,167.53,7h36.86a1.15,1.15,0,0,1,1.15,1.16V56.53a1.14,1.14,0,0,1-1.15,1.15" transform="translate(-8.1 0)"/><path class="cls-5" d="M185.18,15.86l-.25.77a2,2,0,0,0-.86-.18c-.42,0-.76.06-.76.38,0,.55,1.52.34,1.52,1.53s-1,1.35-1.91,1.35a4.26,4.26,0,0,1-1.21-.2l.25-.79a2.06,2.06,0,0,0,1,.22c.33,0,.84-.06.84-.46,0-.63-1.52-.39-1.52-1.49s.88-1.31,1.74-1.31a3,3,0,0,1,1.2.18m-3-.11-.82,3.9h-1l.34-1.67h-1.24l-.35,1.67H178l.82-3.9h1l-.31,1.49h1.24l.31-1.49Zm-3.73,0-.83,3.9h-1.3l-.82-2.7h0l-.55,2.7h-1l.83-3.9h1.31l.8,2.7h0l.55-2.7Zm7.19-.47h-12v4.85h12Z" transform="translate(-8.1 0)"/><path class="cls-4" d="M186.15,34.17H174.63a1.16,1.16,0,0,1,0-2.31h11.52a1.16,1.16,0,0,1,0,2.31" transform="translate(-8.1 0)"/><path class="cls-4" d="M193.65,34.17H182.13a1.16,1.16,0,1,1,0-2.31h11.52a1.16,1.16,0,0,1,0,2.31" transform="translate(-8.1 0)"/><path class="cls-4" d="M197.29,34.17H185.77a1.16,1.16,0,0,1,0-2.31h11.52a1.16,1.16,0,0,1,0,2.31" transform="translate(-8.1 0)"/><path class="cls-4" d="M186.15,28.78H174.63a1.16,1.16,0,0,1,0-2.31h11.52a1.16,1.16,0,0,1,0,2.31" transform="translate(-8.1 0)"/><path class="cls-4" d="M186.15,44.69H174.63a1.15,1.15,0,0,1,0-2.3h11.52a1.15,1.15,0,1,1,0,2.3" transform="translate(-8.1 0)"/><path class="cls-4" d="M193.65,44.69H182.13a1.15,1.15,0,1,1,0-2.3h11.52a1.15,1.15,0,1,1,0,2.3" transform="translate(-8.1 0)"/><path class="cls-4" d="M197.29,44.69H185.77a1.15,1.15,0,0,1,0-2.3h11.52a1.15,1.15,0,1,1,0,2.3" transform="translate(-8.1 0)"/><path class="cls-4" d="M186.15,39.43H174.63a1.15,1.15,0,0,1,0-2.3h11.52a1.15,1.15,0,1,1,0,2.3" transform="translate(-8.1 0)"/><path class="cls-4" d="M193.65,39.43H182.13a1.15,1.15,0,1,1,0-2.3h11.52a1.15,1.15,0,1,1,0,2.3" transform="translate(-8.1 0)"/><path class="cls-4" d="M197.29,39.43H185.77a1.15,1.15,0,0,1,0-2.3h11.52a1.15,1.15,0,1,1,0,2.3" transform="translate(-8.1 0)"/><path class="cls-4" d="M186.15,50H174.63a1.15,1.15,0,0,1,0-2.3h11.52a1.15,1.15,0,1,1,0,2.3" transform="translate(-8.1 0)"/><path class="cls-4" d="M193.65,50H182.13a1.15,1.15,0,1,1,0-2.3h11.52a1.15,1.15,0,1,1,0,2.3" transform="translate(-8.1 0)"/><path class="cls-4" d="M197.29,50H185.77a1.15,1.15,0,0,1,0-2.3h11.52a1.15,1.15,0,1,1,0,2.3" transform="translate(-8.1 0)"/></g><path class="cls-2" d="M238.34,82v-.65H237V81l1.15-1.87h.59V81h.36v.34h-.36V82Zm0-2.53h0L237.44,81h.9Z" transform="translate(-8.1 0)"/><path class="cls-2" d="M239.55,82v-.46H240V82Z" transform="translate(-8.1 0)"/><path class="cls-2" d="M242.43,82v-2.5h-.89v-.36h2.19v.36h-.89V82Z" transform="translate(-8.1 0)"/><path class="cls-2" d="M245.57,82v-1.1c0-.44-.1-.73-.46-.73-.53,0-.62.54-.62.85v1h-.39V78.89h.39v1.29h0a.75.75,0,0,1,.67-.35c.53,0,.78.32.78.9V82Z" transform="translate(-8.1 0)"/><path class="cls-2" d="M248.21,81.88a1.45,1.45,0,0,1-.65.14,1,1,0,0,1-1.09-1.13,1,1,0,0,1,1-1.06c.61,0,.92.38.92,1.18h-1.49a.68.68,0,0,0,.69.7,1.25,1.25,0,0,0,.64-.21ZM248,80.72a.52.52,0,0,0-.52-.58.57.57,0,0,0-.56.58Z" transform="translate(-8.1 0)"/><path class="cls-2" d="M251.51,82v-.33h0a.74.74,0,0,1-.68.38c-.53,0-.79-.32-.79-.89V79.88h.39V81c0,.64.28.7.46.7.38,0,.62-.31.62-.86v-1h.38V82Z" transform="translate(-8.1 0)"/><path class="cls-2" d="M252.38,81.56a1,1,0,0,0,.48.15c.21,0,.4-.09.4-.3s-.08-.22-.38-.35-.53-.38-.53-.59c0-.44.33-.64.74-.64a1.78,1.78,0,0,1,.48.08l0,.34a1.13,1.13,0,0,0-.41-.11c-.21,0-.37.09-.37.25s.14.26.41.38.5.32.5.6a.66.66,0,0,1-.74.65,1.14,1.14,0,0,1-.57-.12Z" transform="translate(-8.1 0)"/><path class="cls-2" d="M255.74,81.88a1.47,1.47,0,0,1-.66.14A1,1,0,0,1,254,80.89a1,1,0,0,1,1-1.06c.6,0,.92.38.92,1.18h-1.49a.68.68,0,0,0,.69.7,1.25,1.25,0,0,0,.64-.21Zm-.25-1.16a.53.53,0,0,0-.53-.58c-.3,0-.51.22-.55.58Z" transform="translate(-8.1 0)"/><path class="cls-2" d="M256.42,82V79.88h.36v.32h0a.62.62,0,0,1,.55-.37l.25,0v.34a.56.56,0,0,0-.22,0c-.35,0-.57.34-.57.85v1Z" transform="translate(-8.1 0)"/><path class="cls-2" d="M260.53,81.93a1.08,1.08,0,0,1-.48.09,1.06,1.06,0,0,1-1.07-1.1,1,1,0,0,1,1.07-1.09,1.65,1.65,0,0,1,.47.08l0,.32a1.09,1.09,0,0,0-.41-.09.79.79,0,0,0,0,1.57.75.75,0,0,0,.41-.12Z" transform="translate(-8.1 0)"/><path class="cls-2" d="M260.84,80.92a1,1,0,0,1,1.06-1.09A1,1,0,0,1,263,80.92a1.07,1.07,0,1,1-2.13,0Zm1.72,0a.67.67,0,1,0-1.31,0c0,.41.22.79.65.79A.71.71,0,0,0,262.56,80.92Z" transform="translate(-8.1 0)"/><path class="cls-2" d="M266.1,82V80.71c0-.35-.12-.57-.38-.57s-.55.35-.55.78v1h-.38V80.71c0-.34-.11-.57-.37-.57s-.55.34-.55.78v1h-.39V79.88h.36v.3h0a.71.71,0,0,1,.66-.35.61.61,0,0,1,.6.41.73.73,0,0,1,.65-.41c.47,0,.72.28.72.8V82Z" transform="translate(-8.1 0)"/><path class="cls-2" d="M267.13,82.83v-3h.37v.29h0a.86.86,0,0,1,.71-.34c.59,0,.9.47.9,1.06s-.28,1.13-.9,1.13a.74.74,0,0,1-.69-.34h0v1.15Zm1.58-1.92c0-.54-.26-.77-.58-.77s-.61.39-.61.79.19.78.61.78S268.71,81.33,268.71,80.91Z" transform="translate(-8.1 0)"/><path class="cls-2" d="M269.69,82V78.89h.38V82Z" transform="translate(-8.1 0)"/><path class="cls-2" d="M272.38,81.88a1.45,1.45,0,0,1-.65.14,1,1,0,0,1-1.09-1.13,1,1,0,0,1,1-1.06c.61,0,.92.38.92,1.18h-1.49a.69.69,0,0,0,.69.7,1.25,1.25,0,0,0,.64-.21Zm-.25-1.16a.52.52,0,0,0-.52-.58.57.57,0,0,0-.56.58Z" transform="translate(-8.1 0)"/><path class="cls-2" d="M274.21,82a1.21,1.21,0,0,1-.34.06.55.55,0,0,1-.63-.6V80.19h-.48v-.31h.48v-.49l.38-.12v.61h.55v.31h-.55v1.15a.34.34,0,0,0,.32.37.46.46,0,0,0,.27-.08Z" transform="translate(-8.1 0)"/><path class="cls-2" d="M276.26,81.88a1.45,1.45,0,0,1-.65.14,1,1,0,0,1-1.09-1.13,1,1,0,0,1,1-1.06c.61,0,.92.38.92,1.18h-1.49a.68.68,0,0,0,.69.7,1.25,1.25,0,0,0,.64-.21ZM276,80.72a.52.52,0,0,0-.52-.58.57.57,0,0,0-.56.58Z" transform="translate(-8.1 0)"/><path class="cls-2" d="M276.79,81.56a1,1,0,0,0,.48.15c.2,0,.39-.09.39-.3s-.07-.22-.38-.35-.53-.38-.53-.59c0-.44.33-.64.74-.64a1.78,1.78,0,0,1,.48.08l0,.34a1.13,1.13,0,0,0-.41-.11c-.21,0-.37.09-.37.25s.15.26.41.38.5.32.5.6a.66.66,0,0,1-.74.65,1.14,1.14,0,0,1-.57-.12Z" transform="translate(-8.1 0)"/><path class="cls-2" d="M281,82V81.7h0a.77.77,0,0,1-.65.32c-.48,0-.76-.23-.76-.65s.42-.69,1-.69h.38c0-.39-.15-.55-.52-.55a1,1,0,0,0-.6.21l0-.32a1.27,1.27,0,0,1,.69-.2c.57,0,.84.27.84.86v.92c0,.13,0,.26,0,.36Zm0-1h-.25c-.43,0-.72.13-.72.4a.36.36,0,0,0,.39.34.53.53,0,0,0,.58-.55Z" transform="translate(-8.1 0)"/><path class="cls-2" d="M237.08,87.37V84.29h.39v3.08Z" transform="translate(-8.1 0)"/><path class="cls-2" d="M238,86.32a1.07,1.07,0,1,1,2.13,0,1.07,1.07,0,1,1-2.13,0Zm1.72,0a.67.67,0,1,0-.65.79C239.53,87.11,239.75,86.73,239.75,86.32Z" transform="translate(-8.1 0)"/><path class="cls-2" d="M242.14,87.05h0a.89.89,0,0,1-.7.32.92.92,0,0,1-.9-1,1,1,0,0,1,.94-1.11.71.71,0,0,1,.69.36h0v-.31h.36v2c0,.64-.34,1-1.08,1a2.14,2.14,0,0,1-.75-.14l0-.36a1.56,1.56,0,0,0,.75.19.64.64,0,0,0,.65-.72Zm0-.71c0-.43-.2-.8-.61-.8s-.58.4-.58.78.24.74.58.74A.66.66,0,0,0,242.14,86.34Z" transform="translate(-8.1 0)"/><path class="cls-2" d="M243.21,84.81v-.43h.44v.43Zm0,2.56V85.28h.38v2.09Z" transform="translate(-8.1 0)"/><path class="cls-2" d="M245.79,87.37V86.24c0-.55-.2-.7-.46-.7s-.62.33-.62.86v1h-.38V85.28h.37v.33h0a.74.74,0,0,1,.69-.38c.52,0,.78.32.78.89v1.25Z" transform="translate(-8.1 0)"/><path class="cls-2" d="M249.26,87.37V87.1h0a.77.77,0,0,1-.65.32c-.48,0-.76-.23-.76-.65s.42-.69,1-.69h.38c0-.39-.15-.55-.52-.55a.93.93,0,0,0-.6.21l0-.32a1.27,1.27,0,0,1,.69-.2c.57,0,.84.27.84.86V87c0,.13,0,.26,0,.36Zm0-1H249c-.43,0-.72.13-.72.4a.36.36,0,0,0,.39.34.53.53,0,0,0,.58-.55Z" transform="translate(-8.1 0)"/><path class="cls-2" d="M251.72,87.37V86.24c0-.55-.2-.7-.46-.7s-.62.33-.62.86v1h-.38V85.28h.37v.33h0a.74.74,0,0,1,.69-.38c.52,0,.78.32.78.89v1.25Z" transform="translate(-8.1 0)"/><path class="cls-2" d="M254.25,87.37v-.3h0a.83.83,0,0,1-.71.35c-.62,0-.9-.54-.9-1.13s.29-1.06.9-1.06a.75.75,0,0,1,.69.34h0V84.29h.39v3.08Zm0-1c0-.37-.18-.79-.62-.79s-.57.35-.57.76.22.81.58.81S254.23,86.69,254.23,86.33Z" transform="translate(-8.1 0)"/><path class="cls-2" d="M257.7,87.37V87.1h0a.8.8,0,0,1-.65.32c-.49,0-.76-.23-.76-.65s.42-.69,1-.69h.38c0-.39-.15-.55-.52-.55a1,1,0,0,0-.61.21l0-.32a1.33,1.33,0,0,1,.69-.2c.58,0,.84.27.84.86V87c0,.13,0,.26,0,.36Zm0-1h-.25c-.44,0-.72.13-.72.4a.36.36,0,0,0,.39.34.53.53,0,0,0,.58-.55Z" transform="translate(-8.1 0)"/><path class="cls-2" d="M260.17,87.37V87h0a.76.76,0,0,1-.69.38c-.52,0-.78-.32-.78-.89V85.28h.38v1.13c0,.64.29.7.46.7.39,0,.62-.31.62-.86v-1h.39v2.09Z" transform="translate(-8.1 0)"/><path class="cls-2" d="M262.35,87.36a1.14,1.14,0,0,1-.33.06.56.56,0,0,1-.64-.6V85.59h-.47v-.31h.47v-.49l.38-.12v.61h.56v.31h-.56v1.15a.34.34,0,0,0,.33.37.42.42,0,0,0,.26-.08Z" transform="translate(-8.1 0)"/><path class="cls-2" d="M264.27,87.37v-1.1c0-.44-.1-.73-.46-.73-.53,0-.62.54-.62.85v1h-.39V84.29h.39v1.29h0a.78.78,0,0,1,.68-.35c.53,0,.78.32.78.9v1.24Z" transform="translate(-8.1 0)"/><path class="cls-2" d="M265.17,86.32a1.07,1.07,0,1,1,2.13,0,1.07,1.07,0,1,1-2.13,0Zm1.72,0a.67.67,0,1,0-1.31,0,.7.7,0,0,0,.66.79C266.67,87.11,266.89,86.73,266.89,86.32Z" transform="translate(-8.1 0)"/><path class="cls-2" d="M267.82,87.37V85.28h.36v.32h0a.62.62,0,0,1,.54-.37,1.22,1.22,0,0,1,.26,0v.34a.56.56,0,0,0-.22,0c-.35,0-.57.34-.57.85v1Z" transform="translate(-8.1 0)"/><path class="cls-2" d="M269.44,84.81v-.43h.43v.43Zm0,2.56V85.28h.39v2.09Z" transform="translate(-8.1 0)"/><path class="cls-2" d="M270.4,87a1,1,0,0,0,.48.15c.2,0,.39-.09.39-.3s-.07-.22-.38-.35-.53-.38-.53-.59c0-.44.34-.64.74-.64a1.78,1.78,0,0,1,.48.08l0,.34a1.13,1.13,0,0,0-.41-.11c-.2,0-.36.09-.36.25s.14.26.4.38.5.32.5.6a.65.65,0,0,1-.73.65,1.14,1.14,0,0,1-.57-.12Z" transform="translate(-8.1 0)"/><path class="cls-2" d="M273.43,87.37V87.1h0a.8.8,0,0,1-.66.32c-.48,0-.76-.23-.76-.65s.42-.69,1-.69h.38c0-.39-.15-.55-.51-.55a1,1,0,0,0-.61.21l0-.32a1.27,1.27,0,0,1,.69-.2c.58,0,.84.27.84.86V87c0,.13,0,.26,0,.36Zm0-1h-.25c-.43,0-.72.13-.72.4a.37.37,0,0,0,.39.34.53.53,0,0,0,.58-.55Z" transform="translate(-8.1 0)"/><path class="cls-2" d="M275.58,87.36a1.21,1.21,0,0,1-.34.06.56.56,0,0,1-.64-.6V85.59h-.47v-.31h.47v-.49l.39-.12v.61h.55v.31H275v1.15a.33.33,0,0,0,.32.37.46.46,0,0,0,.27-.08Z" transform="translate(-8.1 0)"/><path class="cls-2" d="M276.05,84.81v-.43h.44v.43Zm0,2.56V85.28h.38v2.09Z" transform="translate(-8.1 0)"/><path class="cls-2" d="M277,86.32a1.07,1.07,0,1,1,2.13,0,1.07,1.07,0,1,1-2.13,0Zm1.72,0a.67.67,0,1,0-1.31,0,.7.7,0,0,0,.66.79C278.53,87.11,278.75,86.73,278.75,86.32Z" transform="translate(-8.1 0)"/><path class="cls-2" d="M281.14,87.37V86.24c0-.55-.2-.7-.46-.7s-.62.33-.62.86v1h-.38V85.28h.37v.33h0a.74.74,0,0,1,.68-.38c.53,0,.79.32.79.89v1.25Z" transform="translate(-8.1 0)"/><g class="cls-3"><path class="cls-2" d="M240,92.77V91h-.49v-.31H240v-.21c0-.55.18-.83.7-.83a1.22,1.22,0,0,1,.26,0V90a.58.58,0,0,0-.19,0c-.28,0-.37.14-.37.46v.26H241V91h-.55v1.78Zm1.4,0V89.69h.38v3.08Z" transform="translate(-8.1 0)"/><path class="cls-2" d="M242.37,91.72a1.07,1.07,0,1,1,2.13,0,1.07,1.07,0,1,1-2.13,0Zm1.72,0a.67.67,0,1,0-1.31,0,.7.7,0,0,0,.66.79C243.87,92.51,244.09,92.13,244.09,91.72Z" transform="translate(-8.1 0)"/><path class="cls-2" d="M246.94,92.77,246.39,91h0l-.53,1.76h-.45l-.67-2.09h.42l.48,1.73h0l.53-1.73h.46l.52,1.73h0l.51-1.73h.38l-.68,2.09Z" transform="translate(-8.1 0)"/><path class="cls-2" d="M251.5,92.77,251,91h0l-.53,1.76H250l-.67-2.09h.42l.48,1.73h0l.53-1.73h.46l.52,1.73h0l.51-1.73h.38l-.68,2.09Z" transform="translate(-8.1 0)"/><path class="cls-2" d="M253,90.21v-.43h.43v.43Zm0,2.56V90.68h.39v2.09Z" transform="translate(-8.1 0)"/><path class="cls-2" d="M255.28,92.76a1.14,1.14,0,0,1-.33.06.56.56,0,0,1-.64-.6V91h-.47v-.31h.47v-.49l.38-.12v.61h.56V91h-.56v1.15a.34.34,0,0,0,.33.37.42.42,0,0,0,.26-.08Z" transform="translate(-8.1 0)"/><path class="cls-2" d="M257.2,92.77v-1.1c0-.44-.1-.73-.46-.73-.53,0-.62.54-.62.85v1h-.39V89.69h.39V91h0a.75.75,0,0,1,.67-.35c.53,0,.78.32.78.9v1.24Z" transform="translate(-8.1 0)"/><path class="cls-2" d="M261.13,92.77l-1.3-2.35h0v2.35h-.41V89.91H260l1.26,2.3h0v-2.3h.41v2.86Z" transform="translate(-8.1 0)"/><path class="cls-2" d="M264.18,92.77v-1.3h-1.37v1.3h-.41V89.91h.41V91.1h1.37V89.91h.41v2.86Z" transform="translate(-8.1 0)"/><path class="cls-2" d="M265.24,92.32a1.79,1.79,0,0,0,.6.14.51.51,0,0,0,.56-.47c0-.21-.1-.35-.55-.55s-.68-.36-.68-.8.36-.78.92-.78a1.9,1.9,0,0,1,.61.1l-.06.38a1.22,1.22,0,0,0-.53-.12c-.32,0-.5.14-.5.38s.29.37.53.5.7.34.7.87-.4.85-1,.85a1.83,1.83,0,0,1-.59-.12Z" transform="translate(-8.1 0)"/><path class="cls-2" d="M268.55,92.77V89.69h.38v3.08Z" transform="translate(-8.1 0)"/><path class="cls-2" d="M269.5,91.72a1.07,1.07,0,1,1,2.13,0,1.07,1.07,0,1,1-2.13,0Zm1.72,0a.67.67,0,1,0-1.31,0,.7.7,0,0,0,.66.79C271,92.51,271.22,92.13,271.22,91.72Z" transform="translate(-8.1 0)"/><path class="cls-2" d="M273.61,92.45h0a.86.86,0,0,1-.7.32.92.92,0,0,1-.89-1,1,1,0,0,1,.93-1.11.69.69,0,0,1,.69.36h0v-.31H274v2c0,.64-.34,1-1.08,1a2.07,2.07,0,0,1-.75-.14l0-.36a1.54,1.54,0,0,0,.75.19.64.64,0,0,0,.65-.72Zm0-.71c0-.43-.2-.8-.61-.8s-.58.4-.58.78.23.74.58.74A.66.66,0,0,0,273.61,91.74Z" transform="translate(-8.1 0)"/><path class="cls-2" d="M274.68,90.21v-.43h.43v.43Zm0,2.56V90.68h.39v2.09Z" transform="translate(-8.1 0)"/><path class="cls-2" d="M277.26,92.77V91.64c0-.55-.2-.7-.46-.7s-.62.33-.62.86v1h-.38V90.68h.37V91h0a.73.73,0,0,1,.68-.38c.53,0,.79.32.79.89v1.25Z" transform="translate(-8.1 0)"/><path class="cls-2" d="M278.32,92.77v-.46h.46v.46Z" transform="translate(-8.1 0)"/><path class="cls-4" d="M265,5.84H253.52a1.16,1.16,0,0,1,0-2.31H265a1.16,1.16,0,0,1,0,2.31" transform="translate(-8.1 0)"/><path class="cls-4" d="M273.1,5.84H272a1.16,1.16,0,0,1,0-2.31h1.15a1.16,1.16,0,1,1,0,2.31" transform="translate(-8.1 0)"/><path class="cls-4" d="M257.85,61.13A.87.87,0,0,0,257,62v.55a.88.88,0,0,0,.87.88h2.86a.88.88,0,0,0,.87-.88V62a.87.87,0,0,0-.87-.88Zm2.86,4.61h-2.86a3.18,3.18,0,0,1-3.18-3.18V62a3.18,3.18,0,0,1,3.18-3.18h2.86A3.18,3.18,0,0,1,263.89,62v.55a3.18,3.18,0,0,1-3.18,3.18" transform="translate(-8.1 0)"/><path class="cls-4" d="M243.86,2.38A1.86,1.86,0,0,0,242,4.24V65a1.86,1.86,0,0,0,1.86,1.86H274.7A1.86,1.86,0,0,0,276.56,65V4.24a1.86,1.86,0,0,0-1.86-1.86ZM274.7,69.2H243.86A4.17,4.17,0,0,1,239.7,65V4.24A4.16,4.16,0,0,1,243.86.08H274.7a4.16,4.16,0,0,1,4.16,4.16V65a4.17,4.17,0,0,1-4.16,4.17" transform="translate(-8.1 0)"/><path class="cls-4" d="M242,55.37h34.56V9.29H242Zm35.71,2.31H240.85a1.15,1.15,0,0,1-1.15-1.16V8.14A1.14,1.14,0,0,1,240.85,7h36.86a1.14,1.14,0,0,1,1.15,1.15V56.52a1.15,1.15,0,0,1-1.15,1.16" transform="translate(-8.1 0)"/><path class="cls-5" d="M258.5,15.85l-.25.78a1.9,1.9,0,0,0-.86-.18c-.42,0-.76.06-.76.37,0,.55,1.52.35,1.52,1.53s-1,1.36-1.91,1.36a4.64,4.64,0,0,1-1.21-.2l.25-.8a1.94,1.94,0,0,0,1,.23c.33,0,.84-.06.84-.47,0-.62-1.52-.39-1.52-1.49s.88-1.3,1.74-1.3a3.25,3.25,0,0,1,1.2.17m-3-.11-.82,3.9h-1L254,18h-1.24l-.35,1.67h-1l.81-3.9h1l-.31,1.49h1.24l.31-1.49Zm-3.73,0-.83,3.9h-1.3l-.82-2.7h0l-.55,2.7h-1l.83-3.9h1.31l.8,2.71h0l.55-2.71Zm7.19-.46h-12v4.84h12Z" transform="translate(-8.1 0)"/><path class="cls-4" d="M259.41,28H247.89a1.15,1.15,0,1,1,0-2.3h11.52a1.15,1.15,0,1,1,0,2.3" transform="translate(-8.1 0)"/><path class="cls-4" d="M262,28H250.5a1.15,1.15,0,0,1,0-2.3H262a1.15,1.15,0,0,1,0,2.3" transform="translate(-8.1 0)"/><path class="cls-4" d="M269,28.41l-1.39-1.36a.49.49,0,0,1,0-.68.48.48,0,0,1,.69,0l.7.68,1.73-1.7a.48.48,0,1,1,.68.69Z" transform="translate(-8.1 0)"/><path class="cls-4" d="M269,28.79l-1.58-1.54a.81.81,0,0,1-.23-.54.75.75,0,0,1,.22-.53.76.76,0,0,1,1.07,0l.51.51,1.54-1.52a.76.76,0,0,1,1.07,0,.79.79,0,0,1,.22.54.72.72,0,0,1-.23.53ZM268,26.49a.2.2,0,0,0-.15.06.26.26,0,0,0-.07.16.26.26,0,0,0,.07.15L269,28l2.21-2.19a.23.23,0,0,0,.07-.15.2.2,0,0,0-.07-.16.22.22,0,0,0-.3,0L269,27.42l-.89-.87A.22.22,0,0,0,268,26.49Z" transform="translate(-8.1 0)"/><path class="cls-4" d="M259.41,35.32H247.89a1.16,1.16,0,0,1,0-2.31h11.52a1.16,1.16,0,1,1,0,2.31" transform="translate(-8.1 0)"/><path class="cls-4" d="M262,35.32H250.5a1.16,1.16,0,0,1,0-2.31H262a1.16,1.16,0,0,1,0,2.31" transform="translate(-8.1 0)"/><path class="cls-4" d="M269,35.71l-1.39-1.35a.49.49,0,0,1,.68-.7l.7.69,1.73-1.7a.48.48,0,1,1,.68.69Z" transform="translate(-8.1 0)"/><path class="cls-4" d="M269,36.09l-1.58-1.54a.76.76,0,0,1,0-1.07.75.75,0,0,1,.53-.22.79.79,0,0,1,.54.21l.51.5,1.54-1.52a.76.76,0,1,1,1.06,1.08ZM268,33.8a.22.22,0,0,0-.15.06.21.21,0,0,0,0,.31l1.2,1.17,2.21-2.2a.21.21,0,0,0-.3-.3L269,34.73l-.89-.87A.2.2,0,0,0,268,33.8Z" transform="translate(-8.1 0)"/><path class="cls-4" d="M259.41,42.62H247.89a1.15,1.15,0,1,1,0-2.3h11.52a1.15,1.15,0,1,1,0,2.3" transform="translate(-8.1 0)"/><path class="cls-4" d="M262,42.62H250.5a1.15,1.15,0,0,1,0-2.3H262a1.15,1.15,0,0,1,0,2.3" transform="translate(-8.1 0)"/><path class="cls-4" d="M269,43l-1.39-1.35a.5.5,0,0,1,0-.69.49.49,0,0,1,.69,0l.7.69L270.72,40a.49.49,0,0,1,.69,0,.48.48,0,0,1,0,.68Z" transform="translate(-8.1 0)"/><path class="cls-4" d="M269,43.4l-1.58-1.54a.8.8,0,0,1-.23-.53.76.76,0,0,1,1.29-.55l.51.5,1.54-1.52a.76.76,0,0,1,1.07,0,.75.75,0,0,1,.22.53.72.72,0,0,1-.23.53ZM268,41.1a.18.18,0,0,0-.15.07.21.21,0,0,0-.07.15.26.26,0,0,0,.07.15l1.2,1.17,2.21-2.19a.21.21,0,0,0,.07-.15.2.2,0,0,0-.06-.15.22.22,0,0,0-.31,0L269,42l-.89-.88A.22.22,0,0,0,268,41.1Z" transform="translate(-8.1 0)"/><path class="cls-4" d="M259.41,49.93H247.89a1.16,1.16,0,0,1,0-2.31h11.52a1.16,1.16,0,1,1,0,2.31" transform="translate(-8.1 0)"/><path class="cls-4" d="M262,49.93H250.5a1.16,1.16,0,0,1,0-2.31H262a1.16,1.16,0,0,1,0,2.31" transform="translate(-8.1 0)"/><path class="cls-4" d="M269,50.33,267.61,49a.5.5,0,0,1,0-.69.49.49,0,0,1,.69,0l.7.68,1.73-1.7a.48.48,0,1,1,.68.69Z" transform="translate(-8.1 0)"/><path class="cls-4" d="M269,50.7l-1.58-1.53a.76.76,0,0,1,0-1.07.72.72,0,0,1,.53-.23.83.83,0,0,1,.54.21l.51.51,1.54-1.52a.75.75,0,1,1,1.06,1.07ZM268,48.41a.28.28,0,0,0-.15.06.21.21,0,0,0,0,.31L269,50l2.21-2.19a.21.21,0,0,0,0-.31.22.22,0,0,0-.3,0L269,49.34l-.89-.87A.2.2,0,0,0,268,48.41Z" transform="translate(-8.1 0)"/></g><path class="cls-2" d="M315,81.54a1.08,1.08,0,0,0,.59.14.6.6,0,0,0,.67-.56c0-.42-.31-.61-.7-.61a1.29,1.29,0,0,0-.55.1l0-1.5h1.57v.33h-1.19l0,.77a1.37,1.37,0,0,1,.36,0,.9.9,0,0,1,.93.89,1,1,0,0,1-1.1,1,1.77,1.77,0,0,1-.61-.1Z" transform="translate(-8.1 0)"/><path class="cls-2" d="M317.28,82v-.46h.46V82Z" transform="translate(-8.1 0)"/><path class="cls-2" d="M321.3,82,320,79.62h0V82h-.41V79.11h.55l1.27,2.3h0v-2.3h.41V82Z" transform="translate(-8.1 0)"/><path class="cls-2" d="M324.35,82v-1.3H323V82h-.41V79.11H323V80.3h1.37V79.11h.41V82Z" transform="translate(-8.1 0)"/><path class="cls-2" d="M325.42,81.52a1.68,1.68,0,0,0,.59.14.51.51,0,0,0,.56-.47c0-.21-.1-.35-.55-.55s-.68-.36-.68-.8.36-.78.92-.78a1.81,1.81,0,0,1,.61.1l-.05.38a1.3,1.3,0,0,0-.54-.12c-.32,0-.5.14-.5.38s.29.37.54.5.69.34.69.87-.4.85-1,.85a1.72,1.72,0,0,1-.59-.12Z" transform="translate(-8.1 0)"/><path class="cls-2" d="M328.72,82V78.89h.39V82Z" transform="translate(-8.1 0)"/><path class="cls-2" d="M329.67,80.92a1.07,1.07,0,1,1,2.13,0,1.07,1.07,0,1,1-2.13,0Zm1.72,0a.67.67,0,1,0-1.31,0,.7.7,0,0,0,.66.79C331.17,81.71,331.39,81.33,331.39,80.92Z" transform="translate(-8.1 0)"/><path class="cls-2" d="M333.78,81.65h0a.9.9,0,0,1-.71.32.92.92,0,0,1-.89-1,1,1,0,0,1,.94-1.11.68.68,0,0,1,.68.36h0v-.31h.36v2c0,.64-.34,1-1.08,1a2.1,2.1,0,0,1-.75-.14l0-.36a1.56,1.56,0,0,0,.75.19.64.64,0,0,0,.65-.72Zm0-.71c0-.43-.2-.8-.61-.8s-.58.4-.58.78.23.74.58.74A.66.66,0,0,0,333.78,80.94Z" transform="translate(-8.1 0)"/><path class="cls-2" d="M334.85,79.41V79h.44v.43Zm0,2.56V79.88h.38V82Z" transform="translate(-8.1 0)"/><path class="cls-2" d="M337.43,82V80.84c0-.55-.2-.7-.46-.7s-.62.33-.62.86v1H336V79.88h.37v.33h0a.74.74,0,0,1,.68-.38c.53,0,.79.32.79.89V82Z" transform="translate(-8.1 0)"/><path class="cls-2" d="M339.62,82V79.88H340v.32h0a.62.62,0,0,1,.55-.37l.25,0v.34a.56.56,0,0,0-.22,0c-.35,0-.57.34-.57.85v1Z" transform="translate(-8.1 0)"/><path class="cls-2" d="M342.82,81.88a1.51,1.51,0,0,1-.66.14,1,1,0,0,1-1.09-1.13,1,1,0,0,1,1-1.06c.61,0,.93.38.93,1.18h-1.5a.69.69,0,0,0,.69.7,1.28,1.28,0,0,0,.65-.21Zm-.25-1.16a.53.53,0,0,0-.53-.58.57.57,0,0,0-.56.58Z" transform="translate(-8.1 0)"/><path class="cls-2" d="M345,82v-.3h0a.85.85,0,0,1-.72.35c-.62,0-.89-.54-.89-1.13s.29-1.06.9-1.06a.75.75,0,0,1,.69.34h0V78.89h.39V82Zm0-1c0-.37-.18-.79-.62-.79s-.57.35-.57.76.22.81.57.81S345,81.29,345,80.93Z" transform="translate(-8.1 0)"/><path class="cls-2" d="M346,79.41V79h.43v.43Zm0,2.56V79.88h.39V82Z" transform="translate(-8.1 0)"/><path class="cls-2" d="M347.14,82V79.88h.36v.32h0a.65.65,0,0,1,.55-.37l.25,0v.34a.53.53,0,0,0-.21,0c-.35,0-.57.34-.57.85v1Z" transform="translate(-8.1 0)"/><path class="cls-2" d="M350.34,81.88a1.45,1.45,0,0,1-.65.14,1,1,0,0,1-1.09-1.13,1,1,0,0,1,1-1.06c.61,0,.92.38.92,1.18H349a.69.69,0,0,0,.69.7,1.25,1.25,0,0,0,.64-.21Zm-.25-1.16a.52.52,0,0,0-.52-.58.57.57,0,0,0-.56.58Z" transform="translate(-8.1 0)"/><path class="cls-2" d="M352.4,81.93a1.08,1.08,0,0,1-.48.09,1.06,1.06,0,0,1-1.07-1.1,1,1,0,0,1,1.07-1.09,1.58,1.58,0,0,1,.46.08l0,.32a1.14,1.14,0,0,0-.42-.09.79.79,0,0,0,0,1.57.78.78,0,0,0,.41-.12Z" transform="translate(-8.1 0)"/><path class="cls-2" d="M354,82a1.14,1.14,0,0,1-.33.06.56.56,0,0,1-.64-.6V80.19h-.48v-.31H353v-.49l.38-.12v.61H354v.31h-.56v1.15a.34.34,0,0,0,.33.37.42.42,0,0,0,.26-.08Z" transform="translate(-8.1 0)"/><path class="cls-2" d="M354.28,81.56a1,1,0,0,0,.48.15c.21,0,.4-.09.4-.3s-.08-.22-.38-.35-.53-.38-.53-.59c0-.44.33-.64.74-.64a1.78,1.78,0,0,1,.48.08l0,.34a1.13,1.13,0,0,0-.41-.11c-.21,0-.37.09-.37.25s.15.26.41.38.5.32.5.6a.66.66,0,0,1-.74.65,1.14,1.14,0,0,1-.57-.12Z" transform="translate(-8.1 0)"/><path class="cls-2" d="M357.18,82V78.89h.38v1.28h0a.76.76,0,0,1,.69-.34.94.94,0,0,1,.91,1.06c0,.59-.28,1.13-.9,1.13a.83.83,0,0,1-.71-.35h0V82Zm1.58-1.06c0-.47-.21-.77-.58-.77s-.62.39-.62.79.2.78.62.78S358.76,81.32,358.76,80.91Z" transform="translate(-8.1 0)"/><path class="cls-2" d="M361,82V81.7h0a.8.8,0,0,1-.65.32c-.49,0-.76-.23-.76-.65s.42-.69,1-.69h.38c0-.39-.15-.55-.52-.55a1,1,0,0,0-.61.21l0-.32a1.33,1.33,0,0,1,.69-.2c.58,0,.84.27.84.86v.92c0,.13,0,.26,0,.36Zm0-1h-.25c-.44,0-.72.13-.72.4a.36.36,0,0,0,.39.34.53.53,0,0,0,.58-.55Z" transform="translate(-8.1 0)"/><path class="cls-2" d="M363.35,81.93a1.16,1.16,0,0,1-.49.09,1.07,1.07,0,0,1-1.07-1.1,1,1,0,0,1,1.07-1.09,1.65,1.65,0,0,1,.47.08l0,.32a1.18,1.18,0,0,0-.42-.09.72.72,0,0,0-.67.78.71.71,0,0,0,.69.79.81.81,0,0,0,.42-.12Z" transform="translate(-8.1 0)"/><path class="cls-2" d="M365.11,82l-.94-1.07V82h-.38V78.89h.38v1.84l.85-.85h.52l-1,.93L365.66,82Z" transform="translate(-8.1 0)"/><path class="cls-2" d="M368.36,82A1.21,1.21,0,0,1,368,82a.56.56,0,0,1-.64-.6V80.19h-.47v-.31h.47v-.49l.39-.12v.61h.55v.31h-.55v1.15a.33.33,0,0,0,.32.37.46.46,0,0,0,.27-.08Z" transform="translate(-8.1 0)"/><path class="cls-2" d="M368.67,80.92a1.07,1.07,0,1,1,2.13,0,1.07,1.07,0,1,1-2.13,0Zm1.72,0a.67.67,0,1,0-1.31,0,.7.7,0,0,0,.66.79C370.17,81.71,370.39,81.33,370.39,80.92Z" transform="translate(-8.1 0)"/><path class="cls-2" d="M373.74,82V81.7h0a.8.8,0,0,1-.65.32c-.48,0-.76-.23-.76-.65s.42-.69,1-.69h.38c0-.39-.15-.55-.52-.55a.93.93,0,0,0-.6.21l0-.32a1.27,1.27,0,0,1,.68-.2c.58,0,.84.27.84.86v.92c0,.13,0,.26,0,.36Zm0-1h-.25c-.44,0-.72.13-.72.4a.36.36,0,0,0,.39.34.53.53,0,0,0,.58-.55Z" transform="translate(-8.1 0)"/><path class="cls-2" d="M377.73,79.11h.41v1.68c0,.77-.38,1.23-1.11,1.23s-1.11-.45-1.11-1.23V79.11h.41v1.63c0,.61.22.92.7.92s.7-.31.7-.92Z" transform="translate(-8.1 0)"/><path class="cls-2" d="M380.43,82l-.4-.91c-.14-.31-.22-.36-.47-.36h-.29V82h-.41V79.11h.75c.79,0,1.06.28,1.06.77a.66.66,0,0,1-.59.65h0c.13,0,.2.13.3.34L380.9,82Zm-.81-1.63c.37,0,.61-.17.61-.45s-.2-.42-.58-.42h-.38v.87Z" transform="translate(-8.1 0)"/><path class="cls-2" d="M381.38,82V79.11h.41v2.5H383V82Z" transform="translate(-8.1 0)"/><path class="cls-2" d="M313.05,87.37V87h0a.74.74,0,0,1-.69.38c-.52,0-.78-.32-.78-.89V85.28H312v1.13c0,.64.28.7.46.7.38,0,.61-.31.61-.86v-1h.39v2.09Z" transform="translate(-8.1 0)"/><path class="cls-2" d="M315.54,87.37V86.24c0-.55-.2-.7-.46-.7s-.62.33-.62.86v1h-.38V85.28h.37v.33h0a.76.76,0,0,1,.68-.38c.53,0,.79.32.79.89v1.25Z" transform="translate(-8.1 0)"/><path class="cls-2" d="M318.07,87.37v-.29h0a.86.86,0,0,1-.72.34c-.61,0-.89-.54-.89-1.13s.29-1.06.9-1.06a.75.75,0,0,1,.69.34h0V84.29h.39v3.08Zm0-1c0-.37-.18-.79-.62-.79s-.57.35-.57.76.22.81.57.81S318.05,86.69,318.05,86.33Z" transform="translate(-8.1 0)"/><path class="cls-2" d="M320.7,87.29a1.63,1.63,0,0,1-.66.13A1,1,0,0,1,319,86.29a1,1,0,0,1,1-1.06c.61,0,.93.39.93,1.18h-1.5a.69.69,0,0,0,.69.7,1.28,1.28,0,0,0,.65-.21Zm-.25-1.17a.53.53,0,0,0-.53-.58.57.57,0,0,0-.56.58Z" transform="translate(-8.1 0)"/><path class="cls-2" d="M321.38,87.37V85.28h.36v.32h0a.65.65,0,0,1,.55-.37,1.07,1.07,0,0,1,.25,0v.34a.51.51,0,0,0-.21,0c-.35,0-.57.34-.57.85v1Z" transform="translate(-8.1 0)"/><path class="cls-2" d="M325.26,87.36a1.21,1.21,0,0,1-.34.06.56.56,0,0,1-.64-.6V85.59h-.47v-.31h.47V84.8l.39-.13v.61h.55v.31h-.55v1.15a.33.33,0,0,0,.32.37.46.46,0,0,0,.27-.08Z" transform="translate(-8.1 0)"/><path class="cls-2" d="M327.17,87.37v-1.1c0-.44-.1-.73-.45-.73-.53,0-.63.54-.63.85v1h-.38V84.29h.38v1.29h0a.76.76,0,0,1,.68-.35c.52,0,.78.32.78.9v1.24Z" transform="translate(-8.1 0)"/><path class="cls-2" d="M329.82,87.29a1.57,1.57,0,0,1-.66.13,1,1,0,0,1-1.08-1.13,1,1,0,0,1,1-1.06c.6,0,.92.39.92,1.18h-1.49a.68.68,0,0,0,.69.7,1.25,1.25,0,0,0,.64-.21Zm-.25-1.17a.53.53,0,0,0-.53-.58c-.3,0-.51.22-.55.58Z" transform="translate(-8.1 0)"/><path class="cls-2" d="M332.92,87.37V87.1h0a.75.75,0,0,1-.65.32c-.48,0-.76-.23-.76-.65s.42-.69,1-.69h.38c0-.38-.15-.55-.51-.55a1,1,0,0,0-.61.22l0-.33a1.27,1.27,0,0,1,.69-.2c.57,0,.84.27.84.86V87c0,.13,0,.26,0,.36Zm0-1h-.25c-.43,0-.72.13-.72.4a.36.36,0,0,0,.39.34.53.53,0,0,0,.58-.55Z" transform="translate(-8.1 0)"/><path class="cls-2" d="M333.92,88.23v-3h.37v.29h0a.86.86,0,0,1,.71-.34c.58,0,.9.47.9,1.06s-.28,1.13-.9,1.13a.77.77,0,0,1-.7-.34h0v1.15Zm1.58-1.92c0-.53-.27-.77-.58-.77s-.61.39-.61.79.19.78.61.78S335.5,86.73,335.5,86.31Z" transform="translate(-8.1 0)"/><path class="cls-2" d="M336.43,88.23v-3h.37v.29h0a.84.84,0,0,1,.7-.34.94.94,0,0,1,.91,1.06c0,.59-.28,1.13-.9,1.13a.77.77,0,0,1-.7-.34h0v1.15ZM338,86.31c0-.53-.27-.77-.58-.77s-.62.39-.62.79.2.78.62.78S338,86.73,338,86.31Z" transform="translate(-8.1 0)"/><path class="cls-2" d="M339,87.37V84.29h.39v3.08Z" transform="translate(-8.1 0)"/><path class="cls-2" d="M340.1,84.81v-.43h.44v.43Zm0,2.56V85.28h.38v2.09Z" transform="translate(-8.1 0)"/><path class="cls-2" d="M342.6,87.33a1.16,1.16,0,0,1-.49.09,1.05,1.05,0,0,1-1.06-1.09,1,1,0,0,1,1.06-1.1,1.65,1.65,0,0,1,.47.08l0,.32a1.14,1.14,0,0,0-.42-.09.72.72,0,0,0-.67.79.7.7,0,0,0,.69.78.81.81,0,0,0,.42-.12Z" transform="translate(-8.1 0)"/><path class="cls-2" d="M344.32,87.37V87.1h0a.78.78,0,0,1-.66.32c-.48,0-.76-.23-.76-.65s.42-.69,1-.69h.38c0-.38-.15-.55-.51-.55a1,1,0,0,0-.61.22l0-.33a1.27,1.27,0,0,1,.69-.2c.58,0,.84.27.84.86V87c0,.13,0,.26,0,.36Zm0-1H344c-.43,0-.72.13-.72.4a.36.36,0,0,0,.39.34.53.53,0,0,0,.58-.55Z" transform="translate(-8.1 0)"/><path class="cls-2" d="M346.47,87.36a1.21,1.21,0,0,1-.34.06.56.56,0,0,1-.64-.6V85.59H345v-.31h.47V84.8l.39-.13v.61h.55v.31h-.55v1.15a.33.33,0,0,0,.32.37.46.46,0,0,0,.27-.08Z" transform="translate(-8.1 0)"/><path class="cls-2" d="M346.94,84.81v-.43h.44v.43Zm0,2.56V85.28h.38v2.09Z" transform="translate(-8.1 0)"/><path class="cls-2" d="M347.92,86.33a1.07,1.07,0,1,1,2.13,0,1.07,1.07,0,1,1-2.13,0Zm1.72,0a.67.67,0,1,0-1.31,0,.67.67,0,1,0,1.31,0Z" transform="translate(-8.1 0)"/><path class="cls-2" d="M352,87.37V86.24c0-.55-.2-.7-.46-.7s-.62.33-.62.86v1h-.38V85.28h.37v.33h0a.75.75,0,0,1,.68-.38c.53,0,.79.32.79.89v1.25Z" transform="translate(-8.1 0)"/><path class="cls-2" d="M353,85.51l.25-1h.46l-.36,1Z" transform="translate(-8.1 0)"/><path class="cls-2" d="M353.84,87a1,1,0,0,0,.48.15c.2,0,.39-.09.39-.3s-.07-.22-.38-.35-.53-.38-.53-.59a.65.65,0,0,1,.74-.64,1.78,1.78,0,0,1,.48.08l0,.34a1.13,1.13,0,0,0-.41-.11c-.21,0-.37.09-.37.26s.15.25.41.37.5.32.5.6a.65.65,0,0,1-.73.65,1.26,1.26,0,0,1-.57-.11Z" transform="translate(-8.1 0)"/><path class="cls-2" d="M358.11,87.33a1.1,1.1,0,0,1-.49.09,1.05,1.05,0,0,1-1.06-1.09,1,1,0,0,1,1.06-1.1,1.59,1.59,0,0,1,.47.08l0,.32a1.14,1.14,0,0,0-.42-.09.72.72,0,0,0-.67.79.71.71,0,0,0,.7.78.78.78,0,0,0,.41-.12Z" transform="translate(-8.1 0)"/><path class="cls-2" d="M358.41,86.33a1.07,1.07,0,1,1,2.13,0,1.07,1.07,0,1,1-2.13,0Zm1.72,0a.67.67,0,1,0-1.31,0,.67.67,0,1,0,1.31,0Z" transform="translate(-8.1 0)"/><path class="cls-2" d="M362.52,87.37V86.24c0-.55-.2-.7-.45-.7-.41,0-.62.33-.62.86v1h-.39V85.28h.37v.33h0a.77.77,0,0,1,.69-.38c.52,0,.78.32.78.89v1.25Z" transform="translate(-8.1 0)"/><path class="cls-2" d="M364.71,87.36a1.14,1.14,0,0,1-.33.06.56.56,0,0,1-.64-.6V85.59h-.47v-.31h.47V84.8l.39-.13v.61h.55v.31h-.55v1.15a.33.33,0,0,0,.32.37.4.4,0,0,0,.26-.08Z" transform="translate(-8.1 0)"/><path class="cls-2" d="M365.16,87.37V85.28h.36v.32h0a.65.65,0,0,1,.55-.37l.25,0v.34a.51.51,0,0,0-.21,0c-.35,0-.57.34-.57.85v1Z" transform="translate(-8.1 0)"/><path class="cls-2" d="M366.62,86.33a1.07,1.07,0,1,1,2.13,0,1.07,1.07,0,1,1-2.13,0Zm1.72,0a.67.67,0,1,0-1.31,0,.67.67,0,1,0,1.31,0Z" transform="translate(-8.1 0)"/><path class="cls-2" d="M369.32,87.37V84.29h.38v3.08Z" transform="translate(-8.1 0)"/><path class="cls-2" d="M370.16,87.92l.26-1h.46l-.35,1Z" transform="translate(-8.1 0)"/><path class="cls-2" d="M372.69,88.23v-3h.37v.29h0a.86.86,0,0,1,.71-.34c.58,0,.9.47.9,1.06s-.28,1.13-.9,1.13a.77.77,0,0,1-.7-.34h0v1.15Zm1.58-1.92c0-.53-.27-.77-.58-.77s-.61.39-.61.79.19.78.61.78S374.27,86.73,374.27,86.31Z" transform="translate(-8.1 0)"/><path class="cls-2" d="M376.48,87.37V87.1h0a.75.75,0,0,1-.65.32c-.48,0-.76-.23-.76-.65s.42-.69,1-.69h.38c0-.38-.15-.55-.52-.55a1,1,0,0,0-.6.22l0-.33a1.27,1.27,0,0,1,.69-.2c.57,0,.84.27.84.86V87c0,.13,0,.26,0,.36Zm0-1h-.25c-.43,0-.72.13-.72.4a.36.36,0,0,0,.39.34.53.53,0,0,0,.58-.55Z" transform="translate(-8.1 0)"/><path class="cls-2" d="M377.32,87a1,1,0,0,0,.48.15c.21,0,.4-.09.4-.3s-.08-.22-.38-.35-.53-.38-.53-.59c0-.43.33-.64.74-.64a1.78,1.78,0,0,1,.48.08l0,.34a1.13,1.13,0,0,0-.41-.11c-.21,0-.37.09-.37.26s.14.25.41.37.5.32.5.6a.66.66,0,0,1-.74.65,1.26,1.26,0,0,1-.57-.11Z" transform="translate(-8.1 0)"/><path class="cls-2" d="M378.92,87a1,1,0,0,0,.48.15c.21,0,.39-.09.39-.3s-.07-.22-.37-.35-.53-.38-.53-.59c0-.43.33-.64.74-.64a1.85,1.85,0,0,1,.48.08l0,.34a1,1,0,0,0-.4-.11c-.21,0-.37.09-.37.26s.14.25.4.37.5.32.5.6a.65.65,0,0,1-.73.65,1.26,1.26,0,0,1-.57-.11Z" transform="translate(-8.1 0)"/><path class="cls-2" d="M380.7,84.81v-.43h.43v.43Zm0,2.56V85.28h.39v2.09Z" transform="translate(-8.1 0)"/><path class="cls-2" d="M383.28,87.37V86.24c0-.55-.2-.7-.46-.7s-.62.33-.62.86v1h-.39V85.28h.38v.33h0a.77.77,0,0,1,.69-.38c.52,0,.78.32.78.89v1.25Z" transform="translate(-8.1 0)"/><path class="cls-2" d="M385.79,87.05h0a.89.89,0,0,1-.7.32.92.92,0,0,1-.9-1,1,1,0,0,1,.94-1.11.7.7,0,0,1,.69.36h0v-.31h.36v2c0,.63-.34,1-1.08,1a2.14,2.14,0,0,1-.75-.14l0-.36a1.56,1.56,0,0,0,.75.19.64.64,0,0,0,.66-.72Zm0-.7c0-.44-.21-.81-.62-.81s-.58.4-.58.78.24.74.58.74A.66.66,0,0,0,385.79,86.35Z" transform="translate(-8.1 0)"/><g class="cls-3"><path class="cls-2" d="M313.38,92.77V92.5h0a.77.77,0,0,1-.65.32c-.48,0-.76-.23-.76-.65s.42-.69,1-.69h.38c0-.39-.15-.55-.52-.55a1,1,0,0,0-.6.21l0-.32a1.27,1.27,0,0,1,.69-.2c.57,0,.84.27.84.86v.92c0,.13,0,.26,0,.36Zm0-1h-.25c-.43,0-.72.13-.72.4a.36.36,0,0,0,.39.34.53.53,0,0,0,.58-.55Z" transform="translate(-8.1 0)"/><path class="cls-2" d="M315.86,92.77v-.33h0a.74.74,0,0,1-.69.38c-.52,0-.78-.32-.78-.89V90.68h.39v1.13c0,.64.28.7.45.7.39,0,.62-.31.62-.86v-1h.39v2.09Z" transform="translate(-8.1 0)"/><path class="cls-2" d="M318,92.76a1.14,1.14,0,0,1-.33.06.56.56,0,0,1-.64-.6V91h-.47v-.31h.47v-.49l.39-.12v.61H318V91h-.55v1.15a.33.33,0,0,0,.32.37.4.4,0,0,0,.26-.08Z" transform="translate(-8.1 0)"/><path class="cls-2" d="M320,92.77v-1.1c0-.44-.1-.73-.46-.73-.53,0-.62.54-.62.85v1h-.39V89.69h.39V91h0a.75.75,0,0,1,.67-.35c.53,0,.78.32.78.9v1.24Z" transform="translate(-8.1 0)"/><path class="cls-2" d="M320.85,91.72a1.07,1.07,0,1,1,2.13,0,1.07,1.07,0,1,1-2.13,0Zm1.72,0a.67.67,0,1,0-1.31,0,.7.7,0,0,0,.66.79C322.35,92.51,322.57,92.13,322.57,91.72Z" transform="translate(-8.1 0)"/><path class="cls-2" d="M323.5,92.77V90.68h.36V91h0a.63.63,0,0,1,.55-.37l.25,0V91a.56.56,0,0,0-.22,0c-.35,0-.57.34-.57.85v1Z" transform="translate(-8.1 0)"/><path class="cls-2" d="M325.12,90.21v-.43h.43v.43Zm0,2.56V90.68h.39v2.09Z" transform="translate(-8.1 0)"/><path class="cls-2" d="M326.08,92.36a1,1,0,0,0,.48.15c.21,0,.39-.09.39-.3s-.07-.22-.37-.35-.53-.38-.53-.59c0-.44.33-.64.74-.64a1.85,1.85,0,0,1,.48.08l0,.34a1.08,1.08,0,0,0-.4-.11c-.21,0-.37.09-.37.25s.14.26.4.38.5.32.5.6a.65.65,0,0,1-.73.65,1.14,1.14,0,0,1-.57-.12Z" transform="translate(-8.1 0)"/><path class="cls-2" d="M329.12,92.77V92.5h0a.8.8,0,0,1-.65.32c-.49,0-.77-.23-.77-.65s.43-.69,1-.69h.38c0-.39-.15-.55-.51-.55a1,1,0,0,0-.61.21l0-.32a1.27,1.27,0,0,1,.69-.2c.58,0,.84.27.84.86v.92a2,2,0,0,0,0,.36Zm-.05-1h-.25c-.43,0-.72.13-.72.4a.37.37,0,0,0,.4.34.53.53,0,0,0,.57-.55Z" transform="translate(-8.1 0)"/><path class="cls-2" d="M331.26,92.76a1.14,1.14,0,0,1-.33.06.56.56,0,0,1-.64-.6V91h-.47v-.31h.47v-.49l.38-.12v.61h.56V91h-.56v1.15a.34.34,0,0,0,.33.37.42.42,0,0,0,.26-.08Z" transform="translate(-8.1 0)"/><path class="cls-2" d="M331.74,90.21v-.43h.43v.43Zm0,2.56V90.68h.39v2.09Z" transform="translate(-8.1 0)"/><path class="cls-2" d="M332.71,91.72a1.07,1.07,0,1,1,2.13,0,1.07,1.07,0,1,1-2.13,0Zm1.72,0a.67.67,0,1,0-1.31,0,.7.7,0,0,0,.66.79C334.21,92.51,334.43,92.13,334.43,91.72Z" transform="translate(-8.1 0)"/><path class="cls-2" d="M336.82,92.77V91.64c0-.55-.2-.7-.46-.7s-.62.33-.62.86v1h-.38V90.68h.37V91h0a.74.74,0,0,1,.69-.38c.52,0,.78.32.78.89v1.25Z" transform="translate(-8.1 0)"/><path class="cls-2" d="M339,90.21v-.43h.44v.43Zm0,2.56V90.68h.38v2.09Z" transform="translate(-8.1 0)"/><path class="cls-2" d="M341.61,92.77V91.64c0-.55-.2-.7-.46-.7s-.62.33-.62.86v1h-.38V90.68h.37V91h0a.74.74,0,0,1,.69-.38c.52,0,.78.32.78.89v1.25Z" transform="translate(-8.1 0)"/><path class="cls-2" d="M342.91,92.77V91h-.5v-.31h.5v-.21c0-.55.17-.83.7-.83l.26,0,0,.31a.55.55,0,0,0-.19,0c-.27,0-.37.14-.37.46v.26h.56V91h-.56v1.78Z" transform="translate(-8.1 0)"/><path class="cls-2" d="M344.11,91.72a1.07,1.07,0,1,1,2.13,0,1.07,1.07,0,1,1-2.13,0Zm1.72,0a.67.67,0,1,0-1.31,0,.7.7,0,0,0,.66.79C345.61,92.51,345.83,92.13,345.83,91.72Z" transform="translate(-8.1 0)"/><path class="cls-2" d="M346.76,92.77V90.68h.36V91h0a.65.65,0,0,1,.55-.37l.25,0V91a.53.53,0,0,0-.21,0c-.36,0-.57.34-.57.85v1Z" transform="translate(-8.1 0)"/><path class="cls-2" d="M351,92.77V91.51c0-.35-.12-.57-.37-.57s-.55.35-.55.78v1h-.39V91.51c0-.34-.11-.57-.37-.57s-.55.34-.55.78v1h-.39V90.68h.36V91h0a.72.72,0,0,1,.67-.35A.61.61,0,0,1,350,91a.73.73,0,0,1,.65-.41c.47,0,.72.28.72.8v1.34Z" transform="translate(-8.1 0)"/><path class="cls-2" d="M353.29,92.77V92.5h0a.8.8,0,0,1-.65.32c-.49,0-.76-.23-.76-.65s.42-.69,1-.69h.38c0-.39-.15-.55-.52-.55a1,1,0,0,0-.61.21l0-.32a1.33,1.33,0,0,1,.69-.2c.58,0,.84.27.84.86v.92c0,.13,0,.26,0,.36Zm0-1H353c-.44,0-.72.13-.72.4a.36.36,0,0,0,.39.34.53.53,0,0,0,.58-.55Z" transform="translate(-8.1 0)"/><path class="cls-2" d="M355.43,92.76a1.14,1.14,0,0,1-.33.06.56.56,0,0,1-.64-.6V91H354v-.31h.47v-.49l.38-.12v.61h.56V91h-.56v1.15a.34.34,0,0,0,.33.37.4.4,0,0,0,.26-.08Z" transform="translate(-8.1 0)"/><path class="cls-2" d="M355.91,90.21v-.43h.43v.43Zm0,2.56V90.68h.39v2.09Z" transform="translate(-8.1 0)"/><path class="cls-2" d="M356.88,91.72a1.07,1.07,0,1,1,2.13,0,1.07,1.07,0,1,1-2.13,0Zm1.72,0a.67.67,0,1,0-.65.79C358.38,92.51,358.6,92.13,358.6,91.72Z" transform="translate(-8.1 0)"/><path class="cls-2" d="M361,92.77V91.64c0-.55-.21-.7-.46-.7-.41,0-.62.33-.62.86v1h-.39V90.68h.37V91h0a.75.75,0,0,1,.69-.38c.52,0,.78.32.78.89v1.25Z" transform="translate(-8.1 0)"/><path class="cls-2" d="M363.43,92.77V91h-.49v-.31h.49v-.21c0-.55.18-.83.7-.83l.26,0,0,.31a.5.5,0,0,0-.18,0c-.28,0-.37.14-.37.46v.26h.55V91h-.55v1.78Z" transform="translate(-8.1 0)"/><path class="cls-2" d="M364.64,91.72a1,1,0,0,1,1.06-1.09,1,1,0,0,1,1.07,1.09,1.07,1.07,0,1,1-2.13,0Zm1.72,0a.67.67,0,1,0-1.31,0c0,.41.22.79.65.79A.71.71,0,0,0,366.36,91.72Z" transform="translate(-8.1 0)"/><path class="cls-2" d="M367.28,92.77V90.68h.36V91h0a.65.65,0,0,1,.55-.37l.25,0V91a.53.53,0,0,0-.21,0c-.35,0-.57.34-.57.85v1Z" transform="translate(-8.1 0)"/><path class="cls-2" d="M371.17,92.76a1.21,1.21,0,0,1-.34.06.56.56,0,0,1-.64-.6V91h-.47v-.31h.47v-.49l.39-.12v.61h.55V91h-.55v1.15a.33.33,0,0,0,.32.37.46.46,0,0,0,.27-.08Z" transform="translate(-8.1 0)"/><path class="cls-2" d="M373.08,92.77v-1.1c0-.44-.1-.73-.45-.73-.53,0-.63.54-.63.85v1h-.38V89.69H372V91h0a.75.75,0,0,1,.67-.35c.53,0,.79.32.79.9v1.24Z" transform="translate(-8.1 0)"/><path class="cls-2" d="M375.73,92.68a1.51,1.51,0,0,1-.66.14A1,1,0,0,1,374,91.69a1,1,0,0,1,1-1.06c.6,0,.92.38.92,1.18H374.4a.68.68,0,0,0,.68.7,1.25,1.25,0,0,0,.65-.21Zm-.25-1.16a.53.53,0,0,0-.53-.58c-.3,0-.51.22-.55.58Z" transform="translate(-8.1 0)"/><path class="cls-2" d="M379,92.77v-.33h0a.76.76,0,0,1-.69.38c-.52,0-.78-.32-.78-.89V90.68h.38v1.13c0,.64.29.7.46.7.39,0,.62-.31.62-.86v-1h.39v2.09Z" transform="translate(-8.1 0)"/><path class="cls-2" d="M379.9,92.36a1,1,0,0,0,.48.15c.2,0,.39-.09.39-.3s-.07-.22-.37-.35-.53-.38-.53-.59c0-.44.33-.64.73-.64a1.72,1.72,0,0,1,.48.08l0,.34a1.14,1.14,0,0,0-.4-.11c-.21,0-.37.09-.37.25s.14.26.4.38.5.32.5.6a.65.65,0,0,1-.73.65,1.14,1.14,0,0,1-.57-.12Z" transform="translate(-8.1 0)"/><path class="cls-2" d="M383.26,92.68a1.51,1.51,0,0,1-.66.14,1,1,0,0,1-1.09-1.13,1,1,0,0,1,1-1.06c.61,0,.93.38.93,1.18h-1.5a.69.69,0,0,0,.69.7,1.32,1.32,0,0,0,.65-.21ZM383,91.52a.53.53,0,0,0-.53-.58.57.57,0,0,0-.56.58Z" transform="translate(-8.1 0)"/><path class="cls-2" d="M383.93,92.77V90.68h.36V91h0a.65.65,0,0,1,.55-.37l.25,0V91a.53.53,0,0,0-.21,0c-.35,0-.57.34-.57.85v1Z" transform="translate(-8.1 0)"/><path class="cls-2" d="M385.17,92.77v-.46h.46v.46Z" transform="translate(-8.1 0)"/><path class="cls-4" d="M354.63,5.84H343.11a1.16,1.16,0,0,1,0-2.31h11.52a1.16,1.16,0,0,1,0,2.31" transform="translate(-8.1 0)"/><path class="cls-4" d="M362.69,5.84h-1.15a1.16,1.16,0,0,1,0-2.31h1.15a1.16,1.16,0,0,1,0,2.31" transform="translate(-8.1 0)"/><path class="cls-4" d="M347.44,61.13a.88.88,0,0,0-.88.88v.55a.89.89,0,0,0,.88.88h2.86a.88.88,0,0,0,.87-.88V62a.87.87,0,0,0-.87-.88Zm2.86,4.61h-2.86a3.18,3.18,0,0,1-3.18-3.18V62a3.18,3.18,0,0,1,3.18-3.18h2.86A3.18,3.18,0,0,1,353.48,62v.55a3.18,3.18,0,0,1-3.18,3.18" transform="translate(-8.1 0)"/><path class="cls-4" d="M333.45,2.38a1.86,1.86,0,0,0-1.86,1.86V65a1.86,1.86,0,0,0,1.86,1.86h30.84A1.86,1.86,0,0,0,366.15,65V4.24a1.87,1.87,0,0,0-1.86-1.86ZM364.29,69.2H333.45A4.17,4.17,0,0,1,329.28,65V4.24A4.17,4.17,0,0,1,333.45.08h30.84a4.16,4.16,0,0,1,4.16,4.16V65a4.17,4.17,0,0,1-4.16,4.17" transform="translate(-8.1 0)"/><path class="cls-4" d="M331.59,55.37h34.56V9.29H331.59Zm35.71,2.31H330.44a1.16,1.16,0,0,1-1.16-1.16V8.14A1.15,1.15,0,0,1,330.44,7H367.3a1.14,1.14,0,0,1,1.15,1.15V56.52a1.15,1.15,0,0,1-1.15,1.16" transform="translate(-8.1 0)"/></g><path class="cls-7" d="M335.64,37.21a.73.73,0,0,0,.52-.18,1.14,1.14,0,0,0,.12-.66V33.71a.65.65,0,0,0-.12-.47.83.83,0,0,0-.5-.12V33H337l1.51,3.26L339.93,33h1.3v.12a.75.75,0,0,0-.47.13.68.68,0,0,0-.11.46v2.91a.68.68,0,0,0,.11.46.82.82,0,0,0,.47.13v.13h-1.84v-.13c.27,0,.43-.06.5-.14a.92.92,0,0,0,.1-.52V33.6l-1.68,3.74h-.09l-1.65-3.59v2.62a1.11,1.11,0,0,0,.15.7.77.77,0,0,0,.46.14v.13h-1.54Z" transform="translate(-8.1 0)"/><path class="cls-7" d="M341.49,34.39h1.35v.09a.74.74,0,0,0-.24,0,.18.18,0,0,0-.14.17.28.28,0,0,0,0,.09l.06.14.74,1.61.61-1.62a.5.5,0,0,0,0-.12.35.35,0,0,0,0-.12.17.17,0,0,0-.05-.13.33.33,0,0,0-.15,0h-.1v-.09h.88v.09a.31.31,0,0,0-.2.09.9.9,0,0,0-.11.22l-1,2.67a4,4,0,0,1-.5,1,.74.74,0,0,1-.61.31.69.69,0,0,1-.34-.09.3.3,0,0,1-.15-.28.26.26,0,0,1,.09-.21.32.32,0,0,1,.23-.09.88.88,0,0,1,.25.07.85.85,0,0,0,.23.06c.12,0,.24-.15.38-.44a1.85,1.85,0,0,0,.19-.57.2.2,0,0,0,0-.07.24.24,0,0,0,0-.08l-1-2.18a.87.87,0,0,0-.19-.31.45.45,0,0,0-.24-.1Z" transform="translate(-8.1 0)"/><path class="cls-7" d="M344.79,37.21a.82.82,0,0,0,.48-.14.9.9,0,0,0,.09-.52V33.71a.69.69,0,0,0-.1-.46.77.77,0,0,0-.47-.13V33h1.82v.12a.75.75,0,0,0-.47.13c-.08.07-.11.22-.11.46V35h2V33.71a.69.69,0,0,0-.1-.46.76.76,0,0,0-.48-.13V33h1.82v.12a.72.72,0,0,0-.46.13c-.08.07-.11.22-.11.46v2.91c0,.24,0,.4.11.46a.78.78,0,0,0,.46.13v.13h-1.82v-.13a.83.83,0,0,0,.49-.14.9.9,0,0,0,.09-.52V35.27h-2v1.35c0,.24,0,.4.11.46a.75.75,0,0,0,.47.13v.13h-1.82Z" transform="translate(-8.1 0)"/><path class="cls-7" d="M351.71,34.64a1.15,1.15,0,0,1,.34.89h-2a1.73,1.73,0,0,0,.33,1.08,1,1,0,0,0,.72.34.88.88,0,0,0,.57-.18,1.54,1.54,0,0,0,.43-.5l.11,0a1.87,1.87,0,0,1-.49.76,1.23,1.23,0,0,1-.88.34,1.09,1.09,0,0,1-.94-.45,1.81,1.81,0,0,1-.32-1.05,1.66,1.66,0,0,1,.38-1.11,1.21,1.21,0,0,1,1-.47A1.15,1.15,0,0,1,351.71,34.64Zm-1.53.25a1.21,1.21,0,0,0-.15.43h1.35a1.18,1.18,0,0,0-.12-.47.55.55,0,0,0-.53-.28A.6.6,0,0,0,350.18,34.89Z" transform="translate(-8.1 0)"/><path class="cls-7" d="M353,35.92a7.27,7.27,0,0,1,1.17-.52v-.27a1.23,1.23,0,0,0-.06-.46.48.48,0,0,0-.46-.21.71.71,0,0,0-.31.08.28.28,0,0,0-.14.24.72.72,0,0,0,0,.13c0,.06,0,.1,0,.12a.27.27,0,0,1-.12.25.38.38,0,0,1-.16,0,.25.25,0,0,1-.22-.1.32.32,0,0,1-.08-.21.67.67,0,0,1,.28-.47,1.19,1.19,0,0,1,.81-.24.85.85,0,0,1,.84.4,1.42,1.42,0,0,1,.12.65v1.28a.75.75,0,0,0,0,.26.16.16,0,0,0,.17.12.22.22,0,0,0,.12,0,.64.64,0,0,0,.17-.11v.17a1,1,0,0,1-.22.2.65.65,0,0,1-.37.12.33.33,0,0,1-.31-.14.59.59,0,0,1-.11-.33,2.76,2.76,0,0,1-.42.31,1,1,0,0,1-.55.17.68.68,0,0,1-.48-.19.66.66,0,0,1-.2-.49A.93.93,0,0,1,353,35.92Zm1.17-.36a2.92,2.92,0,0,0-.61.27.79.79,0,0,0-.46.65.52.52,0,0,0,.19.43.49.49,0,0,0,.28.09.78.78,0,0,0,.41-.12.34.34,0,0,0,.19-.3Z" transform="translate(-8.1 0)"/><path class="cls-7" d="M355.38,37.25a.75.75,0,0,0,.4-.12.47.47,0,0,0,.11-.36V33.64a.85.85,0,0,0,0-.29.26.26,0,0,0-.26-.14h-.1l-.13,0v-.1c.29-.08.64-.18,1-.31,0,0,0,0,0,0v3.92a.48.48,0,0,0,.1.36.74.74,0,0,0,.4.11v.09h-1.55Z" transform="translate(-8.1 0)"/><path class="cls-7" d="M358.73,34.38v.23h-.65v1.85a1.18,1.18,0,0,0,.05.37.3.3,0,0,0,.3.22.36.36,0,0,0,.2-.06.89.89,0,0,0,.19-.17l.08.07-.07.1a.91.91,0,0,1-.35.31.7.7,0,0,1-.36.1.5.5,0,0,1-.51-.34,1.39,1.39,0,0,1-.07-.51V34.61h-.35l0,0v0a.07.07,0,0,1,0,0l.09-.08a2.46,2.46,0,0,0,.32-.3c.07-.08.22-.28.46-.6h.05a.1.1,0,0,1,0,0v.79Z" transform="translate(-8.1 0)"/><path class="cls-7" d="M359,37.25a.61.61,0,0,0,.34-.13.86.86,0,0,0,.08-.45V33.59a.59.59,0,0,0,0-.26c0-.06-.11-.08-.23-.08H359v-.11l.34-.11.29-.08.31-.1v2a3.45,3.45,0,0,1,.36-.34,1.12,1.12,0,0,1,.61-.19.71.71,0,0,1,.71.44,1.44,1.44,0,0,1,.1.6v1.31a.82.82,0,0,0,.08.44.46.46,0,0,0,.32.14v.09H360.7v-.09a.62.62,0,0,0,.35-.13.77.77,0,0,0,.08-.45v-1.3a1.06,1.06,0,0,0-.1-.5.4.4,0,0,0-.39-.19.8.8,0,0,0-.49.18c-.15.12-.23.19-.23.23v1.58a.81.81,0,0,0,.08.45.69.69,0,0,0,.36.13v.09H359Z" transform="translate(-8.1 0)"/><path class="cls-7" d="M339.62,26.51v.08a.66.66,0,0,0-.18,0,.12.12,0,0,0-.1.13s0,.05,0,.08a.69.69,0,0,0,0,.1l.62,1.63.46-1.21-.2-.53a.38.38,0,0,0-.17-.2.58.58,0,0,0-.21,0v-.08h1.16v.08a.54.54,0,0,0-.22,0,.13.13,0,0,0-.1.14.15.15,0,0,0,0,.07.79.79,0,0,0,0,.12l.62,1.62.54-1.47a1.36,1.36,0,0,0,.07-.22s0-.07,0-.09a.18.18,0,0,0-.12-.17l-.19,0v-.08h.86v.08a.38.38,0,0,0-.18.06.39.39,0,0,0-.16.21l-.45,1.28-.18.5-.27.78h-.07l-.19-.49-.5-1.33-.66,1.82h-.07l-.32-.89-.36-1a5,5,0,0,0-.32-.76.33.33,0,0,0-.28-.16v-.08Z" transform="translate(-8.1 0)"/><path class="cls-7" d="M343.79,27.6a.75.75,0,0,1,.22.58h-1.34a1.11,1.11,0,0,0,.23.71.61.61,0,0,0,.47.23.57.57,0,0,0,.37-.12,1,1,0,0,0,.28-.33l.08,0a1.18,1.18,0,0,1-.33.49.76.76,0,0,1-.58.23.71.71,0,0,1-.61-.3,1.18,1.18,0,0,1-.22-.69,1.12,1.12,0,0,1,.26-.73.77.77,0,0,1,.65-.31A.73.73,0,0,1,343.79,27.6Zm-1,.16a1,1,0,0,0-.1.29h.89a.78.78,0,0,0-.08-.32.36.36,0,0,0-.34-.18A.4.4,0,0,0,342.78,27.76Z" transform="translate(-8.1 0)"/><path class="cls-7" d="M344.29,29.31a.44.44,0,0,0,.26-.08.29.29,0,0,0,.07-.23V26.94a.81.81,0,0,0,0-.2.19.19,0,0,0-.17-.08h-.07l-.08,0v-.07l.68-.2s0,0,0,0V29c0,.12,0,.2.07.23a.42.42,0,0,0,.26.07v.06h-1Z" transform="translate(-8.1 0)"/><path class="cls-7" d="M346.93,27.52a.39.39,0,0,1,.19.29.21.21,0,0,1-.05.13.18.18,0,0,1-.15.06.17.17,0,0,1-.13-.05.22.22,0,0,1-.08-.14l0-.11a.27.27,0,0,0-.09-.15.36.36,0,0,0-.19-.05.49.49,0,0,0-.4.21.89.89,0,0,0-.17.56.91.91,0,0,0,.19.57.57.57,0,0,0,.49.26.6.6,0,0,0,.39-.15,1.27,1.27,0,0,0,.22-.26l.06,0a1.63,1.63,0,0,1-.26.4.76.76,0,0,1-.59.28.8.8,0,0,1-.58-.26,1,1,0,0,1-.25-.7,1.11,1.11,0,0,1,.27-.75.91.91,0,0,1,.7-.32A.78.78,0,0,1,346.93,27.52Z" transform="translate(-8.1 0)"/><path class="cls-7" d="M347.69,27.68a1,1,0,0,1,1.38,0,1,1,0,0,1,.27.73,1.07,1.07,0,0,1-.26.73.9.9,0,0,1-.69.31.88.88,0,0,1-.68-.3,1.05,1.05,0,0,1-.29-.75A1,1,0,0,1,347.69,27.68Zm.34-.05a.87.87,0,0,0-.21.66,1.42,1.42,0,0,0,.17.7.52.52,0,0,0,.47.33.4.4,0,0,0,.36-.22,1.09,1.09,0,0,0,.13-.57,1.52,1.52,0,0,0-.16-.69.52.52,0,0,0-.47-.32A.44.44,0,0,0,348,27.63Z" transform="translate(-8.1 0)"/><path class="cls-7" d="M349.55,29.32a.4.4,0,0,0,.21-.06.27.27,0,0,0,.09-.24V27.93c0-.11,0-.18,0-.21a.18.18,0,0,0-.14,0h-.12v-.07l.16-.05.27-.1.19-.07s0,0,0,0v.32a2,2,0,0,1,.36-.26.67.67,0,0,1,.31-.07.47.47,0,0,1,.35.14.9.9,0,0,1,.11.22,1.66,1.66,0,0,1,.27-.23.71.71,0,0,1,.41-.13.43.43,0,0,1,.45.27,1.26,1.26,0,0,1,.07.5V29a.25.25,0,0,0,.07.21.63.63,0,0,0,.24.07v.05h-1v-.06a.24.24,0,0,0,.3-.3V28.1a.74.74,0,0,0,0-.3.3.3,0,0,0-.31-.18.48.48,0,0,0-.27.09,1.3,1.3,0,0,0-.19.17V29a.45.45,0,0,0,.06.26c0,.06.12.09.25.1v.05h-1v-.05a.39.39,0,0,0,.25-.1.67.67,0,0,0,.06-.36v-.58a1.44,1.44,0,0,0,0-.45.27.27,0,0,0-.29-.21.63.63,0,0,0-.26.07.76.76,0,0,0-.21.19V29c0,.11,0,.18.05.22a.41.41,0,0,0,.25.07v.05h-1Z" transform="translate(-8.1 0)"/><path class="cls-7" d="M354.35,27.6a.78.78,0,0,1,.22.58h-1.34a1.11,1.11,0,0,0,.22.71.62.62,0,0,0,.48.23.59.59,0,0,0,.37-.12,1.35,1.35,0,0,0,.28-.33l.07,0a1.07,1.07,0,0,1-.32.49.78.78,0,0,1-.58.23.69.69,0,0,1-.61-.3,1.19,1.19,0,0,1,0-1.42.8.8,0,0,1,.65-.31A.76.76,0,0,1,354.35,27.6Zm-1,.16a.76.76,0,0,0-.1.29h.89a1,1,0,0,0-.08-.32.38.38,0,0,0-.35-.18A.39.39,0,0,0,353.34,27.76Z" transform="translate(-8.1 0)"/><path class="cls-7" d="M356.93,27.43v.15h-.43v1.21a1.47,1.47,0,0,0,0,.25.2.2,0,0,0,.2.14.25.25,0,0,0,.13,0A.71.71,0,0,0,357,29l.06,0-.05.06a.64.64,0,0,1-.23.21.53.53,0,0,1-.24.06.32.32,0,0,1-.33-.22.76.76,0,0,1-.05-.33V27.58h-.25v0s0,0,0,0l.06-.06.21-.19.3-.4h0a0,0,0,0,1,0,0v.52Z" transform="translate(-8.1 0)"/><path class="cls-7" d="M357.41,27.68a1,1,0,0,1,1.38,0,1,1,0,0,1,.27.73,1.12,1.12,0,0,1-.26.73.9.9,0,0,1-.69.31.92.92,0,0,1-.69-.3,1.09,1.09,0,0,1-.28-.75A1,1,0,0,1,357.41,27.68Zm.34-.05a.87.87,0,0,0-.21.66,1.42,1.42,0,0,0,.17.7.52.52,0,0,0,.47.33.4.4,0,0,0,.36-.22,1.09,1.09,0,0,0,.13-.57,1.52,1.52,0,0,0-.16-.69.52.52,0,0,0-.47-.32A.42.42,0,0,0,357.75,27.63Z" transform="translate(-8.1 0)"/><g class="cls-3"><path class="cls-4" d="M360.28,17.47a2.29,2.29,0,0,1-1.88-1c0-.62,1.26-1,1.88-1s1.89.35,1.89,1a2.29,2.29,0,0,1-1.89,1m0-4.46a.94.94,0,1,1-.94.94.93.93,0,0,1,.94-.94m0-.95a3.15,3.15,0,1,0,3.15,3.15,3.16,3.16,0,0,0-3.15-3.15" transform="translate(-8.1 0)"/></g><rect class="cls-4" x="45.9" y="36.58" width="21.92" height="2.4"/><polygon class="cls-4" points="71.38 37.78 65.69 32.49 65.69 43.06 71.38 37.78"/><rect class="cls-4" x="278.18" y="36.58" width="31.71" height="2.4"/><polygon class="cls-4" points="313.45 37.78 307.76 32.49 307.76 43.06 313.45 37.78"/><rect class="cls-4" x="126.23" y="36.58" width="21.92" height="2.4"/><polygon class="cls-4" points="151.71 37.78 146.03 32.49 146.03 43.06 151.71 37.78"/><rect class="cls-4" x="202.21" y="36.58" width="21.92" height="2.4"/><polygon class="cls-4" points="227.69 37.78 222 32.49 222 43.06 227.69 37.78"/></g></g></svg>