<svg xmlns="http://www.w3.org/2000/svg" viewBox="0 0 414.92 99.4"><defs><style>.cls-1{fill:#fff;}.cls-2{fill:#033f85;}.cls-3{fill:#006cb5;}.cls-4{fill:#475c6d;}.cls-5{fill:#1d1d1b;}</style></defs><g id="Layer_2" data-name="Layer 2"><g id="Layer_1-2" data-name="Layer 1"><rect class="cls-1" x="7.03" y="1.85" width="36.58" height="65.34"/><path class="cls-2" d="M31.32,5.76H19.8a1.15,1.15,0,1,1,0-2.3H31.32a1.15,1.15,0,1,1,0,2.3"/><path class="cls-2" d="M39.39,5.76H38.24a1.15,1.15,0,1,1,0-2.3h1.15a1.15,1.15,0,0,1,0,2.3"/><path class="cls-2" d="M24.14,61.06a.87.87,0,0,0-.88.87v.56a.87.87,0,0,0,.88.87H27a.87.87,0,0,0,.87-.87v-.56a.87.87,0,0,0-.88-.87ZM27,65.66H24.13A3.17,3.17,0,0,1,21,62.49v-.56a3.18,3.18,0,0,1,3.18-3.18H27a3.18,3.18,0,0,1,3.17,3.18v.56A3.17,3.17,0,0,1,27,65.66"/><path class="cls-2" d="M10.15,2.3A1.87,1.87,0,0,0,8.28,4.16V65a1.87,1.87,0,0,0,1.87,1.86H41A1.86,1.86,0,0,0,42.84,65V4.16A1.86,1.86,0,0,0,41,2.3ZM41,69.12H10.15A4.17,4.17,0,0,1,6,65V4.16A4.17,4.17,0,0,1,10.15,0H41a4.17,4.17,0,0,1,4.16,4.16V65A4.17,4.17,0,0,1,41,69.12"/><path class="cls-2" d="M8.28,55.3H42.84V9.22H8.28ZM44,57.6H7.13A1.16,1.16,0,0,1,6,56.45V8.06A1.16,1.16,0,0,1,7.13,6.91H44a1.16,1.16,0,0,1,1.15,1.15V56.45A1.16,1.16,0,0,1,44,57.6"/><path class="cls-3" d="M13.34,40.08a1.06,1.06,0,0,0-1.08,1.08v5.4a1.06,1.06,0,0,0,1.08,1.08H37.79a1.06,1.06,0,0,0,1.08-1.08v-5.4a1.06,1.06,0,0,0-1.08-1.08Z"/><path class="cls-1" d="M16.54,45.68l-1.29-2.54h0v2.54h-.66V42.29h.84l1.29,2.54h0V42.29h.65v3.39Z"/><path class="cls-1" d="M20.17,45.68V44.19H18.81v1.49h-.68V42.29h.68v1.37h1.36V42.29h.68v3.39Z"/><path class="cls-1" d="M21.64,45a1.65,1.65,0,0,0,.77.21c.25,0,.6-.13.6-.44s-.23-.37-.56-.5-.93-.37-.93-1,.55-1,1.2-1a2.63,2.63,0,0,1,.8.12l-.06.56a1.72,1.72,0,0,0-.69-.15.48.48,0,0,0-.54.48c0,.25.3.35.58.46.45.17.91.38.91,1s-.47,1-1.28,1a3,3,0,0,1-.86-.13Z"/><path class="cls-1" d="M25.65,45.68V42h.65v3.64Z"/><path class="cls-1" d="M28.13,45.74a1.23,1.23,0,0,1-1.31-1.29,1.31,1.31,0,1,1,2.62,0A1.23,1.23,0,0,1,28.13,45.74Zm.63-1.37c0-.4-.21-.75-.63-.75a.67.67,0,0,0-.63.75c0,.53.21.86.63.86S28.76,44.91,28.76,44.37Z"/><path class="cls-1" d="M31.6,45.28h0a.88.88,0,0,1-.78.4c-.69,0-1-.52-1-1.26s.31-1.3,1.06-1.3a.83.83,0,0,1,.77.4h0v-.34h.62v2.27a1.17,1.17,0,0,1-1.31,1.31,2.17,2.17,0,0,1-.88-.17l.06-.55a1.84,1.84,0,0,0,.73.22c.61,0,.75-.4.75-.92Zm0-.88c0-.38-.14-.78-.55-.78s-.58.34-.58.8.18.76.56.76S31.6,44.81,31.6,44.4Z"/><path class="cls-1" d="M32.94,42.72V42.1h.65v.62Zm0,3v-2.5h.65v2.5Z"/><path class="cls-1" d="M35.92,45.68v-1.4c0-.38-.08-.66-.42-.66s-.58.4-.58.85v1.21h-.65v-2.5h.62v.34h0a1,1,0,0,1,.82-.4c.57,0,.85.39.85,1v1.58Z"/><path class="cls-4" d="M12.34,27.55a.78.78,0,0,0,.52-.18,1.18,1.18,0,0,0,.12-.66V24.05a.65.65,0,0,0-.12-.47.84.84,0,0,0-.51-.12v-.13h1.3l1.5,3.27,1.47-3.27h1.31v.13a.73.73,0,0,0-.47.13.68.68,0,0,0-.11.46V27a.68.68,0,0,0,.11.46.79.79,0,0,0,.47.13v.12H16.09v-.12a.84.84,0,0,0,.5-.14,1,1,0,0,0,.09-.53V23.94L15,27.67h-.09l-1.65-3.58v2.62a1.09,1.09,0,0,0,.16.7.77.77,0,0,0,.46.14v.12H12.34Z"/><path class="cls-4" d="M18.19,24.73h1.35v.09a.7.7,0,0,0-.24,0c-.1,0-.15.08-.15.17a.29.29,0,0,0,0,.09,1.14,1.14,0,0,0,.06.14L20,26.86l.61-1.62a.5.5,0,0,0,0-.12c0-.06,0-.1,0-.12a.15.15,0,0,0-.06-.13.26.26,0,0,0-.14,0h-.1v-.09h.88v.09a.31.31,0,0,0-.2.09.68.68,0,0,0-.11.21l-1,2.68a4.35,4.35,0,0,1-.5,1,.74.74,0,0,1-.61.31.67.67,0,0,1-.34-.09.31.31,0,0,1-.16-.28.24.24,0,0,1,.1-.21.32.32,0,0,1,.23-.09.79.79,0,0,1,.25.06.61.61,0,0,0,.23.07c.12,0,.24-.15.37-.44a2,2,0,0,0,.2-.57.17.17,0,0,0,0-.07s0-.06,0-.08l-1-2.18a1,1,0,0,0-.19-.31.53.53,0,0,0-.24-.1Z"/><path class="cls-4" d="M21.48,27.55a.77.77,0,0,0,.48-.14c.07-.07.1-.24.1-.52V24.05a.68.68,0,0,0-.11-.46.73.73,0,0,0-.47-.13v-.13H23.3v.13a.77.77,0,0,0-.47.13.69.69,0,0,0-.1.46v1.27h2V24.05a.68.68,0,0,0-.11-.46.73.73,0,0,0-.47-.13v-.13H26v.13a.75.75,0,0,0-.47.13.69.69,0,0,0-.1.46V27a.69.69,0,0,0,.1.46.82.82,0,0,0,.47.13v.12H24.14v-.12a.77.77,0,0,0,.48-.14c.07-.06.1-.24.1-.52V25.61h-2V27a.69.69,0,0,0,.1.46.85.85,0,0,0,.47.13v.12H21.48Z"/><path class="cls-4" d="M28.41,25a1.15,1.15,0,0,1,.34.89h-2A1.73,1.73,0,0,0,27.05,27a1,1,0,0,0,.72.34.88.88,0,0,0,.57-.18,1.81,1.81,0,0,0,.43-.5l.11,0a1.94,1.94,0,0,1-.49.76,1.24,1.24,0,0,1-.89.34,1.09,1.09,0,0,1-.93-.45,1.77,1.77,0,0,1-.33-1.05,1.67,1.67,0,0,1,.39-1.11,1.21,1.21,0,0,1,1-.47A1.13,1.13,0,0,1,28.41,25Zm-1.53.25a1.21,1.21,0,0,0-.15.43h1.35a1.18,1.18,0,0,0-.12-.47.56.56,0,0,0-.53-.29A.59.59,0,0,0,26.88,25.23Z"/><path class="cls-4" d="M29.73,26.26a7,7,0,0,1,1.18-.52v-.27a1,1,0,0,0-.07-.46.45.45,0,0,0-.45-.21.68.68,0,0,0-.31.08.27.27,0,0,0-.15.24s0,.07,0,.13,0,.1,0,.12a.25.25,0,0,1-.12.24.3.3,0,0,1-.16.05.25.25,0,0,1-.22-.1.32.32,0,0,1-.08-.21.67.67,0,0,1,.28-.47,1.19,1.19,0,0,1,.81-.24.87.87,0,0,1,.84.4,1.39,1.39,0,0,1,.12.65V27a.79.79,0,0,0,0,.26.16.16,0,0,0,.17.12l.12,0,.17-.11v.17a1,1,0,0,1-.22.2.65.65,0,0,1-.37.12.33.33,0,0,1-.31-.14.52.52,0,0,1-.11-.33,2.76,2.76,0,0,1-.42.31,1,1,0,0,1-.55.17.65.65,0,0,1-.48-.19.66.66,0,0,1-.2-.49A.92.92,0,0,1,29.73,26.26Zm1.18-.36a2.7,2.7,0,0,0-.61.27.79.79,0,0,0-.46.65.5.5,0,0,0,.19.43.47.47,0,0,0,.28.09.72.72,0,0,0,.4-.12.35.35,0,0,0,.2-.3Z"/><path class="cls-4" d="M32.07,27.59a.8.8,0,0,0,.41-.12.48.48,0,0,0,.1-.36V24a.93.93,0,0,0,0-.29.26.26,0,0,0-.26-.14h-.1l-.13,0v-.11c.29-.07.63-.17,1-.3,0,0,0,0,0,0v3.92c0,.19,0,.31.1.36a.71.71,0,0,0,.4.11v.08H32.07Z"/><path class="cls-4" d="M35.43,24.72V25h-.65V26.8a1.66,1.66,0,0,0,0,.37.32.32,0,0,0,.31.22.36.36,0,0,0,.2-.06.89.89,0,0,0,.19-.17l.08.07-.07.1a1,1,0,0,1-.35.31.81.81,0,0,1-.36.1.51.51,0,0,1-.51-.34,1.36,1.36,0,0,1-.08-.51V25h-.34s0,0,0,0a0,0,0,0,1,0,0,.08.08,0,0,1,0-.05l.09-.08a3.43,3.43,0,0,0,.32-.3l.46-.6h.05a.1.1,0,0,1,0,0v.79Z"/><path class="cls-4" d="M35.64,27.59a.65.65,0,0,0,.35-.13.86.86,0,0,0,.08-.45V23.93a.57.57,0,0,0,0-.26c0-.06-.1-.09-.22-.09h-.15v-.12l.35-.1.29-.08.31-.1v2a3.45,3.45,0,0,1,.36-.34,1,1,0,0,1,.61-.19.71.71,0,0,1,.71.44,1.44,1.44,0,0,1,.1.6V27a.85.85,0,0,0,.08.44.5.5,0,0,0,.32.14v.08H37.39v-.08c.19,0,.31-.07.36-.14a.8.8,0,0,0,.08-.44v-1.3a1,1,0,0,0-.1-.5.4.4,0,0,0-.39-.19.8.8,0,0,0-.49.18c-.15.11-.23.19-.23.23V27a.81.81,0,0,0,.08.45.66.66,0,0,0,.36.13v.08H35.64Z"/><rect class="cls-1" x="85.33" y="1" width="36.58" height="38.37"/><path class="cls-2" d="M105.56,42.42H102.7a3.18,3.18,0,0,1-3.18-3.18v-.55a3.19,3.19,0,0,1,3.18-3.18h2.86a3.19,3.19,0,0,1,3.18,3.18v.55a3.18,3.18,0,0,1-3.18,3.18m-2.86-4.61a.88.88,0,0,0-.87.88v.55a.87.87,0,0,0,.87.88h2.86a.87.87,0,0,0,.87-.88v-.55a.88.88,0,0,0-.87-.88Z"/><path class="cls-2" d="M121.41,1.28V37.51a1.86,1.86,0,0,1-1.86,1.86H88.71a1.85,1.85,0,0,1-1.86-1.85V1.28H84.56s0,36.23,0,36.23a4.17,4.17,0,0,0,4.16,4.17h30.84a4.16,4.16,0,0,0,4.16-4.16V1.28Z"/><path class="cls-2" d="M121.41,1V27.85H86.85V1H84.56V29a1.15,1.15,0,0,0,1.15,1.15h36.86A1.15,1.15,0,0,0,123.71,29V1Z"/><path class="cls-3" d="M91.91,12.64a1.06,1.06,0,0,0-1.08,1.08v5.4a1.06,1.06,0,0,0,1.08,1.08h24.44a1.06,1.06,0,0,0,1.08-1.08v-5.4a1.06,1.06,0,0,0-1.08-1.08Z"/><path class="cls-1" d="M95.11,18.24l-1.3-2.54h0v2.54h-.65V14.85H94l1.29,2.53h0V14.85h.65v3.39Z"/><path class="cls-1" d="M98.73,18.24V16.75H97.37v1.49h-.68V14.85h.68v1.37h1.36V14.85h.69v3.39Z"/><path class="cls-1" d="M100.21,17.55a1.53,1.53,0,0,0,.76.21c.25,0,.61-.12.61-.43s-.23-.37-.57-.5-.92-.37-.92-1,.55-1,1.19-1a2.64,2.64,0,0,1,.81.12l-.07.56a1.68,1.68,0,0,0-.69-.15.47.47,0,0,0-.53.47c0,.26.29.36.57.47.46.17.92.38.92,1s-.47,1-1.28,1a3.16,3.16,0,0,1-.87-.13Z"/><path class="cls-1" d="M104.21,18.24V14.59h.65v3.65Z"/><path class="cls-1" d="M106.69,18.3a1.31,1.31,0,0,1,0-2.62A1.26,1.26,0,0,1,108,17,1.24,1.24,0,0,1,106.69,18.3Zm.64-1.37a.67.67,0,0,0-.64-.75c-.4,0-.62.35-.62.75s.2.86.62.86S107.33,17.47,107.33,16.93Z"/><path class="cls-1" d="M110.17,17.84h0a.92.92,0,0,1-.78.4c-.69,0-1-.53-1-1.26s.31-1.3,1.06-1.3a.81.81,0,0,1,.76.4h0v-.34h.63V18a1.18,1.18,0,0,1-1.32,1.31,2.3,2.3,0,0,1-.87-.17l.05-.56a1.73,1.73,0,0,0,.74.22c.61,0,.75-.39.75-.91Zm0-.88c0-.38-.14-.78-.55-.78s-.58.34-.58.8.18.75.55.75S110.17,17.36,110.17,17Z"/><path class="cls-1" d="M111.5,15.28v-.62h.65v.62Zm0,3v-2.5h.65v2.5Z"/><path class="cls-1" d="M114.49,18.24V16.83c0-.37-.08-.65-.42-.65s-.58.4-.58.84v1.22h-.65v-2.5h.62v.34h0a.92.92,0,0,1,.82-.4c.58,0,.85.39.85,1v1.58Z"/><path class="cls-2" d="M93.06,48.33a31.62,31.62,0,0,0,8.4,15.09l0,0V68a1.08,1.08,0,0,0,1.08,1.08H122A1.08,1.08,0,0,0,123.09,68V63.33a26.74,26.74,0,0,0,4.32-14.59V40.32A4.32,4.32,0,0,0,123.09,36a4.26,4.26,0,0,0-2.4.74,4.32,4.32,0,0,0-4.08-2.9,4.26,4.26,0,0,0-2.4.74,4.32,4.32,0,0,0-4.08-2.9,4.36,4.36,0,0,0-2.16.58V22.4a4.32,4.32,0,1,0-8.64,0V38l-3,2a8,8,0,0,0-3.32,8.42"/><path class="cls-1" d="M97.58,42.31l1.75-1.17v7.34a1.08,1.08,0,0,0,2.16,0V23a2.16,2.16,0,1,1,4.32,0V44.16a1.08,1.08,0,0,0,2.16,0V36.6a2.16,2.16,0,0,1,4.32,0v7.56a1.08,1.08,0,1,0,2.16,0v-5.4a2.16,2.16,0,0,1,4.32,0v5.4a1.08,1.08,0,0,0,2.16,0V40.92a2.16,2.16,0,0,1,4.32,0v8.42A24.65,24.65,0,0,1,121.12,63a1.09,1.09,0,0,0-.19.6v3.89H103.65V63.6a1.08,1.08,0,0,0-.31-.76,29.35,29.35,0,0,1-8.18-14.4,5.81,5.81,0,0,1,2.42-6.13"/><path class="cls-2" d="M122,49a1.08,1.08,0,0,0,0-2.16A1.08,1.08,0,1,0,122,49"/><path class="cls-2" d="M117.82,61.51a1.09,1.09,0,0,0,1.5-.3,22.36,22.36,0,0,0,3.48-8.84,1.08,1.08,0,0,0-2.13-.35,20.2,20.2,0,0,1-3.15,8,1.09,1.09,0,0,0,.3,1.5"/><rect class="cls-1" x="165.52" y="1.7" width="36.58" height="65.78"/><path class="cls-2" d="M189.6,5.84H178.08a1.15,1.15,0,0,1,0-2.3H189.6a1.15,1.15,0,1,1,0,2.3"/><path class="cls-2" d="M197.66,5.84h-1.15a1.15,1.15,0,0,1,0-2.3h1.15a1.15,1.15,0,1,1,0,2.3"/><path class="cls-2" d="M182.41,61.14a.87.87,0,0,0-.87.87v.56a.87.87,0,0,0,.87.87h2.86a.87.87,0,0,0,.87-.87V62a.87.87,0,0,0-.87-.87Zm2.86,4.61h-2.86a3.19,3.19,0,0,1-3.18-3.18V62a3.19,3.19,0,0,1,3.18-3.18h2.86A3.19,3.19,0,0,1,188.45,62v.56a3.19,3.19,0,0,1-3.18,3.18"/><path class="cls-2" d="M168.42,2.39a1.86,1.86,0,0,0-1.86,1.86V65a1.86,1.86,0,0,0,1.86,1.86h30.84A1.86,1.86,0,0,0,201.12,65V4.25a1.86,1.86,0,0,0-1.86-1.86ZM199.26,69.2H168.42A4.17,4.17,0,0,1,164.26,65V4.25A4.17,4.17,0,0,1,168.42.08h30.84a4.17,4.17,0,0,1,4.16,4.17V65a4.16,4.16,0,0,1-4.16,4.16"/><path class="cls-2" d="M166.56,55.38h34.56V9.3H166.56Zm35.71,2.3H165.41a1.14,1.14,0,0,1-1.15-1.15V8.15A1.15,1.15,0,0,1,165.41,7h36.86a1.15,1.15,0,0,1,1.15,1.16V56.53a1.14,1.14,0,0,1-1.15,1.15"/><path class="cls-3" d="M183.06,15.86l-.25.77a2,2,0,0,0-.86-.18c-.42,0-.76.06-.76.38,0,.55,1.53.34,1.53,1.53s-1,1.35-1.92,1.35a4.26,4.26,0,0,1-1.21-.2l.25-.79a2.06,2.06,0,0,0,1,.22c.33,0,.84-.06.84-.46,0-.63-1.52-.39-1.52-1.49s.88-1.31,1.74-1.31a3,3,0,0,1,1.2.18m-3-.11-.81,3.9h-1.05l.34-1.67h-1.24l-.35,1.67h-1l.81-3.9h1l-.31,1.49h1.24l.31-1.49Zm-3.73,0-.83,3.9h-1.3l-.82-2.7h0l-.55,2.7h-1l.83-3.9H174l.8,2.7h0l.55-2.7Zm7.19-.47h-12v4.84h12Z"/><path class="cls-2" d="M184,34.17H172.51a1.16,1.16,0,0,1,0-2.31H184a1.16,1.16,0,0,1,0,2.31"/><path class="cls-2" d="M191.53,34.17H180a1.16,1.16,0,1,1,0-2.31h11.52a1.16,1.16,0,0,1,0,2.31"/><path class="cls-2" d="M195.17,34.17H183.65a1.16,1.16,0,0,1,0-2.31h11.52a1.16,1.16,0,0,1,0,2.31"/><path class="cls-2" d="M184,28.78H172.51a1.16,1.16,0,0,1,0-2.31H184a1.16,1.16,0,0,1,0,2.31"/><path class="cls-2" d="M184,44.69H172.51a1.15,1.15,0,0,1,0-2.3H184a1.15,1.15,0,1,1,0,2.3"/><path class="cls-2" d="M191.53,44.69H180a1.15,1.15,0,1,1,0-2.3h11.52a1.15,1.15,0,1,1,0,2.3"/><path class="cls-2" d="M195.17,44.69H183.65a1.15,1.15,0,0,1,0-2.3h11.52a1.15,1.15,0,1,1,0,2.3"/><path class="cls-2" d="M184,39.43H172.51a1.15,1.15,0,0,1,0-2.3H184a1.15,1.15,0,1,1,0,2.3"/><path class="cls-2" d="M191.53,39.43H180a1.15,1.15,0,1,1,0-2.3h11.52a1.15,1.15,0,1,1,0,2.3"/><path class="cls-2" d="M195.17,39.43H183.65a1.15,1.15,0,0,1,0-2.3h11.52a1.15,1.15,0,1,1,0,2.3"/><path class="cls-2" d="M184,50H172.51a1.15,1.15,0,1,1,0-2.3H184a1.15,1.15,0,1,1,0,2.3"/><path class="cls-2" d="M191.53,50H180a1.15,1.15,0,1,1,0-2.3h11.52a1.15,1.15,0,1,1,0,2.3"/><path class="cls-2" d="M195.17,50H183.65a1.15,1.15,0,0,1,0-2.3h11.52a1.15,1.15,0,1,1,0,2.3"/><rect class="cls-1" x="244.51" y="1.7" width="36.58" height="65.78"/><path class="cls-2" d="M268.92,5.84H257.4a1.16,1.16,0,0,1,0-2.31h11.52a1.16,1.16,0,0,1,0,2.31"/><path class="cls-2" d="M277,5.84h-1.15a1.16,1.16,0,0,1,0-2.31H277a1.16,1.16,0,1,1,0,2.31"/><path class="cls-2" d="M261.73,61.13a.87.87,0,0,0-.87.88v.55a.88.88,0,0,0,.87.88h2.86a.88.88,0,0,0,.87-.88V62a.87.87,0,0,0-.87-.88Zm2.86,4.61h-2.86a3.19,3.19,0,0,1-3.18-3.18V62a3.18,3.18,0,0,1,3.18-3.18h2.86A3.18,3.18,0,0,1,267.77,62v.55a3.19,3.19,0,0,1-3.18,3.18"/><path class="cls-2" d="M247.74,2.38a1.86,1.86,0,0,0-1.86,1.86V65a1.86,1.86,0,0,0,1.86,1.86h30.84A1.86,1.86,0,0,0,280.44,65V4.24a1.86,1.86,0,0,0-1.86-1.86ZM278.58,69.2H247.74A4.17,4.17,0,0,1,243.58,65V4.24A4.16,4.16,0,0,1,247.74.08h30.84a4.16,4.16,0,0,1,4.16,4.16V65a4.17,4.17,0,0,1-4.16,4.17"/><path class="cls-2" d="M245.88,55.37h34.56V9.29H245.88Zm35.71,2.31H244.73a1.15,1.15,0,0,1-1.15-1.16V8.14A1.14,1.14,0,0,1,244.73,7h36.86a1.14,1.14,0,0,1,1.15,1.15V56.52a1.15,1.15,0,0,1-1.15,1.16"/><path class="cls-3" d="M262.38,15.85l-.25.78a1.9,1.9,0,0,0-.86-.18c-.42,0-.76.06-.76.37,0,.55,1.53.35,1.53,1.53s-1,1.36-1.92,1.36a4.64,4.64,0,0,1-1.21-.2l.25-.8a1.94,1.94,0,0,0,1,.23c.33,0,.84-.06.84-.47,0-.62-1.52-.39-1.52-1.49s.88-1.3,1.74-1.3a3.22,3.22,0,0,1,1.2.17m-3-.11-.81,3.9h-1.05l.34-1.67h-1.24l-.35,1.67h-1l.81-3.9h1.05l-.31,1.49H258l.31-1.49Zm-3.73,0-.83,3.9h-1.3l-.82-2.7h0l-.55,2.7h-1l.83-3.9h1.31l.8,2.71h0l.55-2.71Zm7.19-.46h-12v4.84h12Z"/><path class="cls-2" d="M263.3,28H251.78a1.16,1.16,0,1,1,0-2.31H263.3a1.16,1.16,0,0,1,0,2.31"/><path class="cls-2" d="M265.9,28H254.38a1.16,1.16,0,0,1,0-2.31H265.9a1.16,1.16,0,1,1,0,2.31"/><path class="cls-2" d="M272.88,28.41l-1.39-1.36a.49.49,0,0,1,0-.68.48.48,0,0,1,.69,0l.7.68,1.73-1.7a.48.48,0,1,1,.68.69Z"/><path class="cls-2" d="M272.88,28.79l-1.58-1.54a.77.77,0,0,1-.22-.54.7.7,0,0,1,.21-.53.76.76,0,0,1,1.07,0l.51.51,1.54-1.52a.76.76,0,0,1,1.07,0,.79.79,0,0,1,.22.54.72.72,0,0,1-.23.53Zm-1.05-2.3a.22.22,0,0,0-.15.06.2.2,0,0,0-.06.16.22.22,0,0,0,.06.15l1.2,1.17,2.21-2.19a.23.23,0,0,0,.07-.15.23.23,0,0,0-.06-.16.23.23,0,0,0-.31,0l-1.92,1.89-.89-.87A.2.2,0,0,0,271.83,26.49Z"/><path class="cls-2" d="M263.3,35.32H251.78a1.16,1.16,0,1,1,0-2.31H263.3a1.16,1.16,0,0,1,0,2.31"/><path class="cls-2" d="M265.9,35.32H254.38a1.16,1.16,0,0,1,0-2.31H265.9a1.16,1.16,0,1,1,0,2.31"/><path class="cls-2" d="M272.88,35.71l-1.39-1.35a.49.49,0,0,1,.68-.7l.7.69,1.73-1.71a.5.5,0,0,1,.69,0,.49.49,0,0,1,0,.69Z"/><path class="cls-2" d="M272.88,36.09l-1.58-1.54a.76.76,0,0,1,0-1.07.75.75,0,0,1,.53-.22.77.77,0,0,1,.54.21l.51.5,1.54-1.52a.76.76,0,0,1,1.06,1.08Zm-1.05-2.29a.22.22,0,0,0-.15.37l1.2,1.16,2.21-2.19a.21.21,0,0,0,0-.3.21.21,0,0,0-.31,0l-1.91,1.89-.9-.87A.2.2,0,0,0,271.83,33.8Z"/><path class="cls-2" d="M263.3,42.62H251.78a1.15,1.15,0,1,1,0-2.3H263.3a1.15,1.15,0,0,1,0,2.3"/><path class="cls-2" d="M265.9,42.62H254.38a1.15,1.15,0,0,1,0-2.3H265.9a1.15,1.15,0,1,1,0,2.3"/><path class="cls-2" d="M272.88,43l-1.39-1.35a.5.5,0,0,1,0-.69.49.49,0,0,1,.69,0l.7.69L274.6,40a.48.48,0,1,1,.68.69Z"/><path class="cls-2" d="M272.88,43.4l-1.58-1.54a.75.75,0,0,1-.22-.53.71.71,0,0,1,.21-.54.76.76,0,0,1,1.07,0l.51.5,1.54-1.52a.76.76,0,0,1,1.07,0,.75.75,0,0,1,.22.53.72.72,0,0,1-.23.53Zm-1.05-2.3a.19.19,0,0,0-.15.07.17.17,0,0,0-.06.15.2.2,0,0,0,.06.15l1.2,1.17,2.21-2.19a.21.21,0,0,0,.07-.15.2.2,0,0,0-.06-.15.22.22,0,0,0-.31,0L272.87,42l-.89-.88A.2.2,0,0,0,271.83,41.1Z"/><path class="cls-2" d="M263.3,49.93H251.78a1.16,1.16,0,1,1,0-2.31H263.3a1.16,1.16,0,0,1,0,2.31"/><path class="cls-2" d="M265.9,49.93H254.38a1.16,1.16,0,0,1,0-2.31H265.9a1.16,1.16,0,1,1,0,2.31"/><path class="cls-2" d="M272.88,50.33,271.49,49a.5.5,0,0,1,0-.69.49.49,0,0,1,.69,0l.7.68,1.73-1.7a.48.48,0,1,1,.68.69Z"/><path class="cls-2" d="M272.88,50.7l-1.58-1.53a.76.76,0,0,1,0-1.07.72.72,0,0,1,.53-.23.83.83,0,0,1,.54.21l.51.5,1.54-1.51a.75.75,0,1,1,1.06,1.07Zm-1.05-2.29a.28.28,0,0,0-.15.06.22.22,0,0,0,0,.31l1.2,1.17,2.21-2.19a.22.22,0,0,0,0-.31.23.23,0,0,0-.31,0l-1.91,1.89-.9-.87A.2.2,0,0,0,271.83,48.41Z"/><rect class="cls-1" x="345.34" y="1.79" width="36.58" height="65.73"/><path class="cls-2" d="M369.7,5.84H358.18a1.16,1.16,0,1,1,0-2.31H369.7a1.16,1.16,0,0,1,0,2.31"/><path class="cls-2" d="M377.76,5.84h-1.15a1.16,1.16,0,0,1,0-2.31h1.15a1.16,1.16,0,0,1,0,2.31"/><path class="cls-2" d="M362.51,61.13a.87.87,0,0,0-.88.88v.55a.88.88,0,0,0,.88.88h2.86a.88.88,0,0,0,.87-.88V62a.87.87,0,0,0-.87-.88Zm2.86,4.61H362.5a3.18,3.18,0,0,1-3.17-3.18V62a3.18,3.18,0,0,1,3.18-3.18h2.86A3.17,3.17,0,0,1,368.54,62v.55a3.18,3.18,0,0,1-3.17,3.18"/><path class="cls-2" d="M348.52,2.38a1.86,1.86,0,0,0-1.86,1.86V65a1.86,1.86,0,0,0,1.86,1.86h30.84A1.86,1.86,0,0,0,381.22,65V4.24a1.87,1.87,0,0,0-1.87-1.86ZM379.35,69.2H348.52A4.17,4.17,0,0,1,344.35,65V4.24A4.17,4.17,0,0,1,348.52.08h30.84a4.16,4.16,0,0,1,4.16,4.16V65a4.17,4.17,0,0,1-4.17,4.17"/><path class="cls-2" d="M346.66,55.37h34.56V9.29H346.66Zm35.71,2.31H345.5a1.16,1.16,0,0,1-1.15-1.16V8.14A1.15,1.15,0,0,1,345.5,7h36.87a1.15,1.15,0,0,1,1.15,1.15V56.52a1.16,1.16,0,0,1-1.15,1.16"/><path class="cls-4" d="M350.71,37.21a.78.78,0,0,0,.52-.18,1.16,1.16,0,0,0,.12-.66V33.71a.65.65,0,0,0-.12-.47.84.84,0,0,0-.51-.12V33H352l1.5,3.26L355,33h1.31v.12a.73.73,0,0,0-.47.13.68.68,0,0,0-.11.46v2.91a.68.68,0,0,0,.11.46.79.79,0,0,0,.47.13v.13h-1.84v-.13c.27,0,.43-.06.5-.14a1,1,0,0,0,.09-.53V33.6l-1.68,3.74h-.09l-1.65-3.59v2.62a1.09,1.09,0,0,0,.16.7.77.77,0,0,0,.46.14v.13h-1.54Z"/><path class="cls-4" d="M356.56,34.39h1.35v.09a.7.7,0,0,0-.24,0c-.1,0-.14.08-.14.17a.28.28,0,0,0,0,.09,1.14,1.14,0,0,0,.06.14l.74,1.61L359,34.9a.5.5,0,0,0,0-.12c0-.06,0-.1,0-.12a.15.15,0,0,0-.06-.13.26.26,0,0,0-.14,0h-.1v-.09h.88v.09a.31.31,0,0,0-.2.09.75.75,0,0,0-.11.22l-1,2.67a4.35,4.35,0,0,1-.5,1,.74.74,0,0,1-.61.31.69.69,0,0,1-.34-.09.31.31,0,0,1-.16-.28.24.24,0,0,1,.1-.21.32.32,0,0,1,.23-.09.88.88,0,0,1,.25.07.77.77,0,0,0,.23.06c.12,0,.24-.15.37-.44a2,2,0,0,0,.2-.57.17.17,0,0,0,0-.07l0-.08-1-2.18a1,1,0,0,0-.19-.31.53.53,0,0,0-.24-.1Z"/><path class="cls-4" d="M359.85,37.21a.77.77,0,0,0,.48-.14c.07-.06.1-.24.1-.52V33.71a.68.68,0,0,0-.11-.46.73.73,0,0,0-.47-.13V33h1.82v.12a.77.77,0,0,0-.47.13.69.69,0,0,0-.1.46V35h2V33.71a.68.68,0,0,0-.11-.46.73.73,0,0,0-.47-.13V33h1.82v.12a.75.75,0,0,0-.47.13.69.69,0,0,0-.1.46v2.91a.69.69,0,0,0,.1.46.82.82,0,0,0,.47.13v.13h-1.82v-.13a.77.77,0,0,0,.48-.14c.07-.06.1-.24.1-.52V35.27h-2v1.35c0,.24,0,.4.1.46a.77.77,0,0,0,.47.13v.13h-1.82Z"/><path class="cls-4" d="M366.78,34.64a1.15,1.15,0,0,1,.34.89h-2a1.73,1.73,0,0,0,.33,1.08.92.92,0,0,0,.72.34.88.88,0,0,0,.57-.18,1.67,1.67,0,0,0,.43-.5l.11,0a1.87,1.87,0,0,1-.49.76,1.24,1.24,0,0,1-.89.34,1.09,1.09,0,0,1-.93-.45,1.75,1.75,0,0,1-.33-1.05A1.67,1.67,0,0,1,365,34.8a1.21,1.21,0,0,1,1-.47A1.13,1.13,0,0,1,366.78,34.64Zm-1.53.25a1.21,1.21,0,0,0-.15.43h1.35a1.18,1.18,0,0,0-.12-.47.56.56,0,0,0-.53-.29A.59.59,0,0,0,365.25,34.89Z"/><path class="cls-4" d="M368.1,35.92a7,7,0,0,1,1.18-.52v-.27a1,1,0,0,0-.07-.46.45.45,0,0,0-.45-.21.68.68,0,0,0-.31.08.26.26,0,0,0-.14.24.72.72,0,0,0,0,.13c0,.06,0,.1,0,.12a.27.27,0,0,1-.12.25.42.42,0,0,1-.16,0,.25.25,0,0,1-.22-.1.32.32,0,0,1-.08-.21.67.67,0,0,1,.28-.47,1.19,1.19,0,0,1,.81-.24.87.87,0,0,1,.84.4,1.39,1.39,0,0,1,.12.65v1.28a.75.75,0,0,0,0,.26A.16.16,0,0,0,370,37l.12,0,.17-.11v.17a1,1,0,0,1-.22.2.65.65,0,0,1-.37.12.33.33,0,0,1-.31-.14.52.52,0,0,1-.11-.33,2.76,2.76,0,0,1-.42.31,1,1,0,0,1-.55.17.65.65,0,0,1-.48-.19.66.66,0,0,1-.2-.49A.92.92,0,0,1,368.1,35.92Zm1.18-.36a2.7,2.7,0,0,0-.61.27.79.79,0,0,0-.46.65.5.5,0,0,0,.19.43.47.47,0,0,0,.28.09.78.78,0,0,0,.41-.12.36.36,0,0,0,.19-.3Z"/><path class="cls-4" d="M370.45,37.25a.79.79,0,0,0,.4-.12.47.47,0,0,0,.1-.36V33.64a.93.93,0,0,0,0-.29.26.26,0,0,0-.26-.14h-.1l-.13,0v-.1l1-.31s0,0,0,0v3.92c0,.19,0,.31.1.36a.71.71,0,0,0,.4.11v.09h-1.55Z"/><path class="cls-4" d="M373.8,34.38v.23h-.65v1.85a1.66,1.66,0,0,0,0,.37.32.32,0,0,0,.31.22.36.36,0,0,0,.2-.06.89.89,0,0,0,.19-.17l.08.07-.07.1a1,1,0,0,1-.35.31.7.7,0,0,1-.36.1.51.51,0,0,1-.51-.34,1.36,1.36,0,0,1-.08-.51V34.61h-.34s0,0,0,0v0a.08.08,0,0,1,0,0l.09-.08a3.43,3.43,0,0,0,.32-.3l.46-.6h0a.1.1,0,0,1,0,0v.79Z"/><path class="cls-4" d="M374,37.25a.65.65,0,0,0,.35-.13.86.86,0,0,0,.08-.45V33.59a.57.57,0,0,0-.05-.26c0-.06-.1-.09-.22-.09H374v-.11l.35-.11.29-.08.31-.1v2a3.45,3.45,0,0,1,.36-.34,1.12,1.12,0,0,1,.61-.19.71.71,0,0,1,.71.44,1.44,1.44,0,0,1,.1.6v1.31a.82.82,0,0,0,.08.44.46.46,0,0,0,.32.14v.09h-1.39v-.09c.19,0,.31-.07.36-.14s.08-.21.08-.44v-1.3a1,1,0,0,0-.1-.5.4.4,0,0,0-.39-.19.8.8,0,0,0-.49.18c-.15.12-.23.19-.23.23v1.58a.81.81,0,0,0,.08.45.69.69,0,0,0,.36.13v.09H374Z"/><path class="cls-4" d="M354.69,26.51v.08a.54.54,0,0,0-.18,0,.12.12,0,0,0-.1.13.25.25,0,0,0,0,.08.69.69,0,0,0,0,.1l.62,1.63.46-1.21-.2-.53a.38.38,0,0,0-.17-.2.58.58,0,0,0-.21,0v-.08h1.16v.08a.6.6,0,0,0-.23,0,.13.13,0,0,0-.09.14v.07s0,.06.05.12l.62,1.62L357,27.1c0-.08.05-.16.07-.22s0-.07,0-.09a.18.18,0,0,0-.12-.17l-.19,0v-.08h.86v.08a.38.38,0,0,0-.18.06.35.35,0,0,0-.16.21l-.45,1.28-.18.5-.27.78h-.07l-.19-.49-.5-1.33L355,29.42h-.07l-.32-.89-.36-1a5,5,0,0,0-.32-.76.33.33,0,0,0-.28-.16v-.08Z"/><path class="cls-4" d="M358.86,27.6a.73.73,0,0,1,.22.58h-1.34a1.17,1.17,0,0,0,.22.71.65.65,0,0,0,.48.23.57.57,0,0,0,.37-.12,1.16,1.16,0,0,0,.28-.33l.08,0a1.18,1.18,0,0,1-.33.49.78.78,0,0,1-.58.23.71.71,0,0,1-.61-.3,1.12,1.12,0,0,1-.22-.69,1.17,1.17,0,0,1,.25-.73.81.81,0,0,1,.66-.31A.73.73,0,0,1,358.86,27.6Zm-1,.16a.7.7,0,0,0-.1.29h.89a.78.78,0,0,0-.08-.32.36.36,0,0,0-.34-.18A.39.39,0,0,0,357.85,27.76Z"/><path class="cls-4" d="M359.35,29.31a.48.48,0,0,0,.27-.08.29.29,0,0,0,.07-.23V26.94a.81.81,0,0,0,0-.2.19.19,0,0,0-.17-.08h-.07l-.09,0v-.07l.69-.2h0V29c0,.12,0,.2.06.23a.49.49,0,0,0,.27.07v.06h-1Z"/><path class="cls-4" d="M362,27.52a.38.38,0,0,1,.2.29.21.21,0,0,1-.05.13A.2.2,0,0,1,362,28a.15.15,0,0,1-.13-.05.22.22,0,0,1-.08-.14l0-.11a.27.27,0,0,0-.09-.15.36.36,0,0,0-.19-.05.49.49,0,0,0-.4.21.89.89,0,0,0-.17.56,1,1,0,0,0,.18.57.59.59,0,0,0,.5.26A.6.6,0,0,0,362,29a1.69,1.69,0,0,0,.22-.26l.05,0a1.62,1.62,0,0,1-.25.4.77.77,0,0,1-.59.28.8.8,0,0,1-.58-.26,1,1,0,0,1-.25-.7,1.11,1.11,0,0,1,.27-.75.91.91,0,0,1,.7-.32A.73.73,0,0,1,362,27.52Z"/><path class="cls-4" d="M362.76,27.68a1,1,0,0,1,1.38,0,1,1,0,0,1,.27.73,1.12,1.12,0,0,1-.26.73.9.9,0,0,1-.69.31.92.92,0,0,1-.69-.3,1.09,1.09,0,0,1-.28-.75A1,1,0,0,1,362.76,27.68Zm.34-.05a.87.87,0,0,0-.21.66,1.42,1.42,0,0,0,.17.7.52.52,0,0,0,.47.33.4.4,0,0,0,.36-.22,1.09,1.09,0,0,0,.13-.57,1.52,1.52,0,0,0-.16-.69.52.52,0,0,0-.47-.32A.44.44,0,0,0,363.1,27.63Z"/><path class="cls-4" d="M364.61,29.32a.41.41,0,0,0,.22-.06.27.27,0,0,0,.09-.24V27.93a.42.42,0,0,0,0-.21.2.2,0,0,0-.14,0h-.12v-.07l.15-.05.27-.1.2-.07s0,0,0,0,0,0,0,0v.28a2,2,0,0,1,.36-.26.67.67,0,0,1,.31-.07.48.48,0,0,1,.35.14.9.9,0,0,1,.11.22,1.66,1.66,0,0,1,.27-.23.71.71,0,0,1,.41-.13.44.44,0,0,1,.45.27,1.26,1.26,0,0,1,.07.5V29a.29.29,0,0,0,.06.21.77.77,0,0,0,.24.07v.05h-.95v-.06a.4.4,0,0,0,.24-.07.33.33,0,0,0,.06-.23V28.1a.74.74,0,0,0,0-.3.31.31,0,0,0-.31-.18.48.48,0,0,0-.27.09,1.3,1.3,0,0,0-.19.17V29a.45.45,0,0,0,.06.26c0,.06.12.09.25.1v.05h-1v-.05a.4.4,0,0,0,.26-.1.7.7,0,0,0,.05-.36v-.59a1.5,1.5,0,0,0,0-.44.28.28,0,0,0-.29-.21.63.63,0,0,0-.26.07,1,1,0,0,0-.22.19V29a.3.3,0,0,0,.06.22.4.4,0,0,0,.24.07v.05h-1Z"/><path class="cls-4" d="M369.41,27.6a.74.74,0,0,1,.23.58H368.3a1.11,1.11,0,0,0,.22.71.61.61,0,0,0,.47.23.6.6,0,0,0,.38-.12,1.35,1.35,0,0,0,.28-.33l.07,0a1.16,1.16,0,0,1-.32.49.78.78,0,0,1-.58.23.72.72,0,0,1-.62-.3,1.17,1.17,0,0,1-.21-.69,1.12,1.12,0,0,1,.25-.73.79.79,0,0,1,.65-.31A.73.73,0,0,1,369.41,27.6Zm-1,.16a.9.9,0,0,0-.09.29h.89a1.33,1.33,0,0,0-.08-.32.38.38,0,0,0-.35-.18A.42.42,0,0,0,368.4,27.76Z"/><path class="cls-4" d="M372,27.43v.15h-.43v1.21a.86.86,0,0,0,0,.25.2.2,0,0,0,.2.14.25.25,0,0,0,.13,0l.13-.12.06,0-.05.06a.64.64,0,0,1-.23.21.53.53,0,0,1-.24.06.33.33,0,0,1-.34-.22,1,1,0,0,1,0-.33V27.58H371s0,0,0,0h0a0,0,0,0,1,0,0l.06-.06a1.44,1.44,0,0,0,.21-.19c0-.05.15-.19.31-.4h0v.55Z"/><path class="cls-4" d="M372.48,27.68a.89.89,0,0,1,.68-.29.94.94,0,0,1,.7.28,1,1,0,0,1,.27.73,1.08,1.08,0,0,1-.27.73.86.86,0,0,1-.68.31.92.92,0,0,1-.69-.3,1,1,0,0,1-.28-.75A1,1,0,0,1,372.48,27.68Zm.33-.05a.87.87,0,0,0-.21.66,1.54,1.54,0,0,0,.17.7.53.53,0,0,0,.48.33.42.42,0,0,0,.36-.22,1.09,1.09,0,0,0,.13-.57,1.66,1.66,0,0,0-.16-.69.52.52,0,0,0-.48-.32A.46.46,0,0,0,372.81,27.63Z"/><rect class="cls-2" x="51.88" y="36.58" width="21.92" height="2.4"/><polygon class="cls-2" points="77.36 37.78 71.68 32.49 71.68 43.06 77.36 37.78"/><rect class="cls-2" x="288.36" y="36.58" width="44.46" height="2.4"/><polygon class="cls-2" points="338.51 37.78 332.82 32.49 332.82 43.06 338.51 37.78"/><rect class="cls-2" x="132.21" y="36.58" width="21.92" height="2.4"/><polygon class="cls-2" points="157.69 37.78 152.01 32.49 152.01 43.06 157.69 37.78"/><rect class="cls-2" x="209.19" y="36.58" width="26.26" height="2.4"/><polygon class="cls-2" points="237.51 37.78 231.82 32.49 231.82 43.06 237.51 37.78"/><path class="cls-5" d="M4.67,84.72V81.45l-.6.52-.3-.38,1-.78h.5v3.91Z"/><path class="cls-5" d="M6.74,84.72v-.63h.63v.63Z"/><path class="cls-5" d="M10.66,84.72V81.3H9.45v-.49h3v.49H11.22v3.42Z"/><path class="cls-5" d="M15,84.72v-1.5c0-.6-.14-1-.62-1-.73,0-.85.74-.85,1.16v1.34H13v-4.2h.53v1.75h0a1,1,0,0,1,.92-.47c.72,0,1.07.44,1.07,1.22v1.7Z"/><path class="cls-5" d="M18.56,84.6a2.12,2.12,0,0,1-.9.19,1.37,1.37,0,0,1-1.48-1.55,1.32,1.32,0,0,1,1.34-1.44c.83,0,1.26.52,1.26,1.61h-2a.93.93,0,0,0,.94,1,1.7,1.7,0,0,0,.88-.28ZM18.22,83a.73.73,0,0,0-.72-.8c-.42,0-.7.3-.76.8Z"/><path class="cls-5" d="M23.66,84.72l-.74-2.4h0l-.72,2.4h-.61l-.92-2.86h.58l.65,2.37h0l.73-2.37h.62L24,84.23h0l.7-2.37h.51l-.92,2.86Z"/><path class="cls-5" d="M27.9,84.6a2.17,2.17,0,0,1-.9.19,1.36,1.36,0,0,1-1.48-1.55,1.32,1.32,0,0,1,1.33-1.44c.83,0,1.26.52,1.26,1.61h-2a.93.93,0,0,0,.94,1,1.7,1.7,0,0,0,.88-.28ZM27.55,83a.71.71,0,0,0-.71-.8.77.77,0,0,0-.76.8Z"/><path class="cls-5" d="M28.82,84.72v-4.2h.53v1.74h0a1,1,0,0,1,.94-.46,1.28,1.28,0,0,1,1.24,1.44c0,.81-.39,1.55-1.23,1.55a1.2,1.2,0,0,1-1-.47h0v.4ZM31,83.27c0-.63-.29-1-.79-1s-.84.53-.84,1.08.26,1.06.84,1.06S31,83.83,31,83.27Z"/><path class="cls-5" d="M32,84.16a1.36,1.36,0,0,0,.65.2c.28,0,.54-.12.54-.41s-.1-.29-.51-.48c-.59-.26-.73-.51-.73-.8,0-.59.46-.87,1-.87a2.28,2.28,0,0,1,.66.11l0,.46a1.45,1.45,0,0,0-.55-.15c-.29,0-.51.12-.51.35s.2.35.56.51.68.44.68.82a.89.89,0,0,1-1,.89,1.6,1.6,0,0,1-.78-.16Z"/><path class="cls-5" d="M34.45,81.23v-.6h.6v.6Zm0,3.49V81.86H35v2.86Z"/><path class="cls-5" d="M37.54,84.71a1.64,1.64,0,0,1-.46.08.77.77,0,0,1-.87-.83V82.29h-.64v-.43h.64V81.2l.53-.17v.83h.75v.43h-.75v1.57a.45.45,0,0,0,.44.5.7.7,0,0,0,.36-.1Z"/><path class="cls-5" d="M40.34,84.6a2.11,2.11,0,0,1-.89.19A1.37,1.37,0,0,1,38,83.24,1.33,1.33,0,0,1,39.3,81.8c.83,0,1.26.52,1.26,1.61h-2a.94.94,0,0,0,.94,1,1.67,1.67,0,0,0,.88-.28ZM40,83a.72.72,0,0,0-.71-.8c-.42,0-.71.3-.77.8Z"/><path class="cls-5" d="M42.63,83.29a1.46,1.46,0,1,1,2.91,0,1.46,1.46,0,1,1-2.91,0Zm2.35,0a1,1,0,0,0-.9-1.07,1,1,0,0,0-.89,1.07,1,1,0,0,0,.9,1.07C44.68,84.36,45,83.85,45,83.29Z"/><path class="cls-5" d="M46.25,84.72V81.86h.49v.45h0a.87.87,0,0,1,.75-.51,1.42,1.42,0,0,1,.34,0v.47a.74.74,0,0,0-.29,0c-.48,0-.78.46-.78,1.16v1.3Z"/><path class="cls-5" d="M1.94,91.44v-.37h0a1.05,1.05,0,0,1-.89.44c-.66,0-1-.32-1-.89s.58-.94,1.37-.94h.52c0-.52-.21-.75-.71-.75a1.35,1.35,0,0,0-.83.29l0-.45a1.92,1.92,0,0,1,1-.26c.79,0,1.14.37,1.14,1.17V91a3.68,3.68,0,0,0,0,.49Zm-.05-1.36H1.55c-.6,0-1,.18-1,.55a.5.5,0,0,0,.54.46.73.73,0,0,0,.79-.75Z"/><path class="cls-5" d="M3.3,92.61v-4h.51V89h0a1.16,1.16,0,0,1,1-.47c.8,0,1.23.64,1.23,1.44s-.38,1.55-1.23,1.55a1,1,0,0,1-1-.46h0v1.56ZM5.46,90c0-.73-.36-1-.79-1s-.84.53-.84,1.08.26,1.06.84,1.06S5.46,90.57,5.46,90Z"/><path class="cls-5" d="M6.73,92.61v-4h.5V89h0a1.16,1.16,0,0,1,1-.47c.8,0,1.23.64,1.23,1.44s-.38,1.55-1.23,1.55a1,1,0,0,1-1-.46h0v1.56ZM8.88,90c0-.73-.36-1-.79-1s-.84.53-.84,1.08.27,1.06.84,1.06S8.88,90.57,8.88,90Z"/><path class="cls-5" d="M11.7,91.44V88.58h.5V89h0a.86.86,0,0,1,.75-.51,1.42,1.42,0,0,1,.34,0V89A.77.77,0,0,0,13,89c-.48,0-.78.46-.78,1.16v1.3Z"/><path class="cls-5" d="M16.07,91.32a2.11,2.11,0,0,1-.89.19A1.37,1.37,0,0,1,13.69,90,1.32,1.32,0,0,1,15,88.52c.83,0,1.26.52,1.26,1.61h-2a.93.93,0,0,0,.94,1,1.7,1.7,0,0,0,.88-.28Zm-.34-1.58a.73.73,0,0,0-.72-.8c-.42,0-.7.3-.76.8Z"/><path class="cls-5" d="M19,91.44V89.89c0-.75-.27-1-.62-1-.55,0-.85.46-.85,1.17v1.33H17V88.58h.5V89h0a1,1,0,0,1,.93-.52c.72,0,1.07.43,1.07,1.21v1.71Z"/><path class="cls-5" d="M22.44,91.44V91h0a1.17,1.17,0,0,1-1,.47c-.84,0-1.22-.74-1.22-1.55s.4-1.44,1.23-1.44a1,1,0,0,1,.94.46h0V87.24h.52v4.2Zm0-1.42c0-.51-.26-1.08-.86-1.08s-.77.47-.77,1,.3,1.11.79,1.11S22.42,90.51,22.42,90Z"/><path class="cls-5" d="M26,91.32a2.14,2.14,0,0,1-.9.19A1.36,1.36,0,0,1,23.65,90,1.32,1.32,0,0,1,25,88.52c.82,0,1.26.52,1.26,1.61h-2a.93.93,0,0,0,.94,1A1.7,1.7,0,0,0,26,90.8Zm-.34-1.58a.73.73,0,0,0-.72-.8.77.77,0,0,0-.76.8Z"/><path class="cls-5" d="M27,91.44V88.58h.49V89h0a.84.84,0,0,1,.75-.51,1.42,1.42,0,0,1,.34,0V89a.77.77,0,0,0-.29,0c-.49,0-.78.46-.78,1.16v1.3Z"/><path class="cls-5" d="M28.92,90.88a1.36,1.36,0,0,0,.65.2c.28,0,.54-.12.54-.41s-.1-.29-.52-.48c-.58-.26-.72-.51-.72-.8,0-.59.46-.87,1-.87a2.28,2.28,0,0,1,.66.11l-.05.46a1.5,1.5,0,0,0-.55-.15c-.29,0-.51.12-.51.35s.2.35.56.51.68.44.68.82a.89.89,0,0,1-1,.89,1.6,1.6,0,0,1-.78-.16Z"/><path class="cls-5" d="M34.62,91.44v-.37h0a1.08,1.08,0,0,1-.89.44c-.66,0-1-.32-1-.89s.58-.94,1.37-.94h.52c0-.52-.21-.75-.7-.75a1.33,1.33,0,0,0-.83.29l0-.45a1.88,1.88,0,0,1,.94-.26c.79,0,1.15.37,1.15,1.17V91a3.78,3.78,0,0,0,0,.49Zm-.06-1.36h-.34c-.59,0-1,.18-1,.55a.51.51,0,0,0,.54.46.72.72,0,0,0,.79-.75Z"/><path class="cls-5" d="M38,91.44V89.89c0-.75-.28-1-.63-1-.55,0-.84.46-.84,1.17v1.33H36V88.58h.51V89h0a1,1,0,0,1,.93-.52c.72,0,1.07.43,1.07,1.21v1.71Z"/><path class="cls-5" d="M43.34,91.44l-1.77-3.22h0v3.22H41V87.53h.76l1.73,3.15h0V87.53h.56v3.91Z"/><path class="cls-5" d="M47.51,91.44V89.66H45.64v1.78h-.56V87.53h.56v1.64h1.87V87.53h.56v3.91Z"/><path class="cls-5" d="M49,90.82a2.16,2.16,0,0,0,.81.19.69.69,0,0,0,.77-.63c0-.29-.14-.48-.76-.76s-.92-.48-.92-1.09.49-1.07,1.25-1.07a2.74,2.74,0,0,1,.84.14l-.08.52a1.73,1.73,0,0,0-.73-.16c-.44,0-.69.19-.69.52s.4.51.74.67.94.47.94,1.19-.54,1.17-1.42,1.17a2.55,2.55,0,0,1-.81-.17Z"/><path class="cls-5" d="M8.82,98.16V94h.52v4.2Z"/><path class="cls-5" d="M10.12,96.73a1.45,1.45,0,1,1,2.9,0,1.45,1.45,0,1,1-2.9,0Zm2.34,0a1,1,0,0,0-.89-1.07,1,1,0,0,0-.89,1.07,1,1,0,0,0,.89,1.07C12.16,97.8,12.46,97.29,12.46,96.73Z"/><path class="cls-5" d="M15.73,97.72h0a1.21,1.21,0,0,1-1,.44,1.26,1.26,0,0,1-1.22-1.41,1.36,1.36,0,0,1,1.27-1.51.93.93,0,0,1,.94.49h0V95.3h.48V98c0,.88-.46,1.36-1.47,1.36a3,3,0,0,1-1-.19l.05-.49a2.17,2.17,0,0,0,1,.26.87.87,0,0,0,.89-1Zm0-1c0-.59-.28-1.1-.84-1.1s-.79.54-.79,1.07.32,1,.79,1A.89.89,0,0,0,15.73,96.76Z"/><path class="cls-5" d="M17.18,94.66v-.59h.6v.59Zm0,3.5V95.3h.52v2.86Z"/><path class="cls-5" d="M20.7,98.16V96.61c0-.75-.27-1-.62-1-.55,0-.85.46-.85,1.17v1.33h-.52V95.3h.5v.46h0a1,1,0,0,1,.93-.52c.72,0,1.07.43,1.07,1.21v1.71Z"/><path class="cls-5" d="M23.68,98.16V94h.53V95.7h0a1,1,0,0,1,1-.46c.8,0,1.23.64,1.23,1.44s-.38,1.55-1.23,1.55a1.16,1.16,0,0,1-1-.47h0v.4Zm2.16-1.45c0-.63-.29-1-.79-1s-.84.53-.84,1.08.26,1.06.84,1.06S25.84,97.27,25.84,96.71Z"/><path class="cls-5" d="M29.12,98.16v-.45h0a1,1,0,0,1-.94.52c-.71,0-1.07-.44-1.07-1.22V95.3h.53v1.54c0,.88.39,1,.63,1,.52,0,.84-.42.84-1.17V95.3h.53v2.86Z"/><path class="cls-5" d="M32.09,98.15a1.64,1.64,0,0,1-.46.08.77.77,0,0,1-.87-.83V95.73h-.64V95.3h.64v-.66l.53-.17v.83H32v.43h-.75V97.3a.45.45,0,0,0,.44.5.7.7,0,0,0,.36-.1Z"/><path class="cls-5" d="M34.27,98.15a1.64,1.64,0,0,1-.46.08.77.77,0,0,1-.87-.83V95.73H32.3V95.3h.64v-.66l.53-.17v.83h.75v.43h-.75V97.3a.45.45,0,0,0,.44.5.74.74,0,0,0,.36-.1Z"/><path class="cls-5" d="M34.69,96.73a1.46,1.46,0,1,1,2.91,0,1.46,1.46,0,1,1-2.91,0Zm2.35,0a.91.91,0,1,0-1.79,0,1,1,0,0,0,.9,1.07C36.74,97.8,37,97.29,37,96.73Z"/><path class="cls-5" d="M40.3,98.16V96.61c0-.75-.27-1-.62-1-.55,0-.85.46-.85,1.17v1.33H38.3V95.3h.51v.46h0a1,1,0,0,1,.94-.52c.72,0,1.07.43,1.07,1.21v1.71Z"/><path class="cls-5" d="M41.74,98.16v-.63h.63v.63Z"/><path class="cls-5" d="M78.13,84.72v-.6c.24-.21.57-.5.86-.77a2.46,2.46,0,0,0,1-1.53.68.68,0,0,0-.75-.62,2,2,0,0,0-.9.25L78.25,81a2.66,2.66,0,0,1,1-.23,1.13,1.13,0,0,1,1.27,1.11c0,.46-.3,1.11-1.82,2.41h1.88v.46Z"/><path class="cls-5" d="M81.43,84.72v-.63h.63v.63Z"/><path class="cls-5" d="M85.36,84.72V81.3H84.14v-.49h3v.49H85.92v3.42Z"/><path class="cls-5" d="M89.64,84.72v-1.5c0-.6-.13-1-.62-1-.72,0-.85.74-.85,1.16v1.34h-.53v-4.2h.53v1.75h0a1,1,0,0,1,.92-.47c.72,0,1.07.44,1.07,1.22v1.7Z"/><path class="cls-5" d="M93.25,84.6a2.11,2.11,0,0,1-.89.19,1.37,1.37,0,0,1-1.49-1.55,1.32,1.32,0,0,1,1.34-1.44c.83,0,1.26.52,1.26,1.61h-2a.93.93,0,0,0,.94,1,1.7,1.7,0,0,0,.88-.28ZM92.91,83a.73.73,0,0,0-.72-.8c-.42,0-.7.3-.76.8Z"/><path class="cls-5" d="M97.75,84.72v-.45h0a1,1,0,0,1-.94.52c-.72,0-1.07-.44-1.07-1.22V81.86h.53V83.4c0,.88.39,1,.63,1,.52,0,.84-.42.84-1.17V81.86h.53v2.86Z"/><path class="cls-5" d="M98.94,84.16a1.4,1.4,0,0,0,.66.2c.28,0,.53-.12.53-.41s-.1-.29-.51-.48c-.59-.26-.72-.51-.72-.8,0-.59.45-.87,1-.87a2.28,2.28,0,0,1,.66.11l0,.46a1.45,1.45,0,0,0-.55-.15c-.29,0-.5.12-.5.35s.19.35.55.51.68.44.68.82a.89.89,0,0,1-1,.89,1.6,1.6,0,0,1-.78-.16Z"/><path class="cls-5" d="M103.52,84.6a2.11,2.11,0,0,1-.89.19,1.37,1.37,0,0,1-1.49-1.55,1.32,1.32,0,0,1,1.34-1.44c.83,0,1.26.52,1.26,1.61h-2a.93.93,0,0,0,.94,1,1.7,1.7,0,0,0,.88-.28ZM103.18,83a.73.73,0,0,0-.72-.8c-.42,0-.7.3-.76.8Z"/><path class="cls-5" d="M104.45,84.72V81.86h.49v.45h0a.87.87,0,0,1,.75-.51,1.42,1.42,0,0,1,.34,0v.47a.74.74,0,0,0-.29,0c-.48,0-.78.46-.78,1.16v1.3Z"/><path class="cls-5" d="M110.06,84.67a1.53,1.53,0,0,1-.66.12,1.44,1.44,0,0,1-1.45-1.5,1.4,1.4,0,0,1,1.45-1.49,2,2,0,0,1,.64.11l-.05.43a1.54,1.54,0,0,0-.57-.12,1,1,0,0,0-.91,1.07,1,1,0,0,0,.95,1.07,1.13,1.13,0,0,0,.56-.16Z"/><path class="cls-5" d="M110.73,84.72v-4.2h.53v4.2Z"/><path class="cls-5" d="M112.26,81.23v-.6h.59v.6Zm0,3.49V81.86h.53v2.86Z"/><path class="cls-5" d="M115.66,84.67a1.53,1.53,0,0,1-.66.12,1.45,1.45,0,0,1-1.46-1.5A1.41,1.41,0,0,1,115,81.8a2,2,0,0,1,.64.11l0,.43a1.54,1.54,0,0,0-.57-.12,1,1,0,0,0-.92,1.07,1,1,0,0,0,1,1.07,1.13,1.13,0,0,0,.56-.16Z"/><path class="cls-5" d="M118.07,84.72l-1.28-1.47v1.47h-.52v-4.2h.52V83l1.15-1.16h.72l-1.33,1.27,1.5,1.59Z"/><path class="cls-5" d="M119.17,84.16a1.36,1.36,0,0,0,.65.2c.28,0,.54-.12.54-.41s-.1-.29-.52-.48c-.58-.26-.72-.51-.72-.8,0-.59.46-.87,1-.87a2.28,2.28,0,0,1,.66.11l-.05.46a1.5,1.5,0,0,0-.55-.15c-.29,0-.51.12-.51.35s.2.35.56.51.68.44.68.82a.89.89,0,0,1-1,.89,1.6,1.6,0,0,1-.78-.16Z"/><path class="cls-5" d="M124.68,84.71a1.64,1.64,0,0,1-.46.08.77.77,0,0,1-.87-.83V82.29h-.64v-.43h.64V81.2l.53-.17v.83h.75v.43h-.75v1.57a.45.45,0,0,0,.44.5.74.74,0,0,0,.36-.1Z"/><path class="cls-5" d="M127.29,84.72v-1.5c0-.6-.13-1-.62-1-.72,0-.85.74-.85,1.16v1.34h-.53v-4.2h.53v1.75h0a1,1,0,0,1,.92-.47c.72,0,1.07.44,1.07,1.22v1.7Z"/><path class="cls-5" d="M130.9,84.6a2.11,2.11,0,0,1-.89.19,1.37,1.37,0,0,1-1.49-1.55,1.33,1.33,0,0,1,1.34-1.44c.83,0,1.26.52,1.26,1.61h-2a.94.94,0,0,0,.94,1,1.64,1.64,0,0,0,.88-.28ZM130.56,83a.72.72,0,0,0-.71-.8c-.42,0-.71.3-.77.8Z"/><path class="cls-5" d="M84,91.44l-1.77-3.22h0v3.22h-.56V87.53h.76l1.73,3.15h0V87.53h.56v3.91Z"/><path class="cls-5" d="M88.13,91.44V89.66H86.26v1.78H85.7V87.53h.56v1.64h1.87V87.53h.56v3.91Z"/><path class="cls-5" d="M89.58,90.82a2.16,2.16,0,0,0,.81.19.69.69,0,0,0,.77-.63c0-.29-.14-.48-.76-.76s-.92-.48-.92-1.09.49-1.07,1.25-1.07a2.79,2.79,0,0,1,.84.14l-.08.52a1.73,1.73,0,0,0-.73-.16c-.44,0-.69.19-.69.52s.4.51.73.67,1,.47,1,1.19-.54,1.17-1.42,1.17a2.55,2.55,0,0,1-.81-.17Z"/><path class="cls-5" d="M94.09,91.44v-4.2h.52v4.2Z"/><path class="cls-5" d="M95.38,90a1.46,1.46,0,1,1,2.91,0,1.46,1.46,0,1,1-2.91,0Zm2.35,0a1,1,0,0,0-.9-1.07A1,1,0,0,0,95.94,90a1,1,0,0,0,.9,1.07C97.43,91.08,97.73,90.57,97.73,90Z"/><path class="cls-5" d="M101,91h0a1.18,1.18,0,0,1-1,.44A1.26,1.26,0,0,1,98.81,90a1.36,1.36,0,0,1,1.27-1.51A.93.93,0,0,1,101,89h0v-.43h.49v2.74c0,.88-.46,1.36-1.47,1.36a3.09,3.09,0,0,1-1-.19l.06-.49a2.17,2.17,0,0,0,1,.26.87.87,0,0,0,.9-1Zm0-1c0-.59-.28-1.1-.84-1.1s-.79.54-.79,1.07.32,1,.79,1A.89.89,0,0,0,101,90Z"/><path class="cls-5" d="M102.45,88v-.6H103V88Zm0,3.49V88.58H103v2.86Z"/><path class="cls-5" d="M106,91.44V89.89c0-.75-.27-1-.62-1-.55,0-.85.46-.85,1.17v1.33H104V88.58h.51V89h0a1,1,0,0,1,.93-.52c.72,0,1.07.43,1.07,1.21v1.71Z"/><path class="cls-5" d="M109,91.44v-4.2h.53V89h0a1,1,0,0,1,1-.46c.8,0,1.23.64,1.23,1.44s-.38,1.55-1.23,1.55a1.16,1.16,0,0,1-1-.47h0v.4ZM111.11,90c0-.63-.29-1-.79-1s-.84.53-.84,1.08.26,1.06.84,1.06S111.11,90.55,111.11,90Z"/><path class="cls-5" d="M114.39,91.44V91h0a1,1,0,0,1-.94.52c-.71,0-1.07-.44-1.07-1.22V88.58h.53v1.54c0,.88.39,1,.63,1,.52,0,.84-.42.84-1.17V88.58h.53v2.86Z"/><path class="cls-5" d="M117.36,91.43a1.64,1.64,0,0,1-.46.08.77.77,0,0,1-.87-.83V89h-.64v-.43H116v-.66l.53-.17v.83h.75V89h-.75v1.57a.45.45,0,0,0,.44.5.74.74,0,0,0,.36-.1Z"/><path class="cls-5" d="M119.54,91.43a1.64,1.64,0,0,1-.46.08.76.76,0,0,1-.87-.83V89h-.65v-.43h.65v-.66l.52-.17v.83h.76V89h-.76v1.57a.45.45,0,0,0,.45.5.74.74,0,0,0,.36-.1Z"/><path class="cls-5" d="M120,90a1.46,1.46,0,1,1,2.91,0A1.46,1.46,0,1,1,120,90Zm2.35,0a.91.91,0,1,0-1.79,0,1,1,0,0,0,.9,1.07C122,91.08,122.31,90.57,122.31,90Z"/><path class="cls-5" d="M125.57,91.44V89.89c0-.75-.27-1-.63-1-.54,0-.84.46-.84,1.17v1.33h-.53V88.58h.51V89h0a1,1,0,0,1,.94-.52c.72,0,1.07.43,1.07,1.21v1.71Z"/><path class="cls-5" d="M127,91.44v-.63h.63v.63Z"/><path class="cls-5" d="M153.16,84.11a2,2,0,0,0,.86.22c.47,0,.95-.2.95-.67s-.35-.74-1-.74h-.35v-.46h.3c.52,0,1-.19,1-.64s-.28-.62-.77-.62a1.77,1.77,0,0,0-.86.22l0-.5a3,3,0,0,1,1-.18c.75,0,1.28.38,1.28,1.06a.93.93,0,0,1-.84.9h0a1,1,0,0,1,.87,1c0,.72-.5,1.11-1.54,1.11a3.37,3.37,0,0,1-.89-.15Z"/><path class="cls-5" d="M156.42,84.72v-.63h.63v.63Z"/><path class="cls-5" d="M160.34,84.72V81.3h-1.21v-.49h3v.49H160.9v3.42Z"/><path class="cls-5" d="M164.63,84.72v-1.5c0-.6-.14-1-.62-1-.73,0-.85.74-.85,1.16v1.34h-.53v-4.2h.53v1.75h0a1,1,0,0,1,.91-.47c.73,0,1.07.44,1.07,1.22v1.7Z"/><path class="cls-5" d="M168.24,84.6a2.12,2.12,0,0,1-.9.19,1.37,1.37,0,0,1-1.48-1.55,1.32,1.32,0,0,1,1.34-1.44c.83,0,1.26.52,1.26,1.61h-2a.93.93,0,0,0,.94,1,1.7,1.7,0,0,0,.88-.28ZM167.9,83a.73.73,0,0,0-.72-.8c-.42,0-.7.3-.76.8Z"/><path class="cls-5" d="M172.74,84.72v-.45h0a1,1,0,0,1-.94.52c-.72,0-1.07-.44-1.07-1.22V81.86h.53V83.4c0,.88.38,1,.62,1,.53,0,.85-.42.85-1.17V81.86h.53v2.86Z"/><path class="cls-5" d="M173.93,84.16a1.4,1.4,0,0,0,.65.2c.28,0,.54-.12.54-.41s-.1-.29-.51-.48c-.59-.26-.73-.51-.73-.8,0-.59.46-.87,1-.87a2.28,2.28,0,0,1,.66.11l-.05.46a1.45,1.45,0,0,0-.55-.15c-.29,0-.51.12-.51.35s.2.35.56.51.68.44.68.82a.89.89,0,0,1-1,.89,1.6,1.6,0,0,1-.78-.16Z"/><path class="cls-5" d="M178.51,84.6a2.12,2.12,0,0,1-.9.19,1.37,1.37,0,0,1-1.48-1.55,1.32,1.32,0,0,1,1.34-1.44c.83,0,1.26.52,1.26,1.61h-2a.93.93,0,0,0,.94,1,1.7,1.7,0,0,0,.88-.28ZM178.17,83a.73.73,0,0,0-.72-.8c-.42,0-.7.3-.76.8Z"/><path class="cls-5" d="M179.43,84.72V81.86h.5v.45h0a.86.86,0,0,1,.75-.51,1.42,1.42,0,0,1,.34,0v.47a.77.77,0,0,0-.29,0c-.48,0-.78.46-.78,1.16v1.3Z"/><path class="cls-5" d="M183.2,81.23v-.6h.6v.6Zm0,3.49V81.86h.52v2.86Z"/><path class="cls-5" d="M184.51,84.16a1.4,1.4,0,0,0,.66.2c.28,0,.54-.12.54-.41s-.11-.29-.52-.48c-.59-.26-.72-.51-.72-.8,0-.59.45-.87,1-.87a2.27,2.27,0,0,1,.65.11l0,.46a1.5,1.5,0,0,0-.56-.15c-.28,0-.5.12-.5.35s.19.35.55.51.69.44.69.82a.9.9,0,0,1-1,.89,1.6,1.6,0,0,1-.78-.16Z"/><path class="cls-5" d="M188.46,84.72V81.86H189v.45h0a.87.87,0,0,1,.75-.51,1.45,1.45,0,0,1,.35,0v.47a.8.8,0,0,0-.29,0c-.49,0-.78.46-.78,1.16v1.3Z"/><path class="cls-5" d="M192.83,84.6a2.14,2.14,0,0,1-.9.19,1.36,1.36,0,0,1-1.48-1.55,1.32,1.32,0,0,1,1.34-1.44c.83,0,1.26.52,1.26,1.61h-2a.93.93,0,0,0,.94,1,1.7,1.7,0,0,0,.88-.28ZM192.49,83a.73.73,0,0,0-.72-.8.77.77,0,0,0-.76.8Z"/><path class="cls-5" d="M195.77,84.72v-.4h0a1.14,1.14,0,0,1-1,.47c-.85,0-1.23-.74-1.23-1.55s.4-1.44,1.23-1.44a1,1,0,0,1,1,.46h0V80.52h.53v4.2Zm0-1.42c0-.51-.25-1.08-.85-1.08s-.78.47-.78,1,.3,1.11.79,1.11S195.75,83.79,195.75,83.3Z"/><path class="cls-5" d="M197.21,81.23v-.6h.59v.6Zm0,3.49V81.86h.53v2.86Z"/><path class="cls-5" d="M198.73,84.72V81.86h.49v.45h0a.87.87,0,0,1,.75-.51,1.45,1.45,0,0,1,.35,0v.47a.8.8,0,0,0-.29,0c-.49,0-.78.46-.78,1.16v1.3Z"/><path class="cls-5" d="M203.1,84.6a2.14,2.14,0,0,1-.9.19,1.36,1.36,0,0,1-1.48-1.55,1.32,1.32,0,0,1,1.34-1.44c.83,0,1.26.52,1.26,1.61h-2a.93.93,0,0,0,.94,1,1.7,1.7,0,0,0,.88-.28ZM202.76,83a.73.73,0,0,0-.72-.8.77.77,0,0,0-.76.8Z"/><path class="cls-5" d="M205.9,84.67a1.53,1.53,0,0,1-.66.12,1.45,1.45,0,0,1-1.45-1.5,1.4,1.4,0,0,1,1.45-1.49,2,2,0,0,1,.64.11l0,.43a1.58,1.58,0,0,0-.57-.12,1,1,0,0,0-.92,1.07,1,1,0,0,0,1,1.07,1.13,1.13,0,0,0,.56-.16Z"/><path class="cls-5" d="M208.07,84.71a1.57,1.57,0,0,1-.45.08.77.77,0,0,1-.88-.83V82.29h-.64v-.43h.64V81.2l.53-.17v.83H208v.43h-.76v1.57a.45.45,0,0,0,.44.5.67.67,0,0,0,.36-.1Z"/><path class="cls-5" d="M210.88,84.6a2.14,2.14,0,0,1-.9.19,1.36,1.36,0,0,1-1.48-1.55,1.32,1.32,0,0,1,1.33-1.44c.83,0,1.26.52,1.26,1.61h-2a.93.93,0,0,0,.94,1,1.7,1.7,0,0,0,.88-.28ZM210.53,83a.71.71,0,0,0-.71-.8.77.77,0,0,0-.76.8Z"/><path class="cls-5" d="M213.82,84.72v-.4h0a1.15,1.15,0,0,1-1,.47c-.85,0-1.23-.74-1.23-1.55s.4-1.44,1.23-1.44a1,1,0,0,1,.95.46h0V80.52h.53v4.2Zm0-1.42c0-.51-.25-1.08-.85-1.08s-.78.47-.78,1,.3,1.11.79,1.11S213.8,83.79,213.8,83.3Z"/><path class="cls-5" d="M168.55,91.43a1.63,1.63,0,0,1-.45.08.77.77,0,0,1-.88-.83V89h-.64v-.43h.64v-.66l.53-.17v.83h.76V89h-.76v1.57a.45.45,0,0,0,.44.5.67.67,0,0,0,.36-.1Z"/><path class="cls-5" d="M169,90a1.45,1.45,0,1,1,2.9,0,1.45,1.45,0,1,1-2.9,0Zm2.34,0a.91.91,0,1,0-1.78,0,1,1,0,0,0,.89,1.07C171,91.08,171.32,90.57,171.32,90Z"/><path class="cls-5" d="M176.53,91.44l-1.77-3.22h0v3.22h-.56V87.53H175l1.73,3.15h0V87.53h.56v3.91Z"/><path class="cls-5" d="M180.7,91.44V89.66h-1.87v1.78h-.56V87.53h.56v1.64h1.87V87.53h.56v3.91Z"/><path class="cls-5" d="M182.15,90.82A2.16,2.16,0,0,0,183,91a.69.69,0,0,0,.77-.63c0-.29-.14-.48-.76-.76s-.92-.48-.92-1.09.49-1.07,1.25-1.07a2.68,2.68,0,0,1,.83.14l-.07.52a1.76,1.76,0,0,0-.73-.16c-.44,0-.69.19-.69.52s.4.51.73.67.95.47.95,1.19-.54,1.17-1.42,1.17a2.55,2.55,0,0,1-.81-.17Z"/><path class="cls-5" d="M186.65,91.44v-4.2h.53v4.2Z"/><path class="cls-5" d="M188,90a1.46,1.46,0,1,1,2.91,0A1.46,1.46,0,1,1,188,90Zm2.35,0a.91.91,0,1,0-1.79,0,1,1,0,0,0,.9,1.07C190,91.08,190.3,90.57,190.3,90Z"/><path class="cls-5" d="M193.56,91h0a1.18,1.18,0,0,1-1,.44A1.26,1.26,0,0,1,191.37,90a1.37,1.37,0,0,1,1.28-1.51.93.93,0,0,1,.94.49h0v-.43h.49v2.74c0,.88-.46,1.36-1.47,1.36a3,3,0,0,1-1-.19l.06-.49a2.17,2.17,0,0,0,1,.26.87.87,0,0,0,.89-1Zm0-1c0-.59-.28-1.1-.83-1.1s-.8.54-.8,1.07.32,1,.8,1A.89.89,0,0,0,193.56,90Z"/><path class="cls-5" d="M195,88v-.6h.59V88Zm0,3.49V88.58h.53v2.86Z"/><path class="cls-5" d="M198.54,91.44V89.89c0-.75-.27-1-.63-1-.54,0-.84.46-.84,1.17v1.33h-.53V88.58h.51V89h0a1,1,0,0,1,.94-.52c.72,0,1.07.43,1.07,1.21v1.71Z"/><path class="cls-5" d="M200,91.44v-.63h.63v.63Z"/><path class="cls-5" d="M234.61,84.72v-.89h-1.82v-.46l1.58-2.56h.8v2.56h.49v.46h-.49v.89Zm0-3.45h0l-1.22,2.1h1.23Z"/><path class="cls-5" d="M236.26,84.72v-.63h.63v.63Z"/><path class="cls-5" d="M240.19,84.72V81.3H239v-.49h3v.49h-1.21v3.42Z"/><path class="cls-5" d="M244.47,84.72v-1.5c0-.6-.13-1-.62-1-.72,0-.85.74-.85,1.16v1.34h-.53v-4.2H243v1.75h0a1,1,0,0,1,.92-.47c.72,0,1.07.44,1.07,1.22v1.7Z"/><path class="cls-5" d="M248.08,84.6a2.11,2.11,0,0,1-.89.19,1.37,1.37,0,0,1-1.49-1.55A1.33,1.33,0,0,1,247,81.8c.83,0,1.26.52,1.26,1.61h-2a.94.94,0,0,0,.94,1,1.67,1.67,0,0,0,.88-.28ZM247.74,83a.72.72,0,0,0-.72-.8c-.42,0-.7.3-.76.8Z"/><path class="cls-5" d="M252.58,84.72v-.45h0a1,1,0,0,1-.94.52c-.71,0-1.07-.44-1.07-1.22V81.86h.53V83.4c0,.88.39,1,.63,1,.52,0,.84-.42.84-1.17V81.86h.53v2.86Z"/><path class="cls-5" d="M253.77,84.16a1.4,1.4,0,0,0,.66.2c.28,0,.54-.12.54-.41s-.11-.29-.52-.48c-.59-.26-.72-.51-.72-.8,0-.59.45-.87,1-.87a2.27,2.27,0,0,1,.65.11l0,.46a1.5,1.5,0,0,0-.56-.15c-.28,0-.5.12-.5.35s.19.35.55.51.69.44.69.82a.9.9,0,0,1-1,.89,1.6,1.6,0,0,1-.78-.16Z"/><path class="cls-5" d="M258.35,84.6a2.11,2.11,0,0,1-.89.19A1.37,1.37,0,0,1,256,83.24a1.33,1.33,0,0,1,1.34-1.44c.83,0,1.26.52,1.26,1.61h-2a.94.94,0,0,0,.94,1,1.67,1.67,0,0,0,.88-.28ZM258,83a.72.72,0,0,0-.72-.8c-.41,0-.7.3-.76.8Z"/><path class="cls-5" d="M259.28,84.72V81.86h.49v.45h0a.87.87,0,0,1,.75-.51,1.42,1.42,0,0,1,.34,0v.47a.74.74,0,0,0-.29,0c-.48,0-.78.46-.78,1.16v1.3Z"/><path class="cls-5" d="M264.89,84.67a1.53,1.53,0,0,1-.66.12,1.45,1.45,0,0,1-1.45-1.5,1.4,1.4,0,0,1,1.45-1.49,2,2,0,0,1,.64.11l0,.43a1.62,1.62,0,0,0-.57-.12,1,1,0,0,0-.92,1.07,1,1,0,0,0,1,1.07,1.13,1.13,0,0,0,.56-.16Z"/><path class="cls-5" d="M265.31,83.29a1.45,1.45,0,1,1,2.9,0,1.45,1.45,0,1,1-2.9,0Zm2.34,0a.91.91,0,1,0-1.78,0,1,1,0,0,0,.89,1.07C267.35,84.36,267.65,83.85,267.65,83.29Z"/><path class="cls-5" d="M272.49,84.72V83c0-.49-.16-.79-.51-.79-.51,0-.75.47-.75,1.07v1.43h-.53V83c0-.47-.15-.79-.51-.79s-.75.47-.75,1.06v1.44h-.53V81.86h.5v.42h0a1,1,0,0,1,.91-.48.85.85,0,0,1,.81.55,1,1,0,0,1,.89-.55c.64,0,1,.38,1,1.09v1.83Z"/><path class="cls-5" d="M273.9,85.9v-4h.5v.41h0a1.18,1.18,0,0,1,1-.47c.8,0,1.23.64,1.23,1.44s-.38,1.55-1.22,1.55a1,1,0,0,1-.95-.46h0V85.9Zm2.15-2.63c0-.73-.36-1-.78-1s-.84.53-.84,1.08.26,1.06.84,1.06S276.05,83.85,276.05,83.27Z"/><path class="cls-5" d="M277.39,84.72v-4.2h.52v4.2Z"/><path class="cls-5" d="M281.07,84.6a2.14,2.14,0,0,1-.9.19,1.36,1.36,0,0,1-1.48-1.55A1.32,1.32,0,0,1,280,81.8c.83,0,1.26.52,1.26,1.61h-2a.93.93,0,0,0,.94,1,1.7,1.7,0,0,0,.88-.28ZM280.72,83a.71.71,0,0,0-.71-.8.77.77,0,0,0-.76.8Z"/><path class="cls-5" d="M283.55,84.71a1.57,1.57,0,0,1-.45.08.76.76,0,0,1-.87-.83V82.29h-.65v-.43h.65V81.2l.52-.17v.83h.76v.43h-.76v1.57a.45.45,0,0,0,.44.5.67.67,0,0,0,.36-.1Z"/><path class="cls-5" d="M286.36,84.6a2.14,2.14,0,0,1-.9.19A1.36,1.36,0,0,1,284,83.24a1.32,1.32,0,0,1,1.34-1.44c.83,0,1.26.52,1.26,1.61h-2a.93.93,0,0,0,.94,1,1.7,1.7,0,0,0,.88-.28ZM286,83a.73.73,0,0,0-.72-.8.77.77,0,0,0-.76.8Z"/><path class="cls-5" d="M287.07,84.16a1.4,1.4,0,0,0,.66.2c.27,0,.53-.12.53-.41s-.1-.29-.51-.48c-.59-.26-.73-.51-.73-.8,0-.59.46-.87,1-.87a2.28,2.28,0,0,1,.66.11l-.05.46a1.45,1.45,0,0,0-.55-.15c-.29,0-.51.12-.51.35s.2.35.56.51.68.44.68.82a.89.89,0,0,1-1,.89,1.6,1.6,0,0,1-.78-.16Z"/><path class="cls-5" d="M292.77,84.72v-.37h0a1.07,1.07,0,0,1-.89.44c-.66,0-1-.32-1-.89s.57-.94,1.36-.94h.52c0-.52-.2-.75-.7-.75a1.33,1.33,0,0,0-.83.29l0-.44a1.82,1.82,0,0,1,.94-.27c.79,0,1.15.37,1.15,1.17v1.26c0,.17,0,.36,0,.49Zm-.06-1.36h-.34c-.59,0-1,.18-1,.55a.5.5,0,0,0,.53.46.72.72,0,0,0,.79-.75Z"/><path class="cls-5" d="M232.89,91.44v-4.2h.53v4.2Z"/><path class="cls-5" d="M234.19,90a1.46,1.46,0,1,1,2.91,0,1.46,1.46,0,1,1-2.91,0Zm2.35,0a.91.91,0,1,0-1.79,0,1,1,0,0,0,.9,1.07C236.24,91.08,236.54,90.57,236.54,90Z"/><path class="cls-5" d="M239.8,91h0a1.19,1.19,0,0,1-1,.44A1.26,1.26,0,0,1,237.61,90a1.37,1.37,0,0,1,1.28-1.51.93.93,0,0,1,.94.49h0v-.43h.49v2.74c0,.88-.46,1.36-1.47,1.36a3,3,0,0,1-1-.19l.06-.49a2.17,2.17,0,0,0,1,.26.87.87,0,0,0,.89-1Zm0-1c0-.59-.28-1.1-.83-1.1s-.8.54-.8,1.07.32,1,.8,1A.89.89,0,0,0,239.8,90Z"/><path class="cls-5" d="M241.26,88v-.6h.59V88Zm0,3.49V88.58h.53v2.86Z"/><path class="cls-5" d="M244.78,91.44V89.89c0-.75-.27-1-.63-1-.54,0-.84.46-.84,1.17v1.33h-.53V88.58h.51V89h0a1,1,0,0,1,.94-.52c.72,0,1.07.43,1.07,1.21v1.71Z"/><path class="cls-5" d="M249.51,91.44v-.37h0a1.05,1.05,0,0,1-.89.44c-.66,0-1-.32-1-.89s.58-.94,1.37-.94h.52c0-.52-.21-.75-.71-.75a1.35,1.35,0,0,0-.83.29l0-.45a1.85,1.85,0,0,1,.94-.26c.79,0,1.14.37,1.14,1.17V91a3.68,3.68,0,0,0,0,.49Zm0-1.36h-.34c-.6,0-1,.18-1,.55a.5.5,0,0,0,.54.46.73.73,0,0,0,.79-.75Z"/><path class="cls-5" d="M252.87,91.44V89.89c0-.75-.27-1-.62-1-.55,0-.85.46-.85,1.17v1.33h-.53V88.58h.51V89h0a1,1,0,0,1,.93-.52c.72,0,1.07.43,1.07,1.21v1.71Z"/><path class="cls-5" d="M256.32,91.44V91h0a1.17,1.17,0,0,1-1,.47c-.84,0-1.22-.74-1.22-1.55s.4-1.44,1.23-1.44a1,1,0,0,1,.94.46h0V87.24h.53v4.2Zm0-1.42c0-.51-.25-1.08-.85-1.08s-.77.47-.77,1,.3,1.11.79,1.11S256.29,90.51,256.29,90Z"/><path class="cls-5" d="M261,91.44v-.37h0a1.09,1.09,0,0,1-.9.44c-.66,0-1-.32-1-.89s.58-.94,1.37-.94H261c0-.52-.21-.75-.71-.75a1.32,1.32,0,0,0-.82.29l0-.45a1.85,1.85,0,0,1,.94-.26c.79,0,1.15.37,1.15,1.17V91a3.78,3.78,0,0,0,0,.49ZM261,90.08h-.34c-.59,0-1,.18-1,.55a.51.51,0,0,0,.54.46.73.73,0,0,0,.79-.75Z"/><path class="cls-5" d="M264.4,91.44V91h0a1,1,0,0,1-.93.52c-.72,0-1.07-.44-1.07-1.22V88.58h.52v1.54c0,.88.39,1,.63,1,.53,0,.85-.42.85-1.17V88.58h.52v2.86Z"/><path class="cls-5" d="M267.37,91.43a1.57,1.57,0,0,1-.45.08.77.77,0,0,1-.88-.83V89h-.64v-.43H266v-.66l.53-.17v.83h.76V89h-.76v1.57a.45.45,0,0,0,.44.5.67.67,0,0,0,.36-.1Z"/><path class="cls-5" d="M270,91.44v-1.5c0-.6-.14-1-.63-1-.72,0-.85.74-.85,1.16v1.34H268v-4.2h.52V89h0a1,1,0,0,1,.92-.47c.73,0,1.07.44,1.07,1.22v1.7Z"/><path class="cls-5" d="M271.22,90a1.45,1.45,0,1,1,2.9,0,1.45,1.45,0,1,1-2.9,0Zm2.34,0a.91.91,0,1,0-1.78,0,1,1,0,0,0,.89,1.07C273.26,91.08,273.56,90.57,273.56,90Z"/><path class="cls-5" d="M274.83,91.44V88.58h.49V89h0a.87.87,0,0,1,.75-.51,1.45,1.45,0,0,1,.35,0V89a.82.82,0,0,0-.3,0c-.48,0-.77.46-.77,1.16v1.3Z"/><path class="cls-5" d="M277,88v-.6h.6V88Zm0,3.49V88.58h.52v2.86Z"/><path class="cls-5" d="M278.35,90.88a1.4,1.4,0,0,0,.66.2c.28,0,.53-.12.53-.41s-.1-.29-.51-.48c-.59-.26-.72-.51-.72-.8,0-.59.45-.87,1-.87a2.28,2.28,0,0,1,.66.11l0,.46a1.5,1.5,0,0,0-.56-.15c-.28,0-.5.12-.5.35s.19.35.55.51.68.44.68.82a.89.89,0,0,1-1,.89,1.6,1.6,0,0,1-.78-.16Z"/><path class="cls-5" d="M282.5,91.44v-.37h0a1.05,1.05,0,0,1-.89.44c-.66,0-1-.32-1-.89s.58-.94,1.37-.94h.52c0-.52-.21-.75-.71-.75a1.3,1.3,0,0,0-.82.29l0-.45a1.85,1.85,0,0,1,.94-.26c.79,0,1.15.37,1.15,1.17V91a3.78,3.78,0,0,0,0,.49Zm-.06-1.36h-.34c-.6,0-1,.18-1,.55a.5.5,0,0,0,.54.46.73.73,0,0,0,.79-.75Z"/><path class="cls-5" d="M285.42,91.43a1.63,1.63,0,0,1-.45.08.77.77,0,0,1-.88-.83V89h-.64v-.43h.64v-.66l.53-.17v.83h.75V89h-.75v1.57a.45.45,0,0,0,.44.5.7.7,0,0,0,.36-.1Z"/><path class="cls-5" d="M286.07,88v-.6h.59V88Zm0,3.49V88.58h.53v2.86Z"/><path class="cls-5" d="M287.4,90a1.46,1.46,0,1,1,2.91,0,1.46,1.46,0,1,1-2.91,0Zm2.35,0A.91.91,0,1,0,288,90a1,1,0,0,0,.9,1.07C289.45,91.08,289.75,90.57,289.75,90Z"/><path class="cls-5" d="M293,91.44V89.89c0-.75-.27-1-.63-1-.54,0-.84.46-.84,1.17v1.33H291V88.58h.51V89h0a1,1,0,0,1,.94-.52c.72,0,1.07.43,1.07,1.21v1.71Z"/><path class="cls-5" d="M236.91,98.16V95.73h-.68V95.3h.68V95c0-.75.24-1.13,1-1.13a1.59,1.59,0,0,1,.36,0l0,.42a.9.9,0,0,0-.25,0c-.38,0-.51.19-.51.63v.35h.76v.43h-.76v2.43Zm1.9,0V94h.53v4.2Z"/><path class="cls-5" d="M240.11,96.73a1.46,1.46,0,1,1,2.91,0,1.46,1.46,0,1,1-2.91,0Zm2.35,0a.91.91,0,1,0-1.79,0,.91.91,0,1,0,1.79,0Z"/><path class="cls-5" d="M246.34,98.16l-.74-2.4h0l-.72,2.4h-.61l-.92-2.86h.58l.65,2.37h0l.73-2.37h.62l.72,2.37h0l.7-2.37h.51L247,98.16Z"/><path class="cls-5" d="M252.56,98.16l-.74-2.4h0l-.72,2.4h-.61l-.92-2.86h.58l.65,2.37h0l.73-2.37h.62l.72,2.37h0l.7-2.37h.51l-.92,2.86Z"/><path class="cls-5" d="M254.64,94.66v-.59h.59v.59Zm0,3.5V95.3h.53v2.86Z"/><path class="cls-5" d="M257.73,98.15a1.64,1.64,0,0,1-.46.08.76.76,0,0,1-.87-.83V95.73h-.65V95.3h.65v-.66l.52-.17v.83h.76v.43h-.76V97.3a.45.45,0,0,0,.45.5.74.74,0,0,0,.36-.1Z"/><path class="cls-5" d="M260.34,98.16v-1.5c0-.6-.13-1-.62-1-.72,0-.85.74-.85,1.16v1.34h-.53V94h.53v1.75h0a1,1,0,0,1,.92-.47c.72,0,1.07.44,1.07,1.22v1.7Z"/><path class="cls-5" d="M265.71,98.16,263.94,95h0v3.21h-.56V94.25h.77l1.72,3.15h0V94.25h.56v3.91Z"/><path class="cls-5" d="M269.87,98.16V96.38H268v1.78h-.56V94.25H268v1.64h1.87V94.25h.56v3.91Z"/><path class="cls-5" d="M271.32,97.54a2.16,2.16,0,0,0,.81.19.69.69,0,0,0,.77-.63c0-.29-.14-.48-.76-.76s-.92-.48-.92-1.09.49-1.07,1.26-1.07a2.73,2.73,0,0,1,.83.14l-.08.52a1.73,1.73,0,0,0-.73-.16c-.43,0-.69.19-.69.52s.41.51.74.67.94.47.94,1.19-.54,1.17-1.42,1.17a2.55,2.55,0,0,1-.8-.17Z"/><path class="cls-5" d="M275.83,98.16V94h.53v4.2Z"/><path class="cls-5" d="M277.13,96.73a1.45,1.45,0,1,1,2.9,0,1.45,1.45,0,1,1-2.9,0Zm2.34,0a.91.91,0,1,0-1.78,0,1,1,0,0,0,.89,1.07C279.17,97.8,279.47,97.29,279.47,96.73Z"/><path class="cls-5" d="M282.74,97.72h0a1.2,1.2,0,0,1-1,.44,1.26,1.26,0,0,1-1.22-1.41,1.37,1.37,0,0,1,1.28-1.51,1,1,0,0,1,.94.49h0V95.3h.49V98c0,.88-.47,1.36-1.48,1.36a3,3,0,0,1-1-.19l.05-.49a2.2,2.2,0,0,0,1,.26.87.87,0,0,0,.89-1Zm0-1c0-.59-.28-1.1-.84-1.1s-.79.54-.79,1.07.32,1,.79,1A.89.89,0,0,0,282.74,96.76Z"/><path class="cls-5" d="M284.19,94.66v-.59h.6v.59Zm0,3.5V95.3h.52v2.86Z"/><path class="cls-5" d="M287.72,98.16V96.61c0-.75-.28-1-.63-1-.55,0-.85.46-.85,1.17v1.33h-.52V95.3h.51v.46h0a1,1,0,0,1,.93-.52c.72,0,1.07.43,1.07,1.21v1.71Z"/><path class="cls-5" d="M289.16,98.16v-.63h.62v.63Z"/><path class="cls-5" d="M317.82,84.13a1.52,1.52,0,0,0,.81.2.81.81,0,1,0,0-1.61,1.64,1.64,0,0,0-.75.15l0-2.06H320v.46h-1.62l0,1a2,2,0,0,1,.5-.06,1.23,1.23,0,0,1,1.27,1.21,1.34,1.34,0,0,1-1.5,1.32,2.41,2.41,0,0,1-.83-.13Z"/><path class="cls-5" d="M320.93,84.72v-.63h.63v.63Z"/><path class="cls-5" d="M326.41,84.72l-1.77-3.21h0v3.21h-.56V80.81h.76L326.56,84h0V80.81h.56v3.91Z"/><path class="cls-5" d="M330.58,84.72V82.94h-1.87v1.78h-.56V80.81h.56v1.64h1.87V80.81h.56v3.91Z"/><path class="cls-5" d="M332,84.1a2.16,2.16,0,0,0,.81.19.69.69,0,0,0,.77-.63c0-.29-.14-.48-.76-.76s-.92-.48-.92-1.09.49-1.07,1.25-1.07a2.74,2.74,0,0,1,.84.14l-.08.52a1.73,1.73,0,0,0-.73-.16c-.44,0-.69.19-.69.52s.41.51.74.67.94.48.94,1.19-.54,1.17-1.42,1.17a2.55,2.55,0,0,1-.81-.17Z"/><path class="cls-5" d="M336.54,84.72v-4.2h.52v4.2Z"/><path class="cls-5" d="M337.84,83.29a1.45,1.45,0,1,1,2.9,0,1.45,1.45,0,1,1-2.9,0Zm2.34,0a.91.91,0,1,0-1.78,0,1,1,0,0,0,.89,1.07C339.88,84.36,340.18,83.85,340.18,83.29Z"/><path class="cls-5" d="M343.45,84.28h0a1.21,1.21,0,0,1-1,.44,1.26,1.26,0,0,1-1.22-1.41,1.37,1.37,0,0,1,1.27-1.51,1,1,0,0,1,1,.49h0v-.43H344V84.6c0,.88-.46,1.36-1.47,1.36a3,3,0,0,1-1-.19l0-.49a2.17,2.17,0,0,0,1,.26.87.87,0,0,0,.89-1Zm0-1c0-.59-.28-1.1-.84-1.1s-.79.54-.79,1.07.32,1,.79,1A.89.89,0,0,0,343.45,83.32Z"/><path class="cls-5" d="M344.9,81.23v-.6h.6v.6Zm0,3.49V81.86h.52v2.86Z"/><path class="cls-5" d="M348.43,84.72V83.17c0-.75-.28-1-.63-1-.55,0-.85.46-.85,1.17v1.33h-.52V81.86h.51v.46h0a1,1,0,0,1,.93-.52c.72,0,1.07.43,1.07,1.21v1.71Z"/><path class="cls-5" d="M351.4,84.72V81.86h.5v.45h0a.86.86,0,0,1,.75-.51,1.42,1.42,0,0,1,.34,0v.47a.77.77,0,0,0-.29,0c-.48,0-.78.46-.78,1.16v1.3Z"/><path class="cls-5" d="M355.77,84.6a2.11,2.11,0,0,1-.89.19,1.37,1.37,0,0,1-1.49-1.55,1.33,1.33,0,0,1,1.34-1.44c.83,0,1.26.52,1.26,1.61h-2a.93.93,0,0,0,.94,1,1.7,1.7,0,0,0,.88-.28ZM355.43,83a.73.73,0,0,0-.72-.8c-.42,0-.7.3-.76.8Z"/><path class="cls-5" d="M358.72,84.72v-.4h0a1.17,1.17,0,0,1-1,.47c-.84,0-1.22-.74-1.22-1.55s.4-1.44,1.23-1.44a1,1,0,0,1,.94.46h0V80.52h.52v4.2Zm0-1.42c0-.51-.26-1.08-.86-1.08s-.77.47-.77,1,.3,1.11.79,1.11S358.7,83.79,358.7,83.3Z"/><path class="cls-5" d="M360.15,81.23v-.6h.59v.6Zm0,3.49V81.86h.53v2.86Z"/><path class="cls-5" d="M361.67,84.72V81.86h.5v.45h0a.86.86,0,0,1,.75-.51,1.42,1.42,0,0,1,.34,0v.47a.77.77,0,0,0-.29,0c-.48,0-.78.46-.78,1.16v1.3Z"/><path class="cls-5" d="M366,84.6a2.11,2.11,0,0,1-.89.19,1.37,1.37,0,0,1-1.49-1.55A1.33,1.33,0,0,1,365,81.8c.83,0,1.26.52,1.26,1.61h-2a.93.93,0,0,0,.94,1,1.67,1.67,0,0,0,.88-.28ZM365.7,83a.73.73,0,0,0-.72-.8c-.42,0-.7.3-.76.8Z"/><path class="cls-5" d="M368.85,84.67a1.53,1.53,0,0,1-.66.12,1.45,1.45,0,0,1-1.46-1.5,1.4,1.4,0,0,1,1.46-1.49,2.14,2.14,0,0,1,.64.11l-.05.43a1.58,1.58,0,0,0-.57-.12,1,1,0,0,0-.92,1.07,1,1,0,0,0,.95,1.07,1.17,1.17,0,0,0,.57-.16Z"/><path class="cls-5" d="M371,84.71a1.51,1.51,0,0,1-.45.08.76.76,0,0,1-.87-.83V82.29H369v-.43h.65V81.2l.52-.17v.83H371v.43h-.76v1.57a.45.45,0,0,0,.45.5.66.66,0,0,0,.35-.1Z"/><path class="cls-5" d="M371.42,84.16a1.36,1.36,0,0,0,.65.2c.28,0,.54-.12.54-.41s-.1-.29-.51-.48c-.59-.26-.73-.51-.73-.8,0-.59.46-.87,1-.87a2.28,2.28,0,0,1,.66.11l-.05.46a1.45,1.45,0,0,0-.55-.15c-.29,0-.51.12-.51.35s.2.35.56.51.68.44.68.82a.89.89,0,0,1-1,.89,1.6,1.6,0,0,1-.78-.16Z"/><path class="cls-5" d="M375.37,84.72v-4.2h.52v1.74h0a1,1,0,0,1,1-.46c.8,0,1.23.64,1.23,1.44s-.38,1.55-1.23,1.55a1.18,1.18,0,0,1-1-.47h0v.4Zm2.15-1.45c0-.63-.28-1-.79-1s-.84.53-.84,1.08.27,1.06.84,1.06S377.52,83.83,377.52,83.27Z"/><path class="cls-5" d="M380.54,84.72v-.37h0a1.07,1.07,0,0,1-.89.44c-.66,0-1-.32-1-.89S379.17,83,380,83h.52c0-.52-.2-.75-.7-.75a1.33,1.33,0,0,0-.83.29l0-.44a1.79,1.79,0,0,1,.94-.27c.79,0,1.15.37,1.15,1.17v1.26c0,.17,0,.36,0,.49Zm-.06-1.36h-.34c-.59,0-1,.18-1,.55a.5.5,0,0,0,.53.46.72.72,0,0,0,.79-.75Z"/><path class="cls-5" d="M383.78,84.67a1.53,1.53,0,0,1-.66.12,1.44,1.44,0,0,1-1.45-1.5,1.4,1.4,0,0,1,1.45-1.49,2,2,0,0,1,.64.11l-.05.43a1.54,1.54,0,0,0-.57-.12,1,1,0,0,0-.91,1.07,1,1,0,0,0,.95,1.07,1.13,1.13,0,0,0,.56-.16Z"/><path class="cls-5" d="M386.19,84.72l-1.28-1.47v1.47h-.52v-4.2h.52V83l1.15-1.16h.72l-1.33,1.27,1.5,1.59Z"/><path class="cls-5" d="M390.62,84.71a1.63,1.63,0,0,1-.45.08.77.77,0,0,1-.88-.83V82.29h-.64v-.43h.64V81.2l.53-.17v.83h.76v.43h-.76v1.57a.45.45,0,0,0,.44.5.67.67,0,0,0,.36-.1Z"/><path class="cls-5" d="M391.05,83.29a1.45,1.45,0,1,1,2.9,0,1.45,1.45,0,1,1-2.9,0Zm2.34,0a1,1,0,0,0-.89-1.07,1,1,0,0,0-.9,1.07,1,1,0,0,0,.9,1.07C393.09,84.36,393.39,83.85,393.39,83.29Z"/><path class="cls-5" d="M398,84.72v-.37h0a1.09,1.09,0,0,1-.9.44c-.66,0-1-.32-1-.89s.58-.94,1.37-.94h.52c0-.52-.21-.75-.71-.75a1.32,1.32,0,0,0-.82.29l0-.44a1.76,1.76,0,0,1,.94-.27c.79,0,1.15.37,1.15,1.17v1.26a3.7,3.7,0,0,0,0,.49Zm-.06-1.36h-.34c-.59,0-1,.18-1,.55a.51.51,0,0,0,.54.46.73.73,0,0,0,.79-.75Z"/><path class="cls-5" d="M403.42,80.81H404v2.3c0,1-.53,1.68-1.52,1.68s-1.52-.62-1.52-1.68v-2.3h.56V83c0,.83.3,1.25,1,1.25s1-.42,1-1.25Z"/><path class="cls-5" d="M407.09,84.72l-.54-1.24c-.2-.43-.31-.5-.65-.5h-.4v1.74h-.56V80.81h1c1.09,0,1.45.39,1.45,1.06a.9.9,0,0,1-.81.89h0c.19.07.28.18.42.47l.7,1.48ZM406,82.49c.51,0,.84-.22.84-.61s-.28-.58-.79-.58h-.54v1.19Z"/><path class="cls-5" d="M408.39,84.72V80.81H409v3.42h1.64v.49Z"/><path class="cls-5" d="M315.15,91.44V91h0a1,1,0,0,1-.94.52c-.71,0-1.07-.44-1.07-1.22V88.58h.53v1.54c0,.88.39,1,.63,1,.52,0,.84-.42.84-1.17V88.58h.53v2.86Z"/><path class="cls-5" d="M318.55,91.44V89.89c0-.75-.27-1-.62-1-.55,0-.85.46-.85,1.17v1.33h-.53V88.58h.51V89h0a1,1,0,0,1,.93-.52c.72,0,1.07.43,1.07,1.21v1.71Z"/><path class="cls-5" d="M322,91.44V91h0a1.17,1.17,0,0,1-1,.47c-.84,0-1.22-.74-1.22-1.55s.4-1.44,1.23-1.44A1,1,0,0,1,322,89h0V87.24h.52v4.2ZM322,90c0-.51-.26-1.08-.86-1.08s-.77.47-.77,1,.3,1.11.79,1.11S322,90.51,322,90Z"/><path class="cls-5" d="M325.59,91.32a2.14,2.14,0,0,1-.9.19A1.36,1.36,0,0,1,323.21,90a1.32,1.32,0,0,1,1.34-1.44c.82,0,1.26.52,1.26,1.61h-2a.93.93,0,0,0,.94,1,1.7,1.7,0,0,0,.88-.28Zm-.34-1.58a.73.73,0,0,0-.72-.8.77.77,0,0,0-.76.8Z"/><path class="cls-5" d="M326.51,91.44V88.58H327V89h0a.84.84,0,0,1,.75-.51,1.42,1.42,0,0,1,.34,0V89a.77.77,0,0,0-.29,0c-.49,0-.78.46-.78,1.16v1.3Z"/><path class="cls-5" d="M331.81,91.43a1.64,1.64,0,0,1-.46.08.77.77,0,0,1-.87-.83V89h-.64v-.43h.64v-.66l.53-.17v.83h.75V89H331v1.57a.45.45,0,0,0,.44.5.7.7,0,0,0,.36-.1Z"/><path class="cls-5" d="M334.42,91.44v-1.5c0-.6-.13-1-.62-1-.72,0-.85.74-.85,1.16v1.34h-.53v-4.2H333V89h0a1,1,0,0,1,.92-.47c.72,0,1.07.44,1.07,1.22v1.7Z"/><path class="cls-5" d="M338,91.32a2.17,2.17,0,0,1-.9.19A1.36,1.36,0,0,1,335.66,90,1.32,1.32,0,0,1,337,88.52c.83,0,1.26.52,1.26,1.61h-2a.94.94,0,0,0,1,1,1.7,1.7,0,0,0,.88-.28Zm-.35-1.58a.72.72,0,0,0-.71-.8c-.42,0-.71.3-.77.8Z"/><path class="cls-5" d="M342.27,91.44v-.37h0a1.07,1.07,0,0,1-.89.44c-.66,0-1-.32-1-.89s.57-.94,1.36-.94h.52c0-.52-.2-.75-.7-.75a1.33,1.33,0,0,0-.83.29l0-.45a1.88,1.88,0,0,1,.94-.26c.79,0,1.15.37,1.15,1.17V91a3.78,3.78,0,0,0,0,.49Zm-.06-1.36h-.34c-.59,0-1,.18-1,.55a.5.5,0,0,0,.53.46.72.72,0,0,0,.79-.75Z"/><path class="cls-5" d="M343.63,92.61v-4h.5V89h0a1.14,1.14,0,0,1,1-.47A1.28,1.28,0,0,1,346.35,90c0,.81-.39,1.55-1.23,1.55a1,1,0,0,1-.95-.46h0v1.56ZM345.79,90c0-.73-.37-1-.79-1s-.84.53-.84,1.08.26,1.06.84,1.06S345.79,90.57,345.79,90Z"/><path class="cls-5" d="M347.05,92.61v-4h.51V89h0a1.16,1.16,0,0,1,1-.47c.8,0,1.23.64,1.23,1.44s-.38,1.55-1.23,1.55a1,1,0,0,1-1-.46h0v1.56ZM349.21,90c0-.73-.37-1-.79-1s-.84.53-.84,1.08.26,1.06.84,1.06S349.21,90.57,349.21,90Z"/><path class="cls-5" d="M350.54,91.44v-4.2h.53v4.2Z"/><path class="cls-5" d="M352.06,88v-.6h.6V88Zm0,3.49V88.58h.52v2.86Z"/><path class="cls-5" d="M355.47,91.39a1.53,1.53,0,0,1-.66.12,1.45,1.45,0,0,1-1.46-1.5,1.4,1.4,0,0,1,1.46-1.49,2,2,0,0,1,.63.11l0,.43a1.58,1.58,0,0,0-.57-.12,1,1,0,0,0-.92,1.07,1,1,0,0,0,.95,1.07,1.17,1.17,0,0,0,.57-.16Z"/><path class="cls-5" d="M357.82,91.44v-.37h0a1.05,1.05,0,0,1-.89.44c-.66,0-1-.32-1-.89s.58-.94,1.37-.94h.52c0-.52-.21-.75-.71-.75a1.35,1.35,0,0,0-.83.29l0-.45a1.85,1.85,0,0,1,.94-.26c.79,0,1.15.37,1.15,1.17V91a3.78,3.78,0,0,0,0,.49Zm-.05-1.36h-.34c-.6,0-1,.18-1,.55a.5.5,0,0,0,.54.46.73.73,0,0,0,.79-.75Z"/><path class="cls-5" d="M360.75,91.43a1.64,1.64,0,0,1-.46.08.77.77,0,0,1-.87-.83V89h-.64v-.43h.64v-.66l.53-.17v.83h.75V89H360v1.57a.45.45,0,0,0,.44.5.7.7,0,0,0,.36-.1Z"/><path class="cls-5" d="M361.4,88v-.6H362V88Zm0,3.49V88.58H362v2.86Z"/><path class="cls-5" d="M362.73,90a1.46,1.46,0,1,1,2.91,0,1.46,1.46,0,1,1-2.91,0Zm2.35,0a.91.91,0,1,0-1.79,0,.91.91,0,1,0,1.79,0Z"/><path class="cls-5" d="M368.34,91.44V89.89c0-.75-.27-1-.63-1-.54,0-.84.46-.84,1.17v1.33h-.53V88.58h.51V89h0a1,1,0,0,1,.94-.52c.71,0,1.07.43,1.07,1.21v1.71Z"/><path class="cls-5" d="M369.61,88.9l.34-1.37h.63l-.49,1.37Z"/><path class="cls-5" d="M370.8,90.88a1.4,1.4,0,0,0,.65.2c.28,0,.54-.12.54-.41s-.1-.29-.51-.48c-.59-.26-.73-.51-.73-.8,0-.59.46-.87,1-.87a2.28,2.28,0,0,1,.66.11l-.05.46a1.45,1.45,0,0,0-.55-.15c-.29,0-.51.12-.51.35s.2.35.56.51.68.44.68.82a.89.89,0,0,1-1,.89,1.6,1.6,0,0,1-.78-.16Z"/><path class="cls-5" d="M376.63,91.39a1.53,1.53,0,0,1-.66.12,1.45,1.45,0,0,1-1.46-1.5A1.4,1.4,0,0,1,376,88.52a2.14,2.14,0,0,1,.64.11l-.05.43a1.58,1.58,0,0,0-.57-.12,1,1,0,0,0-.92,1.07,1,1,0,0,0,.95,1.07,1.17,1.17,0,0,0,.57-.16Z"/><path class="cls-5" d="M377,90A1.46,1.46,0,1,1,380,90,1.46,1.46,0,1,1,377,90Zm2.35,0a.91.91,0,1,0-1.79,0,1,1,0,0,0,.9,1.07C379.09,91.08,379.39,90.57,379.39,90Z"/><path class="cls-5" d="M382.65,91.44V89.89c0-.75-.27-1-.62-1-.55,0-.85.46-.85,1.17v1.33h-.53V88.58h.51V89h0a1,1,0,0,1,.93-.52c.72,0,1.07.43,1.07,1.21v1.71Z"/><path class="cls-5" d="M385.64,91.43a1.64,1.64,0,0,1-.46.08.77.77,0,0,1-.87-.83V89h-.64v-.43h.64v-.66l.53-.17v.83h.75V89h-.75v1.57a.45.45,0,0,0,.44.5.7.7,0,0,0,.36-.1Z"/><path class="cls-5" d="M386.25,91.44V88.58h.5V89h0a.86.86,0,0,1,.75-.51,1.42,1.42,0,0,1,.34,0V89a.77.77,0,0,0-.29,0c-.48,0-.78.46-.78,1.16v1.3Z"/><path class="cls-5" d="M388.24,90a1.46,1.46,0,1,1,2.91,0,1.46,1.46,0,1,1-2.91,0Zm2.35,0a.91.91,0,1,0-1.79,0,1,1,0,0,0,.9,1.07C390.29,91.08,390.59,90.57,390.59,90Z"/><path class="cls-5" d="M391.92,91.44v-4.2h.53v4.2Z"/><path class="cls-5" d="M393.07,92.18l.36-1.37h.62l-.47,1.37Z"/><path class="cls-5" d="M396.52,92.61v-4H397V89h0a1.16,1.16,0,0,1,1-.47c.8,0,1.23.64,1.23,1.44s-.38,1.55-1.23,1.55a1,1,0,0,1-.95-.46h0v1.56ZM398.68,90c0-.73-.36-1-.79-1s-.84.53-.84,1.08.26,1.06.84,1.06S398.68,90.57,398.68,90Z"/><path class="cls-5" d="M401.7,91.44v-.37h0a1.08,1.08,0,0,1-.89.44c-.66,0-1.05-.32-1.05-.89s.58-.94,1.37-.94h.52c0-.52-.21-.75-.7-.75a1.33,1.33,0,0,0-.83.29l0-.45a1.88,1.88,0,0,1,.94-.26c.79,0,1.15.37,1.15,1.17V91a3.78,3.78,0,0,0,0,.49Zm-.06-1.36h-.34c-.59,0-1,.18-1,.55a.51.51,0,0,0,.54.46.72.72,0,0,0,.79-.75Z"/><path class="cls-5" d="M402.85,90.88a1.36,1.36,0,0,0,.65.2c.28,0,.54-.12.54-.41s-.1-.29-.52-.48c-.58-.26-.72-.51-.72-.8,0-.59.45-.87,1-.87a2.15,2.15,0,0,1,.65.11l0,.46a1.5,1.5,0,0,0-.55-.15c-.29,0-.51.12-.51.35s.2.35.56.51.68.44.68.82a.89.89,0,0,1-1,.89,1.58,1.58,0,0,1-.78-.16Z"/><path class="cls-5" d="M405,90.88a1.4,1.4,0,0,0,.66.2c.28,0,.54-.12.54-.41s-.1-.29-.52-.48c-.59-.26-.72-.51-.72-.8,0-.59.45-.87,1-.87a2.21,2.21,0,0,1,.65.11l0,.46a1.5,1.5,0,0,0-.56-.15c-.28,0-.5.12-.5.35s.2.35.55.51.69.44.69.82a.9.9,0,0,1-1,.89,1.54,1.54,0,0,1-.77-.16Z"/><path class="cls-5" d="M407.45,88v-.6H408V88Zm0,3.49V88.58H408v2.86Z"/><path class="cls-5" d="M411,91.44V89.89c0-.75-.27-1-.63-1-.55,0-.84.46-.84,1.17v1.33H409V88.58h.51V89h0a1,1,0,0,1,.94-.52c.71,0,1.07.43,1.07,1.21v1.71Z"/><path class="cls-5" d="M414.39,91h0a1.19,1.19,0,0,1-1,.44A1.26,1.26,0,0,1,412.2,90a1.37,1.37,0,0,1,1.28-1.51.93.93,0,0,1,.94.49h0v-.43h.49v2.74c0,.88-.47,1.36-1.47,1.36a3,3,0,0,1-1-.19l.06-.49a2.14,2.14,0,0,0,1,.26.87.87,0,0,0,.89-1Zm0-1c0-.59-.28-1.1-.83-1.1s-.8.54-.8,1.07.32,1,.8,1A.89.89,0,0,0,414.39,90Z"/><path class="cls-5" d="M317.17,98.16v-.37h0a1.05,1.05,0,0,1-.89.44c-.66,0-1-.32-1-.89s.58-.94,1.37-.94h.52c0-.52-.21-.75-.71-.75a1.35,1.35,0,0,0-.83.29l0-.44a1.76,1.76,0,0,1,.94-.27c.79,0,1.15.37,1.15,1.17v1.26a3.7,3.7,0,0,0,0,.49Zm-.06-1.36h-.34c-.6,0-1,.18-1,.55a.5.5,0,0,0,.54.46.73.73,0,0,0,.79-.75Z"/><path class="cls-5" d="M320.54,98.16v-.45h0a1,1,0,0,1-.93.52c-.72,0-1.07-.44-1.07-1.22V95.3h.52v1.54c0,.88.39,1,.63,1,.53,0,.85-.42.85-1.17V95.3h.52v2.86Z"/><path class="cls-5" d="M323.51,98.15a1.63,1.63,0,0,1-.45.08.77.77,0,0,1-.88-.83V95.73h-.64V95.3h.64v-.66l.53-.17v.83h.76v.43h-.76V97.3a.45.45,0,0,0,.44.5.67.67,0,0,0,.36-.1Z"/><path class="cls-5" d="M326.12,98.16v-1.5c0-.6-.13-1-.62-1-.72,0-.85.74-.85,1.16v1.34h-.52V94h.52v1.75h0a1,1,0,0,1,.92-.47c.72,0,1.07.44,1.07,1.22v1.7Z"/><path class="cls-5" d="M327.36,96.73a1.45,1.45,0,1,1,2.9,0,1.45,1.45,0,1,1-2.9,0Zm2.34,0a.91.91,0,1,0-1.78,0,1,1,0,0,0,.89,1.07C329.4,97.8,329.7,97.29,329.7,96.73Z"/><path class="cls-5" d="M331,98.16V95.3h.49v.45h0a.87.87,0,0,1,.75-.51,1.37,1.37,0,0,1,.34,0v.47a.74.74,0,0,0-.29,0c-.48,0-.77.46-.77,1.16v1.3Z"/><path class="cls-5" d="M333.18,94.66v-.59h.59v.59Zm0,3.5V95.3h.53v2.86Z"/><path class="cls-5" d="M334.49,97.6a1.4,1.4,0,0,0,.66.2c.28,0,.53-.12.53-.41s-.1-.29-.51-.48c-.59-.26-.72-.51-.72-.8,0-.59.45-.87,1-.87a2.28,2.28,0,0,1,.66.11l-.05.46a1.45,1.45,0,0,0-.55-.15c-.29,0-.5.12-.5.35s.19.35.55.51.68.44.68.82a.89.89,0,0,1-1,.89,1.6,1.6,0,0,1-.78-.16Z"/><path class="cls-5" d="M338.63,98.16v-.37h0a1.05,1.05,0,0,1-.89.44c-.66,0-1-.32-1-.89s.58-.94,1.37-.94h.52c0-.52-.21-.75-.71-.75A1.35,1.35,0,0,0,337,96l0-.44a1.76,1.76,0,0,1,.94-.27c.79,0,1.14.37,1.14,1.17v1.26a3.58,3.58,0,0,0,0,.49Zm-.05-1.36h-.34c-.6,0-1,.18-1,.55a.5.5,0,0,0,.54.46.73.73,0,0,0,.79-.75Z"/><path class="cls-5" d="M341.56,98.15a1.64,1.64,0,0,1-.46.08.77.77,0,0,1-.87-.83V95.73h-.64V95.3h.64v-.66l.53-.17v.83h.75v.43h-.75V97.3a.45.45,0,0,0,.44.5.74.74,0,0,0,.36-.1Z"/><path class="cls-5" d="M342.21,94.66v-.59h.59v.59Zm0,3.5V95.3h.53v2.86Z"/><path class="cls-5" d="M343.54,96.73a1.46,1.46,0,1,1,2.91,0,1.46,1.46,0,1,1-2.91,0Zm2.35,0a.91.91,0,1,0-1.79,0,.91.91,0,1,0,1.79,0Z"/><path class="cls-5" d="M349.15,98.16V96.61c0-.75-.27-1-.63-1-.55,0-.84.46-.84,1.17v1.33h-.53V95.3h.51v.46h0a1,1,0,0,1,.94-.52c.71,0,1.07.43,1.07,1.21v1.71Z"/><path class="cls-5" d="M352.16,94.66v-.59h.6v.59Zm0,3.5V95.3h.52v2.86Z"/><path class="cls-5" d="M355.69,98.16V96.61c0-.75-.28-1-.63-1-.55,0-.85.46-.85,1.17v1.33h-.52V95.3h.51v.46h0a1,1,0,0,1,.93-.52c.72,0,1.07.43,1.07,1.21v1.71Z"/><path class="cls-5" d="M357.45,98.16V95.73h-.67V95.3h.67V95c0-.75.24-1.13,1-1.13a1.5,1.5,0,0,1,.35,0l0,.42a1,1,0,0,0-.25,0c-.39,0-.51.19-.51.63v.35h.75v.43H358v2.43Z"/><path class="cls-5" d="M359.1,96.73a1.45,1.45,0,1,1,2.9,0,1.45,1.45,0,1,1-2.9,0Zm2.34,0a.91.91,0,1,0-1.78,0,1,1,0,0,0,.89,1.07C361.14,97.8,361.44,97.29,361.44,96.73Z"/><path class="cls-5" d="M362.71,98.16V95.3h.49v.45h0a.87.87,0,0,1,.75-.51,1.42,1.42,0,0,1,.34,0v.47a.74.74,0,0,0-.29,0c-.48,0-.78.46-.78,1.16v1.3Z"/><path class="cls-5" d="M368.45,98.16V96.45c0-.49-.16-.79-.51-.79s-.75.47-.75,1.07v1.43h-.52V96.45c0-.47-.15-.79-.51-.79s-.75.47-.75,1.06v1.44h-.53V95.3h.49v.42h0a1,1,0,0,1,.91-.48.84.84,0,0,1,.81.55,1,1,0,0,1,.89-.55c.65,0,1,.38,1,1.09v1.83Z"/><path class="cls-5" d="M371.43,98.15a1.64,1.64,0,0,1-.46.08.76.76,0,0,1-.87-.83V95.73h-.64V95.3h.64v-.66l.53-.17v.83h.75v.43h-.75V97.3a.45.45,0,0,0,.44.5.74.74,0,0,0,.36-.1Z"/><path class="cls-5" d="M372.08,94.66v-.59h.59v.59Zm0,3.5V95.3h.53v2.86Z"/><path class="cls-5" d="M373.41,96.73a1.45,1.45,0,1,1,2.9,0,1.45,1.45,0,1,1-2.9,0Zm2.34,0a.91.91,0,1,0-1.78,0,1,1,0,0,0,.89,1.07C375.45,97.8,375.75,97.29,375.75,96.73Z"/><path class="cls-5" d="M379,98.16V96.61c0-.75-.27-1-.63-1-.55,0-.84.46-.84,1.17v1.33H377V95.3h.51v.46h0a1,1,0,0,1,.94-.52c.71,0,1.07.43,1.07,1.21v1.71Z"/><path class="cls-5" d="M382.34,98.16V95.73h-.67V95.3h.67V95c0-.75.24-1.13,1-1.13a1.5,1.5,0,0,1,.35,0l0,.42a1,1,0,0,0-.25,0c-.38,0-.51.19-.51.63v.35h.75v.43h-.75v2.43Z"/><path class="cls-5" d="M384,96.73a1.45,1.45,0,1,1,2.9,0,1.45,1.45,0,1,1-2.9,0Zm2.34,0a.91.91,0,1,0-1.78,0,1,1,0,0,0,.89,1.07C386,97.8,386.33,97.29,386.33,96.73Z"/><path class="cls-5" d="M387.6,98.16V95.3h.49v.45h0a.87.87,0,0,1,.75-.51,1.42,1.42,0,0,1,.34,0v.47a.74.74,0,0,0-.29,0c-.48,0-.78.46-.78,1.16v1.3Z"/><path class="cls-5" d="M392.9,98.15a1.64,1.64,0,0,1-.46.08.76.76,0,0,1-.87-.83V95.73h-.65V95.3h.65v-.66l.52-.17v.83h.76v.43h-.76V97.3a.45.45,0,0,0,.45.5.74.74,0,0,0,.36-.1Z"/><path class="cls-5" d="M395.51,98.16v-1.5c0-.6-.13-1-.62-1-.72,0-.85.74-.85,1.16v1.34h-.53V94H394v1.75h0a1,1,0,0,1,.92-.47c.72,0,1.07.44,1.07,1.22v1.7Z"/><path class="cls-5" d="M399.12,98a2.11,2.11,0,0,1-.89.19,1.37,1.37,0,0,1-1.49-1.55,1.33,1.33,0,0,1,1.34-1.44c.83,0,1.26.52,1.26,1.61h-2a.93.93,0,0,0,.94,1,1.67,1.67,0,0,0,.88-.28Zm-.34-1.58a.73.73,0,0,0-.72-.8c-.42,0-.7.3-.76.8Z"/><path class="cls-5" d="M403.62,98.16v-.45h0a1,1,0,0,1-.94.52c-.71,0-1.07-.44-1.07-1.22V95.3h.53v1.54c0,.88.39,1,.63,1,.52,0,.84-.42.84-1.17V95.3h.53v2.86Z"/><path class="cls-5" d="M404.81,97.6a1.4,1.4,0,0,0,.66.2c.28,0,.53-.12.53-.41s-.1-.29-.51-.48c-.59-.26-.72-.51-.72-.8,0-.59.45-.87,1-.87a2.28,2.28,0,0,1,.66.11l-.05.46a1.45,1.45,0,0,0-.55-.15c-.29,0-.5.12-.5.35s.19.35.55.51.68.44.68.82a.89.89,0,0,1-1,.89,1.6,1.6,0,0,1-.78-.16Z"/><path class="cls-5" d="M409.39,98a2.11,2.11,0,0,1-.89.19A1.37,1.37,0,0,1,407,96.68a1.33,1.33,0,0,1,1.34-1.44c.83,0,1.26.52,1.26,1.61h-2a.93.93,0,0,0,.94,1,1.7,1.7,0,0,0,.88-.28Zm-.34-1.58a.73.73,0,0,0-.72-.8c-.42,0-.7.3-.76.8Z"/><path class="cls-5" d="M410.32,98.16V95.3h.49v.45h0a.87.87,0,0,1,.75-.51,1.42,1.42,0,0,1,.34,0v.47a.74.74,0,0,0-.29,0c-.48,0-.78.46-.78,1.16v1.3Z"/><path class="cls-5" d="M412,98.16v-.63h.62v.63Z"/></g></g></svg>