<svg viewBox="0 0 631 219" fill="none" xmlns="http://www.w3.org/2000/svg">
<path d="M202.842 62.0142H165.233V116.718H202.842V62.0142Z" stroke="black" stroke-width="1.8858" stroke-miterlimit="10" stroke-linecap="round" stroke-linejoin="round"/>
<path d="M165.19 129.938H203.126C205.014 129.938 206.545 128.407 206.545 126.519V60.8516C206.545 58.9636 205.014 57.4326 203.126 57.4326H165.19C163.302 57.4326 161.771 58.9636 161.771 60.8516V126.523C161.771 128.407 163.302 129.938 165.19 129.938Z" stroke="black" stroke-width="1.8858" stroke-miterlimit="10" stroke-linecap="round" stroke-linejoin="round"/>
<path d="M184.037 125.812C185.609 125.812 186.886 124.536 186.886 122.963C186.886 121.39 185.609 120.114 184.037 120.114C182.464 120.114 181.188 121.39 181.188 122.963C181.188 124.536 182.464 125.812 184.037 125.812Z" stroke="black" stroke-width="1.8858" stroke-miterlimit="10" stroke-linecap="round" stroke-linejoin="round"/>
<path d="M178.581 91.9393L182.112 88.4086V77.5998M190.884 88.7669L187.354 92.2976V102.795M186.243 84.0716V89.0095L182.713 92.5402V96.642M182.707 101.376C183.881 101.376 184.832 100.425 184.832 99.2509C184.832 98.0771 183.881 97.1254 182.707 97.1254C181.533 97.1254 180.581 98.0771 180.581 99.2509C180.581 100.425 181.533 101.376 182.707 101.376ZM187.348 107.525C188.522 107.525 189.474 106.574 189.474 105.4C189.474 104.226 188.522 103.274 187.348 103.274C186.174 103.274 185.223 104.226 185.223 105.4C185.224 106.576 186.174 107.525 187.348 107.525ZM192.536 89.5731C193.71 89.5731 194.662 88.6213 194.662 87.4475C194.662 86.2737 193.71 85.322 192.536 85.322C191.362 85.322 190.41 86.2737 190.41 87.4475C190.41 88.6213 191.362 89.5731 192.536 89.5731ZM182.117 72.8691C180.943 72.8691 179.992 73.8209 179.992 74.9947C179.992 76.1685 180.943 77.1202 182.117 77.1202C183.291 77.1202 184.243 76.1685 184.243 74.9947C184.243 73.8209 183.291 72.8691 182.117 72.8691ZM186.243 83.635C187.417 83.635 188.369 82.6832 188.369 81.5094C188.369 80.3356 187.417 79.3839 186.243 79.3839C185.069 79.3839 184.118 80.3356 184.118 81.5094C184.118 82.6832 185.069 83.635 186.243 83.635ZM176.931 91.1332C175.757 91.1332 174.806 92.0849 174.806 93.2587C174.806 94.4325 175.757 95.3843 176.931 95.3843C178.105 95.3843 179.057 94.4325 179.057 93.2587C179.057 92.083 178.105 91.1332 176.931 91.1332Z" stroke="black" stroke-width="1.41435" stroke-miterlimit="10" stroke-linecap="round" stroke-linejoin="round"/>
<path d="M165.112 148.381C165.112 149.206 164.815 149.661 164.155 149.661C163.495 149.661 163.198 149.206 163.198 148.381V145.701H162.274V148.658C162.274 149.747 162.835 150.387 164.155 150.387C165.422 150.387 166.036 149.793 166.036 148.665V145.701H165.112V148.381Z" fill="black"/>
<path d="M166.806 150.242C167.129 150.328 167.479 150.387 167.803 150.387C168.595 150.387 169.235 150.024 169.235 149.278C169.235 148.711 168.918 148.427 168.285 148.249C167.882 148.137 167.697 148.044 167.697 147.853C167.697 147.602 167.915 147.477 168.225 147.477C168.502 147.477 168.707 147.516 169.011 147.622L169.07 146.955C168.648 146.856 168.384 146.83 168.113 146.83C167.347 146.83 166.773 147.199 166.773 147.886C166.773 148.453 167.083 148.698 167.677 148.856C168.034 148.955 168.311 149.041 168.311 149.325C168.311 149.648 167.968 149.74 167.73 149.74C167.426 149.74 167.136 149.655 166.859 149.516L166.806 150.242Z" fill="black"/>
<path d="M172.65 149.397C172.32 149.582 171.95 149.74 171.527 149.74C170.953 149.74 170.59 149.417 170.551 148.882H172.9C172.9 147.543 172.438 146.83 171.283 146.83C170.201 146.83 169.706 147.675 169.706 148.625C169.706 149.74 170.359 150.387 171.488 150.387C171.956 150.387 172.326 150.295 172.65 150.117V149.397ZM170.551 148.275C170.597 147.767 170.887 147.477 171.329 147.477C171.791 147.477 172.023 147.787 172.056 148.275H170.551Z" fill="black"/>
<path d="M174.495 150.308V148.909C174.495 147.853 174.885 147.675 175.215 147.675C175.373 147.675 175.532 147.701 175.611 147.747V146.856C175.584 146.849 175.532 146.83 175.347 146.83C174.832 146.83 174.462 147.325 174.41 147.681H174.396V146.909H173.611V150.308H174.495Z" fill="black"/>
<path d="M180.719 149.397C180.389 149.582 180.02 149.74 179.597 149.74C179.023 149.74 178.66 149.417 178.621 148.882H180.97C180.97 147.543 180.508 146.83 179.353 146.83C178.271 146.83 177.776 147.675 177.776 148.625C177.776 149.74 178.429 150.387 179.558 150.387C180.026 150.387 180.396 150.295 180.719 150.117V149.397ZM178.621 148.275C178.667 147.767 178.957 147.477 179.399 147.477C179.861 147.477 180.092 147.787 180.125 148.275H178.621Z" fill="black"/>
<path d="M184.783 150.308V148.163C184.783 147.364 184.407 146.83 183.628 146.83C183.159 146.83 182.783 146.988 182.512 147.371H182.499V146.909H181.661V150.308H182.545V148.658C182.545 148.057 182.763 147.516 183.324 147.516C183.793 147.516 183.899 147.892 183.899 148.401V150.308H184.783Z" fill="black"/>
<path d="M187.689 149.608C187.597 149.668 187.445 149.701 187.293 149.701C186.983 149.701 186.871 149.49 186.871 149.133V147.556H187.656V146.909H186.871V145.945L185.986 146.229V146.909H185.333V147.556H185.986V149.285C185.986 149.938 186.349 150.387 187.069 150.387C187.326 150.387 187.531 150.361 187.716 150.308L187.689 149.608Z" fill="black"/>
<path d="M190.987 149.397C190.657 149.582 190.288 149.74 189.865 149.74C189.291 149.74 188.928 149.417 188.888 148.882H191.238C191.238 147.543 190.776 146.83 189.621 146.83C188.539 146.83 188.044 147.675 188.044 148.625C188.044 149.74 188.697 150.387 189.826 150.387C190.294 150.387 190.664 150.295 190.987 150.117V149.397ZM188.888 148.275C188.935 147.767 189.225 147.477 189.667 147.477C190.129 147.477 190.36 147.787 190.393 148.275H188.888Z" fill="black"/>
<path d="M192.833 150.308V148.909C192.833 147.853 193.223 147.675 193.553 147.675C193.711 147.675 193.869 147.701 193.949 147.747V146.856C193.922 146.849 193.869 146.83 193.685 146.83C193.17 146.83 192.8 147.325 192.747 147.681H192.734V146.909H191.949V150.308H192.833Z" fill="black"/>
<path d="M194.309 150.242C194.633 150.328 194.983 150.387 195.306 150.387C196.098 150.387 196.738 150.024 196.738 149.278C196.738 148.711 196.421 148.427 195.788 148.249C195.385 148.137 195.2 148.044 195.2 147.853C195.2 147.602 195.418 147.477 195.728 147.477C196.006 147.477 196.21 147.516 196.514 147.622L196.573 146.955C196.151 146.856 195.887 146.83 195.616 146.83C194.851 146.83 194.276 147.199 194.276 147.886C194.276 148.453 194.587 148.698 195.181 148.856C195.537 148.955 195.814 149.041 195.814 149.325C195.814 149.648 195.471 149.74 195.233 149.74C194.93 149.74 194.639 149.655 194.362 149.516L194.309 150.242Z" fill="black"/>
<path d="M202.254 149.595C202.095 149.635 201.891 149.661 201.653 149.661C200.69 149.661 200.082 148.988 200.082 148.018C200.082 147.028 200.723 146.348 201.752 146.348C202.135 146.348 202.577 146.427 202.94 146.592L203 145.813C202.604 145.694 202.181 145.622 201.653 145.622C200.043 145.622 199.119 146.546 199.119 148.084C199.119 149.569 200.076 150.387 201.647 150.387C202.142 150.387 202.65 150.282 203.138 150.15V147.668H201.277V148.394H202.254V149.595Z" fill="black"/>
<path d="M204.951 150.308V148.559H205.354C206.469 148.559 207.116 148.057 207.116 147.094C207.116 146.156 206.436 145.701 205.215 145.701H204.027V150.308H204.951ZM204.951 147.833V146.427H205.275C205.823 146.427 206.153 146.665 206.153 147.146C206.153 147.576 205.889 147.833 205.261 147.833H204.951Z" fill="black"/>
<path d="M165.567 156.646C165.567 155.551 164.821 154.844 163.785 154.844C162.749 154.844 162.01 155.557 162.01 156.646C162.01 157.649 162.69 158.402 163.785 158.402C164.881 158.402 165.567 157.656 165.567 156.646ZM163.785 157.715C163.211 157.715 162.934 157.26 162.934 156.541C162.934 156.006 163.231 155.531 163.785 155.531C164.353 155.531 164.643 155.999 164.643 156.541C164.643 157.273 164.359 157.715 163.785 157.715Z" fill="black"/>
<path d="M169.384 158.323V156.178C169.384 155.379 169.008 154.844 168.229 154.844C167.761 154.844 167.385 155.003 167.114 155.386H167.101V154.924H166.263V158.323H167.147V156.673C167.147 156.072 167.365 155.531 167.926 155.531C168.394 155.531 168.5 155.907 168.5 156.415V158.323H169.384Z" fill="black"/>
<path d="M171.202 158.323V153.372H170.317V158.323H171.202Z" fill="black"/>
<path d="M173.039 154.303V153.458H172.154V154.303H173.039ZM173.039 158.323V154.924H172.154V158.323H173.039Z" fill="black"/>
<path d="M177.093 158.323V156.178C177.093 155.379 176.717 154.844 175.938 154.844C175.47 154.844 175.093 155.003 174.823 155.386H174.81V154.924H173.971V158.323H174.856V156.673C174.856 156.072 175.074 155.531 175.635 155.531C176.103 155.531 176.209 155.907 176.209 156.415V158.323H177.093Z" fill="black"/>
<path d="M180.732 157.412C180.402 157.597 180.033 157.755 179.61 157.755C179.036 157.755 178.673 157.432 178.633 156.897H180.983C180.983 155.557 180.521 154.844 179.366 154.844C178.284 154.844 177.789 155.689 177.789 156.64C177.789 157.755 178.442 158.402 179.571 158.402C180.039 158.402 180.409 158.309 180.732 158.131V157.412ZM178.633 156.29C178.68 155.782 178.97 155.491 179.412 155.491C179.874 155.491 180.105 155.801 180.138 156.29H178.633Z" fill="black"/>
<path d="M183.326 158.257C183.65 158.342 183.999 158.402 184.323 158.402C185.115 158.402 185.755 158.039 185.755 157.293C185.755 156.725 185.438 156.442 184.805 156.263C184.402 156.151 184.217 156.059 184.217 155.867C184.217 155.617 184.435 155.491 184.745 155.491C185.022 155.491 185.227 155.531 185.531 155.636L185.59 154.97C185.168 154.871 184.904 154.844 184.633 154.844C183.867 154.844 183.293 155.214 183.293 155.9C183.293 156.468 183.603 156.712 184.197 156.871C184.554 156.97 184.831 157.055 184.831 157.339C184.831 157.663 184.488 157.755 184.25 157.755C183.947 157.755 183.656 157.669 183.379 157.531L183.326 158.257Z" fill="black"/>
<path d="M189.17 157.412C188.84 157.597 188.47 157.755 188.048 157.755C187.473 157.755 187.11 157.432 187.071 156.897H189.42C189.42 155.557 188.958 154.844 187.803 154.844C186.721 154.844 186.226 155.689 186.226 156.64C186.226 157.755 186.879 158.402 188.008 158.402C188.477 158.402 188.846 158.309 189.17 158.131V157.412ZM187.071 156.29C187.117 155.782 187.407 155.491 187.85 155.491C188.312 155.491 188.543 155.801 188.576 156.29H187.071Z" fill="black"/>
<path d="M191.015 158.323V156.923C191.015 155.867 191.405 155.689 191.735 155.689C191.893 155.689 192.052 155.716 192.131 155.762V154.871C192.104 154.864 192.052 154.844 191.867 154.844C191.352 154.844 190.982 155.339 190.93 155.696H190.916V154.924H190.131V158.323H191.015Z" fill="black"/>
<path d="M194.558 158.323L195.812 154.924H194.927L194.109 157.399H194.096L193.251 154.924H192.3L193.561 158.323H194.558Z" fill="black"/>
<path d="M197.248 154.303V153.458H196.364V154.303H197.248ZM197.248 158.323V154.924H196.364V158.323H197.248Z" fill="black"/>
<path d="M200.485 157.557C200.254 157.656 199.996 157.715 199.805 157.715C199.211 157.715 198.887 157.267 198.887 156.607C198.887 155.966 199.237 155.531 199.792 155.531C200.036 155.531 200.214 155.577 200.386 155.656L200.465 154.957C200.221 154.884 199.957 154.844 199.613 154.844C198.57 154.844 197.963 155.59 197.963 156.607C197.963 157.715 198.584 158.402 199.646 158.402C200.009 158.402 200.26 158.369 200.524 158.29L200.485 157.557Z" fill="black"/>
<path d="M203.84 157.412C203.51 157.597 203.14 157.755 202.718 157.755C202.143 157.755 201.78 157.432 201.741 156.897H204.091C204.091 155.557 203.629 154.844 202.473 154.844C201.391 154.844 200.896 155.689 200.896 156.64C200.896 157.755 201.549 158.402 202.678 158.402C203.147 158.402 203.516 158.309 203.84 158.131V157.412ZM201.741 156.29C201.787 155.782 202.077 155.491 202.52 155.491C202.982 155.491 203.213 155.801 203.246 156.29H201.741Z" fill="black"/>
<path d="M205.329 155.366L205.936 153.716H204.973L204.55 155.366H205.329Z" fill="black"/>
<path d="M205.944 158.257C206.267 158.342 206.617 158.402 206.94 158.402C207.732 158.402 208.373 158.039 208.373 157.293C208.373 156.725 208.056 156.442 207.422 156.263C207.02 156.151 206.835 156.059 206.835 155.867C206.835 155.617 207.053 155.491 207.363 155.491C207.64 155.491 207.845 155.531 208.148 155.636L208.208 154.97C207.785 154.871 207.521 154.844 207.251 154.844C206.485 154.844 205.911 155.214 205.911 155.9C205.911 156.468 206.221 156.712 206.815 156.871C207.171 156.97 207.449 157.055 207.449 157.339C207.449 157.663 207.105 157.755 206.868 157.755C206.564 157.755 206.274 157.669 205.996 157.531L205.944 158.257Z" fill="black"/>
<path d="M214.02 158.323V153.372H213.136V155.32H213.123C212.859 154.996 212.548 154.844 212.106 154.844C211.129 154.844 210.68 155.584 210.68 156.613C210.68 157.557 211.07 158.402 212.106 158.402C212.522 158.402 212.885 158.27 213.149 157.94H213.162V158.323H214.02ZM212.35 157.715C211.776 157.715 211.604 157.095 211.604 156.613C211.604 156.085 211.802 155.531 212.337 155.531C212.905 155.531 213.129 156.138 213.129 156.613C213.129 157.108 212.931 157.715 212.35 157.715Z" fill="black"/>
<path d="M217.659 157.412C217.329 157.597 216.959 157.755 216.537 157.755C215.963 157.755 215.6 157.432 215.56 156.897H217.91C217.91 155.557 217.448 154.844 216.293 154.844C215.21 154.844 214.715 155.689 214.715 156.64C214.715 157.755 215.369 158.402 216.497 158.402C216.966 158.402 217.336 158.309 217.659 158.131V157.412ZM215.56 156.29C215.606 155.782 215.897 155.491 216.339 155.491C216.801 155.491 217.032 155.801 217.065 156.29H215.56Z" fill="black"/>
<path d="M220.594 157.623C220.502 157.682 220.35 157.715 220.198 157.715C219.888 157.715 219.776 157.504 219.776 157.148V155.57H220.561V154.924H219.776V153.96L218.891 154.244V154.924H218.238V155.57H218.891V157.3C218.891 157.953 219.254 158.402 219.974 158.402C220.231 158.402 220.436 158.375 220.62 158.323L220.594 157.623Z" fill="black"/>
<path d="M224.017 158.323C223.978 157.867 223.965 157.154 223.965 156.976V156.277C223.965 155.254 223.516 154.844 222.499 154.844C222.09 154.844 221.635 154.957 221.318 155.102L221.344 155.861C221.641 155.636 222.017 155.491 222.394 155.491C222.869 155.491 223.159 155.643 223.159 156.211V156.224H222.612C221.285 156.224 220.948 156.798 220.948 157.385C220.948 158.032 221.522 158.402 222.136 158.402C222.559 158.402 222.988 158.177 223.186 157.814H223.199C223.206 157.966 223.212 158.197 223.239 158.323H224.017ZM223.159 156.791C223.159 157.484 222.75 157.755 222.354 157.755C221.998 157.755 221.793 157.603 221.793 157.339C221.793 156.937 222.143 156.752 222.77 156.752H223.159V156.791Z" fill="black"/>
<path d="M225.738 154.303V153.458H224.853V154.303H225.738ZM225.738 158.323V154.924H224.853V158.323H225.738Z" fill="black"/>
<path d="M227.575 158.323V153.372H226.69V158.323H227.575Z" fill="black"/>
<path d="M228.323 158.257C228.646 158.342 228.996 158.402 229.319 158.402C230.111 158.402 230.752 158.039 230.752 157.293C230.752 156.725 230.435 156.442 229.801 156.263C229.399 156.151 229.214 156.059 229.214 155.867C229.214 155.617 229.432 155.491 229.742 155.491C230.019 155.491 230.224 155.531 230.527 155.636L230.587 154.97C230.164 154.871 229.9 154.844 229.63 154.844C228.864 154.844 228.29 155.214 228.29 155.9C228.29 156.468 228.6 156.712 229.194 156.871C229.55 156.97 229.828 157.055 229.828 157.339C229.828 157.663 229.484 157.755 229.247 157.755C228.943 157.755 228.653 157.669 228.376 157.531L228.323 158.257Z" fill="black"/>
<path d="M225.642 98.4264C228.369 98.4264 230.58 96.2153 230.58 93.4878C230.58 90.7604 228.369 88.5493 225.642 88.5493C222.914 88.5493 220.703 90.7604 220.703 93.4878C220.703 96.2153 222.914 98.4264 225.642 98.4264Z" stroke="black" stroke-width="1.8858" stroke-miterlimit="10" stroke-linecap="round" stroke-linejoin="round"/>
<path d="M271.844 98.4254C274.571 98.4254 276.782 96.2143 276.782 93.4869C276.782 90.7594 274.571 88.5483 271.844 88.5483C269.116 88.5483 266.905 90.7594 266.905 93.4869C266.905 96.2143 269.116 98.4254 271.844 98.4254Z" stroke="black" stroke-width="1.8858" stroke-miterlimit="10" stroke-linecap="round" stroke-linejoin="round"/>
<path fill-rule="evenodd" clip-rule="evenodd" d="M229.661 93.2625C229.661 92.7417 230.083 92.3196 230.604 92.3196L233.551 92.3196C234.071 92.3196 234.493 92.7417 234.493 93.2625C234.493 93.7832 234.071 94.2054 233.551 94.2054L230.604 94.2054C230.083 94.2054 229.661 93.7832 229.661 93.2625ZM238.501 93.2625C238.501 92.7417 238.923 92.3196 239.444 92.3196L245.337 92.3196C245.858 92.3196 246.28 92.7417 246.28 93.2625C246.28 93.7832 245.858 94.2054 245.337 94.2054L239.444 94.2054C238.923 94.2054 238.501 93.7832 238.501 93.2625ZM250.287 93.2625C250.287 92.7417 250.709 92.3196 251.23 92.3196L257.123 92.3196C257.644 92.3196 258.066 92.7417 258.066 93.2625C258.066 93.7832 257.644 94.2054 257.123 94.2054L251.23 94.2054C250.709 94.2054 250.287 93.7832 250.287 93.2625ZM262.073 93.2625C262.073 92.7417 262.495 92.3196 263.016 92.3196L265.963 92.3196C266.483 92.3196 266.906 92.7417 266.906 93.2625C266.906 93.7832 266.483 94.2054 265.963 94.2054L263.016 94.2054C262.495 94.2054 262.073 93.7832 262.073 93.2625Z" fill="black"/>
<path d="M354.819 98.4264C357.547 98.4264 359.758 96.2153 359.758 93.4878C359.758 90.7604 357.547 88.5493 354.819 88.5493C352.092 88.5493 349.881 90.7604 349.881 93.4878C349.881 96.2153 352.092 98.4264 354.819 98.4264Z" stroke="black" stroke-width="1.8858" stroke-miterlimit="10" stroke-linecap="round" stroke-linejoin="round"/>
<path d="M401.021 98.4254C403.748 98.4254 405.959 96.2143 405.959 93.4869C405.959 90.7594 403.748 88.5483 401.021 88.5483C398.293 88.5483 396.082 90.7594 396.082 93.4869C396.082 96.2143 398.293 98.4254 401.021 98.4254Z" stroke="black" stroke-width="1.8858" stroke-miterlimit="10" stroke-linecap="round" stroke-linejoin="round"/>
<path fill-rule="evenodd" clip-rule="evenodd" d="M358.838 93.2625C358.838 92.7417 359.26 92.3196 359.781 92.3196L362.727 92.3196C363.248 92.3196 363.67 92.7417 363.67 93.2625C363.67 93.7832 363.248 94.2054 362.727 94.2054L359.781 94.2054C359.26 94.2054 358.838 93.7832 358.838 93.2625ZM367.678 93.2625C367.678 92.7417 368.1 92.3196 368.62 92.3196L374.514 92.3196C375.034 92.3196 375.456 92.7417 375.456 93.2625C375.456 93.7832 375.034 94.2054 374.514 94.2054L368.62 94.2054C368.1 94.2054 367.678 93.7832 367.678 93.2625ZM379.464 93.2625C379.464 92.7417 379.886 92.3196 380.407 92.3196L386.3 92.3196C386.821 92.3196 387.243 92.7417 387.243 93.2625C387.243 93.7832 386.821 94.2054 386.3 94.2054L380.407 94.2054C379.886 94.2054 379.464 93.7832 379.464 93.2625ZM391.25 93.2625C391.25 92.7417 391.672 92.3196 392.193 92.3196L395.139 92.3196C395.66 92.3196 396.082 92.7417 396.082 93.2625C396.082 93.7832 395.66 94.2054 395.139 94.2054L392.193 94.2054C391.672 94.2054 391.25 93.7832 391.25 93.2625Z" fill="black"/>
<path d="M483.995 98.4264C486.723 98.4264 488.934 96.2153 488.934 93.4878C488.934 90.7604 486.723 88.5493 483.995 88.5493C481.268 88.5493 479.057 90.7604 479.057 93.4878C479.057 96.2153 481.268 98.4264 483.995 98.4264Z" stroke="black" stroke-width="1.8858" stroke-miterlimit="10" stroke-linecap="round" stroke-linejoin="round"/>
<path d="M530.197 98.4254C532.925 98.4254 535.136 96.2143 535.136 93.4869C535.136 90.7594 532.925 88.5483 530.197 88.5483C527.47 88.5483 525.259 90.7594 525.259 93.4869C525.259 96.2143 527.47 98.4254 530.197 98.4254Z" stroke="black" stroke-width="1.8858" stroke-miterlimit="10" stroke-linecap="round" stroke-linejoin="round"/>
<path fill-rule="evenodd" clip-rule="evenodd" d="M488.015 93.2625C488.015 92.7417 488.437 92.3196 488.958 92.3196L491.904 92.3196C492.425 92.3196 492.847 92.7417 492.847 93.2625C492.847 93.7832 492.425 94.2054 491.904 94.2054L488.958 94.2054C488.437 94.2054 488.015 93.7832 488.015 93.2625ZM496.854 93.2625C496.854 92.7417 497.276 92.3196 497.797 92.3196L503.69 92.3196C504.211 92.3196 504.633 92.7417 504.633 93.2625C504.633 93.7832 504.211 94.2054 503.69 94.2054L497.797 94.2054C497.276 94.2054 496.854 93.7832 496.854 93.2625ZM508.641 93.2625C508.641 92.7417 509.063 92.3196 509.583 92.3196L515.477 92.3196C515.997 92.3196 516.419 92.7417 516.419 93.2625C516.419 93.7832 515.997 94.2054 515.477 94.2054L509.583 94.2054C509.063 94.2054 508.641 93.7832 508.641 93.2625ZM520.427 93.2625C520.427 92.7417 520.849 92.3196 521.37 92.3196L524.316 92.3196C524.837 92.3196 525.259 92.7417 525.259 93.2625C525.259 93.7832 524.837 94.2054 524.316 94.2054L521.37 94.2054C520.849 94.2054 520.427 93.7832 520.427 93.2625Z" fill="black"/>
<path d="M461.197 62.0142H423.588V116.718H461.197V62.0142Z" stroke="black" stroke-width="1.8858" stroke-miterlimit="10" stroke-linecap="round" stroke-linejoin="round"/>
<path d="M423.544 129.938H461.479C463.367 129.938 464.898 128.407 464.898 126.519V60.8516C464.898 58.9636 463.367 57.4326 461.479 57.4326H423.544C421.656 57.4326 420.125 58.9636 420.125 60.8516V126.523C420.125 128.407 421.656 129.938 423.544 129.938Z" stroke="black" stroke-width="1.8858" stroke-miterlimit="10" stroke-linecap="round" stroke-linejoin="round"/>
<path d="M442.39 125.812C443.963 125.812 445.239 124.536 445.239 122.963C445.239 121.39 443.963 120.114 442.39 120.114C440.817 120.114 439.541 121.39 439.541 122.963C439.541 124.536 440.817 125.812 442.39 125.812Z" stroke="black" stroke-width="1.8858" stroke-miterlimit="10" stroke-linecap="round" stroke-linejoin="round"/>
<path d="M436.898 81.2429C436.277 81.2429 435.774 80.8412 435.774 80.3465V76.7674C435.774 76.2728 436.277 75.8711 436.898 75.8711C437.518 75.8711 438.021 76.2728 438.021 76.7674V80.3497C438.021 80.8443 437.518 81.2429 436.898 81.2429Z" stroke="black" stroke-width="1.41435" stroke-linecap="round" stroke-linejoin="round"/>
<path d="M448.131 81.1924C447.51 81.1924 447.008 80.7923 447.008 80.2977V76.7154C447.008 76.2192 447.51 75.8191 448.131 75.8191C448.752 75.8191 449.249 76.2192 449.249 76.7154V80.2977C449.249 80.7923 448.752 81.1924 448.131 81.1924Z" stroke="black" stroke-width="1.41435" stroke-linecap="round" stroke-linejoin="round"/>
<path d="M432.085 86.4224H452.728" stroke="black" stroke-width="1.41435" stroke-linecap="round" stroke-linejoin="round"/>
<path d="M432.085 91.6128H451.844" stroke="black" stroke-width="1.41435" stroke-linecap="round" stroke-linejoin="round"/>
<path d="M432.462 96.4871H451.591" stroke="black" stroke-width="1.41435" stroke-linecap="round" stroke-linejoin="round"/>
<path d="M436.277 87.5583V100.941" stroke="black" stroke-width="1.41435" stroke-linecap="round" stroke-linejoin="round"/>
<path d="M442.456 87.5864V100.97" stroke="black" stroke-width="1.41435" stroke-linecap="round" stroke-linejoin="round"/>
<path d="M448.636 87.5864V97.8133" stroke="black" stroke-width="1.41435" stroke-linecap="round" stroke-linejoin="round"/>
<path d="M449.311 78.5886H451.044C452.047 78.5886 453.008 78.9869 453.717 79.696C454.426 80.405 454.825 81.3666 454.825 82.3693V99.3747C454.826 99.8719 454.729 100.364 454.539 100.824C454.35 101.284 454.071 101.701 453.72 102.053C453.369 102.405 452.952 102.684 452.493 102.875C452.033 103.065 451.541 103.163 451.044 103.163H434.046C433.042 103.163 432.078 102.764 431.367 102.054C430.657 101.343 430.258 100.38 430.258 99.3747V82.3756C430.258 81.8785 430.356 81.3862 430.546 80.927C430.737 80.4678 431.016 80.0507 431.368 79.6995C431.72 79.3483 432.138 79.07 432.597 78.8805C433.057 78.6909 433.549 78.5939 434.046 78.5949H435.732" stroke="black" stroke-width="1.41435" stroke-linecap="round" stroke-linejoin="round"/>
<path d="M438.083 78.5886H447.01" stroke="black" stroke-width="1.41435" stroke-linecap="round" stroke-linejoin="round"/>
<path d="M423.465 148.381C423.465 149.206 423.168 149.661 422.508 149.661C421.848 149.661 421.551 149.206 421.551 148.381V145.701H420.627V148.658C420.627 149.747 421.188 150.387 422.508 150.387C423.776 150.387 424.389 149.793 424.389 148.664V145.701H423.465V148.381Z" fill="black"/>
<path d="M425.16 150.242C425.483 150.328 425.833 150.387 426.156 150.387C426.948 150.387 427.588 150.024 427.588 149.278C427.588 148.711 427.272 148.427 426.638 148.249C426.235 148.136 426.051 148.044 426.051 147.853C426.051 147.602 426.268 147.476 426.579 147.476C426.856 147.476 427.06 147.516 427.364 147.622L427.423 146.955C427.001 146.856 426.737 146.83 426.466 146.83C425.701 146.83 425.127 147.199 425.127 147.886C425.127 148.453 425.437 148.697 426.031 148.856C426.387 148.955 426.664 149.041 426.664 149.324C426.664 149.648 426.321 149.74 426.084 149.74C425.78 149.74 425.49 149.654 425.212 149.516L425.16 150.242Z" fill="black"/>
<path d="M431.003 149.397C430.673 149.582 430.303 149.74 429.881 149.74C429.307 149.74 428.944 149.417 428.904 148.882H431.254C431.254 147.542 430.792 146.83 429.637 146.83C428.554 146.83 428.059 147.674 428.059 148.625C428.059 149.74 428.713 150.387 429.841 150.387C430.31 150.387 430.68 150.295 431.003 150.117V149.397ZM428.904 148.275C428.95 147.767 429.241 147.476 429.683 147.476C430.145 147.476 430.376 147.787 430.409 148.275H428.904Z" fill="black"/>
<path d="M432.849 150.308V148.909C432.849 147.853 433.238 147.674 433.568 147.674C433.727 147.674 433.885 147.701 433.964 147.747V146.856C433.938 146.849 433.885 146.83 433.7 146.83C433.186 146.83 432.816 147.325 432.763 147.681H432.75V146.909H431.964V150.308H432.849Z" fill="black"/>
<path d="M439.073 149.397C438.743 149.582 438.373 149.74 437.951 149.74C437.377 149.74 437.014 149.417 436.974 148.882H439.324C439.324 147.542 438.862 146.83 437.707 146.83C436.624 146.83 436.129 147.674 436.129 148.625C436.129 149.74 436.783 150.387 437.911 150.387C438.38 150.387 438.75 150.295 439.073 150.117V149.397ZM436.974 148.275C437.02 147.767 437.311 147.476 437.753 147.476C438.215 147.476 438.446 147.787 438.479 148.275H436.974Z" fill="black"/>
<path d="M443.136 150.308V148.163C443.136 147.364 442.76 146.83 441.981 146.83C441.513 146.83 441.137 146.988 440.866 147.371H440.853V146.909H440.015V150.308H440.899V148.658C440.899 148.057 441.117 147.516 441.678 147.516C442.146 147.516 442.252 147.892 442.252 148.4V150.308H443.136Z" fill="black"/>
<path d="M446.043 149.608C445.95 149.668 445.799 149.701 445.647 149.701C445.337 149.701 445.224 149.489 445.224 149.133V147.556H446.01V146.909H445.224V145.945L444.34 146.229V146.909H443.686V147.556H444.34V149.285C444.34 149.938 444.703 150.387 445.422 150.387C445.68 150.387 445.884 150.361 446.069 150.308L446.043 149.608Z" fill="black"/>
<path d="M449.341 149.397C449.011 149.582 448.641 149.74 448.219 149.74C447.644 149.74 447.281 149.417 447.242 148.882H449.592C449.592 147.542 449.13 146.83 447.974 146.83C446.892 146.83 446.397 147.674 446.397 148.625C446.397 149.74 447.05 150.387 448.179 150.387C448.648 150.387 449.017 150.295 449.341 150.117V149.397ZM447.242 148.275C447.288 147.767 447.578 147.476 448.021 147.476C448.483 147.476 448.714 147.787 448.747 148.275H447.242Z" fill="black"/>
<path d="M451.187 150.308V148.909C451.187 147.853 451.576 147.674 451.906 147.674C452.064 147.674 452.223 147.701 452.302 147.747V146.856C452.276 146.849 452.223 146.83 452.038 146.83C451.523 146.83 451.154 147.325 451.101 147.681H451.088V146.909H450.302V150.308H451.187Z" fill="black"/>
<path d="M452.663 150.242C452.986 150.328 453.336 150.387 453.66 150.387C454.452 150.387 455.092 150.024 455.092 149.278C455.092 148.711 454.775 148.427 454.141 148.249C453.739 148.136 453.554 148.044 453.554 147.853C453.554 147.602 453.772 147.476 454.082 147.476C454.359 147.476 454.564 147.516 454.867 147.622L454.927 146.955C454.504 146.856 454.24 146.83 453.97 146.83C453.204 146.83 452.63 147.199 452.63 147.886C452.63 148.453 452.94 148.697 453.534 148.856C453.891 148.955 454.168 149.041 454.168 149.324C454.168 149.648 453.825 149.74 453.587 149.74C453.283 149.74 452.993 149.654 452.716 149.516L452.663 150.242Z" fill="black"/>
<path d="M423.703 158.323V153.372H422.819V155.319H422.805C422.541 154.996 422.231 154.844 421.789 154.844C420.812 154.844 420.363 155.583 420.363 156.613C420.363 157.557 420.753 158.402 421.789 158.402C422.205 158.402 422.568 158.27 422.832 157.94H422.845V158.323H423.703ZM422.033 157.715C421.459 157.715 421.287 157.095 421.287 156.613C421.287 156.085 421.485 155.531 422.02 155.531C422.588 155.531 422.812 156.138 422.812 156.613C422.812 157.108 422.614 157.715 422.033 157.715Z" fill="black"/>
<path d="M427.467 158.323C427.428 157.867 427.415 157.154 427.415 156.976V156.276C427.415 155.253 426.966 154.844 425.949 154.844C425.54 154.844 425.085 154.956 424.768 155.102L424.794 155.861C425.091 155.636 425.467 155.491 425.844 155.491C426.319 155.491 426.609 155.643 426.609 156.21V156.224H426.061C424.735 156.224 424.398 156.798 424.398 157.385C424.398 158.032 424.972 158.402 425.586 158.402C426.009 158.402 426.438 158.177 426.636 157.814H426.649C426.656 157.966 426.662 158.197 426.689 158.323H427.467ZM426.609 156.791C426.609 157.484 426.2 157.755 425.804 157.755C425.448 157.755 425.243 157.603 425.243 157.339C425.243 156.936 425.593 156.752 426.22 156.752H426.609V156.791Z" fill="black"/>
<path d="M430.277 157.623C430.184 157.682 430.033 157.715 429.881 157.715C429.571 157.715 429.458 157.504 429.458 157.148V155.57H430.244V154.923H429.458V153.96L428.574 154.244V154.923H427.921V155.57H428.574V157.3C428.574 157.953 428.937 158.402 429.656 158.402C429.914 158.402 430.118 158.375 430.303 158.323L430.277 157.623Z" fill="black"/>
<path d="M433.575 157.412C433.245 157.597 432.875 157.755 432.453 157.755C431.879 157.755 431.516 157.432 431.476 156.897H433.826C433.826 155.557 433.364 154.844 432.209 154.844C431.126 154.844 430.631 155.689 430.631 156.639C430.631 157.755 431.285 158.402 432.413 158.402C432.882 158.402 433.251 158.309 433.575 158.131V157.412ZM431.476 156.29C431.522 155.781 431.813 155.491 432.255 155.491C432.717 155.491 432.948 155.801 432.981 156.29H431.476Z" fill="black"/>
<path d="M439.693 156.646C439.693 155.55 438.947 154.844 437.911 154.844C436.875 154.844 436.136 155.557 436.136 156.646C436.136 157.649 436.815 158.402 437.911 158.402C439.007 158.402 439.693 157.656 439.693 156.646ZM437.911 157.715C437.337 157.715 437.06 157.26 437.06 156.54C437.06 156.006 437.357 155.531 437.911 155.531C438.479 155.531 438.769 155.999 438.769 156.54C438.769 157.273 438.485 157.715 437.911 157.715Z" fill="black"/>
<path d="M441.596 158.323V155.57H442.368V154.923H441.596V154.501C441.596 154.178 441.728 153.98 441.986 153.98C442.124 153.98 442.23 154.013 442.368 154.098L442.441 153.366C442.269 153.326 442.012 153.293 441.807 153.293C441.009 153.293 440.712 153.867 440.712 154.442V154.923H440.058V155.57H440.712V158.323H441.596Z" fill="black"/>
<path d="M445.649 158.323V157.907H445.662C445.88 158.217 446.249 158.402 446.705 158.402C447.701 158.402 448.13 157.61 448.13 156.613C448.13 155.55 447.655 154.844 446.705 154.844C446.243 154.844 445.933 155.036 445.688 155.359H445.675V153.372H444.791V158.323H445.649ZM446.461 157.715C445.9 157.715 445.682 157.141 445.682 156.613C445.682 156.118 445.919 155.531 446.474 155.531C447.008 155.531 447.206 156.085 447.206 156.613C447.206 157.128 447.015 157.715 446.461 157.715Z" fill="black"/>
<path d="M449.73 154.303V153.458H448.845V154.303H449.73ZM449.73 158.323V154.923H448.845V158.323H449.73Z" fill="black"/>
<path d="M451.567 158.323V156.923C451.567 155.867 451.956 155.689 452.286 155.689C452.445 155.689 452.603 155.715 452.682 155.762V154.871C452.656 154.864 452.603 154.844 452.418 154.844C451.904 154.844 451.534 155.339 451.481 155.696H451.468V154.923H450.682V158.323H451.567Z" fill="black"/>
<path d="M455.221 157.623C455.129 157.682 454.977 157.715 454.825 157.715C454.515 157.715 454.403 157.504 454.403 157.148V155.57H455.188V154.923H454.403V153.96L453.518 154.244V154.923H452.865V155.57H453.518V157.3C453.518 157.953 453.881 158.402 454.601 158.402C454.858 158.402 455.063 158.375 455.248 158.323L455.221 157.623Z" fill="black"/>
<path d="M458.915 158.323V156.171C458.915 155.392 458.546 154.844 457.76 154.844C457.292 154.844 456.909 155.062 456.691 155.385H456.678V153.372H455.793V158.323H456.678V156.679C456.678 156.006 456.935 155.531 457.457 155.531C457.846 155.531 458.031 155.781 458.031 156.402V158.323H458.915Z" fill="black"/>
<path d="M590.372 62.0142H552.764V116.718H590.372V62.0142Z" stroke="black" stroke-width="1.8858" stroke-miterlimit="10" stroke-linecap="round" stroke-linejoin="round"/>
<path d="M552.722 129.938H590.657C592.545 129.938 594.076 128.407 594.076 126.519V60.8516C594.076 58.9636 592.545 57.4326 590.657 57.4326H552.722C550.834 57.4326 549.303 58.9636 549.303 60.8516V126.523C549.303 128.407 550.834 129.938 552.722 129.938Z" stroke="black" stroke-width="1.8858" stroke-miterlimit="10" stroke-linecap="round" stroke-linejoin="round"/>
<path d="M571.568 125.812C573.141 125.812 574.417 124.536 574.417 122.963C574.417 121.39 573.141 120.114 571.568 120.114C569.995 120.114 568.719 121.39 568.719 122.963C568.719 124.536 569.995 125.812 571.568 125.812Z" stroke="black" stroke-width="1.8858" stroke-miterlimit="10" stroke-linecap="round" stroke-linejoin="round"/>
<path d="M571.226 105.049C579.167 105.049 585.605 98.6111 585.605 90.6697C585.605 82.7283 579.167 76.2905 571.226 76.2905C563.284 76.2905 556.847 82.7283 556.847 90.6697C556.847 98.6111 563.284 105.049 571.226 105.049Z" stroke="black" stroke-width="1.52005" stroke-miterlimit="10" stroke-linecap="round" stroke-linejoin="round"/>
<path d="M564.693 94.1909L566.902 97.2017L577.757 84.1382" stroke="black" stroke-width="1.8858" stroke-miterlimit="10" stroke-linecap="round" stroke-linejoin="round"/>
<path d="M552.643 148.381C552.643 149.206 552.346 149.661 551.686 149.661C551.026 149.661 550.729 149.206 550.729 148.381V145.701H549.805V148.658C549.805 149.747 550.366 150.387 551.686 150.387C552.953 150.387 553.567 149.793 553.567 148.664V145.701H552.643V148.381Z" fill="black"/>
<path d="M554.337 150.242C554.66 150.328 555.01 150.387 555.334 150.387C556.126 150.387 556.766 150.024 556.766 149.278C556.766 148.711 556.449 148.427 555.815 148.249C555.413 148.136 555.228 148.044 555.228 147.853C555.228 147.602 555.446 147.476 555.756 147.476C556.033 147.476 556.238 147.516 556.542 147.622L556.601 146.955C556.178 146.856 555.914 146.83 555.644 146.83C554.878 146.83 554.304 147.199 554.304 147.886C554.304 148.453 554.614 148.697 555.208 148.856C555.565 148.955 555.842 149.041 555.842 149.324C555.842 149.648 555.499 149.74 555.261 149.74C554.957 149.74 554.667 149.654 554.39 149.516L554.337 150.242Z" fill="black"/>
<path d="M560.18 149.397C559.85 149.582 559.481 149.74 559.058 149.74C558.484 149.74 558.121 149.417 558.082 148.882H560.431C560.431 147.542 559.969 146.83 558.814 146.83C557.732 146.83 557.237 147.674 557.237 148.625C557.237 149.74 557.89 150.387 559.019 150.387C559.487 150.387 559.857 150.295 560.18 150.116V149.397ZM558.082 148.275C558.128 147.767 558.418 147.476 558.86 147.476C559.322 147.476 559.553 147.787 559.586 148.275H558.082Z" fill="black"/>
<path d="M562.026 150.308V148.909C562.026 147.853 562.416 147.674 562.746 147.674C562.904 147.674 563.063 147.701 563.142 147.747V146.856C563.115 146.849 563.063 146.83 562.878 146.83C562.363 146.83 561.993 147.325 561.941 147.681H561.927V146.909H561.142V150.308H562.026Z" fill="black"/>
<path d="M568.646 150.308V148.156C568.646 147.377 568.277 146.83 567.491 146.83C567.023 146.83 566.64 147.047 566.422 147.371H566.409V145.358H565.524V150.308H566.409V148.664C566.409 147.991 566.666 147.516 567.188 147.516C567.577 147.516 567.762 147.767 567.762 148.387V150.308H568.646Z" fill="black"/>
<path d="M572.411 150.308C572.371 149.852 572.358 149.14 572.358 148.961V148.262C572.358 147.239 571.909 146.83 570.893 146.83C570.483 146.83 570.028 146.942 569.711 147.087L569.738 147.846C570.035 147.622 570.411 147.476 570.787 147.476C571.262 147.476 571.553 147.628 571.553 148.196V148.209H571.005C569.678 148.209 569.342 148.783 569.342 149.371C569.342 150.017 569.916 150.387 570.53 150.387C570.952 150.387 571.381 150.163 571.579 149.8H571.592C571.599 149.951 571.605 150.182 571.632 150.308H572.411ZM571.553 148.777C571.553 149.47 571.143 149.74 570.747 149.74C570.391 149.74 570.186 149.588 570.186 149.324C570.186 148.922 570.536 148.737 571.163 148.737H571.553V148.777Z" fill="black"/>
<path d="M573.042 150.242C573.366 150.328 573.715 150.387 574.039 150.387C574.831 150.387 575.471 150.024 575.471 149.278C575.471 148.711 575.154 148.427 574.521 148.249C574.118 148.136 573.933 148.044 573.933 147.853C573.933 147.602 574.151 147.476 574.461 147.476C574.738 147.476 574.943 147.516 575.247 147.622L575.306 146.955C574.884 146.856 574.62 146.83 574.349 146.83C573.583 146.83 573.009 147.199 573.009 147.886C573.009 148.453 573.319 148.697 573.913 148.856C574.27 148.955 574.547 149.041 574.547 149.324C574.547 149.648 574.204 149.74 573.966 149.74C573.663 149.74 573.372 149.654 573.095 149.516L573.042 150.242Z" fill="black"/>
<path d="M580.848 150.308C580.808 149.852 580.795 149.14 580.795 148.961V148.262C580.795 147.239 580.346 146.83 579.33 146.83C578.921 146.83 578.465 146.942 578.148 147.087L578.175 147.846C578.472 147.622 578.848 147.476 579.224 147.476C579.7 147.476 579.99 147.628 579.99 148.196V148.209H579.442C578.115 148.209 577.779 148.783 577.779 149.371C577.779 150.017 578.353 150.387 578.967 150.387C579.389 150.387 579.818 150.163 580.016 149.8H580.03C580.036 149.951 580.043 150.182 580.069 150.308H580.848ZM579.99 148.777C579.99 149.47 579.581 149.74 579.185 149.74C578.828 149.74 578.624 149.588 578.624 149.324C578.624 148.922 578.973 148.737 579.601 148.737H579.99V148.777Z" fill="black"/>
<path d="M583.968 149.542C583.737 149.641 583.479 149.701 583.288 149.701C582.694 149.701 582.37 149.252 582.37 148.592C582.37 147.952 582.72 147.516 583.275 147.516C583.519 147.516 583.697 147.562 583.869 147.641L583.948 146.942C583.704 146.869 583.44 146.83 583.096 146.83C582.054 146.83 581.446 147.575 581.446 148.592C581.446 149.701 582.067 150.387 583.129 150.387C583.492 150.387 583.743 150.354 584.007 150.275L583.968 149.542Z" fill="black"/>
<path d="M586.9 149.542C586.669 149.641 586.412 149.701 586.221 149.701C585.627 149.701 585.303 149.252 585.303 148.592C585.303 147.952 585.653 147.516 586.207 147.516C586.452 147.516 586.63 147.562 586.801 147.641L586.881 146.942C586.636 146.869 586.372 146.83 586.029 146.83C584.986 146.83 584.379 147.575 584.379 148.592C584.379 149.701 585 150.387 586.062 150.387C586.425 150.387 586.676 150.354 586.94 150.275L586.9 149.542Z" fill="black"/>
<path d="M590.256 149.397C589.926 149.582 589.556 149.74 589.134 149.74C588.559 149.74 588.196 149.417 588.157 148.882H590.506C590.506 147.542 590.044 146.83 588.889 146.83C587.807 146.83 587.312 147.674 587.312 148.625C587.312 149.74 587.965 150.387 589.094 150.387C589.563 150.387 589.932 150.295 590.256 150.116V149.397ZM588.157 148.275C588.203 147.767 588.493 147.476 588.936 147.476C589.398 147.476 589.629 147.787 589.662 148.275H588.157Z" fill="black"/>
<path d="M591.012 150.242C591.336 150.328 591.686 150.387 592.009 150.387C592.801 150.387 593.441 150.024 593.441 149.278C593.441 148.711 593.125 148.427 592.491 148.249C592.088 148.136 591.903 148.044 591.903 147.853C591.903 147.602 592.121 147.476 592.431 147.476C592.709 147.476 592.913 147.516 593.217 147.622L593.276 146.955C592.854 146.856 592.59 146.83 592.319 146.83C591.554 146.83 590.979 147.199 590.979 147.886C590.979 148.453 591.29 148.697 591.884 148.856C592.24 148.955 592.517 149.041 592.517 149.324C592.517 149.648 592.174 149.74 591.936 149.74C591.633 149.74 591.342 149.654 591.065 149.516L591.012 150.242Z" fill="black"/>
<path d="M593.945 150.242C594.269 150.328 594.618 150.387 594.942 150.387C595.734 150.387 596.374 150.024 596.374 149.278C596.374 148.711 596.057 148.427 595.424 148.249C595.021 148.136 594.836 148.044 594.836 147.853C594.836 147.602 595.054 147.476 595.364 147.476C595.641 147.476 595.846 147.516 596.15 147.622L596.209 146.955C595.787 146.856 595.523 146.83 595.252 146.83C594.486 146.83 593.912 147.199 593.912 147.886C593.912 148.453 594.222 148.697 594.816 148.856C595.173 148.955 595.45 149.041 595.45 149.324C595.45 149.648 595.107 149.74 594.869 149.74C594.566 149.74 594.275 149.654 593.998 149.516L593.945 150.242Z" fill="black"/>
<path d="M551.752 157.623C551.659 157.682 551.508 157.715 551.356 157.715C551.046 157.715 550.933 157.504 550.933 157.148V155.57H551.719V154.923H550.933V153.96L550.049 154.244V154.923H549.396V155.57H550.049V157.299C550.049 157.953 550.412 158.402 551.131 158.402C551.389 158.402 551.593 158.375 551.778 158.323L551.752 157.623Z" fill="black"/>
<path d="M555.664 156.646C555.664 155.55 554.918 154.844 553.882 154.844C552.845 154.844 552.106 155.557 552.106 156.646C552.106 157.649 552.786 158.402 553.882 158.402C554.977 158.402 555.664 157.656 555.664 156.646ZM553.882 157.715C553.307 157.715 553.03 157.26 553.03 156.54C553.03 156.006 553.327 155.531 553.882 155.531C554.449 155.531 554.74 155.999 554.74 156.54C554.74 157.273 554.456 157.715 553.882 157.715Z" fill="black"/>
<path d="M558.011 158.257C558.334 158.342 558.684 158.402 559.008 158.402C559.8 158.402 560.44 158.039 560.44 157.293C560.44 156.725 560.123 156.441 559.489 156.263C559.087 156.151 558.902 156.059 558.902 155.867C558.902 155.616 559.12 155.491 559.43 155.491C559.707 155.491 559.912 155.531 560.215 155.636L560.275 154.97C559.852 154.871 559.588 154.844 559.318 154.844C558.552 154.844 557.978 155.214 557.978 155.9C557.978 156.468 558.288 156.712 558.882 156.87C559.239 156.969 559.516 157.055 559.516 157.339C559.516 157.662 559.173 157.755 558.935 157.755C558.631 157.755 558.341 157.669 558.064 157.53L558.011 158.257Z" fill="black"/>
<path d="M563.854 157.412C563.524 157.596 563.155 157.755 562.732 157.755C562.158 157.755 561.795 157.431 561.756 156.897H564.105C564.105 155.557 563.643 154.844 562.488 154.844C561.406 154.844 560.911 155.689 560.911 156.639C560.911 157.755 561.564 158.402 562.693 158.402C563.161 158.402 563.531 158.309 563.854 158.131V157.412ZM561.756 156.29C561.802 155.781 562.092 155.491 562.534 155.491C562.996 155.491 563.227 155.801 563.26 156.29H561.756Z" fill="black"/>
<path d="M565.7 158.323V156.923C565.7 155.867 566.09 155.689 566.42 155.689C566.578 155.689 566.737 155.715 566.816 155.762V154.871C566.789 154.864 566.737 154.844 566.552 154.844C566.037 154.844 565.667 155.339 565.615 155.696H565.601V154.923H564.816V158.323H565.7Z" fill="black"/>
<path d="M569.243 158.323L570.497 154.923H569.612L568.794 157.398H568.78L567.936 154.923H566.985L568.246 158.323H569.243Z" fill="black"/>
<path d="M571.933 154.303V153.458H571.049V154.303H571.933ZM571.933 158.323V154.923H571.049V158.323H571.933Z" fill="black"/>
<path d="M575.169 157.557C574.938 157.656 574.681 157.715 574.49 157.715C573.896 157.715 573.572 157.266 573.572 156.606C573.572 155.966 573.922 155.531 574.476 155.531C574.721 155.531 574.899 155.577 575.07 155.656L575.15 154.956C574.905 154.884 574.641 154.844 574.298 154.844C573.255 154.844 572.648 155.59 572.648 156.606C572.648 157.715 573.269 158.402 574.331 158.402C574.694 158.402 574.945 158.369 575.209 158.29L575.169 157.557Z" fill="black"/>
<path d="M578.525 157.412C578.195 157.596 577.825 157.755 577.403 157.755C576.828 157.755 576.465 157.431 576.426 156.897H578.775C578.775 155.557 578.313 154.844 577.158 154.844C576.076 154.844 575.581 155.689 575.581 156.639C575.581 157.755 576.234 158.402 577.363 158.402C577.832 158.402 578.201 158.309 578.525 158.131V157.412ZM576.426 156.29C576.472 155.781 576.762 155.491 577.205 155.491C577.667 155.491 577.898 155.801 577.931 156.29H576.426Z" fill="black"/>
<path d="M332.018 62.0142H294.409V116.718H332.018V62.0142Z" stroke="black" stroke-width="1.8858" stroke-miterlimit="10" stroke-linecap="round" stroke-linejoin="round"/>
<path d="M294.368 129.938H332.304C334.192 129.938 335.723 128.407 335.723 126.519V60.8516C335.723 58.9636 334.192 57.4326 332.304 57.4326H294.368C292.48 57.4326 290.949 58.9636 290.949 60.8516V126.523C290.949 128.407 292.48 129.938 294.368 129.938Z" stroke="black" stroke-width="1.8858" stroke-miterlimit="10" stroke-linecap="round" stroke-linejoin="round"/>
<path d="M313.214 125.812C314.787 125.812 316.064 124.536 316.064 122.963C316.064 121.39 314.787 120.114 313.214 120.114C311.642 120.114 310.365 121.39 310.365 122.963C310.365 124.536 311.642 125.812 313.214 125.812Z" stroke="black" stroke-width="1.8858" stroke-miterlimit="10" stroke-linecap="round" stroke-linejoin="round"/>
<path d="M304.222 103.163C304.771 98.5501 308.647 94.964 313.346 94.964C318.046 94.964 321.921 98.5501 322.47 103.163H304.222ZM322.543 85.1311C322.543 90.2789 318.422 94.4434 313.346 94.4434C308.271 94.4434 304.149 90.2645 304.149 85.1311C304.149 79.9978 308.271 75.8188 313.346 75.8188C318.422 75.8188 322.543 79.9834 322.543 85.1311Z" stroke="black" stroke-width="1.41435" stroke-miterlimit="10" stroke-linecap="round" stroke-linejoin="round"/>
<path d="M294.289 146.967C294.289 147.792 293.992 148.247 293.332 148.247C292.672 148.247 292.375 147.792 292.375 146.967V144.287H291.451V147.244C291.451 148.333 292.012 148.973 293.332 148.973C294.599 148.973 295.213 148.379 295.213 147.25V144.287H294.289V146.967Z" fill="black"/>
<path d="M295.983 148.828C296.306 148.914 296.656 148.973 296.979 148.973C297.771 148.973 298.412 148.61 298.412 147.864C298.412 147.297 298.095 147.013 297.461 146.835C297.059 146.722 296.874 146.63 296.874 146.439C296.874 146.188 297.092 146.062 297.402 146.062C297.679 146.062 297.884 146.102 298.187 146.208L298.247 145.541C297.824 145.442 297.56 145.416 297.29 145.416C296.524 145.416 295.95 145.785 295.95 146.472C295.95 147.039 296.26 147.283 296.854 147.442C297.21 147.541 297.488 147.627 297.488 147.91C297.488 148.234 297.144 148.326 296.907 148.326C296.603 148.326 296.313 148.24 296.036 148.102L295.983 148.828Z" fill="black"/>
<path d="M301.826 147.983C301.496 148.168 301.127 148.326 300.704 148.326C300.13 148.326 299.767 148.003 299.727 147.468H302.077C302.077 146.128 301.615 145.416 300.46 145.416C299.378 145.416 298.883 146.26 298.883 147.211C298.883 148.326 299.536 148.973 300.665 148.973C301.133 148.973 301.503 148.881 301.826 148.703V147.983ZM299.727 146.861C299.774 146.353 300.064 146.062 300.506 146.062C300.968 146.062 301.199 146.373 301.232 146.861H299.727Z" fill="black"/>
<path d="M303.672 148.894V147.495C303.672 146.439 304.062 146.26 304.392 146.26C304.55 146.26 304.708 146.287 304.788 146.333V145.442C304.761 145.435 304.708 145.416 304.524 145.416C304.009 145.416 303.639 145.911 303.586 146.267H303.573V145.495H302.788V148.894H303.672Z" fill="black"/>
<path d="M309.896 147.983C309.566 148.168 309.197 148.326 308.774 148.326C308.2 148.326 307.837 148.003 307.797 147.468H310.147C310.147 146.128 309.685 145.416 308.53 145.416C307.447 145.416 306.952 146.26 306.952 147.211C306.952 148.326 307.606 148.973 308.734 148.973C309.203 148.973 309.573 148.881 309.896 148.703V147.983ZM307.797 146.861C307.843 146.353 308.134 146.062 308.576 146.062C309.038 146.062 309.269 146.373 309.302 146.861H307.797Z" fill="black"/>
<path d="M313.96 148.894V146.749C313.96 145.95 313.583 145.416 312.805 145.416C312.336 145.416 311.96 145.574 311.689 145.957H311.676V145.495H310.838V148.894H311.722V147.244C311.722 146.643 311.94 146.102 312.501 146.102C312.97 146.102 313.075 146.478 313.075 146.986V148.894H313.96Z" fill="black"/>
<path d="M316.866 148.194C316.774 148.254 316.622 148.287 316.47 148.287C316.16 148.287 316.048 148.075 316.048 147.719V146.142H316.833V145.495H316.048V144.531L315.163 144.815V145.495H314.51V146.142H315.163V147.871C315.163 148.524 315.526 148.973 316.246 148.973C316.503 148.973 316.708 148.947 316.892 148.894L316.866 148.194Z" fill="black"/>
<path d="M320.164 147.983C319.834 148.168 319.464 148.326 319.042 148.326C318.468 148.326 318.105 148.003 318.065 147.468H320.415C320.415 146.128 319.953 145.416 318.798 145.416C317.715 145.416 317.22 146.26 317.22 147.211C317.22 148.326 317.874 148.973 319.002 148.973C319.471 148.973 319.841 148.881 320.164 148.703V147.983ZM318.065 146.861C318.111 146.353 318.402 146.062 318.844 146.062C319.306 146.062 319.537 146.373 319.57 146.861H318.065Z" fill="black"/>
<path d="M322.01 148.894V147.495C322.01 146.439 322.399 146.26 322.729 146.26C322.888 146.26 323.046 146.287 323.125 146.333V145.442C323.099 145.435 323.046 145.416 322.861 145.416C322.346 145.416 321.977 145.911 321.924 146.267H321.911V145.495H321.125V148.894H322.01Z" fill="black"/>
<path d="M323.486 148.828C323.81 148.914 324.159 148.973 324.483 148.973C325.275 148.973 325.915 148.61 325.915 147.864C325.915 147.297 325.598 147.013 324.965 146.835C324.562 146.722 324.377 146.63 324.377 146.439C324.377 146.188 324.595 146.062 324.905 146.062C325.182 146.062 325.387 146.102 325.691 146.208L325.75 145.541C325.328 145.442 325.064 145.416 324.793 145.416C324.027 145.416 323.453 145.785 323.453 146.472C323.453 147.039 323.763 147.283 324.357 147.442C324.714 147.541 324.991 147.627 324.991 147.91C324.991 148.234 324.648 148.326 324.41 148.326C324.107 148.326 323.816 148.24 323.539 148.102L323.486 148.828Z" fill="black"/>
<path d="M329.649 148.894V146.142H330.421V145.495H329.649V145.072C329.649 144.749 329.781 144.551 330.038 144.551C330.177 144.551 330.282 144.584 330.421 144.67L330.493 143.937C330.322 143.898 330.064 143.865 329.86 143.865C329.061 143.865 328.764 144.439 328.764 145.013V145.495H328.111V146.142H328.764V148.894H329.649Z" fill="black"/>
<path d="M334.128 148.894V145.495H333.244V147.138C333.244 147.792 332.999 148.287 332.465 148.287C332.141 148.287 331.89 148.115 331.89 147.435V145.495H331.006V147.64C331.006 148.465 331.402 148.973 332.161 148.973C332.603 148.973 332.986 148.782 333.277 148.432H333.29V148.894H334.128Z" fill="black"/>
<path d="M335.945 148.894V143.944H335.061V148.894H335.945Z" fill="black"/>
<path d="M337.782 148.894V143.944H336.898V148.894H337.782Z" fill="black"/>
<path d="M294.526 156.909V154.763C294.526 153.965 294.15 153.43 293.371 153.43C292.903 153.43 292.526 153.589 292.256 153.971H292.243V153.509H291.404V156.909H292.289V155.258C292.289 154.658 292.507 154.117 293.068 154.117C293.536 154.117 293.642 154.493 293.642 155.001V156.909H294.526Z" fill="black"/>
<path d="M298.291 156.909C298.251 156.453 298.238 155.74 298.238 155.562V154.862C298.238 153.839 297.789 153.43 296.772 153.43C296.363 153.43 295.908 153.542 295.591 153.688L295.617 154.447C295.914 154.222 296.291 154.077 296.667 154.077C297.142 154.077 297.433 154.229 297.433 154.796V154.81H296.885C295.558 154.81 295.221 155.384 295.221 155.971C295.221 156.618 295.796 156.988 296.409 156.988C296.832 156.988 297.261 156.763 297.459 156.4H297.472C297.479 156.552 297.485 156.783 297.512 156.909H298.291ZM297.433 155.377C297.433 156.07 297.023 156.341 296.627 156.341C296.271 156.341 296.066 156.189 296.066 155.925C296.066 155.522 296.416 155.338 297.043 155.338H297.433V155.377Z" fill="black"/>
<path d="M304.083 156.909V154.75C304.083 153.866 303.734 153.43 303.014 153.43C302.546 153.43 302.13 153.655 301.945 154.031C301.753 153.608 301.417 153.43 300.948 153.43C300.519 153.43 300.163 153.641 299.932 153.985H299.919V153.509H299.094V156.909H299.978V155.239C299.978 154.552 300.176 154.117 300.638 154.117C300.968 154.117 301.146 154.295 301.146 154.79V156.909H302.031V155.245C302.031 154.532 302.242 154.117 302.691 154.117C303.008 154.117 303.199 154.282 303.199 154.79V156.909H304.083Z" fill="black"/>
<path d="M307.698 155.998C307.368 156.183 306.999 156.341 306.576 156.341C306.002 156.341 305.639 156.018 305.599 155.483H307.949C307.949 154.143 307.487 153.43 306.332 153.43C305.249 153.43 304.754 154.275 304.754 155.225C304.754 156.341 305.408 156.988 306.537 156.988C307.005 156.988 307.375 156.895 307.698 156.717V155.998ZM305.599 154.876C305.645 154.367 305.936 154.077 306.378 154.077C306.84 154.077 307.071 154.387 307.104 154.876H305.599Z" fill="black"/>
<path d="M313.328 156.909C313.289 156.453 313.275 155.74 313.275 155.562V154.862C313.275 153.839 312.827 153.43 311.81 153.43C311.401 153.43 310.945 153.542 310.629 153.688L310.655 154.447C310.952 154.222 311.328 154.077 311.704 154.077C312.18 154.077 312.47 154.229 312.47 154.796V154.81H311.922C310.596 154.81 310.259 155.384 310.259 155.971C310.259 156.618 310.833 156.988 311.447 156.988C311.869 156.988 312.298 156.763 312.496 156.4H312.51C312.516 156.552 312.523 156.783 312.549 156.909H313.328ZM312.47 155.377C312.47 156.07 312.061 156.341 311.665 156.341C311.308 156.341 311.104 156.189 311.104 155.925C311.104 155.522 311.454 155.338 312.081 155.338H312.47V155.377Z" fill="black"/>
<path d="M313.96 156.843C314.283 156.928 314.633 156.988 314.956 156.988C315.748 156.988 316.388 156.625 316.388 155.879C316.388 155.311 316.072 155.027 315.438 154.849C315.035 154.737 314.851 154.645 314.851 154.453C314.851 154.202 315.068 154.077 315.379 154.077C315.656 154.077 315.86 154.117 316.164 154.222L316.223 153.556C315.801 153.457 315.537 153.43 315.266 153.43C314.501 153.43 313.927 153.8 313.927 154.486C313.927 155.054 314.237 155.298 314.831 155.456C315.187 155.555 315.464 155.641 315.464 155.925C315.464 156.249 315.121 156.341 314.884 156.341C314.58 156.341 314.29 156.255 314.012 156.117L313.96 156.843Z" fill="black"/>
<path d="M319.818 156.909V155.509C319.818 154.453 320.208 154.275 320.538 154.275C320.696 154.275 320.855 154.301 320.934 154.348V153.457C320.907 153.45 320.855 153.43 320.67 153.43C320.155 153.43 319.785 153.925 319.733 154.282H319.719V153.509H318.934V156.909H319.818Z" fill="black"/>
<path d="M324.089 155.998C323.759 156.183 323.39 156.341 322.967 156.341C322.393 156.341 322.03 156.018 321.99 155.483H324.34C324.34 154.143 323.878 153.43 322.723 153.43C321.641 153.43 321.146 154.275 321.146 155.225C321.146 156.341 321.799 156.988 322.928 156.988C323.396 156.988 323.766 156.895 324.089 156.717V155.998ZM321.99 154.876C322.037 154.367 322.327 154.077 322.769 154.077C323.231 154.077 323.462 154.387 323.495 154.876H321.99Z" fill="black"/>
<path d="M327.268 156.447C327.268 157.153 327.084 157.687 326.252 157.687C325.988 157.687 325.566 157.555 325.255 157.39L325.183 158.143C325.618 158.328 326.028 158.374 326.371 158.374C327.559 158.374 328.153 157.74 328.153 156.592V153.509H327.308V153.971H327.295C327.051 153.582 326.701 153.43 326.252 153.43C325.236 153.43 324.813 154.374 324.813 155.192C324.813 156.196 325.262 156.909 326.199 156.909C326.648 156.909 327.064 156.697 327.255 156.367H327.268V156.447ZM326.49 156.222C325.981 156.222 325.737 155.654 325.737 155.192C325.737 154.572 325.995 154.117 326.523 154.117C327.084 154.117 327.268 154.651 327.268 155.173C327.268 155.72 327.057 156.222 326.49 156.222Z" fill="black"/>
<path d="M329.97 152.889V152.044H329.086V152.889H329.97ZM329.97 156.909V153.509H329.086V156.909H329.97Z" fill="black"/>
<path d="M330.718 156.843C331.041 156.928 331.391 156.988 331.715 156.988C332.507 156.988 333.147 156.625 333.147 155.879C333.147 155.311 332.83 155.027 332.197 154.849C331.794 154.737 331.609 154.645 331.609 154.453C331.609 154.202 331.827 154.077 332.137 154.077C332.414 154.077 332.619 154.117 332.923 154.222L332.982 153.556C332.56 153.457 332.296 153.43 332.025 153.43C331.259 153.43 330.685 153.8 330.685 154.486C330.685 155.054 330.995 155.298 331.589 155.456C331.946 155.555 332.223 155.641 332.223 155.925C332.223 156.249 331.88 156.341 331.642 156.341C331.338 156.341 331.048 156.255 330.771 156.117L330.718 156.843Z" fill="black"/>
<path d="M335.829 156.209C335.737 156.268 335.585 156.301 335.433 156.301C335.123 156.301 335.01 156.09 335.01 155.734V154.156H335.796V153.509H335.01V152.546L334.126 152.83V153.509H333.473V154.156H334.126V155.886C334.126 156.539 334.489 156.988 335.208 156.988C335.466 156.988 335.671 156.961 335.855 156.909L335.829 156.209Z" fill="black"/>
<path d="M339.127 155.998C338.797 156.183 338.427 156.341 338.005 156.341C337.431 156.341 337.068 156.018 337.028 155.483H339.378C339.378 154.143 338.916 153.43 337.761 153.43C336.678 153.43 336.183 154.275 336.183 155.225C336.183 156.341 336.837 156.988 337.965 156.988C338.434 156.988 338.803 156.895 339.127 156.717V155.998ZM337.028 154.876C337.074 154.367 337.365 154.077 337.807 154.077C338.269 154.077 338.5 154.387 338.533 154.876H337.028Z" fill="black"/>
<path d="M340.973 156.909V155.509C340.973 154.453 341.362 154.275 341.692 154.275C341.851 154.275 342.009 154.301 342.088 154.348V153.457C342.062 153.45 342.009 153.43 341.824 153.43C341.309 153.43 340.94 153.925 340.887 154.282H340.874V153.509H340.088V156.909H340.973Z" fill="black"/>
<path d="M345.244 155.998C344.914 156.183 344.544 156.341 344.122 156.341C343.547 156.341 343.184 156.018 343.145 155.483H345.495C345.495 154.143 345.033 153.43 343.877 153.43C342.795 153.43 342.3 154.275 342.3 155.225C342.3 156.341 342.953 156.988 344.082 156.988C344.551 156.988 344.92 156.895 345.244 156.717V155.998ZM343.145 154.876C343.191 154.367 343.481 154.077 343.924 154.077C344.386 154.077 344.617 154.387 344.65 154.876H343.145Z" fill="black"/>
<path d="M349.307 156.909V151.958H348.423V153.905H348.41C348.146 153.582 347.835 153.43 347.393 153.43C346.416 153.43 345.968 154.169 345.968 155.199C345.968 156.143 346.357 156.988 347.393 156.988C347.809 156.988 348.172 156.856 348.436 156.526H348.449V156.909H349.307ZM347.637 156.301C347.063 156.301 346.892 155.681 346.892 155.199C346.892 154.671 347.09 154.117 347.624 154.117C348.192 154.117 348.416 154.724 348.416 155.199C348.416 155.694 348.218 156.301 347.637 156.301Z" fill="black"/>
<path d="M295.701 164.923L296.744 161.524H295.899L295.193 164.039H295.18L294.44 161.524H293.411L292.724 164.039H292.711L291.959 161.524H291.021L292.17 164.923H293.18L293.906 162.329H293.919L294.658 164.923H295.701Z" fill="black"/>
<path d="M298.174 160.904V160.059H297.29V160.904H298.174ZM298.174 164.923V161.524H297.29V164.923H298.174Z" fill="black"/>
<path d="M301.1 164.224C301.008 164.283 300.856 164.316 300.704 164.316C300.394 164.316 300.282 164.105 300.282 163.748V162.171H301.067V161.524H300.282V160.56L299.397 160.844V161.524H298.744V162.171H299.397V163.9C299.397 164.554 299.76 165.002 300.48 165.002C300.737 165.002 300.942 164.976 301.126 164.923L301.1 164.224Z" fill="black"/>
<path d="M304.794 164.923V162.771C304.794 161.993 304.424 161.445 303.639 161.445C303.17 161.445 302.788 161.663 302.57 161.986H302.557V159.973H301.672V164.923H302.557V163.28C302.557 162.606 302.814 162.131 303.335 162.131C303.725 162.131 303.91 162.382 303.91 163.002V164.923H304.794Z" fill="black"/>
<path d="M310.534 164.21C310.376 164.25 310.171 164.276 309.933 164.276C308.97 164.276 308.362 163.603 308.362 162.633C308.362 161.643 309.003 160.963 310.032 160.963C310.415 160.963 310.857 161.042 311.22 161.207L311.28 160.428C310.884 160.31 310.461 160.237 309.933 160.237C308.323 160.237 307.399 161.161 307.399 162.699C307.399 164.184 308.356 165.002 309.927 165.002C310.422 165.002 310.93 164.897 311.418 164.765V162.283H309.557V163.009H310.534V164.21Z" fill="black"/>
<path d="M313.231 164.923V163.174H313.634C314.749 163.174 315.396 162.672 315.396 161.709C315.396 160.772 314.716 160.316 313.495 160.316H312.307V164.923H313.231ZM313.231 162.448V161.042H313.555C314.103 161.042 314.433 161.28 314.433 161.762C314.433 162.191 314.169 162.448 313.542 162.448H313.231Z" fill="black"/>
<path d="M317.627 164.857C317.95 164.943 318.3 165.002 318.624 165.002C319.416 165.002 320.056 164.639 320.056 163.894C320.056 163.326 319.739 163.042 319.106 162.864C318.703 162.752 318.518 162.659 318.518 162.468C318.518 162.217 318.736 162.092 319.046 162.092C319.323 162.092 319.528 162.131 319.832 162.237L319.891 161.57C319.469 161.471 319.205 161.445 318.934 161.445C318.168 161.445 317.594 161.814 317.594 162.501C317.594 163.069 317.904 163.313 318.498 163.471C318.855 163.57 319.132 163.656 319.132 163.94C319.132 164.263 318.789 164.356 318.551 164.356C318.248 164.356 317.957 164.27 317.68 164.131L317.627 164.857Z" fill="black"/>
<path d="M323.867 164.923V161.524H322.982V163.168C322.982 163.821 322.738 164.316 322.203 164.316C321.88 164.316 321.629 164.144 321.629 163.465V161.524H320.745V163.669C320.745 164.494 321.141 165.002 321.9 165.002C322.342 165.002 322.725 164.811 323.015 164.461H323.028V164.923H323.867Z" fill="black"/>
<path d="M325.684 164.923V163.524C325.684 162.468 326.073 162.29 326.403 162.29C326.562 162.29 326.72 162.316 326.799 162.362V161.471C326.773 161.465 326.72 161.445 326.535 161.445C326.02 161.445 325.651 161.94 325.598 162.296H325.585V161.524H324.799V164.923H325.684Z" fill="black"/>
<path d="M329.582 164.461C329.582 165.167 329.398 165.702 328.566 165.702C328.302 165.702 327.88 165.57 327.569 165.405L327.497 166.157C327.932 166.342 328.342 166.388 328.685 166.388C329.873 166.388 330.467 165.755 330.467 164.606V161.524H329.622V161.986H329.609C329.365 161.597 329.015 161.445 328.566 161.445C327.55 161.445 327.127 162.389 327.127 163.207C327.127 164.21 327.576 164.923 328.513 164.923C328.962 164.923 329.378 164.712 329.569 164.382H329.582V164.461ZM328.804 164.237C328.295 164.237 328.051 163.669 328.051 163.207C328.051 162.587 328.309 162.131 328.837 162.131C329.398 162.131 329.582 162.666 329.582 163.187C329.582 163.735 329.371 164.237 328.804 164.237Z" fill="black"/>
<path d="M334.106 164.012C333.776 164.197 333.406 164.356 332.984 164.356C332.41 164.356 332.046 164.032 332.007 163.498H334.357C334.357 162.158 333.895 161.445 332.74 161.445C331.657 161.445 331.162 162.29 331.162 163.24C331.162 164.356 331.815 165.002 332.944 165.002C333.413 165.002 333.782 164.91 334.106 164.732V164.012ZM332.007 162.89C332.053 162.382 332.343 162.092 332.786 162.092C333.248 162.092 333.479 162.402 333.512 162.89H332.007Z" fill="black"/>
<path d="M335.952 164.923V163.524C335.952 162.468 336.341 162.29 336.671 162.29C336.829 162.29 336.988 162.316 337.067 162.362V161.471C337.041 161.465 336.988 161.445 336.803 161.445C336.288 161.445 335.919 161.94 335.866 162.296H335.853V161.524H335.067V164.923H335.952Z" fill="black"/>
<path d="M337.441 166.296C337.646 166.355 337.857 166.388 338.055 166.388C338.781 166.388 339.071 165.973 339.329 165.299L340.754 161.524H339.857L339.038 164.006H339.025L338.207 161.524H337.23L338.53 165.095C338.53 165.445 338.326 165.702 337.949 165.702C337.771 165.702 337.633 165.689 337.501 165.643L337.441 166.296Z" fill="black"/>
<path d="M73.6654 62.0142H36.0566V116.718H73.6654V62.0142Z" stroke="black" stroke-width="1.8858" stroke-miterlimit="10" stroke-linecap="round" stroke-linejoin="round"/>
<path d="M36.0137 129.938H73.9492C75.8372 129.938 77.3681 128.407 77.3681 126.519V60.8516C77.3681 58.9636 75.8372 57.4326 73.9492 57.4326H36.0137C34.1257 57.4326 32.5947 58.9636 32.5947 60.8516V126.523C32.5947 128.407 34.1257 129.938 36.0137 129.938Z" stroke="black" stroke-width="1.8858" stroke-miterlimit="10" stroke-linecap="round" stroke-linejoin="round"/>
<path d="M54.8609 125.812C56.4336 125.812 57.71 124.536 57.71 122.963C57.71 121.39 56.4336 120.114 54.8609 120.114C53.2881 120.114 52.0117 121.39 52.0117 122.963C52.0117 124.536 53.2881 125.812 54.8609 125.812Z" stroke="black" stroke-width="1.8858" stroke-miterlimit="10" stroke-linecap="round" stroke-linejoin="round"/>
<path d="M67.5205 80.6358C59.3018 86.3464 55.2246 77.7461 55.2246 77.7461C55.2246 77.7461 51.1473 86.3464 42.9286 80.6358C42.9286 80.6358 39.429 98.3681 55.2246 105.951C71.0201 98.3666 67.5205 80.6358 67.5205 80.6358Z" stroke="black" stroke-width="1.41435" stroke-miterlimit="10" stroke-linecap="round" stroke-linejoin="round"/>
<path d="M49.9053 94.9296L52.343 97.6493L60.6307 86.1577" stroke="black" stroke-width="1.41435" stroke-miterlimit="10" stroke-linecap="round" stroke-linejoin="round"/>
<path d="M35.9344 148.381C35.9344 149.206 35.6374 149.661 34.9773 149.661C34.3173 149.661 34.0203 149.206 34.0203 148.381V145.701H33.0962V148.658C33.0962 149.747 33.6573 150.387 34.9773 150.387C36.2446 150.387 36.8584 149.793 36.8584 148.664V145.701H35.9344V148.381Z" fill="black"/>
<path d="M37.6285 150.242C37.9519 150.328 38.3018 150.387 38.6252 150.387C39.4172 150.387 40.0574 150.024 40.0574 149.278C40.0574 148.711 39.7406 148.427 39.107 148.249C38.7044 148.136 38.5196 148.044 38.5196 147.853C38.5196 147.602 38.7374 147.476 39.0476 147.476C39.3248 147.476 39.5294 147.516 39.833 147.622L39.8924 146.955C39.47 146.856 39.206 146.83 38.9354 146.83C38.1698 146.83 37.5955 147.199 37.5955 147.886C37.5955 148.453 37.9057 148.697 38.4998 148.856C38.8562 148.955 39.1334 149.041 39.1334 149.324C39.1334 149.648 38.7902 149.74 38.5526 149.74C38.249 149.74 37.9585 149.654 37.6813 149.516L37.6285 150.242Z" fill="black"/>
<path d="M43.472 149.397C43.142 149.582 42.7724 149.74 42.3499 149.74C41.7757 149.74 41.4127 149.417 41.3731 148.882H43.7228C43.7228 147.542 43.2608 146.83 42.1057 146.83C41.0233 146.83 40.5283 147.674 40.5283 148.625C40.5283 149.74 41.1817 150.387 42.3103 150.387C42.779 150.387 43.1486 150.295 43.472 150.116V149.397ZM41.3731 148.275C41.4193 147.767 41.7097 147.476 42.1519 147.476C42.614 147.476 42.845 147.787 42.878 148.275H41.3731Z" fill="black"/>
<path d="M45.3179 150.308V148.909C45.3179 147.853 45.7073 147.674 46.0373 147.674C46.1957 147.674 46.3541 147.701 46.4333 147.747V146.856C46.4069 146.849 46.3541 146.83 46.1693 146.83C45.6545 146.83 45.2849 147.325 45.2321 147.681H45.2189V146.909H44.4334V150.308H45.3179Z" fill="black"/>
<path d="M51.9379 150.308V148.156C51.9379 147.377 51.5683 146.83 50.7828 146.83C50.3142 146.83 49.9314 147.047 49.7136 147.371H49.7004V145.358H48.816V150.308H49.7004V148.664C49.7004 147.991 49.9578 147.516 50.4792 147.516C50.8686 147.516 51.0535 147.767 51.0535 148.387V150.308H51.9379Z" fill="black"/>
<path d="M55.7022 150.308C55.6626 149.852 55.6494 149.14 55.6494 148.961V148.262C55.6494 147.239 55.2006 146.83 54.1842 146.83C53.7749 146.83 53.3195 146.942 53.0027 147.087L53.0291 147.846C53.3261 147.622 53.7023 147.476 54.0786 147.476C54.5538 147.476 54.8442 147.628 54.8442 148.196V148.209H54.2964C52.9697 148.209 52.6331 148.783 52.6331 149.371C52.6331 150.017 53.2073 150.387 53.8211 150.387C54.2436 150.387 54.6726 150.163 54.8706 149.8H54.8838C54.8904 149.951 54.897 150.182 54.9234 150.308H55.7022ZM54.8442 148.777C54.8442 149.47 54.435 149.74 54.0389 149.74C53.6825 149.74 53.4779 149.588 53.4779 149.324C53.4779 148.922 53.8277 148.737 54.4548 148.737H54.8442V148.777Z" fill="black"/>
<path d="M56.3336 150.242C56.657 150.328 57.0069 150.387 57.3303 150.387C58.1223 150.387 58.7625 150.024 58.7625 149.278C58.7625 148.711 58.4457 148.427 57.8121 148.249C57.4095 148.136 57.2247 148.044 57.2247 147.853C57.2247 147.602 57.4425 147.476 57.7527 147.476C58.0299 147.476 58.2345 147.516 58.5381 147.622L58.5975 146.955C58.1751 146.856 57.9111 146.83 57.6405 146.83C56.8749 146.83 56.3006 147.199 56.3006 147.886C56.3006 148.453 56.6108 148.697 57.2049 148.856C57.5613 148.955 57.8385 149.041 57.8385 149.324C57.8385 149.648 57.4953 149.74 57.2577 149.74C56.9541 149.74 56.6636 149.654 56.3864 149.516L56.3336 150.242Z" fill="black"/>
<path d="M62.2122 150.308V148.559H62.6148C63.7303 148.559 64.3771 148.057 64.3771 147.094C64.3771 146.156 63.6973 145.701 62.4762 145.701H61.2882V150.308H62.2122ZM62.2122 147.833V146.427H62.5356C63.0835 146.427 63.4135 146.665 63.4135 147.146C63.4135 147.575 63.1495 147.833 62.5224 147.833H62.2122Z" fill="black"/>
<path d="M66.3286 150.387C67.3846 150.387 67.939 149.549 67.939 148.018C67.939 146.453 67.3846 145.622 66.3286 145.622C65.2527 145.622 64.7313 146.566 64.7313 148.018C64.7313 149.635 65.2791 150.387 66.3286 150.387ZM66.3286 149.701C65.6817 149.701 65.6553 148.737 65.6553 147.998C65.6553 147.285 65.6949 146.308 66.322 146.308C66.9952 146.308 67.015 147.325 67.015 148.018C67.015 148.704 66.9952 149.701 66.3286 149.701Z" fill="black"/>
<path d="M34.9311 158.323L36.1852 154.923H35.3007L34.4823 157.398H34.4691L33.6243 154.923H32.6738L33.9345 158.323H34.9311Z" fill="black"/>
<path d="M39.4435 157.412C39.1135 157.596 38.7439 157.755 38.3215 157.755C37.7472 157.755 37.3842 157.431 37.3446 156.897H39.6943C39.6943 155.557 39.2323 154.844 38.0772 154.844C36.9948 154.844 36.4998 155.689 36.4998 156.639C36.4998 157.755 37.1532 158.402 38.2819 158.402C38.7505 158.402 39.1201 158.309 39.4435 158.131V157.412ZM37.3446 156.29C37.3908 155.781 37.6812 155.491 38.1234 155.491C38.5855 155.491 38.8165 155.801 38.8495 156.29H37.3446Z" fill="black"/>
<path d="M41.2894 158.323V156.923C41.2894 155.867 41.6788 155.689 42.0088 155.689C42.1672 155.689 42.3256 155.715 42.4048 155.762V154.871C42.3784 154.864 42.3256 154.844 42.1408 154.844C41.626 154.844 41.2564 155.339 41.2036 155.696H41.1904V154.923H40.4049V158.323H41.2894Z" fill="black"/>
<path d="M43.8547 154.303V153.458H42.9703V154.303H43.8547ZM43.8547 158.323V154.923H42.9703V158.323H43.8547Z" fill="black"/>
<path d="M45.9953 158.323V155.57H46.7676V154.923H45.9953V154.501C45.9953 154.178 46.1273 153.98 46.3847 153.98C46.5233 153.98 46.6289 154.013 46.7676 154.098L46.8402 153.366C46.6685 153.326 46.4111 153.293 46.2065 153.293C45.4079 153.293 45.1109 153.867 45.1109 154.442V154.923H44.4575V155.57H45.1109V158.323H45.9953ZM48.2526 154.303V153.458H47.3682V154.303H48.2526ZM48.2526 158.323V154.923H47.3682V158.323H48.2526Z" fill="black"/>
<path d="M51.4933 157.557C51.2623 157.656 51.0049 157.715 50.8135 157.715C50.2194 157.715 49.896 157.266 49.896 156.606C49.896 155.966 50.2458 155.531 50.8003 155.531C51.0445 155.531 51.2227 155.577 51.3943 155.656L51.4735 154.956C51.2293 154.884 50.9653 154.844 50.6221 154.844C49.5792 154.844 48.972 155.59 48.972 156.606C48.972 157.715 49.5924 158.402 50.6551 158.402C51.0181 158.402 51.2689 158.369 51.5329 158.29L51.4933 157.557Z" fill="black"/>
<path d="M54.9739 158.323C54.9343 157.867 54.9211 157.154 54.9211 156.976V156.276C54.9211 155.253 54.4722 154.844 53.4558 154.844C53.0466 154.844 52.5912 154.956 52.2744 155.102L52.3008 155.861C52.5978 155.636 52.974 155.491 53.3502 155.491C53.8254 155.491 54.1158 155.643 54.1158 156.21V156.224H53.568C52.2414 156.224 51.9047 156.798 51.9047 157.385C51.9047 158.032 52.479 158.402 53.0928 158.402C53.5152 158.402 53.9442 158.177 54.1422 157.814H54.1554C54.162 157.966 54.1686 158.197 54.195 158.323H54.9739ZM54.1158 156.791C54.1158 157.484 53.7066 157.755 53.3106 157.755C52.9542 157.755 52.7496 157.603 52.7496 157.339C52.7496 156.936 53.0994 156.752 53.7264 156.752H54.1158V156.791Z" fill="black"/>
<path d="M57.7834 157.623C57.691 157.682 57.5392 157.715 57.3874 157.715C57.0771 157.715 56.9649 157.504 56.9649 157.148V155.57H57.7504V154.923H56.9649V153.96L56.0805 154.244V154.923H55.4271V155.57H56.0805V157.299C56.0805 157.953 56.4435 158.402 57.1629 158.402C57.4204 158.402 57.625 158.375 57.8098 158.323L57.7834 157.623Z" fill="black"/>
<path d="M59.2597 154.303V153.458H58.3752V154.303H59.2597ZM59.2597 158.323V154.923H58.3752V158.323H59.2597Z" fill="black"/>
<path d="M63.5322 156.646C63.5322 155.55 62.7863 154.844 61.7501 154.844C60.7138 154.844 59.9746 155.557 59.9746 156.646C59.9746 157.649 60.6544 158.402 61.7501 158.402C62.8457 158.402 63.5322 157.656 63.5322 156.646ZM61.7501 157.715C61.1759 157.715 60.8987 157.26 60.8987 156.54C60.8987 156.006 61.1957 155.531 61.7501 155.531C62.3177 155.531 62.6081 155.999 62.6081 156.54C62.6081 157.273 62.3243 157.715 61.7501 157.715Z" fill="black"/>
<path d="M67.3493 158.323V156.177C67.3493 155.379 66.9731 154.844 66.1943 154.844C65.7256 154.844 65.3494 155.003 65.0788 155.385H65.0656V154.923H64.2274V158.323H65.1118V156.672C65.1118 156.072 65.3296 155.531 65.8906 155.531C66.3593 155.531 66.4649 155.907 66.4649 156.415V158.323H67.3493Z" fill="black"/>
<path d="M96.4659 98.4264C99.1933 98.4264 101.404 96.2153 101.404 93.4878C101.404 90.7604 99.1933 88.5493 96.4659 88.5493C93.7384 88.5493 91.5273 90.7604 91.5273 93.4878C91.5273 96.2153 93.7384 98.4264 96.4659 98.4264Z" stroke="black" stroke-width="1.8858" stroke-miterlimit="10" stroke-linecap="round" stroke-linejoin="round"/>
<path d="M142.666 98.4254C145.394 98.4254 147.605 96.2143 147.605 93.4869C147.605 90.7594 145.394 88.5483 142.666 88.5483C139.939 88.5483 137.728 90.7594 137.728 93.4869C137.728 96.2143 139.939 98.4254 142.666 98.4254Z" stroke="black" stroke-width="1.8858" stroke-miterlimit="10" stroke-linecap="round" stroke-linejoin="round"/>
<path fill-rule="evenodd" clip-rule="evenodd" d="M100.483 93.2625C100.483 92.7417 100.906 92.3196 101.426 92.3196L104.373 92.3196C104.894 92.3196 105.316 92.7417 105.316 93.2625C105.316 93.7832 104.894 94.2054 104.373 94.2054L101.426 94.2054C100.906 94.2054 100.483 93.7832 100.483 93.2625ZM109.323 93.2625C109.323 92.7417 109.745 92.3196 110.266 92.3196L116.159 92.3196C116.68 92.3196 117.102 92.7417 117.102 93.2625C117.102 93.7832 116.68 94.2054 116.159 94.2054L110.266 94.2054C109.745 94.2054 109.323 93.7832 109.323 93.2625ZM121.109 93.2625C121.109 92.7417 121.531 92.3196 122.052 92.3196L127.945 92.3196C128.466 92.3196 128.888 92.7417 128.888 93.2625C128.888 93.7832 128.466 94.2054 127.945 94.2054L122.052 94.2054C121.531 94.2054 121.109 93.7832 121.109 93.2625ZM132.896 93.2625C132.896 92.7417 133.318 92.3196 133.838 92.3196L136.785 92.3196C137.306 92.3196 137.728 92.7417 137.728 93.2625C137.728 93.7832 137.306 94.2054 136.785 94.2054L133.838 94.2054C133.318 94.2054 132.896 93.7832 132.896 93.2625Z" fill="black"/>
</svg>
