<svg xmlns="http://www.w3.org/2000/svg" viewBox="0 0 378.91 35.4"><defs><style>.cls-1{fill:#1d1d1b;}.cls-2{fill:#223a78;}.cls-3{fill:#1c5faa;}.cls-4{fill:#fff;}</style></defs><g id="Layer_2" data-name="Layer 2"><g id="Layer_1-2" data-name="Layer 1"><rect class="cls-1" x="378.88" y="11.99" width="0.03" height="0.03"/><g id="Layer_2-2" data-name="Layer 2"><g id="Layer_1-2-2" data-name="Layer 1-2"><rect class="cls-2" y="2.4" width="206.09" height="33" rx="2.4"/><rect class="cls-3" width="206.09" height="33" rx="2.4"/><rect class="cls-3" x="1.2" y="1.2" width="203.78" height="30.6"/><rect class="cls-3" x="60.63" y="8.4" width="134.75" height="16.2"/><path class="cls-4" d="M67.43,20.33a8.17,8.17,0,0,1-1.84.26c-2.76,0-4.42-1.43-4.42-4s1.65-4.31,4.42-4.31a5.23,5.23,0,0,1,1.8.34L67.28,14a3.31,3.31,0,0,0-1.74-.43,2.7,2.7,0,0,0-2.71,2.93,2.65,2.65,0,0,0,2.74,2.87,4.47,4.47,0,0,0,1.8-.34Z"/><path class="cls-4" d="M71.21,20.59a3,3,0,0,1-3.11-2.76c0-.1,0-.21,0-.32a3.11,3.11,0,0,1,6.22-.27,1.22,1.22,0,0,1,0,.27,2.94,2.94,0,0,1-2.78,3.08Zm1.5-3.26a1.52,1.52,0,1,0-3,0c0,1.26.48,2.06,1.49,2.06S72.71,18.6,72.71,17.33Z"/><path class="cls-4" d="M79.45,20.45V17.11c0-.89-.18-1.55-1-1.55-1,0-1.36,1-1.36,2v2.89H75.54V14.5H77v.81h0a2.24,2.24,0,0,1,2-1c1.37,0,2,.94,2,2.34v3.75Z"/><path class="cls-4" d="M86.13,20.45a3.94,3.94,0,0,1-1.13.14A1.75,1.75,0,0,1,83.1,19a1.82,1.82,0,0,1,0-.33v-3H82V14.5H83.1V13.3l1.55-.5v1.69H86v1.13H84.65v2.76c0,.6.2,1,.74,1a1.28,1.28,0,0,0,.69-.16Z"/><path class="cls-4" d="M87.12,13.42V11.94h1.55v1.48Zm0,7V14.5h1.55v5.95Z"/><path class="cls-4" d="M94.2,20.45V17.11c0-.89-.19-1.55-1-1.55-1,0-1.37,1-1.37,2v2.89H90.3V14.5h1.46v.81h0a2.24,2.24,0,0,1,1.95-1c1.37,0,2,.94,2,2.34v3.75Z"/><path class="cls-4" d="M101.35,20.45v-.81h0a2.51,2.51,0,0,1-2,.95c-1.33,0-2-.89-2-2.33V14.5h1.55v3.4c0,1.2.44,1.49,1,1.49.94,0,1.37-.87,1.37-2V14.5h1.54v5.95Z"/><path class="cls-4" d="M109.2,20.11a4.08,4.08,0,0,1-2,.48,2.83,2.83,0,0,1-3.12-3.08c0-1.67.87-3.15,2.76-3.15s2.83,1.25,2.83,3.6h-4.11a1.56,1.56,0,0,0,1.59,1.51h.12a3.92,3.92,0,0,0,2-.6Zm-1-3.21c0-.86-.46-1.4-1.26-1.4a1.34,1.34,0,0,0-1.37,1.31v.09Z"/><path class="cls-4" d="M119.74,20.45l-1.3-4.54h0l-1.27,4.54h-1.79l-2-5.95H115l1.32,4.4h0l1.2-4.4h1.8l1.29,4.4h0l1.24-4.4h1.48l-1.8,5.95Z"/><path class="cls-4" d="M124.34,13.42V11.94h1.55v1.48Zm0,7V14.5h1.55v5.95Z"/><path class="cls-4" d="M131.05,20.45a3.94,3.94,0,0,1-1.13.14A1.77,1.77,0,0,1,128,19c0-.11,0-.22,0-.33v-3h-1.15V14.5H128V13.3l1.55-.5v1.69H131v1.13H129.6v2.76c0,.6.19,1,.74,1a1.28,1.28,0,0,0,.69-.16Z"/><path class="cls-4" d="M135.92,20.45V17.09c0-1.09-.32-1.53-1-1.53-.91,0-1.36.84-1.36,2v2.88H132V11.79h1.55v3.52h0a2.21,2.21,0,0,1,1.86-1c1.38,0,2,1,2,2.33v3.76Z"/><path class="cls-4" d="M147,20.45l-3.08-6h0v6h-1.55V12.39h2l3.08,6h0v-6H149v8Z"/><path class="cls-4" d="M155.6,20.45V16.91h-3.2v3.54h-1.61V12.39h1.61v3.26h3.23V12.39h1.57v8.06Z"/><path class="cls-4" d="M159.11,18.82a3.92,3.92,0,0,0,1.8.5c.6,0,1.43-.3,1.43-1s-.54-.88-1.34-1.2c-1.08-.42-2.2-.87-2.2-2.4,0-1.74,1.31-2.46,2.83-2.46a6.24,6.24,0,0,1,1.92.28l-.15,1.33a4.22,4.22,0,0,0-1.64-.34,1.12,1.12,0,0,0-1.26,1,.76.76,0,0,0,0,.15c0,.6.69.85,1.36,1.11,1.09.41,2.17.9,2.17,2.4s-1.11,2.44-3,2.44a7.19,7.19,0,0,1-2.06-.31Z"/><path class="cls-4" d="M168.6,20.45V11.79h1.54v8.66Z"/><path class="cls-4" d="M174.52,20.59a2.94,2.94,0,0,1-3.1-2.77c0-.1,0-.2,0-.31a3.12,3.12,0,0,1,6.23-.27v.27a2.94,2.94,0,0,1-2.79,3.08Zm1.5-3.26a1.52,1.52,0,1,0-3,0c0,1.26.49,2.06,1.49,2.06S176,18.6,176,17.33Z"/><path class="cls-4" d="M182.77,19.5h0a2.11,2.11,0,0,1-1.85.95c-1.64,0-2.4-1.25-2.4-3,0-1.44.74-3.09,2.52-3.09a2,2,0,0,1,1.8,1h0V14.5h1.47v5.4A2.78,2.78,0,0,1,181.19,23a5.1,5.1,0,0,1-2.07-.41l.12-1.31a4.49,4.49,0,0,0,1.75.52c1.45,0,1.8-.94,1.8-2.17Zm0-2.09c0-.91-.33-1.85-1.31-1.85s-1.37.8-1.37,1.89c0,.81.43,1.8,1.31,1.8s1.37-.88,1.37-1.85Z"/><path class="cls-4" d="M186,13.42V11.94h1.54v1.48Zm0,7V14.5h1.54v5.95Z"/><path class="cls-4" d="M193,20.45V17.11c0-.89-.18-1.55-1-1.55-1,0-1.36,1-1.36,2v2.89h-1.55V14.5h1.46v.81h0a2.24,2.24,0,0,1,1.95-1c1.37,0,2,.94,2,2.34v3.75Z"/><polygon class="cls-3" points="11.12 8.72 11.12 24.28 50.65 24.28 50.65 8.72 11.12 8.72 11.12 8.72"/><path class="cls-4" d="M51,24.6V8.4H10.8V24.6ZM27,10,24.2,23H19.84L17.1,14h0l-1.8,9H11.93l2.81-13H19.1l2.69,9h0l1.84-9Zm12.46,0L36.72,23H33.21l1.16-5.6H30.22L29.06,23H25.55l2.72-13H31.8l-1,5h4.14l1-5Zm10.09.35-.85,2.6a6.52,6.52,0,0,0-2.89-.6c-1.39,0-2.51.2-2.51,1.25,0,1.85,5.08,1.16,5.08,5.12,0,3.6-3.36,4.54-6.4,4.54a14.69,14.69,0,0,1-4-.68l.82-2.65a6.85,6.85,0,0,0,3.23.75c1.09,0,2.8-.21,2.8-1.55,0-2.1-5.09-1.31-5.09-5,0-3.36,3-4.37,5.84-4.37a10.59,10.59,0,0,1,4,.6Z"/></g></g></g></g></svg>