<svg width="574" height="199" viewBox="0 0 574 199" fill="none" xmlns="http://www.w3.org/2000/svg">
<path d="M184.568 56.0376H150.37V105.78H184.568V56.0376Z" stroke="black" stroke-width="1.71477" stroke-miterlimit="10" stroke-linecap="round" stroke-linejoin="round"/>
<path d="M150.332 117.801H184.826C186.543 117.801 187.935 116.409 187.935 114.692V54.9805C187.935 53.2637 186.543 51.8716 184.826 51.8716H150.332C148.615 51.8716 147.223 53.2637 147.223 54.9805V114.695C147.223 116.409 148.615 117.801 150.332 117.801Z" stroke="black" stroke-width="1.71477" stroke-miterlimit="10" stroke-linecap="round" stroke-linejoin="round"/>
<path d="M167.469 114.05C168.899 114.05 170.059 112.889 170.059 111.459C170.059 110.029 168.899 108.868 167.469 108.868C166.039 108.868 164.878 110.029 164.878 111.459C164.878 112.889 166.039 114.05 167.469 114.05Z" stroke="black" stroke-width="1.71477" stroke-miterlimit="10" stroke-linecap="round" stroke-linejoin="round"/>
<path d="M162.508 83.2489L165.719 80.0383V70.2099M173.696 80.3641L170.485 83.5747V93.1197M169.476 76.0947V80.5847L166.265 83.7953V87.525M166.26 91.8301C167.327 91.8301 168.193 90.9647 168.193 89.8973C168.193 88.83 167.327 87.9645 166.26 87.9645C165.193 87.9645 164.327 88.83 164.327 89.8973C164.327 90.9647 165.193 91.8301 166.26 91.8301ZM170.48 97.4214C171.547 97.4214 172.413 96.556 172.413 95.4886C172.413 94.4213 171.547 93.5558 170.48 93.5558C169.413 93.5558 168.547 94.4213 168.547 95.4886C168.549 96.5577 169.413 97.4214 170.48 97.4214ZM175.197 81.0972C176.265 81.0972 177.13 80.2318 177.13 79.1644C177.13 78.0971 176.265 77.2316 175.197 77.2316C174.13 77.2316 173.265 78.0971 173.265 79.1644C173.265 80.2318 174.13 81.0972 175.197 81.0972ZM165.724 65.9082C164.656 65.9082 163.791 66.7736 163.791 67.841C163.791 68.9083 164.656 69.7737 165.724 69.7737C166.791 69.7737 167.656 68.9083 167.656 67.841C167.656 66.7736 166.791 65.9082 165.724 65.9082ZM169.476 75.6976C170.543 75.6976 171.408 74.8322 171.408 73.7649C171.408 72.6975 170.543 71.8321 169.476 71.8321C168.408 71.8321 167.543 72.6975 167.543 73.7649C167.543 74.8322 168.408 75.6976 169.476 75.6976ZM161.008 82.5158C159.941 82.5158 159.075 83.3812 159.075 84.4486C159.075 85.5159 159.941 86.3813 161.008 86.3813C162.075 86.3813 162.941 85.5159 162.941 84.4486C162.941 83.3795 162.075 82.5158 161.008 82.5158Z" stroke="black" stroke-width="1.28607" stroke-miterlimit="10" stroke-linecap="round" stroke-linejoin="round"/>
<path d="M150.26 134.571C150.26 135.322 149.99 135.736 149.39 135.736C148.79 135.736 148.52 135.322 148.52 134.571V132.135H147.68V134.824C147.68 135.814 148.19 136.396 149.39 136.396C150.542 136.396 151.1 135.856 151.1 134.83V132.135H150.26V134.571Z" fill="black"/>
<path d="M151.801 136.264C152.095 136.342 152.413 136.396 152.707 136.396C153.427 136.396 154.009 136.066 154.009 135.388C154.009 134.872 153.721 134.613 153.145 134.451C152.779 134.349 152.611 134.265 152.611 134.091C152.611 133.863 152.809 133.749 153.091 133.749C153.343 133.749 153.529 133.785 153.805 133.881L153.859 133.275C153.475 133.185 153.235 133.161 152.989 133.161C152.293 133.161 151.771 133.497 151.771 134.121C151.771 134.637 152.053 134.86 152.593 135.004C152.917 135.094 153.169 135.172 153.169 135.43C153.169 135.724 152.857 135.808 152.641 135.808C152.365 135.808 152.101 135.73 151.849 135.604L151.801 136.264Z" fill="black"/>
<path d="M157.114 135.496C156.814 135.664 156.478 135.808 156.094 135.808C155.572 135.808 155.242 135.514 155.206 135.028H157.342C157.342 133.809 156.922 133.161 155.872 133.161C154.888 133.161 154.438 133.929 154.438 134.794C154.438 135.808 155.032 136.396 156.058 136.396C156.484 136.396 156.82 136.312 157.114 136.15V135.496ZM155.206 134.475C155.248 134.013 155.512 133.749 155.914 133.749C156.334 133.749 156.544 134.031 156.574 134.475H155.206Z" fill="black"/>
<path d="M158.793 136.324V135.052C158.793 134.091 159.147 133.929 159.447 133.929C159.591 133.929 159.735 133.953 159.807 133.995V133.185C159.783 133.179 159.735 133.161 159.567 133.161C159.099 133.161 158.763 133.611 158.715 133.935H158.703V133.233H157.988V136.324H158.793Z" fill="black"/>
<path d="M164.452 135.496C164.152 135.664 163.816 135.808 163.432 135.808C162.91 135.808 162.58 135.514 162.544 135.028H164.68C164.68 133.809 164.26 133.161 163.21 133.161C162.226 133.161 161.775 133.929 161.775 134.794C161.775 135.808 162.37 136.396 163.396 136.396C163.822 136.396 164.158 136.312 164.452 136.15V135.496ZM162.544 134.475C162.586 134.013 162.85 133.749 163.252 133.749C163.672 133.749 163.882 134.031 163.912 134.475H162.544Z" fill="black"/>
<path d="M168.147 136.324V134.373C168.147 133.647 167.805 133.161 167.097 133.161C166.671 133.161 166.329 133.305 166.083 133.653H166.071V133.233H165.308V136.324H166.113V134.824C166.113 134.277 166.311 133.785 166.821 133.785C167.247 133.785 167.343 134.127 167.343 134.589V136.324H168.147Z" fill="black"/>
<path d="M170.79 135.688C170.706 135.742 170.568 135.772 170.43 135.772C170.148 135.772 170.046 135.58 170.046 135.256V133.821H170.76V133.233H170.046V132.357L169.242 132.615V133.233H168.647V133.821H169.242V135.394C169.242 135.988 169.572 136.396 170.226 136.396C170.46 136.396 170.646 136.372 170.814 136.324L170.79 135.688Z" fill="black"/>
<path d="M173.789 135.496C173.489 135.664 173.153 135.808 172.769 135.808C172.246 135.808 171.916 135.514 171.88 135.028H174.017C174.017 133.809 173.597 133.161 172.546 133.161C171.562 133.161 171.112 133.929 171.112 134.794C171.112 135.808 171.706 136.396 172.733 136.396C173.159 136.396 173.495 136.312 173.789 136.15V135.496ZM171.88 134.475C171.922 134.013 172.186 133.749 172.588 133.749C173.009 133.749 173.219 134.031 173.249 134.475H171.88Z" fill="black"/>
<path d="M175.467 136.324V135.052C175.467 134.091 175.821 133.929 176.121 133.929C176.266 133.929 176.41 133.953 176.482 133.995V133.185C176.458 133.179 176.41 133.161 176.242 133.161C175.773 133.161 175.437 133.611 175.389 133.935H175.377V133.233H174.663V136.324H175.467Z" fill="black"/>
<path d="M176.81 136.264C177.104 136.342 177.422 136.396 177.716 136.396C178.436 136.396 179.018 136.066 179.018 135.388C179.018 134.872 178.73 134.613 178.154 134.451C177.788 134.349 177.62 134.265 177.62 134.091C177.62 133.863 177.818 133.749 178.1 133.749C178.352 133.749 178.538 133.785 178.814 133.881L178.868 133.275C178.484 133.185 178.244 133.161 177.998 133.161C177.302 133.161 176.78 133.497 176.78 134.121C176.78 134.637 177.062 134.86 177.602 135.004C177.926 135.094 178.178 135.172 178.178 135.43C178.178 135.724 177.866 135.808 177.65 135.808C177.374 135.808 177.11 135.73 176.858 135.604L176.81 136.264Z" fill="black"/>
<path d="M184.034 135.676C183.89 135.712 183.704 135.736 183.487 135.736C182.611 135.736 182.059 135.124 182.059 134.241C182.059 133.341 182.641 132.723 183.578 132.723C183.926 132.723 184.328 132.795 184.658 132.945L184.712 132.237C184.352 132.129 183.968 132.063 183.487 132.063C182.023 132.063 181.183 132.903 181.183 134.301C181.183 135.652 182.053 136.396 183.481 136.396C183.932 136.396 184.394 136.3 184.838 136.18V133.923H183.145V134.583H184.034V135.676Z" fill="black"/>
<path d="M186.486 136.324V134.733H186.853C187.867 134.733 188.455 134.277 188.455 133.401C188.455 132.549 187.837 132.135 186.726 132.135H185.646V136.324H186.486ZM186.486 134.073V132.795H186.78C187.279 132.795 187.579 133.011 187.579 133.449C187.579 133.839 187.339 134.073 186.768 134.073H186.486Z" fill="black"/>
<path d="M150.674 142.087C150.674 141.091 149.996 140.449 149.054 140.449C148.112 140.449 147.439 141.097 147.439 142.087C147.439 143 148.058 143.684 149.054 143.684C150.05 143.684 150.674 143.006 150.674 142.087ZM149.054 143.06C148.532 143.06 148.28 142.645 148.28 141.991C148.28 141.505 148.55 141.073 149.054 141.073C149.57 141.073 149.834 141.499 149.834 141.991C149.834 142.657 149.576 143.06 149.054 143.06Z" fill="black"/>
<path d="M154.145 143.612V141.661C154.145 140.935 153.803 140.449 153.095 140.449C152.669 140.449 152.327 140.593 152.081 140.941H152.069V140.521H151.307V143.612H152.111V142.111C152.111 141.565 152.309 141.073 152.819 141.073C153.245 141.073 153.341 141.415 153.341 141.877V143.612H154.145Z" fill="black"/>
<path d="M155.798 143.612V139.11H154.994V143.612H155.798Z" fill="black"/>
<path d="M157.468 139.957V139.188H156.664V139.957H157.468ZM157.468 143.612V140.521H156.664V143.612H157.468Z" fill="black"/>
<path d="M161.155 143.612V141.661C161.155 140.935 160.813 140.449 160.105 140.449C159.679 140.449 159.337 140.593 159.09 140.941H159.078V140.521H158.316V143.612H159.121V142.111C159.121 141.565 159.319 141.073 159.829 141.073C160.255 141.073 160.351 141.415 160.351 141.877V143.612H161.155Z" fill="black"/>
<path d="M164.464 142.783C164.164 142.952 163.828 143.096 163.444 143.096C162.922 143.096 162.591 142.801 162.555 142.315H164.692C164.692 141.097 164.272 140.449 163.222 140.449C162.237 140.449 161.787 141.217 161.787 142.081C161.787 143.096 162.381 143.684 163.408 143.684C163.834 143.684 164.17 143.6 164.464 143.438V142.783ZM162.555 141.763C162.597 141.301 162.862 141.037 163.264 141.037C163.684 141.037 163.894 141.319 163.924 141.763H162.555Z" fill="black"/>
<path d="M166.823 143.552C167.117 143.63 167.435 143.684 167.729 143.684C168.449 143.684 169.031 143.354 169.031 142.675C169.031 142.159 168.743 141.901 168.167 141.739C167.801 141.637 167.633 141.553 167.633 141.379C167.633 141.151 167.831 141.037 168.113 141.037C168.365 141.037 168.551 141.073 168.827 141.169L168.881 140.563C168.497 140.473 168.257 140.449 168.011 140.449C167.315 140.449 166.793 140.785 166.793 141.409C166.793 141.925 167.075 142.147 167.615 142.291C167.939 142.381 168.191 142.459 168.191 142.717C168.191 143.012 167.879 143.096 167.663 143.096C167.387 143.096 167.123 143.018 166.871 142.891L166.823 143.552Z" fill="black"/>
<path d="M172.136 142.783C171.836 142.952 171.5 143.096 171.116 143.096C170.594 143.096 170.264 142.801 170.227 142.315H172.364C172.364 141.097 171.944 140.449 170.894 140.449C169.909 140.449 169.459 141.217 169.459 142.081C169.459 143.096 170.053 143.684 171.08 143.684C171.506 143.684 171.842 143.6 172.136 143.438V142.783ZM170.227 141.763C170.27 141.301 170.534 141.037 170.936 141.037C171.356 141.037 171.566 141.319 171.596 141.763H170.227Z" fill="black"/>
<path d="M173.814 143.612V142.339C173.814 141.379 174.169 141.217 174.469 141.217C174.613 141.217 174.757 141.241 174.829 141.283V140.473C174.805 140.467 174.757 140.449 174.589 140.449C174.121 140.449 173.784 140.899 173.736 141.223H173.724V140.521H173.01V143.612H173.814Z" fill="black"/>
<path d="M177.035 143.612L178.176 140.521H177.372L176.627 142.771H176.615L175.847 140.521H174.983L176.129 143.612H177.035Z" fill="black"/>
<path d="M179.482 139.957V139.188H178.678V139.957H179.482ZM179.482 143.612V140.521H178.678V143.612H179.482Z" fill="black"/>
<path d="M182.425 142.915C182.215 143.006 181.981 143.06 181.807 143.06C181.267 143.06 180.972 142.651 180.972 142.051C180.972 141.469 181.291 141.073 181.795 141.073C182.017 141.073 182.179 141.115 182.335 141.187L182.407 140.551C182.185 140.485 181.945 140.449 181.633 140.449C180.684 140.449 180.132 141.127 180.132 142.051C180.132 143.06 180.696 143.684 181.663 143.684C181.993 143.684 182.221 143.654 182.461 143.582L182.425 142.915Z" fill="black"/>
<path d="M185.476 142.783C185.176 142.952 184.84 143.096 184.455 143.096C183.933 143.096 183.603 142.801 183.567 142.315H185.704C185.704 141.097 185.284 140.449 184.233 140.449C183.249 140.449 182.799 141.217 182.799 142.081C182.799 143.096 183.393 143.684 184.419 143.684C184.846 143.684 185.182 143.6 185.476 143.438V142.783ZM183.567 141.763C183.609 141.301 183.873 141.037 184.275 141.037C184.695 141.037 184.906 141.319 184.936 141.763H183.567Z" fill="black"/>
<path d="M186.83 140.923L187.382 139.423H186.506L186.122 140.923H186.83Z" fill="black"/>
<path d="M187.389 143.552C187.683 143.63 188.001 143.684 188.295 143.684C189.015 143.684 189.597 143.354 189.597 142.675C189.597 142.159 189.309 141.901 188.733 141.739C188.367 141.637 188.199 141.553 188.199 141.379C188.199 141.151 188.397 141.037 188.679 141.037C188.931 141.037 189.117 141.073 189.393 141.169L189.447 140.563C189.063 140.473 188.823 140.449 188.577 140.449C187.881 140.449 187.359 140.785 187.359 141.409C187.359 141.925 187.641 142.147 188.181 142.291C188.505 142.381 188.757 142.459 188.757 142.717C188.757 143.012 188.445 143.096 188.229 143.096C187.953 143.096 187.689 143.018 187.437 142.891L187.389 143.552Z" fill="black"/>
<path d="M194.733 143.612V139.11H193.929V140.881H193.917C193.677 140.587 193.394 140.449 192.992 140.449C192.104 140.449 191.696 141.121 191.696 142.057C191.696 142.915 192.05 143.684 192.992 143.684C193.37 143.684 193.701 143.564 193.941 143.264H193.953V143.612H194.733ZM193.214 143.06C192.692 143.06 192.536 142.495 192.536 142.057C192.536 141.577 192.716 141.073 193.202 141.073C193.719 141.073 193.923 141.625 193.923 142.057C193.923 142.507 193.743 143.06 193.214 143.06Z" fill="black"/>
<path d="M198.042 142.783C197.742 142.952 197.406 143.096 197.021 143.096C196.499 143.096 196.169 142.801 196.133 142.315H198.27C198.27 141.097 197.85 140.449 196.799 140.449C195.815 140.449 195.365 141.217 195.365 142.081C195.365 143.096 195.959 143.684 196.985 143.684C197.412 143.684 197.748 143.6 198.042 143.438V142.783ZM196.133 141.763C196.175 141.301 196.439 141.037 196.841 141.037C197.261 141.037 197.472 141.319 197.502 141.763H196.133Z" fill="black"/>
<path d="M200.71 142.976C200.626 143.03 200.488 143.06 200.35 143.06C200.068 143.06 199.966 142.867 199.966 142.543V141.109H200.68V140.521H199.966V139.645L199.162 139.903V140.521H198.568V141.109H199.162V142.681C199.162 143.276 199.492 143.684 200.146 143.684C200.38 143.684 200.566 143.66 200.734 143.612L200.71 142.976Z" fill="black"/>
<path d="M203.823 143.612C203.787 143.198 203.775 142.549 203.775 142.387V141.751C203.775 140.821 203.367 140.449 202.443 140.449C202.071 140.449 201.657 140.551 201.369 140.683L201.393 141.373C201.663 141.169 202.005 141.037 202.347 141.037C202.779 141.037 203.043 141.175 203.043 141.691V141.703H202.545C201.339 141.703 201.033 142.225 201.033 142.759C201.033 143.348 201.555 143.684 202.113 143.684C202.497 143.684 202.887 143.48 203.067 143.15H203.079C203.085 143.288 203.091 143.498 203.115 143.612H203.823ZM203.043 142.219C203.043 142.849 202.671 143.096 202.311 143.096C201.987 143.096 201.801 142.958 201.801 142.717C201.801 142.351 202.119 142.183 202.689 142.183H203.043V142.219Z" fill="black"/>
<path d="M205.388 139.957V139.188H204.584V139.957H205.388ZM205.388 143.612V140.521H204.584V143.612H205.388Z" fill="black"/>
<path d="M207.058 143.612V139.11H206.254V143.612H207.058Z" fill="black"/>
<path d="M207.738 143.552C208.032 143.63 208.35 143.684 208.645 143.684C209.365 143.684 209.947 143.354 209.947 142.675C209.947 142.159 209.659 141.901 209.083 141.739C208.717 141.637 208.548 141.553 208.548 141.379C208.548 141.151 208.747 141.037 209.029 141.037C209.281 141.037 209.467 141.073 209.743 141.169L209.797 140.563C209.413 140.473 209.173 140.449 208.927 140.449C208.23 140.449 207.708 140.785 207.708 141.409C207.708 141.925 207.99 142.147 208.53 142.291C208.855 142.381 209.107 142.459 209.107 142.717C209.107 143.012 208.795 143.096 208.578 143.096C208.302 143.096 208.038 143.018 207.786 142.891L207.738 143.552Z" fill="black"/>
<path d="M205.3 89.1473C207.78 89.1473 209.791 87.1368 209.791 84.6566C209.791 82.1765 207.78 80.166 205.3 80.166C202.82 80.166 200.81 82.1765 200.81 84.6566C200.81 87.1368 202.82 89.1473 205.3 89.1473Z" stroke="black" stroke-width="1.71477" stroke-miterlimit="10" stroke-linecap="round" stroke-linejoin="round"/>
<path d="M247.312 89.1465C249.792 89.1465 251.803 87.136 251.803 84.6559C251.803 82.1758 249.792 80.1653 247.312 80.1653C244.832 80.1653 242.821 82.1758 242.821 84.6559C242.821 87.136 244.832 89.1465 247.312 89.1465Z" stroke="black" stroke-width="1.71477" stroke-miterlimit="10" stroke-linecap="round" stroke-linejoin="round"/>
<path fill-rule="evenodd" clip-rule="evenodd" d="M208.955 84.4521C208.955 83.9786 209.339 83.5947 209.812 83.5947L212.492 83.5947C212.965 83.5947 213.349 83.9786 213.349 84.4521C213.349 84.9256 212.965 85.3095 212.492 85.3095L209.812 85.3095C209.339 85.3095 208.955 84.9256 208.955 84.4521ZM216.993 84.4521C216.993 83.9786 217.377 83.5947 217.85 83.5947L223.209 83.5947C223.683 83.5947 224.066 83.9786 224.066 84.4521C224.066 84.9256 223.683 85.3095 223.209 85.3095L217.85 85.3095C217.377 85.3095 216.993 84.9256 216.993 84.4521ZM227.71 84.4521C227.71 83.9786 228.094 83.5947 228.568 83.5947L233.926 83.5947C234.4 83.5947 234.784 83.9786 234.784 84.4521C234.784 84.9256 234.4 85.3095 233.926 85.3095L228.568 85.3095C228.094 85.3095 227.71 84.9256 227.71 84.4521ZM238.428 84.4521C238.428 83.9786 238.811 83.5947 239.285 83.5947L241.964 83.5947C242.438 83.5947 242.822 83.9786 242.822 84.4521C242.822 84.9256 242.438 85.3095 241.964 85.3095L239.285 85.3095C238.811 85.3095 238.428 84.9256 238.428 84.4521Z" fill="black"/>
<path d="M322.762 89.1473C325.242 89.1473 327.253 87.1368 327.253 84.6566C327.253 82.1765 325.242 80.166 322.762 80.166C320.282 80.166 318.271 82.1765 318.271 84.6566C318.271 87.1368 320.282 89.1473 322.762 89.1473Z" stroke="black" stroke-width="1.71477" stroke-miterlimit="10" stroke-linecap="round" stroke-linejoin="round"/>
<path d="M364.773 89.1465C367.253 89.1465 369.263 87.136 369.263 84.6559C369.263 82.1758 367.253 80.1653 364.773 80.1653C362.293 80.1653 360.282 82.1758 360.282 84.6559C360.282 87.136 362.293 89.1465 364.773 89.1465Z" stroke="black" stroke-width="1.71477" stroke-miterlimit="10" stroke-linecap="round" stroke-linejoin="round"/>
<path fill-rule="evenodd" clip-rule="evenodd" d="M326.416 84.4521C326.416 83.9786 326.8 83.5947 327.273 83.5947L329.953 83.5947C330.426 83.5947 330.81 83.9786 330.81 84.4521C330.81 84.9256 330.426 85.3095 329.953 85.3095L327.273 85.3095C326.8 85.3095 326.416 84.9256 326.416 84.4521ZM334.454 84.4521C334.454 83.9786 334.838 83.5947 335.311 83.5947L340.67 83.5947C341.144 83.5947 341.527 83.9786 341.527 84.4521C341.527 84.9256 341.144 85.3095 340.67 85.3095L335.311 85.3095C334.838 85.3095 334.454 84.9256 334.454 84.4521ZM345.171 84.4521C345.171 83.9786 345.555 83.5947 346.029 83.5947L351.387 83.5947C351.861 83.5947 352.245 83.9786 352.245 84.4521C352.245 84.9256 351.861 85.3095 351.387 85.3095L346.029 85.3095C345.555 85.3095 345.171 84.9256 345.171 84.4521ZM355.889 84.4521C355.889 83.9786 356.272 83.5947 356.746 83.5947L359.425 83.5947C359.899 83.5947 360.283 83.9786 360.283 84.4521C360.283 84.9256 359.899 85.3095 359.425 85.3095L356.746 85.3095C356.272 85.3095 355.889 84.9256 355.889 84.4521Z" fill="black"/>
<path d="M440.223 89.1473C442.703 89.1473 444.714 87.1368 444.714 84.6566C444.714 82.1765 442.703 80.166 440.223 80.166C437.743 80.166 435.732 82.1765 435.732 84.6566C435.732 87.1368 437.743 89.1473 440.223 89.1473Z" stroke="black" stroke-width="1.71477" stroke-miterlimit="10" stroke-linecap="round" stroke-linejoin="round"/>
<path d="M482.235 89.1465C484.715 89.1465 486.725 87.136 486.725 84.6559C486.725 82.1758 484.715 80.1653 482.235 80.1653C479.755 80.1653 477.744 82.1758 477.744 84.6559C477.744 87.136 479.755 89.1465 482.235 89.1465Z" stroke="black" stroke-width="1.71477" stroke-miterlimit="10" stroke-linecap="round" stroke-linejoin="round"/>
<path fill-rule="evenodd" clip-rule="evenodd" d="M443.878 84.4521C443.878 83.9786 444.262 83.5947 444.735 83.5947L447.415 83.5947C447.888 83.5947 448.272 83.9786 448.272 84.4521C448.272 84.9256 447.888 85.3095 447.415 85.3095L444.735 85.3095C444.262 85.3095 443.878 84.9256 443.878 84.4521ZM451.916 84.4521C451.916 83.9786 452.3 83.5947 452.773 83.5947L458.132 83.5947C458.605 83.5947 458.989 83.9786 458.989 84.4521C458.989 84.9256 458.605 85.3095 458.132 85.3095L452.773 85.3095C452.3 85.3095 451.916 84.9256 451.916 84.4521ZM462.633 84.4521C462.633 83.9786 463.017 83.5947 463.491 83.5947L468.849 83.5947C469.323 83.5947 469.707 83.9786 469.707 84.4521C469.707 84.9256 469.323 85.3095 468.849 85.3095L463.491 85.3095C463.017 85.3095 462.633 84.9256 462.633 84.4521ZM473.35 84.4521C473.35 83.9786 473.734 83.5947 474.208 83.5947L476.887 83.5947C477.361 83.5947 477.745 83.9786 477.745 84.4521C477.745 84.9256 477.361 85.3095 476.887 85.3095L474.208 85.3095C473.734 85.3095 473.35 84.9256 473.35 84.4521Z" fill="black"/>
<path d="M419.491 56.0376H385.293V105.78H419.491V56.0376Z" stroke="black" stroke-width="1.71477" stroke-miterlimit="10" stroke-linecap="round" stroke-linejoin="round"/>
<path d="M385.254 117.801H419.749C421.466 117.801 422.858 116.409 422.858 114.692V54.9805C422.858 53.2637 421.466 51.8716 419.749 51.8716H385.254C383.538 51.8716 382.146 53.2637 382.146 54.9805V114.695C382.146 116.409 383.538 117.801 385.254 117.801Z" stroke="black" stroke-width="1.71477" stroke-miterlimit="10" stroke-linecap="round" stroke-linejoin="round"/>
<path d="M402.392 114.05C403.822 114.05 404.982 112.889 404.982 111.459C404.982 110.029 403.822 108.868 402.392 108.868C400.961 108.868 399.801 110.029 399.801 111.459C399.801 112.889 400.961 114.05 402.392 114.05Z" stroke="black" stroke-width="1.71477" stroke-miterlimit="10" stroke-linecap="round" stroke-linejoin="round"/>
<path d="M397.396 73.5225C396.832 73.5225 396.375 73.1573 396.375 72.7075V69.453C396.375 69.0032 396.832 68.6379 397.396 68.6379C397.961 68.6379 398.418 69.0032 398.418 69.453V72.7103C398.418 73.1601 397.961 73.5225 397.396 73.5225Z" stroke="black" stroke-width="1.28607" stroke-linecap="round" stroke-linejoin="round"/>
<path d="M407.612 73.4766C407.048 73.4766 406.591 73.1128 406.591 72.663V69.4056C406.591 68.9544 407.048 68.5906 407.612 68.5906C408.177 68.5906 408.629 68.9544 408.629 69.4056V72.663C408.629 73.1128 408.177 73.4766 407.612 73.4766Z" stroke="black" stroke-width="1.28607" stroke-linecap="round" stroke-linejoin="round"/>
<path d="M393.021 78.2322H411.791" stroke="black" stroke-width="1.28607" stroke-linecap="round" stroke-linejoin="round"/>
<path d="M393.021 82.9521H410.987" stroke="black" stroke-width="1.28607" stroke-linecap="round" stroke-linejoin="round"/>
<path d="M393.364 87.384H410.758" stroke="black" stroke-width="1.28607" stroke-linecap="round" stroke-linejoin="round"/>
<path d="M396.833 79.2651V91.4336" stroke="black" stroke-width="1.28607" stroke-linecap="round" stroke-linejoin="round"/>
<path d="M402.451 79.2908V91.4607" stroke="black" stroke-width="1.28607" stroke-linecap="round" stroke-linejoin="round"/>
<path d="M408.071 79.2908V88.5901" stroke="black" stroke-width="1.28607" stroke-linecap="round" stroke-linejoin="round"/>
<path d="M408.685 71.1089H410.26C411.172 71.1089 412.046 71.4711 412.691 72.1158C413.336 72.7605 413.698 73.6349 413.698 74.5467V90.0098C413.699 90.4619 413.611 90.9097 413.438 91.3276C413.266 91.7455 413.013 92.1253 412.694 92.4453C412.374 92.7653 411.995 93.0192 411.578 93.1924C411.16 93.3656 410.712 93.4548 410.26 93.4548H394.804C393.891 93.4548 393.014 93.0918 392.368 92.4458C391.722 91.7997 391.359 90.9235 391.359 90.0098V74.5524C391.359 74.1004 391.449 73.6528 391.622 73.2352C391.795 72.8176 392.049 72.4383 392.369 72.119C392.689 71.7997 393.069 71.5466 393.487 71.3742C393.904 71.2019 394.352 71.1137 394.804 71.1146H396.337" stroke="black" stroke-width="1.28607" stroke-linecap="round" stroke-linejoin="round"/>
<path d="M398.475 71.1089H406.592" stroke="black" stroke-width="1.28607" stroke-linecap="round" stroke-linejoin="round"/>
<path d="M385.183 134.571C385.183 135.321 384.913 135.736 384.313 135.736C383.713 135.736 383.443 135.321 383.443 134.571V132.135H382.602V134.823C382.602 135.814 383.113 136.396 384.313 136.396C385.465 136.396 386.023 135.856 386.023 134.829V132.135H385.183V134.571Z" fill="black"/>
<path d="M386.724 136.264C387.018 136.342 387.336 136.396 387.63 136.396C388.35 136.396 388.932 136.066 388.932 135.387C388.932 134.871 388.644 134.613 388.068 134.451C387.702 134.349 387.534 134.265 387.534 134.091C387.534 133.863 387.732 133.749 388.014 133.749C388.266 133.749 388.452 133.785 388.728 133.881L388.782 133.275C388.398 133.185 388.158 133.161 387.912 133.161C387.216 133.161 386.694 133.497 386.694 134.121C386.694 134.637 386.976 134.859 387.516 135.003C387.84 135.093 388.092 135.171 388.092 135.429C388.092 135.724 387.78 135.808 387.564 135.808C387.288 135.808 387.024 135.73 386.772 135.603L386.724 136.264Z" fill="black"/>
<path d="M392.037 135.495C391.737 135.664 391.401 135.808 391.017 135.808C390.495 135.808 390.165 135.513 390.129 135.027H392.265C392.265 133.809 391.845 133.161 390.795 133.161C389.81 133.161 389.36 133.929 389.36 134.793C389.36 135.808 389.955 136.396 390.981 136.396C391.407 136.396 391.743 136.312 392.037 136.15V135.495ZM390.129 134.475C390.171 134.013 390.435 133.749 390.837 133.749C391.257 133.749 391.467 134.031 391.497 134.475H390.129Z" fill="black"/>
<path d="M393.716 136.324V135.051C393.716 134.091 394.07 133.929 394.37 133.929C394.514 133.929 394.658 133.953 394.73 133.995V133.185C394.706 133.179 394.658 133.161 394.49 133.161C394.022 133.161 393.686 133.611 393.638 133.935H393.626V133.233H392.911V136.324H393.716Z" fill="black"/>
<path d="M399.375 135.495C399.075 135.664 398.739 135.808 398.355 135.808C397.833 135.808 397.503 135.513 397.467 135.027H399.603C399.603 133.809 399.183 133.161 398.133 133.161C397.148 133.161 396.698 133.929 396.698 134.793C396.698 135.808 397.293 136.396 398.319 136.396C398.745 136.396 399.081 136.312 399.375 136.15V135.495ZM397.467 134.475C397.509 134.013 397.773 133.749 398.175 133.749C398.595 133.749 398.805 134.031 398.835 134.475H397.467Z" fill="black"/>
<path d="M403.07 136.324V134.373C403.07 133.647 402.728 133.161 402.02 133.161C401.594 133.161 401.252 133.305 401.006 133.653H400.994V133.233H400.231V136.324H401.036V134.823C401.036 134.277 401.234 133.785 401.744 133.785C402.17 133.785 402.266 134.127 402.266 134.589V136.324H403.07Z" fill="black"/>
<path d="M405.713 135.688C405.629 135.742 405.491 135.772 405.353 135.772C405.071 135.772 404.969 135.579 404.969 135.255V133.821H405.683V133.233H404.969V132.357L404.164 132.615V133.233H403.57V133.821H404.164V135.393C404.164 135.988 404.494 136.396 405.149 136.396C405.383 136.396 405.569 136.372 405.737 136.324L405.713 135.688Z" fill="black"/>
<path d="M408.712 135.495C408.412 135.664 408.076 135.808 407.691 135.808C407.169 135.808 406.839 135.513 406.803 135.027H408.94C408.94 133.809 408.52 133.161 407.469 133.161C406.485 133.161 406.035 133.929 406.035 134.793C406.035 135.808 406.629 136.396 407.655 136.396C408.082 136.396 408.418 136.312 408.712 136.15V135.495ZM406.803 134.475C406.845 134.013 407.109 133.749 407.511 133.749C407.931 133.749 408.142 134.031 408.172 134.475H406.803Z" fill="black"/>
<path d="M410.39 136.324V135.051C410.39 134.091 410.744 133.929 411.044 133.929C411.188 133.929 411.332 133.953 411.404 133.995V133.185C411.38 133.179 411.332 133.161 411.164 133.161C410.696 133.161 410.36 133.611 410.312 133.935H410.3V133.233H409.586V136.324H410.39Z" fill="black"/>
<path d="M411.733 136.264C412.027 136.342 412.345 136.396 412.639 136.396C413.359 136.396 413.941 136.066 413.941 135.387C413.941 134.871 413.653 134.613 413.077 134.451C412.711 134.349 412.543 134.265 412.543 134.091C412.543 133.863 412.741 133.749 413.023 133.749C413.275 133.749 413.461 133.785 413.737 133.881L413.791 133.275C413.407 133.185 413.167 133.161 412.921 133.161C412.225 133.161 411.703 133.497 411.703 134.121C411.703 134.637 411.985 134.859 412.525 135.003C412.849 135.093 413.101 135.171 413.101 135.429C413.101 135.724 412.789 135.808 412.573 135.808C412.297 135.808 412.033 135.73 411.781 135.603L411.733 136.264Z" fill="black"/>
<path d="M385.399 143.611V139.11H384.595V140.881H384.583C384.343 140.587 384.061 140.449 383.659 140.449C382.77 140.449 382.362 141.121 382.362 142.057C382.362 142.915 382.716 143.683 383.659 143.683C384.037 143.683 384.367 143.563 384.607 143.263H384.619V143.611H385.399ZM383.881 143.059C383.359 143.059 383.203 142.495 383.203 142.057C383.203 141.577 383.383 141.073 383.869 141.073C384.385 141.073 384.589 141.625 384.589 142.057C384.589 142.507 384.409 143.059 383.881 143.059Z" fill="black"/>
<path d="M388.822 143.611C388.786 143.197 388.774 142.549 388.774 142.387V141.751C388.774 140.821 388.366 140.449 387.442 140.449C387.07 140.449 386.655 140.551 386.367 140.683L386.391 141.373C386.661 141.169 387.004 141.037 387.346 141.037C387.778 141.037 388.042 141.175 388.042 141.691V141.703H387.544C386.337 141.703 386.031 142.225 386.031 142.759C386.031 143.347 386.553 143.683 387.112 143.683C387.496 143.683 387.886 143.479 388.066 143.149H388.078C388.084 143.287 388.09 143.497 388.114 143.611H388.822ZM388.042 142.219C388.042 142.849 387.67 143.095 387.31 143.095C386.986 143.095 386.8 142.957 386.8 142.717C386.8 142.351 387.118 142.183 387.688 142.183H388.042V142.219Z" fill="black"/>
<path d="M391.377 142.975C391.293 143.029 391.155 143.059 391.017 143.059C390.735 143.059 390.633 142.867 390.633 142.543V141.109H391.347V140.521H390.633V139.644L389.828 139.902V140.521H389.234V141.109H389.828V142.681C389.828 143.275 390.158 143.683 390.813 143.683C391.047 143.683 391.233 143.659 391.401 143.611L391.377 142.975Z" fill="black"/>
<path d="M394.376 142.783C394.076 142.951 393.739 143.095 393.355 143.095C392.833 143.095 392.503 142.801 392.467 142.315H394.604C394.604 141.097 394.184 140.449 393.133 140.449C392.149 140.449 391.699 141.217 391.699 142.081C391.699 143.095 392.293 143.683 393.319 143.683C393.745 143.683 394.082 143.599 394.376 143.437V142.783ZM392.467 141.763C392.509 141.301 392.773 141.037 393.175 141.037C393.595 141.037 393.805 141.319 393.835 141.763H392.467Z" fill="black"/>
<path d="M399.939 142.087C399.939 141.091 399.261 140.449 398.319 140.449C397.376 140.449 396.704 141.097 396.704 142.087C396.704 142.999 397.322 143.683 398.319 143.683C399.315 143.683 399.939 143.005 399.939 142.087ZM398.319 143.059C397.797 143.059 397.544 142.645 397.544 141.991C397.544 141.505 397.815 141.073 398.319 141.073C398.835 141.073 399.099 141.499 399.099 141.991C399.099 142.657 398.841 143.059 398.319 143.059Z" fill="black"/>
<path d="M401.67 143.611V141.109H402.372V140.521H401.67V140.136C401.67 139.842 401.79 139.662 402.024 139.662C402.15 139.662 402.246 139.692 402.372 139.77L402.438 139.104C402.282 139.068 402.048 139.038 401.862 139.038C401.135 139.038 400.865 139.56 400.865 140.082V140.521H400.271V141.109H400.865V143.611H401.67Z" fill="black"/>
<path d="M405.355 143.611V143.233H405.367C405.565 143.515 405.901 143.683 406.315 143.683C407.221 143.683 407.611 142.963 407.611 142.057C407.611 141.091 407.179 140.449 406.315 140.449C405.895 140.449 405.613 140.623 405.391 140.917H405.379V139.11H404.574V143.611H405.355ZM406.093 143.059C405.583 143.059 405.385 142.537 405.385 142.057C405.385 141.607 405.601 141.073 406.105 141.073C406.591 141.073 406.771 141.577 406.771 142.057C406.771 142.525 406.597 143.059 406.093 143.059Z" fill="black"/>
<path d="M409.066 139.956V139.188H408.261V139.956H409.066ZM409.066 143.611V140.521H408.261V143.611H409.066Z" fill="black"/>
<path d="M410.736 143.611V142.339C410.736 141.379 411.09 141.217 411.39 141.217C411.534 141.217 411.678 141.241 411.75 141.283V140.473C411.726 140.467 411.678 140.449 411.51 140.449C411.042 140.449 410.706 140.899 410.658 141.223H410.646V140.521H409.932V143.611H410.736Z" fill="black"/>
<path d="M414.059 142.975C413.975 143.029 413.837 143.059 413.699 143.059C413.417 143.059 413.315 142.867 413.315 142.543V141.109H414.029V140.521H413.315V139.644L412.51 139.902V140.521H411.916V141.109H412.51V142.681C412.51 143.275 412.841 143.683 413.495 143.683C413.729 143.683 413.915 143.659 414.083 143.611L414.059 142.975Z" fill="black"/>
<path d="M417.418 143.611V141.655C417.418 140.947 417.082 140.449 416.368 140.449C415.941 140.449 415.593 140.647 415.395 140.941H415.383V139.11H414.579V143.611H415.383V142.117C415.383 141.505 415.617 141.073 416.092 141.073C416.446 141.073 416.614 141.301 416.614 141.865V143.611H417.418Z" fill="black"/>
<path d="M536.952 56.0376H502.754V105.78H536.952V56.0376Z" stroke="black" stroke-width="1.71477" stroke-miterlimit="10" stroke-linecap="round" stroke-linejoin="round"/>
<path d="M502.716 117.801H537.211C538.928 117.801 540.32 116.409 540.32 114.692V54.9805C540.32 53.2637 538.928 51.8716 537.211 51.8716H502.716C501 51.8716 499.607 53.2637 499.607 54.9805V114.695C499.607 116.409 501 117.801 502.716 117.801Z" stroke="black" stroke-width="1.71477" stroke-miterlimit="10" stroke-linecap="round" stroke-linejoin="round"/>
<path d="M519.853 114.05C521.284 114.05 522.444 112.889 522.444 111.459C522.444 110.029 521.284 108.868 519.853 108.868C518.423 108.868 517.263 110.029 517.263 111.459C517.263 112.889 518.423 114.05 519.853 114.05Z" stroke="black" stroke-width="1.71477" stroke-miterlimit="10" stroke-linecap="round" stroke-linejoin="round"/>
<path d="M519.542 95.1695C526.763 95.1695 532.617 89.3155 532.617 82.0944C532.617 74.8732 526.763 69.0193 519.542 69.0193C512.321 69.0193 506.467 74.8732 506.467 82.0944C506.467 89.3155 512.321 95.1695 519.542 95.1695Z" stroke="black" stroke-width="1.38219" stroke-miterlimit="10" stroke-linecap="round" stroke-linejoin="round"/>
<path d="M513.602 85.296L515.61 88.0338L525.48 76.155" stroke="black" stroke-width="1.71477" stroke-miterlimit="10" stroke-linecap="round" stroke-linejoin="round"/>
<path d="M502.644 134.571C502.644 135.321 502.374 135.736 501.774 135.736C501.174 135.736 500.904 135.321 500.904 134.571V132.135H500.064V134.823C500.064 135.814 500.574 136.396 501.774 136.396C502.926 136.396 503.484 135.856 503.484 134.829V132.135H502.644V134.571Z" fill="black"/>
<path d="M504.185 136.264C504.479 136.342 504.797 136.396 505.091 136.396C505.811 136.396 506.393 136.066 506.393 135.388C506.393 134.871 506.105 134.613 505.529 134.451C505.163 134.349 504.995 134.265 504.995 134.091C504.995 133.863 505.193 133.749 505.475 133.749C505.727 133.749 505.913 133.785 506.189 133.881L506.243 133.275C505.859 133.185 505.619 133.161 505.373 133.161C504.677 133.161 504.155 133.497 504.155 134.121C504.155 134.637 504.437 134.859 504.977 135.003C505.301 135.093 505.553 135.171 505.553 135.43C505.553 135.724 505.241 135.808 505.025 135.808C504.749 135.808 504.485 135.73 504.233 135.604L504.185 136.264Z" fill="black"/>
<path d="M509.498 135.496C509.198 135.664 508.862 135.808 508.478 135.808C507.956 135.808 507.626 135.514 507.59 135.027H509.726C509.726 133.809 509.306 133.161 508.256 133.161C507.272 133.161 506.821 133.929 506.821 134.793C506.821 135.808 507.416 136.396 508.442 136.396C508.868 136.396 509.204 136.312 509.498 136.15V135.496ZM507.59 134.475C507.632 134.013 507.896 133.749 508.298 133.749C508.718 133.749 508.928 134.031 508.958 134.475H507.59Z" fill="black"/>
<path d="M511.177 136.324V135.051C511.177 134.091 511.531 133.929 511.831 133.929C511.975 133.929 512.119 133.953 512.191 133.995V133.185C512.167 133.179 512.119 133.161 511.951 133.161C511.483 133.161 511.147 133.611 511.099 133.935H511.087V133.233H510.372V136.324H511.177Z" fill="black"/>
<path d="M517.196 136.324V134.367C517.196 133.659 516.86 133.161 516.146 133.161C515.72 133.161 515.372 133.359 515.174 133.653H515.162V131.823H514.358V136.324H515.162V134.829C515.162 134.217 515.396 133.785 515.87 133.785C516.224 133.785 516.392 134.013 516.392 134.577V136.324H517.196Z" fill="black"/>
<path d="M520.619 136.324C520.583 135.91 520.571 135.261 520.571 135.099V134.463C520.571 133.533 520.163 133.161 519.239 133.161C518.867 133.161 518.453 133.263 518.165 133.395L518.189 134.085C518.459 133.881 518.801 133.749 519.143 133.749C519.575 133.749 519.839 133.887 519.839 134.403V134.415H519.341C518.135 134.415 517.828 134.937 517.828 135.472C517.828 136.06 518.351 136.396 518.909 136.396C519.293 136.396 519.683 136.192 519.863 135.862H519.875C519.881 136 519.887 136.21 519.911 136.324H520.619ZM519.839 134.931C519.839 135.562 519.467 135.808 519.107 135.808C518.783 135.808 518.597 135.67 518.597 135.43C518.597 135.063 518.915 134.895 519.485 134.895H519.839V134.931Z" fill="black"/>
<path d="M521.193 136.264C521.487 136.342 521.806 136.396 522.1 136.396C522.82 136.396 523.402 136.066 523.402 135.388C523.402 134.871 523.114 134.613 522.538 134.451C522.172 134.349 522.004 134.265 522.004 134.091C522.004 133.863 522.202 133.749 522.484 133.749C522.736 133.749 522.922 133.785 523.198 133.881L523.252 133.275C522.868 133.185 522.628 133.161 522.382 133.161C521.686 133.161 521.163 133.497 521.163 134.121C521.163 134.637 521.445 134.859 521.986 135.003C522.31 135.093 522.562 135.171 522.562 135.43C522.562 135.724 522.25 135.808 522.034 135.808C521.758 135.808 521.493 135.73 521.241 135.604L521.193 136.264Z" fill="black"/>
<path d="M528.291 136.324C528.255 135.91 528.243 135.261 528.243 135.099V134.463C528.243 133.533 527.835 133.161 526.911 133.161C526.539 133.161 526.125 133.263 525.837 133.395L525.861 134.085C526.131 133.881 526.473 133.749 526.815 133.749C527.247 133.749 527.511 133.887 527.511 134.403V134.415H527.013C525.807 134.415 525.501 134.937 525.501 135.472C525.501 136.06 526.023 136.396 526.581 136.396C526.965 136.396 527.355 136.192 527.535 135.862H527.547C527.553 136 527.559 136.21 527.583 136.324H528.291ZM527.511 134.931C527.511 135.562 527.139 135.808 526.779 135.808C526.455 135.808 526.269 135.67 526.269 135.43C526.269 135.063 526.587 134.895 527.157 134.895H527.511V134.931Z" fill="black"/>
<path d="M531.128 135.628C530.918 135.718 530.684 135.772 530.51 135.772C529.97 135.772 529.676 135.364 529.676 134.763C529.676 134.181 529.994 133.785 530.498 133.785C530.72 133.785 530.882 133.827 531.038 133.899L531.11 133.263C530.888 133.197 530.648 133.161 530.336 133.161C529.388 133.161 528.835 133.839 528.835 134.763C528.835 135.772 529.4 136.396 530.366 136.396C530.696 136.396 530.924 136.366 531.164 136.294L531.128 135.628Z" fill="black"/>
<path d="M533.795 135.628C533.585 135.718 533.351 135.772 533.177 135.772C532.637 135.772 532.342 135.364 532.342 134.763C532.342 134.181 532.661 133.785 533.165 133.785C533.387 133.785 533.549 133.827 533.705 133.899L533.777 133.263C533.555 133.197 533.315 133.161 533.003 133.161C532.054 133.161 531.502 133.839 531.502 134.763C531.502 135.772 532.066 136.396 533.033 136.396C533.363 136.396 533.591 136.366 533.831 136.294L533.795 135.628Z" fill="black"/>
<path d="M536.846 135.496C536.546 135.664 536.21 135.808 535.825 135.808C535.303 135.808 534.973 135.514 534.937 135.027H537.074C537.074 133.809 536.654 133.161 535.603 133.161C534.619 133.161 534.169 133.929 534.169 134.793C534.169 135.808 534.763 136.396 535.789 136.396C536.216 136.396 536.552 136.312 536.846 136.15V135.496ZM534.937 134.475C534.979 134.013 535.243 133.749 535.645 133.749C536.066 133.749 536.276 134.031 536.306 134.475H534.937Z" fill="black"/>
<path d="M537.534 136.264C537.828 136.342 538.146 136.396 538.44 136.396C539.16 136.396 539.743 136.066 539.743 135.388C539.743 134.871 539.454 134.613 538.878 134.451C538.512 134.349 538.344 134.265 538.344 134.091C538.344 133.863 538.542 133.749 538.824 133.749C539.076 133.749 539.262 133.785 539.538 133.881L539.592 133.275C539.208 133.185 538.968 133.161 538.722 133.161C538.026 133.161 537.504 133.497 537.504 134.121C537.504 134.637 537.786 134.859 538.326 135.003C538.65 135.093 538.902 135.171 538.902 135.43C538.902 135.724 538.59 135.808 538.374 135.808C538.098 135.808 537.834 135.73 537.582 135.604L537.534 136.264Z" fill="black"/>
<path d="M540.201 136.264C540.495 136.342 540.813 136.396 541.107 136.396C541.827 136.396 542.409 136.066 542.409 135.388C542.409 134.871 542.121 134.613 541.545 134.451C541.179 134.349 541.011 134.265 541.011 134.091C541.011 133.863 541.209 133.749 541.491 133.749C541.743 133.749 541.929 133.785 542.205 133.881L542.259 133.275C541.875 133.185 541.635 133.161 541.389 133.161C540.693 133.161 540.171 133.497 540.171 134.121C540.171 134.637 540.453 134.859 540.993 135.003C541.317 135.093 541.569 135.171 541.569 135.43C541.569 135.724 541.257 135.808 541.041 135.808C540.765 135.808 540.501 135.73 540.249 135.604L540.201 136.264Z" fill="black"/>
<path d="M501.834 142.975C501.75 143.029 501.612 143.059 501.474 143.059C501.192 143.059 501.09 142.867 501.09 142.543V141.109H501.804V140.521H501.09V139.644L500.286 139.902V140.521H499.691V141.109H500.286V142.681C500.286 143.275 500.616 143.684 501.27 143.684C501.504 143.684 501.69 143.66 501.858 143.612L501.834 142.975Z" fill="black"/>
<path d="M505.391 142.087C505.391 141.091 504.713 140.449 503.771 140.449C502.828 140.449 502.156 141.097 502.156 142.087C502.156 142.999 502.774 143.684 503.771 143.684C504.767 143.684 505.391 143.005 505.391 142.087ZM503.771 143.059C503.248 143.059 502.996 142.645 502.996 141.991C502.996 141.505 503.266 141.073 503.771 141.073C504.287 141.073 504.551 141.499 504.551 141.991C504.551 142.657 504.293 143.059 503.771 143.059Z" fill="black"/>
<path d="M507.526 143.552C507.82 143.63 508.138 143.684 508.432 143.684C509.152 143.684 509.734 143.353 509.734 142.675C509.734 142.159 509.446 141.901 508.87 141.739C508.504 141.637 508.336 141.553 508.336 141.379C508.336 141.151 508.534 141.037 508.816 141.037C509.068 141.037 509.254 141.073 509.53 141.169L509.584 140.563C509.2 140.473 508.96 140.449 508.714 140.449C508.018 140.449 507.496 140.785 507.496 141.409C507.496 141.925 507.778 142.147 508.318 142.291C508.642 142.381 508.894 142.459 508.894 142.717C508.894 143.011 508.582 143.095 508.366 143.095C508.09 143.095 507.826 143.017 507.574 142.891L507.526 143.552Z" fill="black"/>
<path d="M512.839 142.783C512.539 142.951 512.203 143.095 511.819 143.095C511.297 143.095 510.966 142.801 510.93 142.315H513.067C513.067 141.097 512.647 140.449 511.597 140.449C510.612 140.449 510.162 141.217 510.162 142.081C510.162 143.095 510.756 143.684 511.783 143.684C512.209 143.684 512.545 143.6 512.839 143.437V142.783ZM510.93 141.763C510.972 141.301 511.237 141.037 511.639 141.037C512.059 141.037 512.269 141.319 512.299 141.763H510.93Z" fill="black"/>
<path d="M514.517 143.612V142.339C514.517 141.379 514.872 141.217 515.172 141.217C515.316 141.217 515.46 141.241 515.532 141.283V140.473C515.508 140.467 515.46 140.449 515.292 140.449C514.824 140.449 514.487 140.899 514.439 141.223H514.427V140.521H513.713V143.612H514.517Z" fill="black"/>
<path d="M517.738 143.612L518.879 140.521H518.074L517.33 142.771H517.318L516.55 140.521H515.686L516.832 143.612H517.738Z" fill="black"/>
<path d="M520.185 139.956V139.188H519.381V139.956H520.185ZM520.185 143.612V140.521H519.381V143.612H520.185Z" fill="black"/>
<path d="M523.128 142.915C522.918 143.005 522.684 143.059 522.51 143.059C521.969 143.059 521.675 142.651 521.675 142.051C521.675 141.469 521.993 141.073 522.498 141.073C522.72 141.073 522.882 141.115 523.038 141.187L523.11 140.551C522.888 140.485 522.648 140.449 522.336 140.449C521.387 140.449 520.835 141.127 520.835 142.051C520.835 143.059 521.399 143.684 522.366 143.684C522.696 143.684 522.924 143.654 523.164 143.582L523.128 142.915Z" fill="black"/>
<path d="M526.179 142.783C525.879 142.951 525.543 143.095 525.158 143.095C524.636 143.095 524.306 142.801 524.27 142.315H526.407C526.407 141.097 525.987 140.449 524.936 140.449C523.952 140.449 523.502 141.217 523.502 142.081C523.502 143.095 524.096 143.684 525.122 143.684C525.549 143.684 525.885 143.6 526.179 143.437V142.783ZM524.27 141.763C524.312 141.301 524.576 141.037 524.978 141.037C525.398 141.037 525.609 141.319 525.639 141.763H524.27Z" fill="black"/>
<path d="M302.029 56.0376H267.831V105.78H302.029V56.0376Z" stroke="black" stroke-width="1.71477" stroke-miterlimit="10" stroke-linecap="round" stroke-linejoin="round"/>
<path d="M267.793 117.801H302.288C304.005 117.801 305.397 116.409 305.397 114.692V54.9805C305.397 53.2637 304.005 51.8716 302.288 51.8716H267.793C266.077 51.8716 264.685 53.2637 264.685 54.9805V114.695C264.685 116.409 266.077 117.801 267.793 117.801Z" stroke="black" stroke-width="1.71477" stroke-miterlimit="10" stroke-linecap="round" stroke-linejoin="round"/>
<path d="M284.931 114.05C286.361 114.05 287.521 112.889 287.521 111.459C287.521 110.029 286.361 108.868 284.931 108.868C283.5 108.868 282.34 110.029 282.34 111.459C282.34 112.889 283.5 114.05 284.931 114.05Z" stroke="black" stroke-width="1.71477" stroke-miterlimit="10" stroke-linecap="round" stroke-linejoin="round"/>
<path d="M276.754 93.4547C277.254 89.2603 280.778 85.9994 285.051 85.9994C289.324 85.9994 292.848 89.2603 293.348 93.4547H276.754ZM293.414 77.0583C293.414 81.7392 289.666 85.526 285.051 85.526C280.436 85.526 276.688 81.7261 276.688 77.0583C276.688 72.3905 280.436 68.5906 285.051 68.5906C289.666 68.5906 293.414 72.3774 293.414 77.0583Z" stroke="black" stroke-width="1.28607" stroke-miterlimit="10" stroke-linecap="round" stroke-linejoin="round"/>
<path d="M267.722 133.285C267.722 134.036 267.452 134.45 266.852 134.45C266.251 134.45 265.981 134.036 265.981 133.285V130.849H265.141V133.537C265.141 134.528 265.651 135.11 266.852 135.11C268.004 135.11 268.562 134.57 268.562 133.543V130.849H267.722V133.285Z" fill="black"/>
<path d="M269.262 134.978C269.556 135.056 269.874 135.11 270.169 135.11C270.889 135.11 271.471 134.78 271.471 134.102C271.471 133.585 271.183 133.327 270.607 133.165C270.241 133.063 270.073 132.979 270.073 132.805C270.073 132.577 270.271 132.463 270.553 132.463C270.805 132.463 270.991 132.499 271.267 132.595L271.321 131.989C270.937 131.899 270.697 131.875 270.451 131.875C269.754 131.875 269.232 132.211 269.232 132.835C269.232 133.351 269.514 133.573 270.055 133.718C270.379 133.808 270.631 133.886 270.631 134.144C270.631 134.438 270.319 134.522 270.103 134.522C269.826 134.522 269.562 134.444 269.31 134.318L269.262 134.978Z" fill="black"/>
<path d="M274.576 134.21C274.276 134.378 273.94 134.522 273.556 134.522C273.033 134.522 272.703 134.228 272.667 133.742H274.804C274.804 132.523 274.384 131.875 273.333 131.875C272.349 131.875 271.899 132.643 271.899 133.507C271.899 134.522 272.493 135.11 273.52 135.11C273.946 135.11 274.282 135.026 274.576 134.864V134.21ZM272.667 133.189C272.709 132.727 272.973 132.463 273.375 132.463C273.796 132.463 274.006 132.745 274.036 133.189H272.667Z" fill="black"/>
<path d="M276.254 135.038V133.766C276.254 132.805 276.608 132.643 276.908 132.643C277.052 132.643 277.197 132.667 277.269 132.709V131.899C277.245 131.893 277.197 131.875 277.028 131.875C276.56 131.875 276.224 132.325 276.176 132.649H276.164V131.947H275.45V135.038H276.254Z" fill="black"/>
<path d="M281.914 134.21C281.614 134.378 281.278 134.522 280.894 134.522C280.371 134.522 280.041 134.228 280.005 133.742H282.142C282.142 132.523 281.722 131.875 280.671 131.875C279.687 131.875 279.237 132.643 279.237 133.507C279.237 134.522 279.831 135.11 280.858 135.11C281.284 135.11 281.62 135.026 281.914 134.864V134.21ZM280.005 133.189C280.047 132.727 280.311 132.463 280.713 132.463C281.134 132.463 281.344 132.745 281.374 133.189H280.005Z" fill="black"/>
<path d="M285.609 135.038V133.087C285.609 132.361 285.267 131.875 284.559 131.875C284.132 131.875 283.79 132.019 283.544 132.367H283.532V131.947H282.77V135.038H283.574V133.537C283.574 132.991 283.772 132.499 284.282 132.499C284.709 132.499 284.805 132.841 284.805 133.303V135.038H285.609Z" fill="black"/>
<path d="M288.252 134.402C288.168 134.456 288.029 134.486 287.891 134.486C287.609 134.486 287.507 134.294 287.507 133.97V132.535H288.222V131.947H287.507V131.071L286.703 131.329V131.947H286.109V132.535H286.703V134.108C286.703 134.702 287.033 135.11 287.687 135.11C287.921 135.11 288.107 135.086 288.276 135.038L288.252 134.402Z" fill="black"/>
<path d="M291.25 134.21C290.95 134.378 290.614 134.522 290.23 134.522C289.708 134.522 289.378 134.228 289.342 133.742H291.478C291.478 132.523 291.058 131.875 290.008 131.875C289.024 131.875 288.574 132.643 288.574 133.507C288.574 134.522 289.168 135.11 290.194 135.11C290.62 135.11 290.956 135.026 291.25 134.864V134.21ZM289.342 133.189C289.384 132.727 289.648 132.463 290.05 132.463C290.47 132.463 290.68 132.745 290.71 133.189H289.342Z" fill="black"/>
<path d="M292.929 135.038V133.766C292.929 132.805 293.283 132.643 293.583 132.643C293.727 132.643 293.871 132.667 293.943 132.709V131.899C293.919 131.893 293.871 131.875 293.703 131.875C293.235 131.875 292.899 132.325 292.851 132.649H292.839V131.947H292.125V135.038H292.929Z" fill="black"/>
<path d="M294.271 134.978C294.565 135.056 294.883 135.11 295.178 135.11C295.898 135.11 296.48 134.78 296.48 134.102C296.48 133.585 296.192 133.327 295.616 133.165C295.25 133.063 295.081 132.979 295.081 132.805C295.081 132.577 295.28 132.463 295.562 132.463C295.814 132.463 296 132.499 296.276 132.595L296.33 131.989C295.946 131.899 295.706 131.875 295.46 131.875C294.763 131.875 294.241 132.211 294.241 132.835C294.241 133.351 294.523 133.573 295.063 133.718C295.388 133.808 295.64 133.886 295.64 134.144C295.64 134.438 295.328 134.522 295.111 134.522C294.835 134.522 294.571 134.444 294.319 134.318L294.271 134.978Z" fill="black"/>
<path d="M299.875 135.038V132.535H300.577V131.947H299.875V131.563C299.875 131.269 299.995 131.089 300.229 131.089C300.355 131.089 300.451 131.119 300.577 131.197L300.643 130.531C300.487 130.495 300.253 130.465 300.067 130.465C299.341 130.465 299.071 130.987 299.071 131.509V131.947H298.476V132.535H299.071V135.038H299.875Z" fill="black"/>
<path d="M303.948 135.038V131.947H303.144V133.441C303.144 134.036 302.922 134.486 302.436 134.486C302.141 134.486 301.913 134.33 301.913 133.712V131.947H301.109V133.898C301.109 134.648 301.469 135.11 302.159 135.11C302.562 135.11 302.91 134.936 303.174 134.618H303.186V135.038H303.948Z" fill="black"/>
<path d="M305.6 135.038V130.537H304.796V135.038H305.6Z" fill="black"/>
<path d="M307.271 135.038V130.537H306.467V135.038H307.271Z" fill="black"/>
<path d="M267.938 142.326V140.375C267.938 139.649 267.596 139.163 266.888 139.163C266.461 139.163 266.119 139.307 265.873 139.655H265.861V139.235H265.099V142.326H265.903V140.825C265.903 140.279 266.101 139.787 266.611 139.787C267.038 139.787 267.134 140.129 267.134 140.591V142.326H267.938Z" fill="black"/>
<path d="M271.361 142.326C271.325 141.912 271.313 141.263 271.313 141.101V140.465C271.313 139.535 270.905 139.163 269.98 139.163C269.608 139.163 269.194 139.265 268.906 139.397L268.93 140.087C269.2 139.883 269.542 139.751 269.884 139.751C270.317 139.751 270.581 139.889 270.581 140.405V140.417H270.082C268.876 140.417 268.57 140.939 268.57 141.473C268.57 142.062 269.092 142.398 269.65 142.398C270.034 142.398 270.425 142.194 270.605 141.864H270.617C270.623 142.002 270.629 142.212 270.653 142.326H271.361ZM270.581 140.933C270.581 141.563 270.208 141.809 269.848 141.809C269.524 141.809 269.338 141.671 269.338 141.431C269.338 141.065 269.656 140.897 270.226 140.897H270.581V140.933Z" fill="black"/>
<path d="M276.628 142.326V140.363C276.628 139.559 276.31 139.163 275.656 139.163C275.23 139.163 274.852 139.367 274.684 139.709C274.51 139.325 274.204 139.163 273.777 139.163C273.387 139.163 273.063 139.355 272.853 139.667H272.841V139.235H272.091V142.326H272.895V140.807C272.895 140.183 273.075 139.787 273.495 139.787C273.795 139.787 273.958 139.949 273.958 140.399V142.326H274.762V140.813C274.762 140.165 274.954 139.787 275.362 139.787C275.65 139.787 275.824 139.937 275.824 140.399V142.326H276.628Z" fill="black"/>
<path d="M279.915 141.497C279.615 141.665 279.279 141.809 278.895 141.809C278.373 141.809 278.043 141.515 278.007 141.029H280.143C280.143 139.811 279.723 139.163 278.673 139.163C277.689 139.163 277.238 139.931 277.238 140.795C277.238 141.809 277.833 142.398 278.859 142.398C279.285 142.398 279.621 142.314 279.915 142.152V141.497ZM278.007 140.477C278.049 140.015 278.313 139.751 278.715 139.751C279.135 139.751 279.345 140.033 279.375 140.477H278.007Z" fill="black"/>
<path d="M285.035 142.326C284.999 141.912 284.987 141.263 284.987 141.101V140.465C284.987 139.535 284.578 139.163 283.654 139.163C283.282 139.163 282.868 139.265 282.58 139.397L282.604 140.087C282.874 139.883 283.216 139.751 283.558 139.751C283.99 139.751 284.254 139.889 284.254 140.405V140.417H283.756C282.55 140.417 282.244 140.939 282.244 141.473C282.244 142.062 282.766 142.398 283.324 142.398C283.708 142.398 284.098 142.194 284.278 141.864H284.29C284.296 142.002 284.302 142.212 284.326 142.326H285.035ZM284.254 140.933C284.254 141.563 283.882 141.809 283.522 141.809C283.198 141.809 283.012 141.671 283.012 141.431C283.012 141.065 283.33 140.897 283.9 140.897H284.254V140.933Z" fill="black"/>
<path d="M285.609 142.266C285.903 142.344 286.221 142.398 286.515 142.398C287.235 142.398 287.817 142.068 287.817 141.389C287.817 140.873 287.529 140.615 286.953 140.453C286.587 140.351 286.419 140.267 286.419 140.093C286.419 139.865 286.617 139.751 286.899 139.751C287.151 139.751 287.337 139.787 287.613 139.883L287.667 139.277C287.283 139.187 287.043 139.163 286.797 139.163C286.101 139.163 285.579 139.499 285.579 140.123C285.579 140.639 285.861 140.861 286.401 141.005C286.725 141.095 286.977 141.173 286.977 141.431C286.977 141.725 286.665 141.809 286.449 141.809C286.173 141.809 285.909 141.731 285.657 141.605L285.609 142.266Z" fill="black"/>
<path d="M290.936 142.326V141.053C290.936 140.093 291.29 139.931 291.59 139.931C291.734 139.931 291.878 139.955 291.95 139.997V139.187C291.926 139.181 291.878 139.163 291.71 139.163C291.242 139.163 290.906 139.613 290.858 139.937H290.846V139.235H290.132V142.326H290.936Z" fill="black"/>
<path d="M294.82 141.497C294.52 141.665 294.184 141.809 293.799 141.809C293.277 141.809 292.947 141.515 292.911 141.029H295.048C295.048 139.811 294.628 139.163 293.577 139.163C292.593 139.163 292.143 139.931 292.143 140.795C292.143 141.809 292.737 142.398 293.763 142.398C294.19 142.398 294.526 142.314 294.82 142.152V141.497ZM292.911 140.477C292.953 140.015 293.217 139.751 293.619 139.751C294.04 139.751 294.25 140.033 294.28 140.477H292.911Z" fill="black"/>
<path d="M297.711 141.906C297.711 142.548 297.543 143.034 296.786 143.034C296.546 143.034 296.162 142.914 295.88 142.764L295.814 143.448C296.21 143.616 296.582 143.658 296.894 143.658C297.975 143.658 298.515 143.082 298.515 142.038V139.235H297.747V139.655H297.735C297.512 139.301 297.194 139.163 296.786 139.163C295.862 139.163 295.478 140.021 295.478 140.765C295.478 141.677 295.886 142.326 296.738 142.326C297.146 142.326 297.525 142.134 297.699 141.833H297.711V141.906ZM297.002 141.701C296.54 141.701 296.318 141.185 296.318 140.765C296.318 140.201 296.552 139.787 297.032 139.787C297.543 139.787 297.711 140.273 297.711 140.747C297.711 141.245 297.518 141.701 297.002 141.701Z" fill="black"/>
<path d="M300.167 138.671V137.902H299.363V138.671H300.167ZM300.167 142.326V139.235H299.363V142.326H300.167Z" fill="black"/>
<path d="M300.847 142.266C301.141 142.344 301.459 142.398 301.754 142.398C302.474 142.398 303.056 142.068 303.056 141.389C303.056 140.873 302.768 140.615 302.192 140.453C301.826 140.351 301.658 140.267 301.658 140.093C301.658 139.865 301.856 139.751 302.138 139.751C302.39 139.751 302.576 139.787 302.852 139.883L302.906 139.277C302.522 139.187 302.282 139.163 302.036 139.163C301.339 139.163 300.817 139.499 300.817 140.123C300.817 140.639 301.099 140.861 301.64 141.005C301.964 141.095 302.216 141.173 302.216 141.431C302.216 141.725 301.904 141.809 301.688 141.809C301.411 141.809 301.147 141.731 300.895 141.605L300.847 142.266Z" fill="black"/>
<path d="M305.495 141.689C305.411 141.743 305.273 141.773 305.135 141.773C304.852 141.773 304.75 141.581 304.75 141.257V139.823H305.465V139.235H304.75V138.359L303.946 138.617V139.235H303.352V139.823H303.946V141.395C303.946 141.99 304.276 142.398 304.93 142.398C305.165 142.398 305.351 142.374 305.519 142.326L305.495 141.689Z" fill="black"/>
<path d="M308.494 141.497C308.193 141.665 307.857 141.809 307.473 141.809C306.951 141.809 306.621 141.515 306.585 141.029H308.722C308.722 139.811 308.301 139.163 307.251 139.163C306.267 139.163 305.817 139.931 305.817 140.795C305.817 141.809 306.411 142.398 307.437 142.398C307.863 142.398 308.199 142.314 308.494 142.152V141.497ZM306.585 140.477C306.627 140.015 306.891 139.751 307.293 139.751C307.713 139.751 307.923 140.033 307.953 140.477H306.585Z" fill="black"/>
<path d="M310.172 142.326V141.053C310.172 140.093 310.526 139.931 310.826 139.931C310.97 139.931 311.114 139.955 311.186 139.997V139.187C311.162 139.181 311.114 139.163 310.946 139.163C310.478 139.163 310.142 139.613 310.094 139.937H310.082V139.235H309.368V142.326H310.172Z" fill="black"/>
<path d="M314.056 141.497C313.756 141.665 313.419 141.809 313.035 141.809C312.513 141.809 312.183 141.515 312.147 141.029H314.284C314.284 139.811 313.864 139.163 312.813 139.163C311.829 139.163 311.379 139.931 311.379 140.795C311.379 141.809 311.973 142.398 312.999 142.398C313.425 142.398 313.762 142.314 314.056 142.152V141.497ZM312.147 140.477C312.189 140.015 312.453 139.751 312.855 139.751C313.275 139.751 313.485 140.033 313.515 140.477H312.147Z" fill="black"/>
<path d="M317.751 142.326V137.824H316.946V139.595H316.934C316.694 139.301 316.412 139.163 316.01 139.163C315.122 139.163 314.714 139.835 314.714 140.771C314.714 141.629 315.068 142.398 316.01 142.398C316.388 142.398 316.718 142.278 316.958 141.978H316.97V142.326H317.751ZM316.232 141.773C315.71 141.773 315.554 141.209 315.554 140.771C315.554 140.291 315.734 139.787 316.22 139.787C316.736 139.787 316.94 140.339 316.94 140.771C316.94 141.221 316.76 141.773 316.232 141.773Z" fill="black"/>
<path d="M269.006 149.613L269.954 146.523H269.186L268.544 148.809H268.532L267.86 146.523H266.924L266.299 148.809H266.287L265.603 146.523H264.751L265.795 149.613H266.714L267.374 147.255H267.386L268.058 149.613H269.006Z" fill="black"/>
<path d="M271.255 145.958V145.19H270.451V145.958H271.255ZM271.255 149.613V146.523H270.451V149.613H271.255Z" fill="black"/>
<path d="M273.915 148.977C273.831 149.031 273.693 149.061 273.555 149.061C273.273 149.061 273.171 148.869 273.171 148.545V147.111H273.885V146.523H273.171V145.646L272.367 145.904V146.523H271.773V147.111H272.367V148.683C272.367 149.277 272.697 149.685 273.351 149.685C273.585 149.685 273.771 149.661 273.939 149.613L273.915 148.977Z" fill="black"/>
<path d="M277.274 149.613V147.657C277.274 146.949 276.938 146.45 276.224 146.45C275.798 146.45 275.45 146.649 275.252 146.943H275.24V145.112H274.436V149.613H275.24V148.119C275.24 147.507 275.474 147.075 275.948 147.075C276.302 147.075 276.47 147.303 276.47 147.867V149.613H277.274Z" fill="black"/>
<path d="M282.494 148.965C282.35 149.001 282.164 149.025 281.948 149.025C281.071 149.025 280.519 148.413 280.519 147.531C280.519 146.631 281.101 146.012 282.038 146.012C282.386 146.012 282.788 146.084 283.118 146.234L283.172 145.526C282.812 145.418 282.428 145.352 281.948 145.352C280.483 145.352 279.643 146.192 279.643 147.591C279.643 148.941 280.513 149.685 281.942 149.685C282.392 149.685 282.854 149.589 283.298 149.469V147.213H281.606V147.873H282.494V148.965Z" fill="black"/>
<path d="M284.947 149.613V148.023H285.313C286.327 148.023 286.915 147.567 286.915 146.691C286.915 145.838 286.297 145.424 285.187 145.424H284.106V149.613H284.947ZM284.947 147.363V146.084H285.241C285.739 146.084 286.039 146.3 286.039 146.739C286.039 147.129 285.799 147.363 285.229 147.363H284.947Z" fill="black"/>
<path d="M288.944 149.553C289.238 149.631 289.556 149.685 289.85 149.685C290.57 149.685 291.152 149.355 291.152 148.677C291.152 148.161 290.864 147.903 290.288 147.741C289.922 147.639 289.754 147.555 289.754 147.381C289.754 147.153 289.952 147.039 290.234 147.039C290.486 147.039 290.672 147.075 290.948 147.171L291.002 146.565C290.618 146.475 290.378 146.45 290.132 146.45C289.436 146.45 288.914 146.787 288.914 147.411C288.914 147.927 289.196 148.149 289.736 148.293C290.06 148.383 290.312 148.461 290.312 148.719C290.312 149.013 290 149.097 289.784 149.097C289.508 149.097 289.244 149.019 288.992 148.893L288.944 149.553Z" fill="black"/>
<path d="M294.617 149.613V146.523H293.813V148.017C293.813 148.611 293.591 149.061 293.105 149.061C292.811 149.061 292.583 148.905 292.583 148.287V146.523H291.778V148.473C291.778 149.223 292.139 149.685 292.829 149.685C293.231 149.685 293.579 149.511 293.843 149.193H293.855V149.613H294.617Z" fill="black"/>
<path d="M296.27 149.613V148.341C296.27 147.381 296.624 147.219 296.924 147.219C297.068 147.219 297.212 147.243 297.284 147.285V146.475C297.26 146.469 297.212 146.45 297.044 146.45C296.576 146.45 296.24 146.901 296.192 147.225H296.18V146.523H295.465V149.613H296.27Z" fill="black"/>
<path d="M299.815 149.193C299.815 149.835 299.647 150.322 298.89 150.322C298.65 150.322 298.266 150.202 297.984 150.052L297.918 150.736C298.314 150.904 298.686 150.946 298.998 150.946C300.079 150.946 300.619 150.37 300.619 149.325V146.523H299.851V146.943H299.839C299.617 146.589 299.299 146.45 298.89 146.45C297.966 146.45 297.582 147.309 297.582 148.053C297.582 148.965 297.99 149.613 298.842 149.613C299.251 149.613 299.629 149.421 299.803 149.121H299.815V149.193ZM299.106 148.989C298.644 148.989 298.422 148.473 298.422 148.053C298.422 147.489 298.656 147.075 299.136 147.075C299.647 147.075 299.815 147.561 299.815 148.035C299.815 148.533 299.623 148.989 299.106 148.989Z" fill="black"/>
<path d="M303.928 148.785C303.628 148.953 303.292 149.097 302.907 149.097C302.385 149.097 302.055 148.803 302.019 148.317H304.156C304.156 147.099 303.736 146.45 302.685 146.45C301.701 146.45 301.251 147.219 301.251 148.083C301.251 149.097 301.845 149.685 302.871 149.685C303.298 149.685 303.634 149.601 303.928 149.439V148.785ZM302.019 147.765C302.061 147.303 302.325 147.039 302.727 147.039C303.148 147.039 303.358 147.321 303.388 147.765H302.019Z" fill="black"/>
<path d="M305.606 149.613V148.341C305.606 147.381 305.96 147.219 306.26 147.219C306.404 147.219 306.548 147.243 306.621 147.285V146.475C306.597 146.469 306.548 146.45 306.38 146.45C305.912 146.45 305.576 146.901 305.528 147.225H305.516V146.523H304.802V149.613H305.606Z" fill="black"/>
<path d="M306.961 150.862C307.147 150.916 307.339 150.946 307.519 150.946C308.179 150.946 308.443 150.568 308.677 149.955L309.973 146.523H309.157L308.413 148.779H308.401L307.657 146.523H306.769L307.951 149.769C307.951 150.088 307.765 150.322 307.423 150.322C307.261 150.322 307.135 150.31 307.015 150.268L306.961 150.862Z" fill="black"/>
<path d="M67.1071 56.0376H32.9092V105.78H67.1071V56.0376Z" stroke="black" stroke-width="1.71477" stroke-miterlimit="10" stroke-linecap="round" stroke-linejoin="round"/>
<path d="M32.8706 117.801H67.3656C69.0824 117.801 70.4745 116.409 70.4745 114.692V54.9805C70.4745 53.2637 69.0824 51.8716 67.3656 51.8716H32.8706C31.1538 51.8716 29.7617 53.2637 29.7617 54.9805V114.695C29.7617 116.409 31.1538 117.801 32.8706 117.801Z" stroke="black" stroke-width="1.71477" stroke-miterlimit="10" stroke-linecap="round" stroke-linejoin="round"/>
<path d="M50.0077 114.05C51.4378 114.05 52.5985 112.889 52.5985 111.459C52.5985 110.029 51.4378 108.868 50.0077 108.868C48.5776 108.868 47.417 110.029 47.417 111.459C47.417 112.889 48.5776 114.05 50.0077 114.05Z" stroke="black" stroke-width="1.71477" stroke-miterlimit="10" stroke-linecap="round" stroke-linejoin="round"/>
<path d="M61.52 72.9704C54.0467 78.1631 50.3392 70.3428 50.3392 70.3428C50.3392 70.3428 46.6318 78.1631 39.1584 72.9704C39.1584 72.9704 35.9762 89.0945 50.3392 95.9897C64.7022 89.0931 61.52 72.9704 61.52 72.9704Z" stroke="black" stroke-width="1.28607" stroke-miterlimit="10" stroke-linecap="round" stroke-linejoin="round"/>
<path d="M45.5029 85.968L47.7196 88.441L55.2557 77.9917" stroke="black" stroke-width="1.28607" stroke-miterlimit="10" stroke-linecap="round" stroke-linejoin="round"/>
<path d="M32.7988 134.571C32.7988 135.321 32.5287 135.736 31.9286 135.736C31.3284 135.736 31.0583 135.321 31.0583 134.571V132.135H30.2181V134.823C30.2181 135.814 30.7282 136.396 31.9286 136.396C33.0809 136.396 33.639 135.856 33.639 134.829V132.135H32.7988V134.571Z" fill="black"/>
<path d="M34.3393 136.264C34.6334 136.342 34.9515 136.396 35.2456 136.396C35.9658 136.396 36.5479 136.066 36.5479 135.388C36.5479 134.871 36.2599 134.613 35.6837 134.451C35.3176 134.349 35.1495 134.265 35.1495 134.091C35.1495 133.863 35.3476 133.749 35.6297 133.749C35.8818 133.749 36.0678 133.785 36.3439 133.881L36.3979 133.275C36.0138 133.185 35.7737 133.161 35.5277 133.161C34.8315 133.161 34.3093 133.497 34.3093 134.121C34.3093 134.637 34.5914 134.859 35.1315 135.003C35.4556 135.093 35.7077 135.171 35.7077 135.43C35.7077 135.724 35.3956 135.808 35.1796 135.808C34.9035 135.808 34.6394 135.73 34.3873 135.604L34.3393 136.264Z" fill="black"/>
<path d="M39.6528 135.496C39.3527 135.664 39.0166 135.808 38.6325 135.808C38.1104 135.808 37.7803 135.514 37.7443 135.027H39.8809C39.8809 133.809 39.4608 133.161 38.4105 133.161C37.4262 133.161 36.9761 133.929 36.9761 134.793C36.9761 135.808 37.5702 136.396 38.5965 136.396C39.0226 136.396 39.3587 136.312 39.6528 136.15V135.496ZM37.7443 134.475C37.7863 134.013 38.0504 133.749 38.4525 133.749C38.8726 133.749 39.0827 134.031 39.1127 134.475H37.7443Z" fill="black"/>
<path d="M41.3313 136.324V135.051C41.3313 134.091 41.6854 133.929 41.9855 133.929C42.1295 133.929 42.2735 133.953 42.3456 133.995V133.185C42.3216 133.179 42.2735 133.161 42.1055 133.161C41.6374 133.161 41.3013 133.611 41.2533 133.935H41.2413V133.233H40.5271V136.324H41.3313Z" fill="black"/>
<path d="M47.3509 136.324V134.367C47.3509 133.659 47.0148 133.161 46.3006 133.161C45.8745 133.161 45.5264 133.359 45.3283 133.653H45.3163V131.823H44.5121V136.324H45.3163V134.829C45.3163 134.217 45.5504 133.785 46.0245 133.785C46.3786 133.785 46.5467 134.013 46.5467 134.577V136.324H47.3509Z" fill="black"/>
<path d="M50.7738 136.324C50.7378 135.91 50.7258 135.261 50.7258 135.099V134.463C50.7258 133.533 50.3177 133.161 49.3935 133.161C49.0213 133.161 48.6072 133.263 48.3192 133.395L48.3432 134.085C48.6132 133.881 48.9553 133.749 49.2974 133.749C49.7295 133.749 49.9936 133.887 49.9936 134.403V134.415H49.4955C48.2891 134.415 47.9831 134.937 47.9831 135.472C47.9831 136.06 48.5052 136.396 49.0634 136.396C49.4475 136.396 49.8376 136.192 50.0176 135.862H50.0296C50.0356 136 50.0416 136.21 50.0656 136.324H50.7738ZM49.9936 134.931C49.9936 135.562 49.6215 135.808 49.2614 135.808C48.9373 135.808 48.7513 135.67 48.7513 135.43C48.7513 135.063 49.0694 134.895 49.6395 134.895H49.9936V134.931Z" fill="black"/>
<path d="M51.348 136.264C51.6421 136.342 51.9602 136.396 52.2542 136.396C52.9744 136.396 53.5566 136.066 53.5566 135.388C53.5566 134.871 53.2685 134.613 52.6924 134.451C52.3263 134.349 52.1582 134.265 52.1582 134.091C52.1582 133.863 52.3563 133.749 52.6383 133.749C52.8904 133.749 53.0765 133.785 53.3525 133.881L53.4066 133.275C53.0225 133.185 52.7824 133.161 52.5363 133.161C51.8401 133.161 51.318 133.497 51.318 134.121C51.318 134.637 51.6001 134.859 52.1402 135.003C52.4643 135.093 52.7164 135.171 52.7164 135.43C52.7164 135.724 52.4043 135.808 52.1882 135.808C51.9121 135.808 51.6481 135.73 51.396 135.604L51.348 136.264Z" fill="black"/>
<path d="M56.6934 136.324V134.733H57.0595C58.0738 134.733 58.662 134.277 58.662 133.401C58.662 132.549 58.0438 132.135 56.9335 132.135H55.8532V136.324H56.6934ZM56.6934 134.073V132.795H56.9875C57.4856 132.795 57.7857 133.011 57.7857 133.449C57.7857 133.839 57.5457 134.073 56.9755 134.073H56.6934Z" fill="black"/>
<path d="M60.4364 136.396C61.3967 136.396 61.9009 135.634 61.9009 134.241C61.9009 132.819 61.3967 132.063 60.4364 132.063C59.4582 132.063 58.984 132.921 58.984 134.241C58.984 135.712 59.4822 136.396 60.4364 136.396ZM60.4364 135.772C59.8483 135.772 59.8243 134.895 59.8243 134.223C59.8243 133.575 59.8603 132.687 60.4304 132.687C61.0426 132.687 61.0606 133.611 61.0606 134.241C61.0606 134.865 61.0426 135.772 60.4364 135.772Z" fill="black"/>
<path d="M31.8866 143.612L33.0269 140.521H32.2227L31.4784 142.771H31.4664L30.6982 140.521H29.834L30.9803 143.612H31.8866Z" fill="black"/>
<path d="M35.9897 142.783C35.6896 142.951 35.3535 143.095 34.9694 143.095C34.4473 143.095 34.1172 142.801 34.0812 142.315H36.2178C36.2178 141.097 35.7976 140.449 34.7473 140.449C33.7631 140.449 33.3129 141.217 33.3129 142.081C33.3129 143.095 33.9071 143.684 34.9334 143.684C35.3595 143.684 35.6956 143.6 35.9897 143.437V142.783ZM34.0812 141.763C34.1232 141.301 34.3872 141.037 34.7894 141.037C35.2095 141.037 35.4195 141.319 35.4495 141.763H34.0812Z" fill="black"/>
<path d="M37.6681 143.612V142.339C37.6681 141.379 38.0222 141.217 38.3223 141.217C38.4664 141.217 38.6104 141.241 38.6824 141.283V140.473C38.6584 140.467 38.6104 140.449 38.4424 140.449C37.9742 140.449 37.6381 140.899 37.5901 141.223H37.5781V140.521H36.8639V143.612H37.6681Z" fill="black"/>
<path d="M40.0008 139.956V139.188H39.1966V139.956H40.0008ZM40.0008 143.612V140.521H39.1966V143.612H40.0008Z" fill="black"/>
<path d="M41.9473 143.612V141.109H42.6495V140.521H41.9473V140.137C41.9473 139.842 42.0673 139.662 42.3014 139.662C42.4274 139.662 42.5235 139.692 42.6495 139.77L42.7155 139.104C42.5595 139.068 42.3254 139.038 42.1393 139.038C41.4131 139.038 41.1431 139.56 41.1431 140.083V140.521H40.5489V141.109H41.1431V143.612H41.9473ZM43.9999 139.956V139.188H43.1956V139.956H43.9999ZM43.9999 143.612V140.521H43.1956V143.612H43.9999Z" fill="black"/>
<path d="M46.9466 142.915C46.7366 143.005 46.5025 143.059 46.3285 143.059C45.7883 143.059 45.4942 142.651 45.4942 142.051C45.4942 141.469 45.8123 141.073 46.3165 141.073C46.5385 141.073 46.7006 141.115 46.8566 141.187L46.9286 140.551C46.7066 140.485 46.4665 140.449 46.1544 140.449C45.2062 140.449 44.654 141.127 44.654 142.051C44.654 143.059 45.2182 143.684 46.1844 143.684C46.5145 143.684 46.7426 143.654 46.9827 143.582L46.9466 142.915Z" fill="black"/>
<path d="M50.1115 143.612C50.0755 143.197 50.0635 142.549 50.0635 142.387V141.751C50.0635 140.821 49.6554 140.449 48.7312 140.449C48.3591 140.449 47.9449 140.551 47.6569 140.683L47.6809 141.373C47.9509 141.169 48.293 141.037 48.6351 141.037C49.0673 141.037 49.3313 141.175 49.3313 141.691V141.703H48.8332C47.6269 141.703 47.3208 142.225 47.3208 142.759C47.3208 143.347 47.8429 143.684 48.4011 143.684C48.7852 143.684 49.1753 143.479 49.3553 143.149H49.3673C49.3733 143.287 49.3793 143.497 49.4033 143.612H50.1115ZM49.3313 142.219C49.3313 142.849 48.9592 143.095 48.5991 143.095C48.275 143.095 48.089 142.957 48.089 142.717C48.089 142.351 48.4071 142.183 48.9772 142.183H49.3313V142.219Z" fill="black"/>
<path d="M52.6662 142.975C52.5822 143.029 52.4442 143.059 52.3061 143.059C52.0241 143.059 51.922 142.867 51.922 142.543V141.109H52.6362V140.521H51.922V139.644L51.1178 139.902V140.521H50.5236V141.109H51.1178V142.681C51.1178 143.275 51.4479 143.684 52.1021 143.684C52.3362 143.684 52.5222 143.66 52.6903 143.612L52.6662 142.975Z" fill="black"/>
<path d="M54.0087 139.956V139.188H53.2044V139.956H54.0087ZM54.0087 143.612V140.521H53.2044V143.612H54.0087Z" fill="black"/>
<path d="M57.8937 142.087C57.8937 141.091 57.2155 140.449 56.2732 140.449C55.3309 140.449 54.6588 141.097 54.6588 142.087C54.6588 142.999 55.2769 143.684 56.2732 143.684C57.2695 143.684 57.8937 143.005 57.8937 142.087ZM56.2732 143.059C55.7511 143.059 55.499 142.645 55.499 141.991C55.499 141.505 55.7691 141.073 56.2732 141.073C56.7894 141.073 57.0534 141.499 57.0534 141.991C57.0534 142.657 56.7954 143.059 56.2732 143.059Z" fill="black"/>
<path d="M61.3646 143.612V141.661C61.3646 140.935 61.0225 140.449 60.3143 140.449C59.8882 140.449 59.5461 140.593 59.3 140.941H59.288V140.521H58.5258V143.612H59.33V142.111C59.33 141.565 59.5281 141.073 60.0382 141.073C60.4643 141.073 60.5604 141.415 60.5604 141.877V143.612H61.3646Z" fill="black"/>
<path d="M87.8393 89.1473C90.3194 89.1473 92.3299 87.1368 92.3299 84.6566C92.3299 82.1765 90.3194 80.166 87.8393 80.166C85.3592 80.166 83.3486 82.1765 83.3486 84.6566C83.3486 87.1368 85.3592 89.1473 87.8393 89.1473Z" stroke="black" stroke-width="1.71477" stroke-miterlimit="10" stroke-linecap="round" stroke-linejoin="round"/>
<path d="M129.85 89.1465C132.33 89.1465 134.341 87.136 134.341 84.6559C134.341 82.1758 132.33 80.1653 129.85 80.1653C127.37 80.1653 125.359 82.1758 125.359 84.6559C125.359 87.136 127.37 89.1465 129.85 89.1465Z" stroke="black" stroke-width="1.71477" stroke-miterlimit="10" stroke-linecap="round" stroke-linejoin="round"/>
<path fill-rule="evenodd" clip-rule="evenodd" d="M91.4932 84.4521C91.4932 83.9786 91.877 83.5947 92.3505 83.5947L95.0299 83.5947C95.5034 83.5947 95.8872 83.9786 95.8872 84.4521C95.8872 84.9256 95.5034 85.3095 95.0299 85.3095L92.3505 85.3095C91.877 85.3095 91.4932 84.9256 91.4932 84.4521ZM99.5311 84.4521C99.5311 83.9786 99.915 83.5947 100.389 83.5947L105.747 83.5947C106.221 83.5947 106.605 83.9786 106.605 84.4521C106.605 84.9256 106.221 85.3095 105.747 85.3095L100.389 85.3095C99.915 85.3095 99.5311 84.9256 99.5311 84.4521ZM110.248 84.4521C110.248 83.9786 110.632 83.5947 111.106 83.5947L116.464 83.5947C116.938 83.5947 117.322 83.9786 117.322 84.4521C117.322 84.9256 116.938 85.3095 116.464 85.3095L111.106 85.3095C110.632 85.3095 110.248 84.9256 110.248 84.4521ZM120.966 84.4521C120.966 83.9786 121.35 83.5947 121.823 83.5947L124.502 83.5947C124.976 83.5947 125.36 83.9786 125.36 84.4521C125.36 84.9256 124.976 85.3095 124.502 85.3095L121.823 85.3095C121.35 85.3095 120.966 84.9256 120.966 84.4521Z" fill="black"/>
</svg>
