<svg width="749" height="260" viewBox="0 0 749 260" fill="none" xmlns="http://www.w3.org/2000/svg">
<path d="M241.048 73.187H196.385V138.152H241.048V73.187Z" stroke="black" stroke-width="2.23954" stroke-miterlimit="10" stroke-linecap="round" stroke-linejoin="round"/>
<path d="M196.334 153.852H241.385C243.628 153.852 245.446 152.034 245.446 149.792V71.8064C245.446 69.5642 243.628 67.7461 241.385 67.7461H196.334C194.092 67.7461 192.273 69.5642 192.273 71.8064V149.796C192.273 152.034 194.092 153.852 196.334 153.852Z" stroke="black" stroke-width="2.23954" stroke-miterlimit="10" stroke-linecap="round" stroke-linejoin="round"/>
<path d="M218.716 148.953C220.583 148.953 222.099 147.437 222.099 145.569C222.099 143.701 220.583 142.186 218.716 142.186C216.848 142.186 215.332 143.701 215.332 145.569C215.332 147.437 216.848 148.953 218.716 148.953Z" stroke="black" stroke-width="2.23954" stroke-miterlimit="10" stroke-linecap="round" stroke-linejoin="round"/>
<path d="M212.237 108.726L216.43 104.533V91.6965M226.849 104.958L222.656 109.151V121.618M221.337 99.3823V105.246L217.144 109.439V114.311M217.137 119.933C218.531 119.933 219.662 118.803 219.662 117.409C219.662 116.015 218.531 114.885 217.137 114.885C215.743 114.885 214.613 116.015 214.613 117.409C214.613 118.803 215.743 119.933 217.137 119.933ZM222.649 127.236C224.043 127.236 225.173 126.105 225.173 124.711C225.173 123.317 224.043 122.187 222.649 122.187C221.255 122.187 220.125 123.317 220.125 124.711C220.127 126.108 221.255 127.236 222.649 127.236ZM228.81 105.916C230.204 105.916 231.334 104.785 231.334 103.391C231.334 101.997 230.204 100.867 228.81 100.867C227.416 100.867 226.286 101.997 226.286 103.391C226.286 104.785 227.416 105.916 228.81 105.916ZM216.437 86.0784C215.043 86.0784 213.913 87.2086 213.913 88.6026C213.913 89.9966 215.043 91.1269 216.437 91.1269C217.831 91.1269 218.961 89.9966 218.961 88.6026C218.961 87.2086 217.831 86.0784 216.437 86.0784ZM221.337 98.8637C222.731 98.8637 223.861 97.7334 223.861 96.3394C223.861 94.9454 222.731 93.8152 221.337 93.8152C219.943 93.8152 218.813 94.9454 218.813 96.3394C218.813 97.7334 219.943 98.8637 221.337 98.8637ZM210.278 107.768C208.884 107.768 207.754 108.899 207.754 110.293C207.754 111.687 208.884 112.817 210.278 112.817C211.672 112.817 212.802 111.687 212.802 110.293C212.802 108.897 211.672 107.768 210.278 107.768Z" stroke="black" stroke-width="1.67966" stroke-miterlimit="10" stroke-linecap="round" stroke-linejoin="round"/>
<path d="M196.241 175.755C196.241 176.735 195.888 177.276 195.104 177.276C194.32 177.276 193.968 176.735 193.968 175.755V172.573H192.87V176.084C192.87 177.378 193.536 178.138 195.104 178.138C196.609 178.138 197.338 177.432 197.338 176.092V172.573H196.241V175.755Z" fill="black"/>
<path d="M198.253 177.965C198.637 178.067 199.052 178.138 199.436 178.138C200.377 178.138 201.137 177.707 201.137 176.821C201.137 176.147 200.761 175.81 200.008 175.598C199.53 175.465 199.311 175.355 199.311 175.128C199.311 174.83 199.569 174.681 199.938 174.681C200.267 174.681 200.51 174.728 200.871 174.854L200.941 174.062C200.44 173.944 200.126 173.913 199.805 173.913C198.895 173.913 198.213 174.352 198.213 175.167C198.213 175.841 198.582 176.131 199.287 176.319C199.711 176.437 200.04 176.539 200.04 176.876C200.04 177.26 199.632 177.37 199.35 177.37C198.989 177.37 198.645 177.268 198.315 177.103L198.253 177.965Z" fill="black"/>
<path d="M205.192 176.962C204.8 177.182 204.361 177.37 203.86 177.37C203.178 177.37 202.747 176.986 202.7 176.351H205.49C205.49 174.759 204.941 173.913 203.57 173.913C202.284 173.913 201.696 174.916 201.696 176.045C201.696 177.37 202.472 178.138 203.813 178.138C204.369 178.138 204.808 178.028 205.192 177.816V176.962ZM202.7 175.63C202.755 175.026 203.099 174.681 203.625 174.681C204.173 174.681 204.448 175.05 204.487 175.63H202.7Z" fill="black"/>
<path d="M207.384 178.044V176.382C207.384 175.128 207.847 174.916 208.239 174.916C208.427 174.916 208.615 174.948 208.709 175.002V173.944C208.678 173.936 208.615 173.913 208.396 173.913C207.784 173.913 207.345 174.501 207.282 174.924H207.267V174.007H206.334V178.044H207.384Z" fill="black"/>
<path d="M214.776 176.962C214.384 177.182 213.945 177.37 213.443 177.37C212.761 177.37 212.33 176.986 212.283 176.351H215.074C215.074 174.759 214.525 173.913 213.153 173.913C211.868 173.913 211.28 174.916 211.28 176.045C211.28 177.37 212.056 178.138 213.396 178.138C213.953 178.138 214.392 178.028 214.776 177.816V176.962ZM212.283 175.63C212.338 175.026 212.683 174.681 213.208 174.681C213.757 174.681 214.031 175.05 214.07 175.63H212.283Z" fill="black"/>
<path d="M219.602 178.044V175.496C219.602 174.548 219.155 173.913 218.23 173.913C217.674 173.913 217.227 174.101 216.905 174.556H216.89V174.007H215.894V178.044H216.945V176.084C216.945 175.371 217.203 174.728 217.869 174.728C218.426 174.728 218.551 175.175 218.551 175.778V178.044H219.602Z" fill="black"/>
<path d="M223.053 177.213C222.943 177.283 222.763 177.323 222.583 177.323C222.215 177.323 222.081 177.072 222.081 176.649V174.775H223.014V174.007H222.081V172.863L221.031 173.2V174.007H220.255V174.775H221.031V176.829C221.031 177.605 221.462 178.138 222.316 178.138C222.622 178.138 222.865 178.106 223.085 178.044L223.053 177.213Z" fill="black"/>
<path d="M226.97 176.962C226.578 177.182 226.139 177.37 225.637 177.37C224.955 177.37 224.524 176.986 224.477 176.351H227.268C227.268 174.759 226.719 173.913 225.347 173.913C224.062 173.913 223.474 174.916 223.474 176.045C223.474 177.37 224.25 178.138 225.59 178.138C226.147 178.138 226.586 178.028 226.97 177.816V176.962ZM224.477 175.63C224.532 175.026 224.877 174.681 225.402 174.681C225.951 174.681 226.225 175.05 226.264 175.63H224.477Z" fill="black"/>
<path d="M229.162 178.044V176.382C229.162 175.128 229.624 174.916 230.016 174.916C230.204 174.916 230.393 174.948 230.487 175.002V173.944C230.455 173.936 230.393 173.913 230.173 173.913C229.562 173.913 229.123 174.501 229.06 174.924H229.044V174.007H228.112V178.044H229.162Z" fill="black"/>
<path d="M230.915 177.965C231.299 178.067 231.715 178.138 232.099 178.138C233.039 178.138 233.8 177.707 233.8 176.821C233.8 176.147 233.423 175.81 232.671 175.598C232.193 175.465 231.973 175.355 231.973 175.128C231.973 174.83 232.232 174.681 232.6 174.681C232.93 174.681 233.173 174.728 233.533 174.854L233.604 174.062C233.102 173.944 232.789 173.913 232.467 173.913C231.558 173.913 230.876 174.352 230.876 175.167C230.876 175.841 231.244 176.131 231.95 176.319C232.373 176.437 232.702 176.539 232.702 176.876C232.702 177.26 232.295 177.37 232.013 177.37C231.652 177.37 231.307 177.268 230.978 177.103L230.915 177.965Z" fill="black"/>
<path d="M240.35 177.197C240.162 177.244 239.919 177.276 239.637 177.276C238.492 177.276 237.771 176.476 237.771 175.324C237.771 174.148 238.531 173.341 239.754 173.341C240.209 173.341 240.734 173.435 241.165 173.631L241.236 172.706C240.765 172.565 240.264 172.479 239.637 172.479C237.724 172.479 236.627 173.576 236.627 175.402C236.627 177.166 237.763 178.138 239.629 178.138C240.217 178.138 240.82 178.012 241.4 177.856V174.908H239.19V175.771H240.35V177.197Z" fill="black"/>
<path d="M243.553 178.044V175.967H244.031C245.356 175.967 246.124 175.371 246.124 174.226C246.124 173.113 245.317 172.573 243.867 172.573H242.456V178.044H243.553ZM243.553 175.104V173.435H243.937C244.588 173.435 244.98 173.717 244.98 174.289C244.98 174.799 244.666 175.104 243.922 175.104H243.553Z" fill="black"/>
<path d="M196.782 185.571C196.782 184.27 195.896 183.431 194.665 183.431C193.435 183.431 192.557 184.278 192.557 185.571C192.557 186.762 193.364 187.656 194.665 187.656C195.966 187.656 196.782 186.77 196.782 185.571ZM194.665 186.841C193.983 186.841 193.654 186.3 193.654 185.445C193.654 184.811 194.007 184.246 194.665 184.246C195.339 184.246 195.684 184.803 195.684 185.445C195.684 186.316 195.347 186.841 194.665 186.841Z" fill="black"/>
<path d="M201.315 187.562V185.014C201.315 184.066 200.868 183.431 199.943 183.431C199.386 183.431 198.94 183.619 198.618 184.074H198.603V183.525H197.607V187.562H198.657V185.602C198.657 184.889 198.916 184.246 199.582 184.246C200.139 184.246 200.264 184.693 200.264 185.297V187.562H201.315Z" fill="black"/>
<path d="M203.473 187.562V181.683H202.422V187.562H203.473Z" fill="black"/>
<path d="M205.654 182.788V181.785H204.604V182.788H205.654ZM205.654 187.562V183.525H204.604V187.562H205.654Z" fill="black"/>
<path d="M210.47 187.562V185.014C210.47 184.066 210.023 183.431 209.098 183.431C208.541 183.431 208.095 183.619 207.773 184.074H207.758V183.525H206.762V187.562H207.812V185.602C207.812 184.889 208.071 184.246 208.737 184.246C209.294 184.246 209.419 184.693 209.419 185.297V187.562H210.47Z" fill="black"/>
<path d="M214.791 186.48C214.399 186.7 213.96 186.888 213.459 186.888C212.777 186.888 212.346 186.504 212.299 185.869H215.089C215.089 184.278 214.54 183.431 213.169 183.431C211.883 183.431 211.295 184.434 211.295 185.563C211.295 186.888 212.071 187.656 213.412 187.656C213.968 187.656 214.407 187.546 214.791 187.335V186.48ZM212.299 185.148C212.353 184.544 212.698 184.199 213.224 184.199C213.772 184.199 214.047 184.568 214.086 185.148H212.299Z" fill="black"/>
<path d="M217.872 187.483C218.256 187.585 218.671 187.656 219.055 187.656C219.996 187.656 220.756 187.225 220.756 186.339C220.756 185.665 220.38 185.328 219.627 185.116C219.149 184.983 218.93 184.873 218.93 184.646C218.93 184.348 219.188 184.199 219.557 184.199C219.886 184.199 220.129 184.246 220.49 184.372L220.56 183.58C220.059 183.462 219.745 183.431 219.424 183.431C218.514 183.431 217.832 183.87 217.832 184.685C217.832 185.359 218.201 185.649 218.906 185.837C219.33 185.955 219.659 186.057 219.659 186.394C219.659 186.778 219.251 186.888 218.969 186.888C218.608 186.888 218.264 186.786 217.934 186.621L217.872 187.483Z" fill="black"/>
<path d="M224.811 186.48C224.419 186.7 223.98 186.888 223.479 186.888C222.797 186.888 222.366 186.504 222.319 185.869H225.109C225.109 184.278 224.56 183.431 223.189 183.431C221.903 183.431 221.315 184.434 221.315 185.563C221.315 186.888 222.091 187.656 223.432 187.656C223.988 187.656 224.427 187.546 224.811 187.335V186.48ZM222.319 185.148C222.373 184.544 222.718 184.199 223.244 184.199C223.792 184.199 224.067 184.568 224.106 185.148H222.319Z" fill="black"/>
<path d="M227.003 187.562V185.9C227.003 184.646 227.466 184.434 227.858 184.434C228.046 184.434 228.234 184.466 228.328 184.521V183.462C228.297 183.455 228.234 183.431 228.014 183.431C227.403 183.431 226.964 184.019 226.901 184.442H226.886V183.525H225.953V187.562H227.003Z" fill="black"/>
<path d="M231.21 187.562L232.699 183.525H231.649L230.677 186.464H230.661L229.658 183.525H228.529L230.026 187.562H231.21Z" fill="black"/>
<path d="M234.405 182.788V181.785H233.355V182.788H234.405ZM234.405 187.562V183.525H233.355V187.562H234.405Z" fill="black"/>
<path d="M238.249 186.653C237.974 186.77 237.669 186.841 237.441 186.841C236.736 186.841 236.352 186.308 236.352 185.524C236.352 184.764 236.767 184.246 237.426 184.246C237.716 184.246 237.927 184.301 238.131 184.395L238.225 183.564C237.935 183.478 237.622 183.431 237.214 183.431C235.976 183.431 235.254 184.317 235.254 185.524C235.254 186.841 235.991 187.656 237.253 187.656C237.684 187.656 237.982 187.617 238.296 187.523L238.249 186.653Z" fill="black"/>
<path d="M242.233 186.48C241.841 186.7 241.402 186.888 240.901 186.888C240.219 186.888 239.788 186.504 239.741 185.869H242.531C242.531 184.278 241.982 183.431 240.611 183.431C239.325 183.431 238.737 184.434 238.737 185.563C238.737 186.888 239.513 187.656 240.854 187.656C241.41 187.656 241.849 187.546 242.233 187.335V186.48ZM239.741 185.148C239.796 184.544 240.14 184.199 240.666 184.199C241.214 184.199 241.489 184.568 241.528 185.148H239.741Z" fill="black"/>
<path d="M244.002 184.05L244.723 182.091H243.579L243.077 184.05H244.002Z" fill="black"/>
<path d="M244.732 187.483C245.116 187.585 245.531 187.656 245.916 187.656C246.856 187.656 247.616 187.225 247.616 186.339C247.616 185.665 247.24 185.328 246.488 185.116C246.01 184.983 245.79 184.873 245.79 184.646C245.79 184.348 246.049 184.199 246.417 184.199C246.746 184.199 246.989 184.246 247.35 184.372L247.42 183.58C246.919 183.462 246.605 183.431 246.284 183.431C245.375 183.431 244.693 183.87 244.693 184.685C244.693 185.359 245.061 185.649 245.767 185.837C246.19 185.955 246.519 186.057 246.519 186.394C246.519 186.778 246.111 186.888 245.829 186.888C245.469 186.888 245.124 186.786 244.795 186.621L244.732 187.483Z" fill="black"/>
<path d="M254.323 187.562V181.683H253.273V183.995H253.257C252.944 183.611 252.575 183.431 252.05 183.431C250.89 183.431 250.357 184.309 250.357 185.532C250.357 186.653 250.82 187.656 252.05 187.656C252.544 187.656 252.975 187.499 253.289 187.107H253.304V187.562H254.323ZM252.34 186.841C251.658 186.841 251.455 186.104 251.455 185.532C251.455 184.905 251.69 184.246 252.325 184.246C252.999 184.246 253.265 184.967 253.265 185.532C253.265 186.12 253.03 186.841 252.34 186.841Z" fill="black"/>
<path d="M258.645 186.48C258.253 186.7 257.814 186.888 257.312 186.888C256.63 186.888 256.199 186.504 256.152 185.869H258.943C258.943 184.278 258.394 183.431 257.022 183.431C255.737 183.431 255.149 184.434 255.149 185.563C255.149 186.888 255.925 187.656 257.265 187.656C257.822 187.656 258.261 187.546 258.645 187.335V186.48ZM256.152 185.148C256.207 184.544 256.552 184.199 257.077 184.199C257.626 184.199 257.9 184.568 257.939 185.148H256.152Z" fill="black"/>
<path d="M262.13 186.731C262.021 186.802 261.84 186.841 261.66 186.841C261.292 186.841 261.158 186.59 261.158 186.167V184.293H262.091V183.525H261.158V182.381L260.108 182.718V183.525H259.332V184.293H260.108V186.347C260.108 187.123 260.539 187.656 261.394 187.656C261.699 187.656 261.942 187.625 262.162 187.562L262.13 186.731Z" fill="black"/>
<path d="M266.196 187.562C266.149 187.021 266.133 186.174 266.133 185.963V185.132C266.133 183.917 265.6 183.431 264.393 183.431C263.907 183.431 263.366 183.564 262.99 183.737L263.021 184.638C263.374 184.372 263.821 184.199 264.268 184.199C264.832 184.199 265.177 184.379 265.177 185.054V185.069H264.526C262.951 185.069 262.551 185.751 262.551 186.449C262.551 187.217 263.233 187.656 263.962 187.656C264.464 187.656 264.973 187.389 265.208 186.958H265.224C265.232 187.139 265.24 187.413 265.271 187.562H266.196ZM265.177 185.743C265.177 186.566 264.691 186.888 264.221 186.888C263.797 186.888 263.554 186.707 263.554 186.394C263.554 185.916 263.97 185.696 264.714 185.696H265.177V185.743Z" fill="black"/>
<path d="M268.239 182.788V181.785H267.189V182.788H268.239ZM268.239 187.562V183.525H267.189V187.562H268.239Z" fill="black"/>
<path d="M270.421 187.562V181.683H269.37V187.562H270.421Z" fill="black"/>
<path d="M271.309 187.483C271.693 187.585 272.108 187.656 272.493 187.656C273.433 187.656 274.194 187.225 274.194 186.339C274.194 185.665 273.817 185.328 273.065 185.116C272.587 184.983 272.367 184.873 272.367 184.646C272.367 184.348 272.626 184.199 272.994 184.199C273.323 184.199 273.566 184.246 273.927 184.372L273.998 183.58C273.496 183.462 273.182 183.431 272.861 183.431C271.952 183.431 271.27 183.87 271.27 184.685C271.27 185.359 271.638 185.649 272.344 185.837C272.767 185.955 273.096 186.057 273.096 186.394C273.096 186.778 272.689 186.888 272.406 186.888C272.046 186.888 271.701 186.786 271.372 186.621L271.309 187.483Z" fill="black"/>
<path d="M268.125 116.43C271.364 116.43 273.99 113.804 273.99 110.565C273.99 107.326 271.364 104.7 268.125 104.7C264.886 104.7 262.26 107.326 262.26 110.565C262.26 113.804 264.886 116.43 268.125 116.43Z" stroke="black" stroke-width="2.23954" stroke-miterlimit="10" stroke-linecap="round" stroke-linejoin="round"/>
<path d="M322.994 116.429C326.233 116.429 328.859 113.803 328.859 110.564C328.859 107.325 326.233 104.699 322.994 104.699C319.755 104.699 317.129 107.325 317.129 110.564C317.129 113.803 319.755 116.429 322.994 116.429Z" stroke="black" stroke-width="2.23954" stroke-miterlimit="10" stroke-linecap="round" stroke-linejoin="round"/>
<path fill-rule="evenodd" clip-rule="evenodd" d="M272.898 110.297C272.898 109.679 273.4 109.177 274.018 109.177L277.517 109.177C278.136 109.177 278.637 109.679 278.637 110.297C278.637 110.916 278.136 111.417 277.517 111.417L274.018 111.417C273.4 111.417 272.898 110.916 272.898 110.297ZM283.396 110.297C283.396 109.679 283.898 109.177 284.516 109.177L291.515 109.177C292.133 109.177 292.634 109.679 292.634 110.297C292.634 110.916 292.133 111.417 291.515 111.417L284.516 111.417C283.898 111.417 283.396 110.916 283.396 110.297ZM297.393 110.297C297.393 109.679 297.895 109.177 298.513 109.177L305.512 109.177C306.13 109.177 306.632 109.679 306.632 110.297C306.632 110.916 306.13 111.417 305.512 111.417L298.513 111.417C297.895 111.417 297.393 110.916 297.393 110.297ZM311.391 110.297C311.391 109.679 311.892 109.177 312.51 109.177L316.01 109.177C316.628 109.177 317.129 109.679 317.129 110.297C317.129 110.916 316.628 111.417 316.01 111.417L312.51 111.417C311.892 111.417 311.391 110.916 311.391 110.297Z" fill="black"/>
<path d="M421.535 116.43C424.774 116.43 427.4 113.804 427.4 110.565C427.4 107.326 424.774 104.7 421.535 104.7C418.296 104.7 415.67 107.326 415.67 110.565C415.67 113.804 418.296 116.43 421.535 116.43Z" stroke="black" stroke-width="2.23954" stroke-miterlimit="10" stroke-linecap="round" stroke-linejoin="round"/>
<path d="M476.402 116.429C479.641 116.429 482.267 113.803 482.267 110.564C482.267 107.325 479.641 104.699 476.402 104.699C473.163 104.699 470.537 107.325 470.537 110.564C470.537 113.803 473.163 116.429 476.402 116.429Z" stroke="black" stroke-width="2.23954" stroke-miterlimit="10" stroke-linecap="round" stroke-linejoin="round"/>
<path fill-rule="evenodd" clip-rule="evenodd" d="M426.307 110.297C426.307 109.679 426.808 109.177 427.426 109.177L430.926 109.177C431.544 109.177 432.045 109.679 432.045 110.297C432.045 110.916 431.544 111.417 430.926 111.417L427.426 111.417C426.808 111.417 426.307 110.916 426.307 110.297ZM436.804 110.297C436.804 109.679 437.306 109.177 437.924 109.177L444.923 109.177C445.541 109.177 446.043 109.679 446.043 110.297C446.043 110.916 445.541 111.417 444.923 111.417L437.924 111.417C437.306 111.417 436.804 110.916 436.804 110.297ZM450.802 110.297C450.802 109.679 451.303 109.177 451.921 109.177L458.92 109.177C459.538 109.177 460.04 109.679 460.04 110.297C460.04 110.916 459.538 111.417 458.92 111.417L451.921 111.417C451.303 111.417 450.802 110.916 450.802 110.297ZM464.799 110.297C464.799 109.679 465.3 109.177 465.919 109.177L469.418 109.177C470.036 109.177 470.538 109.679 470.538 110.297C470.538 110.916 470.036 111.417 469.418 111.417L465.919 111.417C465.3 111.417 464.799 110.916 464.799 110.297Z" fill="black"/>
<path d="M574.942 116.43C578.181 116.43 580.807 113.804 580.807 110.565C580.807 107.326 578.181 104.7 574.942 104.7C571.703 104.7 569.077 107.326 569.077 110.565C569.077 113.804 571.703 116.43 574.942 116.43Z" stroke="black" stroke-width="2.23954" stroke-miterlimit="10" stroke-linecap="round" stroke-linejoin="round"/>
<path d="M629.811 116.429C633.05 116.429 635.676 113.803 635.676 110.564C635.676 107.325 633.05 104.699 629.811 104.699C626.572 104.699 623.946 107.325 623.946 110.564C623.946 113.803 626.572 116.429 629.811 116.429Z" stroke="black" stroke-width="2.23954" stroke-miterlimit="10" stroke-linecap="round" stroke-linejoin="round"/>
<path fill-rule="evenodd" clip-rule="evenodd" d="M579.716 110.297C579.716 109.679 580.217 109.177 580.836 109.177L584.335 109.177C584.953 109.177 585.455 109.679 585.455 110.297C585.455 110.916 584.953 111.417 584.335 111.417L580.836 111.417C580.217 111.417 579.716 110.916 579.716 110.297ZM590.214 110.297C590.214 109.679 590.715 109.177 591.333 109.177L598.332 109.177C598.95 109.177 599.452 109.679 599.452 110.297C599.452 110.916 598.95 111.417 598.332 111.417L591.333 111.417C590.715 111.417 590.214 110.916 590.214 110.297ZM604.211 110.297C604.211 109.679 604.712 109.177 605.331 109.177L612.329 109.177C612.948 109.177 613.449 109.679 613.449 110.297C613.449 110.916 612.948 111.417 612.329 111.417L605.331 111.417C604.712 111.417 604.211 110.916 604.211 110.297ZM618.208 110.297C618.208 109.679 618.709 109.177 619.328 109.177L622.827 109.177C623.445 109.177 623.947 109.679 623.947 110.297C623.947 110.916 623.445 111.417 622.827 111.417L619.328 111.417C618.709 111.417 618.208 110.916 618.208 110.297Z" fill="black"/>
<path d="M547.866 73.187H503.202V138.152H547.866V73.187Z" stroke="black" stroke-width="2.23954" stroke-miterlimit="10" stroke-linecap="round" stroke-linejoin="round"/>
<path d="M503.151 153.852H548.203C550.445 153.852 552.263 152.034 552.263 149.792V71.8064C552.263 69.5642 550.445 67.7461 548.203 67.7461H503.151C500.909 67.7461 499.091 69.5642 499.091 71.8064V149.796C499.091 152.034 500.909 153.852 503.151 153.852Z" stroke="black" stroke-width="2.23954" stroke-miterlimit="10" stroke-linecap="round" stroke-linejoin="round"/>
<path d="M525.533 148.953C527.401 148.953 528.917 147.437 528.917 145.569C528.917 143.701 527.401 142.186 525.533 142.186C523.665 142.186 522.149 143.701 522.149 145.569C522.149 147.437 523.665 148.953 525.533 148.953Z" stroke="black" stroke-width="2.23954" stroke-miterlimit="10" stroke-linecap="round" stroke-linejoin="round"/>
<path d="M519.01 96.023C518.273 96.023 517.676 95.5459 517.676 94.9585V90.708C517.676 90.1206 518.273 89.6436 519.01 89.6436C519.747 89.6436 520.344 90.1206 520.344 90.708V94.9622C520.344 95.5497 519.747 96.023 519.01 96.023Z" stroke="black" stroke-width="1.67966" stroke-linecap="round" stroke-linejoin="round"/>
<path d="M532.351 95.9631C531.614 95.9631 531.018 95.4879 531.018 94.9005V90.6463C531.018 90.057 531.614 89.5818 532.351 89.5818C533.089 89.5818 533.68 90.057 533.68 90.6463V94.9005C533.68 95.4879 533.089 95.9631 532.351 95.9631Z" stroke="black" stroke-width="1.67966" stroke-linecap="round" stroke-linejoin="round"/>
<path d="M513.295 102.174H537.81" stroke="black" stroke-width="1.67966" stroke-linecap="round" stroke-linejoin="round"/>
<path d="M513.295 108.338H536.76" stroke="black" stroke-width="1.67966" stroke-linecap="round" stroke-linejoin="round"/>
<path d="M513.743 114.127H536.46" stroke="black" stroke-width="1.67966" stroke-linecap="round" stroke-linejoin="round"/>
<path d="M518.273 103.523V119.416" stroke="black" stroke-width="1.67966" stroke-linecap="round" stroke-linejoin="round"/>
<path d="M525.611 103.557V119.451" stroke="black" stroke-width="1.67966" stroke-linecap="round" stroke-linejoin="round"/>
<path d="M532.951 103.557V115.702" stroke="black" stroke-width="1.67966" stroke-linecap="round" stroke-linejoin="round"/>
<path d="M533.752 92.8708H535.81C537.001 92.8708 538.143 93.3439 538.985 94.1859C539.827 95.0279 540.3 96.17 540.3 97.3608V117.556C540.301 118.147 540.186 118.731 539.961 119.277C539.736 119.823 539.405 120.319 538.988 120.737C538.571 121.155 538.076 121.486 537.531 121.713C536.985 121.939 536.401 122.055 535.81 122.055H515.624C514.431 122.055 513.287 121.581 512.443 120.738C511.599 119.894 511.125 118.749 511.125 117.556V97.3683C511.125 96.7778 511.241 96.1932 511.468 95.6479C511.694 95.1025 512.025 94.6071 512.443 94.1901C512.861 93.773 513.357 93.4425 513.903 93.2174C514.449 92.9923 515.034 92.8771 515.624 92.8783H517.626" stroke="black" stroke-width="1.67966" stroke-linecap="round" stroke-linejoin="round"/>
<path d="M520.418 92.8708H531.02" stroke="black" stroke-width="1.67966" stroke-linecap="round" stroke-linejoin="round"/>
<path d="M503.058 175.755C503.058 176.734 502.705 177.275 501.922 177.275C501.138 177.275 500.785 176.734 500.785 175.755V172.572H499.688V176.084C499.688 177.377 500.354 178.138 501.922 178.138C503.426 178.138 504.155 177.432 504.155 176.092V172.572H503.058V175.755Z" fill="black"/>
<path d="M505.07 177.965C505.454 178.067 505.87 178.138 506.254 178.138C507.194 178.138 507.955 177.706 507.955 176.821C507.955 176.147 507.578 175.81 506.826 175.598C506.348 175.465 506.128 175.355 506.128 175.128C506.128 174.83 506.387 174.681 506.755 174.681C507.084 174.681 507.327 174.728 507.688 174.853L507.759 174.062C507.257 173.944 506.943 173.913 506.622 173.913C505.713 173.913 505.031 174.352 505.031 175.167C505.031 175.841 505.399 176.131 506.105 176.319C506.528 176.437 506.857 176.538 506.857 176.876C506.857 177.26 506.45 177.369 506.167 177.369C505.807 177.369 505.462 177.267 505.133 177.103L505.07 177.965Z" fill="black"/>
<path d="M512.01 176.962C511.618 177.181 511.179 177.369 510.677 177.369C509.995 177.369 509.564 176.985 509.517 176.35H512.308C512.308 174.759 511.759 173.913 510.387 173.913C509.102 173.913 508.514 174.916 508.514 176.045C508.514 177.369 509.29 178.138 510.63 178.138C511.187 178.138 511.626 178.028 512.01 177.816V176.962ZM509.517 175.629C509.572 175.026 509.917 174.681 510.442 174.681C510.991 174.681 511.265 175.049 511.304 175.629H509.517Z" fill="black"/>
<path d="M514.202 178.043V176.382C514.202 175.128 514.664 174.916 515.056 174.916C515.244 174.916 515.432 174.947 515.526 175.002V173.944C515.495 173.936 515.432 173.913 515.213 173.913C514.602 173.913 514.163 174.501 514.1 174.924H514.084V174.007H513.151V178.043H514.202Z" fill="black"/>
<path d="M521.593 176.962C521.201 177.181 520.762 177.369 520.261 177.369C519.579 177.369 519.148 176.985 519.101 176.35H521.891C521.891 174.759 521.342 173.913 519.971 173.913C518.685 173.913 518.097 174.916 518.097 176.045C518.097 177.369 518.873 178.138 520.214 178.138C520.77 178.138 521.209 178.028 521.593 177.816V176.962ZM519.101 175.629C519.156 175.026 519.5 174.681 520.026 174.681C520.574 174.681 520.849 175.049 520.888 175.629H519.101Z" fill="black"/>
<path d="M526.419 178.043V175.496C526.419 174.548 525.972 173.913 525.047 173.913C524.491 173.913 524.044 174.101 523.723 174.555H523.707V174.007H522.712V178.043H523.762V176.084C523.762 175.371 524.021 174.728 524.687 174.728C525.243 174.728 525.369 175.175 525.369 175.778V178.043H526.419Z" fill="black"/>
<path d="M529.871 177.213C529.761 177.283 529.581 177.322 529.4 177.322C529.032 177.322 528.899 177.072 528.899 176.648V174.775H529.831V174.007H528.899V172.862L527.848 173.199V174.007H527.072V174.775H527.848V176.829C527.848 177.605 528.279 178.138 529.134 178.138C529.439 178.138 529.682 178.106 529.902 178.043L529.871 177.213Z" fill="black"/>
<path d="M533.787 176.962C533.395 177.181 532.956 177.369 532.455 177.369C531.773 177.369 531.342 176.985 531.295 176.35H534.085C534.085 174.759 533.536 173.913 532.165 173.913C530.879 173.913 530.291 174.916 530.291 176.045C530.291 177.369 531.067 178.138 532.408 178.138C532.964 178.138 533.403 178.028 533.787 177.816V176.962ZM531.295 175.629C531.349 175.026 531.694 174.681 532.22 174.681C532.768 174.681 533.043 175.049 533.082 175.629H531.295Z" fill="black"/>
<path d="M535.979 178.043V176.382C535.979 175.128 536.442 174.916 536.834 174.916C537.022 174.916 537.21 174.947 537.304 175.002V173.944C537.273 173.936 537.21 173.913 536.991 173.913C536.379 173.913 535.94 174.501 535.877 174.924H535.862V174.007H534.929V178.043H535.979Z" fill="black"/>
<path d="M537.733 177.965C538.117 178.067 538.532 178.138 538.916 178.138C539.857 178.138 540.617 177.706 540.617 176.821C540.617 176.147 540.241 175.81 539.488 175.598C539.01 175.465 538.791 175.355 538.791 175.128C538.791 174.83 539.049 174.681 539.418 174.681C539.747 174.681 539.99 174.728 540.351 174.853L540.421 174.062C539.919 173.944 539.606 173.913 539.285 173.913C538.375 173.913 537.693 174.352 537.693 175.167C537.693 175.841 538.062 176.131 538.767 176.319C539.191 176.437 539.52 176.538 539.52 176.876C539.52 177.26 539.112 177.369 538.83 177.369C538.469 177.369 538.124 177.267 537.795 177.103L537.733 177.965Z" fill="black"/>
<path d="M503.34 187.562V181.683H502.29V183.995H502.274C501.961 183.611 501.592 183.431 501.067 183.431C499.907 183.431 499.374 184.309 499.374 185.531C499.374 186.652 499.836 187.656 501.067 187.656C501.561 187.656 501.992 187.499 502.306 187.107H502.321V187.562H503.34ZM501.357 186.84C500.675 186.84 500.471 186.104 500.471 185.531C500.471 184.904 500.707 184.246 501.341 184.246C502.016 184.246 502.282 184.967 502.282 185.531C502.282 186.119 502.047 186.84 501.357 186.84Z" fill="black"/>
<path d="M507.811 187.562C507.764 187.021 507.748 186.174 507.748 185.962V185.132C507.748 183.917 507.215 183.431 506.008 183.431C505.522 183.431 504.981 183.564 504.605 183.736L504.636 184.638C504.989 184.371 505.436 184.199 505.882 184.199C506.447 184.199 506.792 184.379 506.792 185.053V185.069H506.141C504.566 185.069 504.166 185.751 504.166 186.448C504.166 187.217 504.848 187.656 505.577 187.656C506.078 187.656 506.588 187.389 506.823 186.958H506.839C506.847 187.138 506.854 187.413 506.886 187.562H507.811ZM506.792 185.743C506.792 186.566 506.306 186.887 505.835 186.887C505.412 186.887 505.169 186.707 505.169 186.394C505.169 185.915 505.585 185.696 506.329 185.696H506.792V185.743Z" fill="black"/>
<path d="M511.147 186.731C511.038 186.801 510.857 186.84 510.677 186.84C510.309 186.84 510.175 186.59 510.175 186.166V184.293H511.108V183.525H510.175V182.38L509.125 182.717V183.525H508.349V184.293H509.125V186.347C509.125 187.123 509.556 187.656 510.41 187.656C510.716 187.656 510.959 187.624 511.179 187.562L511.147 186.731Z" fill="black"/>
<path d="M515.064 186.48C514.672 186.699 514.233 186.887 513.731 186.887C513.049 186.887 512.618 186.503 512.571 185.868H515.362C515.362 184.277 514.813 183.431 513.441 183.431C512.156 183.431 511.568 184.434 511.568 185.563C511.568 186.887 512.344 187.656 513.684 187.656C514.241 187.656 514.68 187.546 515.064 187.334V186.48ZM512.571 185.147C512.626 184.544 512.971 184.199 513.496 184.199C514.045 184.199 514.319 184.567 514.358 185.147H512.571Z" fill="black"/>
<path d="M522.33 185.571C522.33 184.269 521.444 183.431 520.214 183.431C518.983 183.431 518.105 184.277 518.105 185.571C518.105 186.762 518.912 187.656 520.214 187.656C521.515 187.656 522.33 186.77 522.33 185.571ZM520.214 186.84C519.532 186.84 519.202 186.3 519.202 185.445C519.202 184.81 519.555 184.246 520.214 184.246C520.888 184.246 521.233 184.802 521.233 185.445C521.233 186.315 520.896 186.84 520.214 186.84Z" fill="black"/>
<path d="M524.59 187.562V184.293H525.507V183.525H524.59V183.023C524.59 182.639 524.747 182.404 525.052 182.404C525.217 182.404 525.342 182.443 525.507 182.545L525.593 181.675C525.389 181.628 525.084 181.589 524.841 181.589C523.892 181.589 523.54 182.271 523.54 182.953V183.525H522.764V184.293H523.54V187.562H524.59Z" fill="black"/>
<path d="M529.403 187.562V187.068H529.418C529.677 187.436 530.116 187.656 530.657 187.656C531.84 187.656 532.35 186.715 532.35 185.531C532.35 184.269 531.786 183.431 530.657 183.431C530.108 183.431 529.74 183.658 529.45 184.042H529.434V181.683H528.384V187.562H529.403ZM530.367 186.84C529.701 186.84 529.442 186.158 529.442 185.531C529.442 184.943 529.724 184.246 530.382 184.246C531.017 184.246 531.253 184.904 531.253 185.531C531.253 186.143 531.025 186.84 530.367 186.84Z" fill="black"/>
<path d="M534.249 182.788V181.785H533.199V182.788H534.249ZM534.249 187.562V183.525H533.199V187.562H534.249Z" fill="black"/>
<path d="M536.431 187.562V185.9C536.431 184.646 536.893 184.434 537.285 184.434C537.473 184.434 537.662 184.465 537.756 184.52V183.462C537.724 183.454 537.662 183.431 537.442 183.431C536.831 183.431 536.392 184.019 536.329 184.442H536.313V183.525H535.381V187.562H536.431Z" fill="black"/>
<path d="M540.771 186.731C540.661 186.801 540.481 186.84 540.301 186.84C539.932 186.84 539.799 186.59 539.799 186.166V184.293H540.732V183.525H539.799V182.38L538.749 182.717V183.525H537.973V184.293H538.749V186.347C538.749 187.123 539.18 187.656 540.034 187.656C540.34 187.656 540.583 187.624 540.802 187.562L540.771 186.731Z" fill="black"/>
<path d="M545.158 187.562V185.006C545.158 184.081 544.719 183.431 543.786 183.431C543.23 183.431 542.775 183.689 542.516 184.073H542.501V181.683H541.45V187.562H542.501V185.61C542.501 184.81 542.806 184.246 543.426 184.246C543.888 184.246 544.107 184.544 544.107 185.281V187.562H545.158Z" fill="black"/>
<path d="M701.274 73.187H656.61V138.152H701.274V73.187Z" stroke="black" stroke-width="2.23954" stroke-miterlimit="10" stroke-linecap="round" stroke-linejoin="round"/>
<path d="M656.56 153.852H701.612C703.854 153.852 705.672 152.034 705.672 149.792V71.8064C705.672 69.5642 703.854 67.7461 701.612 67.7461H656.56C654.318 67.7461 652.5 69.5642 652.5 71.8064V149.796C652.5 152.034 654.318 153.852 656.56 153.852Z" stroke="black" stroke-width="2.23954" stroke-miterlimit="10" stroke-linecap="round" stroke-linejoin="round"/>
<path d="M678.942 148.953C680.81 148.953 682.326 147.437 682.326 145.569C682.326 143.701 680.81 142.186 678.942 142.186C677.074 142.186 675.559 143.701 675.559 145.569C675.559 147.437 677.074 148.953 678.942 148.953Z" stroke="black" stroke-width="2.23954" stroke-miterlimit="10" stroke-linecap="round" stroke-linejoin="round"/>
<path d="M678.535 124.295C687.967 124.295 695.612 116.649 695.612 107.218C695.612 97.787 687.967 90.1416 678.535 90.1416C669.104 90.1416 661.459 97.787 661.459 107.218C661.459 116.649 669.104 124.295 678.535 124.295Z" stroke="black" stroke-width="1.80518" stroke-miterlimit="10" stroke-linecap="round" stroke-linejoin="round"/>
<path d="M670.777 111.4L673.4 114.975L686.291 99.4612" stroke="black" stroke-width="2.23954" stroke-miterlimit="10" stroke-linecap="round" stroke-linejoin="round"/>
<path d="M656.467 175.755C656.467 176.735 656.114 177.275 655.33 177.275C654.546 177.275 654.194 176.735 654.194 175.755V172.572H653.096V176.084C653.096 177.377 653.763 178.138 655.33 178.138C656.835 178.138 657.564 177.432 657.564 176.092V172.572H656.467V175.755Z" fill="black"/>
<path d="M658.479 177.965C658.863 178.067 659.278 178.138 659.662 178.138C660.603 178.138 661.363 177.707 661.363 176.821C661.363 176.147 660.987 175.81 660.235 175.598C659.756 175.465 659.537 175.355 659.537 175.128C659.537 174.83 659.796 174.681 660.164 174.681C660.493 174.681 660.736 174.728 661.097 174.853L661.167 174.062C660.666 173.944 660.352 173.913 660.031 173.913C659.122 173.913 658.44 174.352 658.44 175.167C658.44 175.841 658.808 176.131 659.513 176.319C659.937 176.437 660.266 176.539 660.266 176.876C660.266 177.26 659.858 177.369 659.576 177.369C659.216 177.369 658.871 177.268 658.542 177.103L658.479 177.965Z" fill="black"/>
<path d="M665.418 176.962C665.026 177.181 664.588 177.369 664.086 177.369C663.404 177.369 662.973 176.985 662.926 176.351H665.716C665.716 174.759 665.168 173.913 663.796 173.913C662.51 173.913 661.922 174.916 661.922 176.045C661.922 177.369 662.698 178.138 664.039 178.138C664.595 178.138 665.034 178.028 665.418 177.816V176.962ZM662.926 175.629C662.981 175.026 663.326 174.681 663.851 174.681C664.399 174.681 664.674 175.049 664.713 175.629H662.926Z" fill="black"/>
<path d="M667.611 178.044V176.382C667.611 175.128 668.073 174.916 668.465 174.916C668.653 174.916 668.841 174.947 668.935 175.002V173.944C668.904 173.936 668.841 173.913 668.622 173.913C668.01 173.913 667.571 174.501 667.509 174.924H667.493V174.007H666.56V178.044H667.611Z" fill="black"/>
<path d="M675.472 178.044V175.488C675.472 174.563 675.033 173.913 674.101 173.913C673.544 173.913 673.09 174.171 672.831 174.556H672.815V172.165H671.765V178.044H672.815V176.092C672.815 175.292 673.121 174.728 673.74 174.728C674.203 174.728 674.422 175.026 674.422 175.763V178.044H675.472Z" fill="black"/>
<path d="M679.943 178.044C679.896 177.503 679.88 176.656 679.88 176.445V175.614C679.88 174.399 679.347 173.913 678.14 173.913C677.654 173.913 677.113 174.046 676.737 174.218L676.768 175.12C677.121 174.853 677.568 174.681 678.015 174.681C678.579 174.681 678.924 174.861 678.924 175.535V175.551H678.273C676.698 175.551 676.298 176.233 676.298 176.931C676.298 177.699 676.98 178.138 677.709 178.138C678.211 178.138 678.72 177.871 678.955 177.44H678.971C678.979 177.62 678.987 177.895 679.018 178.044H679.943ZM678.924 176.225C678.924 177.048 678.438 177.369 677.968 177.369C677.544 177.369 677.301 177.189 677.301 176.876C677.301 176.398 677.717 176.178 678.461 176.178H678.924V176.225Z" fill="black"/>
<path d="M680.693 177.965C681.077 178.067 681.492 178.138 681.876 178.138C682.817 178.138 683.577 177.707 683.577 176.821C683.577 176.147 683.201 175.81 682.448 175.598C681.97 175.465 681.751 175.355 681.751 175.128C681.751 174.83 682.01 174.681 682.378 174.681C682.707 174.681 682.95 174.728 683.311 174.853L683.381 174.062C682.88 173.944 682.566 173.913 682.245 173.913C681.335 173.913 680.654 174.352 680.654 175.167C680.654 175.841 681.022 176.131 681.727 176.319C682.151 176.437 682.48 176.539 682.48 176.876C682.48 177.26 682.072 177.369 681.79 177.369C681.43 177.369 681.085 177.268 680.755 177.103L680.693 177.965Z" fill="black"/>
<path d="M689.963 178.044C689.916 177.503 689.9 176.656 689.9 176.445V175.614C689.9 174.399 689.367 173.913 688.16 173.913C687.674 173.913 687.133 174.046 686.757 174.218L686.788 175.12C687.141 174.853 687.588 174.681 688.035 174.681C688.599 174.681 688.944 174.861 688.944 175.535V175.551H688.293C686.718 175.551 686.318 176.233 686.318 176.931C686.318 177.699 687 178.138 687.729 178.138C688.231 178.138 688.74 177.871 688.975 177.44H688.991C688.999 177.62 689.007 177.895 689.038 178.044H689.963ZM688.944 176.225C688.944 177.048 688.458 177.369 687.988 177.369C687.564 177.369 687.321 177.189 687.321 176.876C687.321 176.398 687.737 176.178 688.481 176.178H688.944V176.225Z" fill="black"/>
<path d="M693.668 177.134C693.393 177.252 693.088 177.322 692.86 177.322C692.155 177.322 691.771 176.789 691.771 176.006C691.771 175.245 692.186 174.728 692.845 174.728C693.135 174.728 693.346 174.783 693.55 174.877L693.644 174.046C693.354 173.96 693.041 173.913 692.633 173.913C691.395 173.913 690.673 174.798 690.673 176.006C690.673 177.322 691.41 178.138 692.672 178.138C693.103 178.138 693.401 178.098 693.715 178.004L693.668 177.134Z" fill="black"/>
<path d="M697.151 177.134C696.876 177.252 696.571 177.322 696.343 177.322C695.638 177.322 695.254 176.789 695.254 176.006C695.254 175.245 695.669 174.728 696.328 174.728C696.618 174.728 696.829 174.783 697.033 174.877L697.127 174.046C696.837 173.96 696.524 173.913 696.116 173.913C694.878 173.913 694.156 174.798 694.156 176.006C694.156 177.322 694.893 178.138 696.155 178.138C696.586 178.138 696.884 178.098 697.198 178.004L697.151 177.134Z" fill="black"/>
<path d="M701.135 176.962C700.743 177.181 700.304 177.369 699.803 177.369C699.121 177.369 698.69 176.985 698.643 176.351H701.433C701.433 174.759 700.884 173.913 699.513 173.913C698.227 173.913 697.639 174.916 697.639 176.045C697.639 177.369 698.415 178.138 699.756 178.138C700.312 178.138 700.751 178.028 701.135 177.816V176.962ZM698.643 175.629C698.697 175.026 699.042 174.681 699.567 174.681C700.116 174.681 700.391 175.049 700.43 175.629H698.643Z" fill="black"/>
<path d="M702.034 177.965C702.418 178.067 702.833 178.138 703.218 178.138C704.158 178.138 704.918 177.707 704.918 176.821C704.918 176.147 704.542 175.81 703.79 175.598C703.312 175.465 703.092 175.355 703.092 175.128C703.092 174.83 703.351 174.681 703.719 174.681C704.048 174.681 704.291 174.728 704.652 174.853L704.723 174.062C704.221 173.944 703.907 173.913 703.586 173.913C702.677 173.913 701.995 174.352 701.995 175.167C701.995 175.841 702.363 176.131 703.069 176.319C703.492 176.437 703.821 176.539 703.821 176.876C703.821 177.26 703.414 177.369 703.131 177.369C702.771 177.369 702.426 177.268 702.097 177.103L702.034 177.965Z" fill="black"/>
<path d="M705.517 177.965C705.901 178.067 706.316 178.138 706.7 178.138C707.641 178.138 708.401 177.707 708.401 176.821C708.401 176.147 708.025 175.81 707.273 175.598C706.795 175.465 706.575 175.355 706.575 175.128C706.575 174.83 706.834 174.681 707.202 174.681C707.531 174.681 707.774 174.728 708.135 174.853L708.205 174.062C707.704 173.944 707.39 173.913 707.069 173.913C706.16 173.913 705.478 174.352 705.478 175.167C705.478 175.841 705.846 176.131 706.552 176.319C706.975 176.437 707.304 176.539 707.304 176.876C707.304 177.26 706.896 177.369 706.614 177.369C706.254 177.369 705.909 177.268 705.58 177.103L705.517 177.965Z" fill="black"/>
<path d="M655.409 186.731C655.299 186.801 655.119 186.841 654.938 186.841C654.57 186.841 654.437 186.59 654.437 186.166V184.293H655.369V183.525H654.437V182.38L653.386 182.718V183.525H652.61V184.293H653.386V186.347C653.386 187.123 653.817 187.656 654.672 187.656C654.978 187.656 655.221 187.624 655.44 187.562L655.409 186.731Z" fill="black"/>
<path d="M660.054 185.571C660.054 184.27 659.169 183.431 657.938 183.431C656.707 183.431 655.829 184.277 655.829 185.571C655.829 186.762 656.637 187.656 657.938 187.656C659.239 187.656 660.054 186.77 660.054 185.571ZM657.938 186.841C657.256 186.841 656.927 186.3 656.927 185.445C656.927 184.81 657.279 184.246 657.938 184.246C658.612 184.246 658.957 184.803 658.957 185.445C658.957 186.315 658.62 186.841 657.938 186.841Z" fill="black"/>
<path d="M662.842 187.483C663.226 187.585 663.641 187.656 664.026 187.656C664.966 187.656 665.727 187.225 665.727 186.339C665.727 185.665 665.35 185.328 664.598 185.116C664.12 184.983 663.9 184.873 663.9 184.646C663.9 184.348 664.159 184.199 664.527 184.199C664.856 184.199 665.099 184.246 665.46 184.371L665.531 183.58C665.029 183.462 664.715 183.431 664.394 183.431C663.485 183.431 662.803 183.87 662.803 184.685C662.803 185.359 663.171 185.649 663.877 185.837C664.3 185.955 664.629 186.057 664.629 186.394C664.629 186.778 664.222 186.888 663.939 186.888C663.579 186.888 663.234 186.786 662.905 186.621L662.842 187.483Z" fill="black"/>
<path d="M669.782 186.48C669.39 186.699 668.951 186.888 668.449 186.888C667.767 186.888 667.336 186.503 667.289 185.869H670.079C670.079 184.277 669.531 183.431 668.159 183.431C666.874 183.431 666.286 184.434 666.286 185.563C666.286 186.888 667.062 187.656 668.402 187.656C668.959 187.656 669.398 187.546 669.782 187.334V186.48ZM667.289 185.147C667.344 184.544 667.689 184.199 668.214 184.199C668.763 184.199 669.037 184.567 669.076 185.147H667.289Z" fill="black"/>
<path d="M671.974 187.562V185.9C671.974 184.646 672.436 184.434 672.828 184.434C673.016 184.434 673.204 184.465 673.298 184.52V183.462C673.267 183.454 673.204 183.431 672.985 183.431C672.373 183.431 671.935 184.019 671.872 184.442H671.856V183.525H670.923V187.562H671.974Z" fill="black"/>
<path d="M676.18 187.562L677.67 183.525H676.619L675.647 186.464H675.632L674.628 183.525H673.5L674.997 187.562H676.18Z" fill="black"/>
<path d="M679.376 182.788V181.785H678.325V182.788H679.376ZM679.376 187.562V183.525H678.325V187.562H679.376Z" fill="black"/>
<path d="M683.219 186.652C682.945 186.77 682.639 186.841 682.412 186.841C681.706 186.841 681.322 186.308 681.322 185.524C681.322 184.763 681.738 184.246 682.396 184.246C682.686 184.246 682.898 184.301 683.102 184.395L683.196 183.564C682.906 183.478 682.592 183.431 682.184 183.431C680.946 183.431 680.225 184.317 680.225 185.524C680.225 186.841 680.962 187.656 682.224 187.656C682.655 187.656 682.953 187.617 683.266 187.522L683.219 186.652Z" fill="black"/>
<path d="M687.204 186.48C686.812 186.699 686.373 186.888 685.871 186.888C685.189 186.888 684.758 186.503 684.711 185.869H687.502C687.502 184.277 686.953 183.431 685.581 183.431C684.296 183.431 683.708 184.434 683.708 185.563C683.708 186.888 684.484 187.656 685.824 187.656C686.381 187.656 686.82 187.546 687.204 187.334V186.48ZM684.711 185.147C684.766 184.544 685.111 184.199 685.636 184.199C686.185 184.199 686.459 184.567 686.498 185.147H684.711Z" fill="black"/>
<path d="M394.457 73.187H349.793V138.152H394.457V73.187Z" stroke="black" stroke-width="2.23954" stroke-miterlimit="10" stroke-linecap="round" stroke-linejoin="round"/>
<path d="M349.744 153.852H394.796C397.038 153.852 398.856 152.034 398.856 149.792V71.8064C398.856 69.5642 397.038 67.7461 394.796 67.7461H349.744C347.502 67.7461 345.684 69.5642 345.684 71.8064V149.796C345.684 152.034 347.502 153.852 349.744 153.852Z" stroke="black" stroke-width="2.23954" stroke-miterlimit="10" stroke-linecap="round" stroke-linejoin="round"/>
<path d="M372.125 148.953C373.993 148.953 375.508 147.437 375.508 145.569C375.508 143.701 373.993 142.186 372.125 142.186C370.257 142.186 368.741 143.701 368.741 145.569C368.741 147.437 370.257 148.953 372.125 148.953Z" stroke="black" stroke-width="2.23954" stroke-miterlimit="10" stroke-linecap="round" stroke-linejoin="round"/>
<path d="M361.446 122.055C362.099 116.577 366.701 112.318 372.282 112.318C377.863 112.318 382.465 116.577 383.118 122.055H361.446ZM383.204 100.641C383.204 106.754 378.31 111.7 372.282 111.7C366.255 111.7 361.36 106.737 361.36 100.641C361.36 94.5444 366.255 89.5815 372.282 89.5815C378.31 89.5815 383.204 94.5272 383.204 100.641Z" stroke="black" stroke-width="1.67966" stroke-miterlimit="10" stroke-linecap="round" stroke-linejoin="round"/>
<path d="M349.65 174.075C349.65 175.055 349.297 175.596 348.513 175.596C347.729 175.596 347.376 175.055 347.376 174.075V170.893H346.279V174.405C346.279 175.698 346.945 176.458 348.513 176.458C350.018 176.458 350.747 175.753 350.747 174.412V170.893H349.65V174.075Z" fill="black"/>
<path d="M351.661 176.286C352.046 176.388 352.461 176.458 352.845 176.458C353.786 176.458 354.546 176.027 354.546 175.141C354.546 174.467 354.17 174.13 353.417 173.919C352.939 173.785 352.72 173.676 352.72 173.448C352.72 173.15 352.978 173.002 353.347 173.002C353.676 173.002 353.919 173.049 354.28 173.174L354.35 172.382C353.848 172.265 353.535 172.233 353.213 172.233C352.304 172.233 351.622 172.672 351.622 173.488C351.622 174.162 351.991 174.452 352.696 174.64C353.119 174.757 353.449 174.859 353.449 175.196C353.449 175.58 353.041 175.69 352.759 175.69C352.398 175.69 352.053 175.588 351.724 175.424L351.661 176.286Z" fill="black"/>
<path d="M358.601 175.283C358.209 175.502 357.77 175.69 357.269 175.69C356.587 175.69 356.156 175.306 356.109 174.671H358.899C358.899 173.08 358.35 172.233 356.979 172.233C355.693 172.233 355.105 173.237 355.105 174.365C355.105 175.69 355.881 176.458 357.222 176.458C357.778 176.458 358.217 176.349 358.601 176.137V175.283ZM356.109 173.95C356.163 173.346 356.508 173.002 357.033 173.002C357.582 173.002 357.856 173.37 357.896 173.95H356.109Z" fill="black"/>
<path d="M360.793 176.364V174.702C360.793 173.448 361.256 173.237 361.648 173.237C361.836 173.237 362.024 173.268 362.118 173.323V172.265C362.087 172.257 362.024 172.233 361.804 172.233C361.193 172.233 360.754 172.821 360.691 173.245H360.676V172.327H359.743V176.364H360.793Z" fill="black"/>
<path d="M368.185 175.283C367.793 175.502 367.354 175.69 366.852 175.69C366.17 175.69 365.739 175.306 365.692 174.671H368.483C368.483 173.08 367.934 172.233 366.562 172.233C365.277 172.233 364.689 173.237 364.689 174.365C364.689 175.69 365.465 176.458 366.805 176.458C367.362 176.458 367.801 176.349 368.185 176.137V175.283ZM365.692 173.95C365.747 173.346 366.092 173.002 366.617 173.002C367.166 173.002 367.44 173.37 367.479 173.95H365.692Z" fill="black"/>
<path d="M373.011 176.364V173.817C373.011 172.868 372.564 172.233 371.639 172.233C371.082 172.233 370.636 172.422 370.314 172.876H370.299V172.327H369.303V176.364H370.353V174.405C370.353 173.691 370.612 173.049 371.278 173.049C371.835 173.049 371.96 173.495 371.96 174.099V176.364H373.011Z" fill="black"/>
<path d="M376.462 175.533C376.352 175.604 376.172 175.643 375.992 175.643C375.623 175.643 375.49 175.392 375.49 174.969V173.096H376.423V172.327H375.49V171.183L374.44 171.52V172.327H373.664V173.096H374.44V175.149C374.44 175.925 374.871 176.458 375.725 176.458C376.031 176.458 376.274 176.427 376.493 176.364L376.462 175.533Z" fill="black"/>
<path d="M380.379 175.283C379.987 175.502 379.548 175.69 379.046 175.69C378.364 175.69 377.933 175.306 377.886 174.671H380.677C380.677 173.08 380.128 172.233 378.756 172.233C377.471 172.233 376.883 173.237 376.883 174.365C376.883 175.69 377.659 176.458 378.999 176.458C379.556 176.458 379.995 176.349 380.379 176.137V175.283ZM377.886 173.95C377.941 173.346 378.286 173.002 378.811 173.002C379.36 173.002 379.634 173.37 379.673 173.95H377.886Z" fill="black"/>
<path d="M382.571 176.364V174.702C382.571 173.448 383.033 173.237 383.425 173.237C383.613 173.237 383.801 173.268 383.896 173.323V172.265C383.864 172.257 383.801 172.233 383.582 172.233C382.971 172.233 382.532 172.821 382.469 173.245H382.453V172.327H381.52V176.364H382.571Z" fill="black"/>
<path d="M384.324 176.286C384.708 176.388 385.124 176.458 385.508 176.458C386.448 176.458 387.209 176.027 387.209 175.141C387.209 174.467 386.832 174.13 386.08 173.919C385.602 173.785 385.382 173.676 385.382 173.448C385.382 173.15 385.641 173.002 386.009 173.002C386.339 173.002 386.582 173.049 386.942 173.174L387.013 172.382C386.511 172.265 386.197 172.233 385.876 172.233C384.967 172.233 384.285 172.672 384.285 173.488C384.285 174.162 384.653 174.452 385.359 174.64C385.782 174.757 386.111 174.859 386.111 175.196C386.111 175.58 385.704 175.69 385.421 175.69C385.061 175.69 384.716 175.588 384.387 175.424L384.324 176.286Z" fill="black"/>
<path d="M391.642 176.364V173.096H392.56V172.327H391.642V171.826C391.642 171.442 391.799 171.207 392.105 171.207C392.269 171.207 392.395 171.246 392.56 171.348L392.646 170.478C392.442 170.431 392.136 170.391 391.893 170.391C390.945 170.391 390.592 171.073 390.592 171.755V172.327H389.816V173.096H390.592V176.364H391.642Z" fill="black"/>
<path d="M396.962 176.364V172.327H395.912V174.279C395.912 175.055 395.622 175.643 394.987 175.643C394.603 175.643 394.305 175.439 394.305 174.632V172.327H393.255V174.875C393.255 175.855 393.725 176.458 394.626 176.458C395.151 176.458 395.606 176.231 395.951 175.816H395.967V176.364H396.962Z" fill="black"/>
<path d="M399.12 176.364V170.485H398.07V176.364H399.12Z" fill="black"/>
<path d="M401.302 176.364V170.485H400.251V176.364H401.302Z" fill="black"/>
<path d="M349.932 185.882V183.335C349.932 182.386 349.485 181.751 348.56 181.751C348.003 181.751 347.557 181.94 347.235 182.394H347.22V181.845H346.224V185.882H347.275V183.923C347.275 183.209 347.533 182.567 348.199 182.567C348.756 182.567 348.881 183.013 348.881 183.617V185.882H349.932Z" fill="black"/>
<path d="M354.402 185.882C354.355 185.341 354.339 184.495 354.339 184.283V183.452C354.339 182.237 353.806 181.751 352.599 181.751C352.113 181.751 351.573 181.885 351.196 182.057L351.228 182.959C351.58 182.692 352.027 182.52 352.474 182.52C353.038 182.52 353.383 182.7 353.383 183.374V183.39H352.733C351.157 183.39 350.757 184.072 350.757 184.769C350.757 185.537 351.439 185.976 352.168 185.976C352.67 185.976 353.179 185.71 353.415 185.279H353.43C353.438 185.459 353.446 185.733 353.477 185.882H354.402ZM353.383 184.064C353.383 184.887 352.897 185.208 352.427 185.208C352.004 185.208 351.761 185.028 351.761 184.714C351.761 184.236 352.176 184.017 352.921 184.017H353.383V184.064Z" fill="black"/>
<path d="M361.282 185.882V183.319C361.282 182.269 360.866 181.751 360.012 181.751C359.455 181.751 358.961 182.018 358.742 182.465C358.515 181.963 358.115 181.751 357.558 181.751C357.049 181.751 356.626 182.002 356.351 182.41H356.336V181.845H355.356V185.882H356.406V183.899C356.406 183.084 356.641 182.567 357.19 182.567C357.582 182.567 357.794 182.778 357.794 183.366V185.882H358.844V183.907C358.844 183.06 359.095 182.567 359.628 182.567C360.004 182.567 360.231 182.763 360.231 183.366V185.882H361.282Z" fill="black"/>
<path d="M365.575 184.801C365.183 185.02 364.744 185.208 364.242 185.208C363.56 185.208 363.129 184.824 363.082 184.189H365.872C365.872 182.598 365.324 181.751 363.952 181.751C362.666 181.751 362.079 182.755 362.079 183.883C362.079 185.208 362.855 185.976 364.195 185.976C364.752 185.976 365.19 185.867 365.575 185.655V184.801ZM363.082 183.468C363.137 182.864 363.482 182.52 364.007 182.52C364.556 182.52 364.83 182.888 364.869 183.468H363.082Z" fill="black"/>
<path d="M372.261 185.882C372.214 185.341 372.198 184.495 372.198 184.283V183.452C372.198 182.237 371.665 181.751 370.458 181.751C369.972 181.751 369.431 181.885 369.055 182.057L369.086 182.959C369.439 182.692 369.886 182.52 370.332 182.52C370.897 182.52 371.242 182.7 371.242 183.374V183.39H370.591C369.015 183.39 368.616 184.072 368.616 184.769C368.616 185.537 369.298 185.976 370.027 185.976C370.528 185.976 371.038 185.71 371.273 185.279H371.289C371.296 185.459 371.304 185.733 371.336 185.882H372.261ZM371.242 184.064C371.242 184.887 370.756 185.208 370.285 185.208C369.862 185.208 369.619 185.028 369.619 184.714C369.619 184.236 370.034 184.017 370.779 184.017H371.242V184.064Z" fill="black"/>
<path d="M373.01 185.804C373.395 185.906 373.81 185.976 374.194 185.976C375.135 185.976 375.895 185.545 375.895 184.659C375.895 183.985 375.519 183.648 374.766 183.437C374.288 183.303 374.069 183.194 374.069 182.966C374.069 182.669 374.327 182.52 374.696 182.52C375.025 182.52 375.268 182.567 375.628 182.692L375.699 181.9C375.197 181.783 374.884 181.751 374.562 181.751C373.653 181.751 372.971 182.19 372.971 183.006C372.971 183.68 373.34 183.97 374.045 184.158C374.468 184.275 374.798 184.377 374.798 184.714C374.798 185.098 374.39 185.208 374.108 185.208C373.747 185.208 373.402 185.106 373.073 184.942L373.01 185.804Z" fill="black"/>
<path d="M379.968 185.882V184.221C379.968 182.966 380.431 182.755 380.823 182.755C381.011 182.755 381.199 182.786 381.293 182.841V181.783C381.262 181.775 381.199 181.751 380.979 181.751C380.368 181.751 379.929 182.339 379.866 182.763H379.851V181.845H378.918V185.882H379.968Z" fill="black"/>
<path d="M385.04 184.801C384.648 185.02 384.21 185.208 383.708 185.208C383.026 185.208 382.595 184.824 382.548 184.189H385.338C385.338 182.598 384.79 181.751 383.418 181.751C382.132 181.751 381.544 182.755 381.544 183.883C381.544 185.208 382.32 185.976 383.661 185.976C384.217 185.976 384.656 185.867 385.04 185.655V184.801ZM382.548 183.468C382.603 182.864 382.948 182.52 383.473 182.52C384.021 182.52 384.296 182.888 384.335 183.468H382.548Z" fill="black"/>
<path d="M388.816 185.334C388.816 186.172 388.596 186.807 387.609 186.807C387.295 186.807 386.794 186.65 386.425 186.454L386.339 187.348C386.856 187.568 387.342 187.622 387.75 187.622C389.161 187.622 389.866 186.87 389.866 185.506V181.845H388.863V182.394H388.847C388.557 181.932 388.142 181.751 387.609 181.751C386.402 181.751 385.9 182.872 385.9 183.844C385.9 185.036 386.433 185.882 387.546 185.882C388.079 185.882 388.573 185.631 388.8 185.24H388.816V185.334ZM387.891 185.067C387.287 185.067 386.997 184.393 386.997 183.844C386.997 183.107 387.303 182.567 387.93 182.567C388.596 182.567 388.816 183.202 388.816 183.821C388.816 184.471 388.565 185.067 387.891 185.067Z" fill="black"/>
<path d="M392.024 181.109V180.105H390.974V181.109H392.024ZM392.024 185.882V181.845H390.974V185.882H392.024Z" fill="black"/>
<path d="M392.913 185.804C393.297 185.906 393.712 185.976 394.096 185.976C395.037 185.976 395.797 185.545 395.797 184.659C395.797 183.985 395.421 183.648 394.668 183.437C394.19 183.303 393.971 183.194 393.971 182.966C393.971 182.669 394.229 182.52 394.598 182.52C394.927 182.52 395.17 182.567 395.531 182.692L395.601 181.9C395.1 181.783 394.786 181.751 394.465 181.751C393.555 181.751 392.873 182.19 392.873 183.006C392.873 183.68 393.242 183.97 393.947 184.158C394.371 184.275 394.7 184.377 394.7 184.714C394.7 185.098 394.292 185.208 394.01 185.208C393.649 185.208 393.305 185.106 392.975 184.942L392.913 185.804Z" fill="black"/>
<path d="M398.982 185.051C398.872 185.122 398.692 185.161 398.512 185.161C398.143 185.161 398.01 184.91 398.01 184.487V182.614H398.943V181.845H398.01V180.701L396.96 181.038V181.845H396.184V182.614H396.96V184.667C396.96 185.443 397.391 185.976 398.245 185.976C398.551 185.976 398.794 185.945 399.014 185.882L398.982 185.051Z" fill="black"/>
<path d="M402.899 184.801C402.507 185.02 402.068 185.208 401.566 185.208C400.884 185.208 400.453 184.824 400.406 184.189H403.197C403.197 182.598 402.648 181.751 401.276 181.751C399.991 181.751 399.403 182.755 399.403 183.883C399.403 185.208 400.179 185.976 401.519 185.976C402.076 185.976 402.515 185.867 402.899 185.655V184.801ZM400.406 183.468C400.461 182.864 400.806 182.52 401.331 182.52C401.88 182.52 402.154 182.888 402.193 183.468H400.406Z" fill="black"/>
<path d="M405.091 185.882V184.221C405.091 182.966 405.553 182.755 405.945 182.755C406.133 182.755 406.322 182.786 406.416 182.841V181.783C406.384 181.775 406.322 181.751 406.102 181.751C405.491 181.751 405.052 182.339 404.989 182.763H404.973V181.845H404.041V185.882H405.091Z" fill="black"/>
<path d="M410.163 184.801C409.771 185.02 409.332 185.208 408.831 185.208C408.149 185.208 407.718 184.824 407.67 184.189H410.461C410.461 182.598 409.912 181.751 408.541 181.751C407.255 181.751 406.667 182.755 406.667 183.883C406.667 185.208 407.443 185.976 408.784 185.976C409.34 185.976 409.779 185.867 410.163 185.655V184.801ZM407.67 183.468C407.725 182.864 408.07 182.52 408.595 182.52C409.144 182.52 409.418 182.888 409.458 183.468H407.67Z" fill="black"/>
<path d="M414.989 185.882V180.003H413.939V182.316H413.923C413.609 181.932 413.241 181.751 412.716 181.751C411.556 181.751 411.023 182.629 411.023 183.852C411.023 184.973 411.485 185.976 412.716 185.976C413.21 185.976 413.641 185.82 413.954 185.428H413.97V185.882H414.989ZM413.006 185.161C412.324 185.161 412.12 184.424 412.12 183.852C412.12 183.225 412.355 182.567 412.99 182.567C413.664 182.567 413.931 183.288 413.931 183.852C413.931 184.44 413.696 185.161 413.006 185.161Z" fill="black"/>
<path d="M351.327 195.4L352.565 191.364H351.562L350.723 194.35H350.708L349.83 191.364H348.607L347.792 194.35H347.776L346.883 191.364H345.77L347.133 195.4H348.333L349.195 192.32H349.211L350.088 195.4H351.327Z" fill="black"/>
<path d="M354.264 190.627V189.623H353.213V190.627H354.264ZM354.264 195.4V191.364H353.213V195.4H354.264Z" fill="black"/>
<path d="M357.739 194.569C357.629 194.64 357.449 194.679 357.268 194.679C356.9 194.679 356.767 194.428 356.767 194.005V192.132H357.7V191.364H356.767V190.219L355.716 190.556V191.364H354.94V192.132H355.716V194.185C355.716 194.961 356.148 195.494 357.002 195.494C357.308 195.494 357.551 195.463 357.77 195.4L357.739 194.569Z" fill="black"/>
<path d="M362.126 195.4V192.845C362.126 191.92 361.687 191.269 360.754 191.269C360.197 191.269 359.743 191.528 359.484 191.912H359.468V189.522H358.418V195.4H359.468V193.449C359.468 192.649 359.774 192.085 360.393 192.085C360.856 192.085 361.075 192.383 361.075 193.119V195.4H362.126Z" fill="black"/>
<path d="M368.942 194.554C368.754 194.601 368.511 194.632 368.229 194.632C367.085 194.632 366.363 193.833 366.363 192.68C366.363 191.505 367.124 190.697 368.347 190.697C368.801 190.697 369.326 190.791 369.757 190.987L369.828 190.062C369.358 189.921 368.856 189.835 368.229 189.835C366.316 189.835 365.219 190.932 365.219 192.759C365.219 194.522 366.356 195.494 368.221 195.494C368.809 195.494 369.413 195.369 369.993 195.212V192.265H367.782V193.127H368.942V194.554Z" fill="black"/>
<path d="M372.146 195.4V193.323H372.624C373.949 193.323 374.717 192.727 374.717 191.583C374.717 190.47 373.909 189.929 372.459 189.929H371.048V195.4H372.146ZM372.146 192.461V190.791H372.53C373.18 190.791 373.572 191.074 373.572 191.646C373.572 192.155 373.259 192.461 372.514 192.461H372.146Z" fill="black"/>
<path d="M377.366 195.322C377.75 195.424 378.165 195.494 378.55 195.494C379.49 195.494 380.25 195.063 380.25 194.178C380.25 193.503 379.874 193.166 379.122 192.955C378.644 192.821 378.424 192.712 378.424 192.484C378.424 192.187 378.683 192.038 379.051 192.038C379.38 192.038 379.623 192.085 379.984 192.21L380.055 191.418C379.553 191.301 379.239 191.269 378.918 191.269C378.009 191.269 377.327 191.708 377.327 192.524C377.327 193.198 377.695 193.488 378.401 193.676C378.824 193.793 379.153 193.895 379.153 194.232C379.153 194.616 378.745 194.726 378.463 194.726C378.103 194.726 377.758 194.624 377.429 194.46L377.366 195.322Z" fill="black"/>
<path d="M384.776 195.4V191.364H383.726V193.315C383.726 194.091 383.435 194.679 382.801 194.679C382.416 194.679 382.119 194.475 382.119 193.668V191.364H381.068V193.911C381.068 194.891 381.539 195.494 382.44 195.494C382.965 195.494 383.42 195.267 383.765 194.852H383.78V195.4H384.776Z" fill="black"/>
<path d="M386.934 195.4V193.739C386.934 192.484 387.396 192.273 387.788 192.273C387.976 192.273 388.165 192.304 388.259 192.359V191.301C388.227 191.293 388.165 191.269 387.945 191.269C387.334 191.269 386.895 191.857 386.832 192.281H386.816V191.364H385.884V195.4H386.934Z" fill="black"/>
<path d="M391.564 194.852C391.564 195.69 391.344 196.325 390.357 196.325C390.043 196.325 389.542 196.168 389.173 195.973L389.087 196.866C389.604 197.086 390.09 197.14 390.498 197.14C391.909 197.14 392.614 196.388 392.614 195.024V191.364H391.611V191.912H391.595C391.305 191.45 390.89 191.269 390.357 191.269C389.15 191.269 388.648 192.39 388.648 193.362C388.648 194.554 389.181 195.4 390.294 195.4C390.827 195.4 391.321 195.15 391.548 194.758H391.564V194.852ZM390.639 194.585C390.035 194.585 389.745 193.911 389.745 193.362C389.745 192.626 390.051 192.085 390.678 192.085C391.344 192.085 391.564 192.72 391.564 193.339C391.564 193.989 391.313 194.585 390.639 194.585Z" fill="black"/>
<path d="M396.936 194.319C396.544 194.538 396.105 194.726 395.603 194.726C394.921 194.726 394.49 194.342 394.443 193.707H397.234C397.234 192.116 396.685 191.269 395.313 191.269C394.028 191.269 393.44 192.273 393.44 193.402C393.44 194.726 394.216 195.494 395.556 195.494C396.113 195.494 396.552 195.385 396.936 195.173V194.319ZM394.443 192.986C394.498 192.383 394.843 192.038 395.368 192.038C395.917 192.038 396.191 192.406 396.23 192.986H394.443Z" fill="black"/>
<path d="M399.128 195.4V193.739C399.128 192.484 399.59 192.273 399.982 192.273C400.17 192.273 400.359 192.304 400.453 192.359V191.301C400.421 191.293 400.359 191.269 400.139 191.269C399.528 191.269 399.089 191.857 399.026 192.281H399.01V191.364H398.078V195.4H399.128Z" fill="black"/>
<path d="M400.897 197.031C401.14 197.101 401.391 197.14 401.626 197.14C402.488 197.14 402.833 196.647 403.139 195.847L404.832 191.364H403.766L402.794 194.311H402.778L401.806 191.364H400.646L402.19 195.604C402.19 196.02 401.947 196.325 401.5 196.325C401.289 196.325 401.124 196.31 400.967 196.255L400.897 197.031Z" fill="black"/>
<path d="M87.6402 73.187H42.9766V138.152H87.6402V73.187Z" stroke="black" stroke-width="2.23954" stroke-miterlimit="10" stroke-linecap="round" stroke-linejoin="round"/>
<path d="M42.9256 153.852H87.9772C90.2194 153.852 92.0375 152.034 92.0375 149.792V71.8064C92.0375 69.5642 90.2194 67.7461 87.9772 67.7461H42.9256C40.6834 67.7461 38.8652 69.5642 38.8652 71.8064V149.796C38.8652 152.034 40.6834 153.852 42.9256 153.852Z" stroke="black" stroke-width="2.23954" stroke-miterlimit="10" stroke-linecap="round" stroke-linejoin="round"/>
<path d="M65.3074 148.953C67.1752 148.953 68.691 147.437 68.691 145.569C68.691 143.701 67.1752 142.186 65.3074 142.186C63.4397 142.186 61.9238 143.701 61.9238 145.569C61.9238 147.437 63.4397 148.953 65.3074 148.953Z" stroke="black" stroke-width="2.23954" stroke-miterlimit="10" stroke-linecap="round" stroke-linejoin="round"/>
<path d="M80.343 95.3019C70.5825 102.084 65.7404 91.8701 65.7404 91.8701C65.7404 91.8701 60.8984 102.084 51.1379 95.3019C51.1379 95.3019 46.9819 116.36 65.7404 125.366C84.499 116.359 80.343 95.3019 80.343 95.3019Z" stroke="black" stroke-width="1.67966" stroke-miterlimit="10" stroke-linecap="round" stroke-linejoin="round"/>
<path d="M59.4238 112.277L62.3189 115.507L72.1612 101.86" stroke="black" stroke-width="1.67966" stroke-miterlimit="10" stroke-linecap="round" stroke-linejoin="round"/>
<path d="M42.8321 175.755C42.8321 176.735 42.4794 177.275 41.6956 177.275C40.9117 177.275 40.559 176.735 40.559 175.755V172.572H39.4616V176.084C39.4616 177.377 40.1279 178.138 41.6956 178.138C43.2005 178.138 43.9295 177.432 43.9295 176.092V172.572H42.8321V175.755Z" fill="black"/>
<path d="M44.8441 177.965C45.2282 178.067 45.6436 178.138 46.0277 178.138C46.9683 178.138 47.7286 177.707 47.7286 176.821C47.7286 176.147 47.3524 175.81 46.5999 175.598C46.1217 175.465 45.9023 175.355 45.9023 175.128C45.9023 174.83 46.1609 174.681 46.5293 174.681C46.8586 174.681 47.1015 174.728 47.4621 174.853L47.5327 174.062C47.031 173.944 46.7175 173.913 46.3961 173.913C45.4868 173.913 44.8049 174.352 44.8049 175.167C44.8049 175.841 45.1733 176.131 45.8788 176.319C46.302 176.437 46.6312 176.539 46.6312 176.876C46.6312 177.26 46.2236 177.369 45.9415 177.369C45.5809 177.369 45.236 177.268 44.9068 177.103L44.8441 177.965Z" fill="black"/>
<path d="M51.7837 176.962C51.3918 177.181 50.9528 177.369 50.4512 177.369C49.7692 177.369 49.3381 176.985 49.2911 176.351H52.0816C52.0816 174.759 51.5329 173.913 50.1612 173.913C48.8757 173.913 48.2878 174.916 48.2878 176.045C48.2878 177.369 49.0638 178.138 50.4041 178.138C50.9607 178.138 51.3996 178.028 51.7837 177.816V176.962ZM49.2911 175.629C49.346 175.026 49.6909 174.681 50.216 174.681C50.7647 174.681 51.0391 175.049 51.0782 175.629H49.2911Z" fill="black"/>
<path d="M53.9758 178.044V176.382C53.9758 175.128 54.4383 174.916 54.8302 174.916C55.0183 174.916 55.2065 174.947 55.3005 175.002V173.944C55.2692 173.936 55.2065 173.913 54.987 173.913C54.3756 173.913 53.9366 174.501 53.8739 174.924H53.8582V174.007H52.9255V178.044H53.9758Z" fill="black"/>
<path d="M61.8377 178.044V175.488C61.8377 174.563 61.3987 173.913 60.466 173.913C59.9094 173.913 59.4548 174.171 59.1961 174.556H59.1805V172.165H58.1301V178.044H59.1805V176.092C59.1805 175.292 59.4862 174.728 60.1054 174.728C60.5679 174.728 60.7873 175.026 60.7873 175.763V178.044H61.8377Z" fill="black"/>
<path d="M66.3081 178.044C66.2611 177.503 66.2454 176.656 66.2454 176.445V175.614C66.2454 174.399 65.7124 173.913 64.5053 173.913C64.0193 173.913 63.4785 174.046 63.1022 174.218L63.1336 175.12C63.4863 174.853 63.9331 174.681 64.3799 174.681C64.9443 174.681 65.2891 174.861 65.2891 175.535V175.551H64.6386C63.063 175.551 62.6633 176.233 62.6633 176.931C62.6633 177.699 63.3452 178.138 64.0742 178.138C64.5758 178.138 65.0853 177.871 65.3205 177.44H65.3362C65.344 177.62 65.3518 177.895 65.3832 178.044H66.3081ZM65.2891 176.225C65.2891 177.048 64.8032 177.369 64.3329 177.369C63.9096 177.369 63.6666 177.189 63.6666 176.876C63.6666 176.398 64.082 176.178 64.8267 176.178H65.2891V176.225Z" fill="black"/>
<path d="M67.058 177.965C67.4421 178.067 67.8575 178.138 68.2416 178.138C69.1822 178.138 69.9425 177.707 69.9425 176.821C69.9425 176.147 69.5663 175.81 68.8138 175.598C68.3356 175.465 68.1162 175.355 68.1162 175.128C68.1162 174.83 68.3748 174.681 68.7432 174.681C69.0725 174.681 69.3154 174.728 69.676 174.853L69.7466 174.062C69.2449 173.944 68.9314 173.913 68.61 173.913C67.7007 173.913 67.0188 174.352 67.0188 175.167C67.0188 175.841 67.3872 176.131 68.0927 176.319C68.5159 176.437 68.8451 176.539 68.8451 176.876C68.8451 177.26 68.4375 177.369 68.1554 177.369C67.7948 177.369 67.4499 177.268 67.1207 177.103L67.058 177.965Z" fill="black"/>
<path d="M74.0393 178.044V175.966H74.5174C75.8421 175.966 76.6103 175.371 76.6103 174.226C76.6103 173.113 75.8029 172.572 74.3528 172.572H72.9419V178.044H74.0393ZM74.0393 175.104V173.435H74.4234C75.074 173.435 75.4659 173.717 75.4659 174.289C75.4659 174.798 75.1524 175.104 74.4077 175.104H74.0393Z" fill="black"/>
<path d="M78.9278 178.138C80.182 178.138 80.8404 177.142 80.8404 175.324C80.8404 173.466 80.182 172.478 78.9278 172.478C77.6502 172.478 77.0309 173.599 77.0309 175.324C77.0309 177.244 77.6815 178.138 78.9278 178.138ZM78.9278 177.322C78.1597 177.322 78.1283 176.178 78.1283 175.3C78.1283 174.454 78.1753 173.294 78.92 173.294C79.7195 173.294 79.743 174.501 79.743 175.324C79.743 176.139 79.7195 177.322 78.9278 177.322Z" fill="black"/>
<path d="M41.6407 187.562L43.13 183.525H42.0796L41.1077 186.464H41.092L40.0887 183.525H38.96L40.4571 187.562H41.6407Z" fill="black"/>
<path d="M46.9995 186.48C46.6076 186.699 46.1687 186.888 45.667 186.888C44.9851 186.888 44.5539 186.503 44.5069 185.869H47.2974C47.2974 184.277 46.7487 183.431 45.377 183.431C44.0915 183.431 43.5036 184.434 43.5036 185.563C43.5036 186.888 44.2796 187.656 45.62 187.656C46.1765 187.656 46.6154 187.546 46.9995 187.334V186.48ZM44.5069 185.147C44.5618 184.544 44.9067 184.199 45.4318 184.199C45.9805 184.199 46.2549 184.567 46.2941 185.147H44.5069Z" fill="black"/>
<path d="M49.1916 187.562V185.9C49.1916 184.646 49.6541 184.434 50.046 184.434C50.2342 184.434 50.4223 184.465 50.5163 184.52V183.462C50.485 183.454 50.4223 183.431 50.2028 183.431C49.5914 183.431 49.1525 184.019 49.0897 184.442H49.0741V183.525H48.1413V187.562H49.1916Z" fill="black"/>
<path d="M52.2382 182.788V181.785H51.1879V182.788H52.2382ZM52.2382 187.562V183.525H51.1879V187.562H52.2382Z" fill="black"/>
<path d="M54.7804 187.562V184.293H55.6975V183.525H54.7804V183.023C54.7804 182.639 54.9371 182.404 55.2428 182.404C55.4074 182.404 55.5328 182.443 55.6975 182.545L55.7837 181.675C55.5799 181.628 55.2742 181.589 55.0312 181.589C54.0827 181.589 53.73 182.271 53.73 182.953V183.525H52.954V184.293H53.73V187.562H54.7804ZM57.4611 182.788V181.785H56.4107V182.788H57.4611ZM57.4611 187.562V183.525H56.4107V187.562H57.4611Z" fill="black"/>
<path d="M61.3097 186.652C61.0353 186.77 60.7296 186.841 60.5023 186.841C59.7969 186.841 59.4128 186.308 59.4128 185.524C59.4128 184.763 59.8282 184.246 60.4867 184.246C60.7767 184.246 60.9883 184.301 61.1921 184.395L61.2862 183.564C60.9962 183.478 60.6826 183.431 60.275 183.431C59.0366 183.431 58.3154 184.317 58.3154 185.524C58.3154 186.841 59.0522 187.656 60.3142 187.656C60.7453 187.656 61.0432 187.617 61.3567 187.522L61.3097 186.652Z" fill="black"/>
<path d="M65.4432 187.562C65.3961 187.021 65.3804 186.174 65.3804 185.963V185.132C65.3804 183.917 64.8474 183.431 63.6403 183.431C63.1543 183.431 62.6135 183.564 62.2373 183.737L62.2686 184.638C62.6213 184.371 63.0681 184.199 63.5149 184.199C64.0793 184.199 64.4242 184.379 64.4242 185.053V185.069H63.7736C62.1981 185.069 61.7983 185.751 61.7983 186.449C61.7983 187.217 62.4802 187.656 63.2092 187.656C63.7109 187.656 64.2204 187.389 64.4555 186.958H64.4712C64.479 187.138 64.4869 187.413 64.5182 187.562H65.4432ZM64.4242 185.743C64.4242 186.566 63.9382 186.888 63.4679 186.888C63.0446 186.888 62.8016 186.707 62.8016 186.394C62.8016 185.916 63.217 185.696 63.9617 185.696H64.4242V185.743Z" fill="black"/>
<path d="M68.7797 186.731C68.6699 186.801 68.4897 186.841 68.3094 186.841C67.941 186.841 67.8077 186.59 67.8077 186.166V184.293H68.7405V183.525H67.8077V182.38L66.7574 182.718V183.525H65.9814V184.293H66.7574V186.347C66.7574 187.123 67.1885 187.656 68.0429 187.656C68.3486 187.656 68.5916 187.624 68.811 187.562L68.7797 186.731Z" fill="black"/>
<path d="M70.5329 182.788V181.785H69.4826V182.788H70.5329ZM70.5329 187.562V183.525H69.4826V187.562H70.5329Z" fill="black"/>
<path d="M75.6069 185.571C75.6069 184.27 74.7211 183.431 73.4905 183.431C72.2599 183.431 71.382 184.277 71.382 185.571C71.382 186.762 72.1893 187.656 73.4905 187.656C74.7917 187.656 75.6069 186.77 75.6069 185.571ZM73.4905 186.841C72.8086 186.841 72.4793 186.3 72.4793 185.445C72.4793 184.81 72.8321 184.246 73.4905 184.246C74.1646 184.246 74.5095 184.803 74.5095 185.445C74.5095 186.315 74.1724 186.841 73.4905 186.841Z" fill="black"/>
<path d="M80.14 187.562V185.014C80.14 184.066 79.6932 183.431 78.7683 183.431C78.2118 183.431 77.765 183.619 77.4436 184.074H77.4279V183.525H76.4325V187.562H77.4828V185.602C77.4828 184.889 77.7415 184.246 78.4077 184.246C78.9643 184.246 79.0897 184.693 79.0897 185.296V187.562H80.14Z" fill="black"/>
<path d="M114.717 116.43C117.957 116.43 120.582 113.804 120.582 110.565C120.582 107.326 117.957 104.7 114.717 104.7C111.478 104.7 108.853 107.326 108.853 110.565C108.853 113.804 111.478 116.43 114.717 116.43Z" stroke="black" stroke-width="2.23954" stroke-miterlimit="10" stroke-linecap="round" stroke-linejoin="round"/>
<path d="M169.585 116.429C172.824 116.429 175.45 113.803 175.45 110.564C175.45 107.325 172.824 104.699 169.585 104.699C166.346 104.699 163.72 107.325 163.72 110.564C163.72 113.803 166.346 116.429 169.585 116.429Z" stroke="black" stroke-width="2.23954" stroke-miterlimit="10" stroke-linecap="round" stroke-linejoin="round"/>
<path fill-rule="evenodd" clip-rule="evenodd" d="M119.489 110.297C119.489 109.679 119.991 109.177 120.609 109.177L124.108 109.177C124.727 109.177 125.228 109.679 125.228 110.297C125.228 110.916 124.727 111.417 124.108 111.417L120.609 111.417C119.991 111.417 119.489 110.916 119.489 110.297ZM129.987 110.297C129.987 109.679 130.488 109.177 131.107 109.177L138.105 109.177C138.724 109.177 139.225 109.679 139.225 110.297C139.225 110.916 138.724 111.417 138.105 111.417L131.107 111.417C130.488 111.417 129.987 110.916 129.987 110.297ZM143.984 110.297C143.984 109.679 144.486 109.177 145.104 109.177L152.103 109.177C152.721 109.177 153.222 109.679 153.222 110.297C153.222 110.916 152.721 111.417 152.103 111.417L145.104 111.417C144.486 111.417 143.984 110.916 143.984 110.297ZM157.981 110.297C157.981 109.679 158.483 109.177 159.101 109.177L162.6 109.177C163.219 109.177 163.72 109.679 163.72 110.297C163.72 110.916 163.219 111.417 162.6 111.417L159.101 111.417C158.483 111.417 157.981 110.916 157.981 110.297Z" fill="black"/>
</svg>
